<svg xmlns="http://www.w3.org/2000/svg" xmlns:xlink="http://www.w3.org/1999/xlink" width="160" zoomAndPan="magnify" viewBox="0 0 120 119.999999" height="160" preserveAspectRatio="xMidYMid meet" version="1.0"><defs><g/><clipPath id="7da2fabf90"><path d="M 5 3 L 22 3 L 22 10 L 5 10 Z M 5 3 " clip-rule="nonzero"/></clipPath><clipPath id="faa63dd611"><path d="M 19.808594 0.914062 L 22.929688 9.4375 L 7.273438 15.175781 L 4.148438 6.652344 Z M 19.808594 0.914062 " clip-rule="nonzero"/></clipPath><clipPath id="189dea95bd"><path d="M 19.808594 0.914062 L 22.929688 9.4375 L 7.273438 15.175781 L 4.148438 6.652344 Z M 19.808594 0.914062 " clip-rule="nonzero"/></clipPath><clipPath id="657c1307fe"><path d="M 0.761719 9 L 25.238281 9 L 25.238281 19 L 0.761719 19 Z M 0.761719 9 " clip-rule="nonzero"/></clipPath><clipPath id="44c993923c"><rect x="0" width="26" y="0" height="10"/></clipPath><clipPath id="2a9709c9de"><path d="M 4 12 L 23 12 L 23 26.441406 L 4 26.441406 Z M 4 12 " clip-rule="nonzero"/></clipPath><clipPath id="b1d290561a"><path d="M 19.808594 12.074219 L 22.929688 20.597656 L 7.273438 26.335938 L 4.148438 17.8125 Z M 19.808594 12.074219 " clip-rule="nonzero"/></clipPath><clipPath id="22bd498415"><path d="M 1 5 L 18 5 L 18 12 L 1 12 Z M 1 5 " clip-rule="nonzero"/></clipPath><clipPath id="a61d16e059"><path d="M 15.808594 0.0742188 L 18.929688 8.597656 L 3.273438 14.335938 L 0.148438 5.8125 Z M 15.808594 0.0742188 " clip-rule="nonzero"/></clipPath><clipPath id="18f0ec8fa6"><path d="M 3.273438 14.347656 L 0.148438 5.824219 L 15.808594 0.0859375 L 18.933594 8.609375 Z M 3.273438 14.347656 " clip-rule="nonzero"/></clipPath><clipPath id="4f28c7eb84"><rect x="0" width="19" y="0" height="15"/></clipPath><clipPath id="4121f9ed08"><rect x="0" width="26" y="0" height="27"/></clipPath><clipPath id="07710a3e12"><path d="M 33.636719 46 L 60 46 L 60 80.398438 L 33.636719 80.398438 Z M 33.636719 46 " clip-rule="nonzero"/></clipPath><clipPath id="a9bfa0e5da"><path d="M 82 53 L 86.136719 53 L 86.136719 54 L 82 54 Z M 82 53 " clip-rule="nonzero"/></clipPath></defs><rect x="-12" width="144" fill="#ffffff" y="-12" height="143.999998" fill-opacity="1"/><rect x="-12" width="144" fill="#ffffff" y="-12" height="143.999998" fill-opacity="1"/><g transform="matrix(1, 0, 0, 1, 47, 89)"><g clip-path="url(#4121f9ed08)"><g clip-path="url(#7da2fabf90)"><g clip-path="url(#faa63dd611)"><g clip-path="url(#189dea95bd)"><path fill="#212121" d="M 21.421875 5.347656 C 21.328125 5.09375 21.230469 4.933594 21.144531 4.917969 C 20.773438 4.863281 20.609375 6.242188 20.539062 7.128906 C 19.863281 6.332031 18.867188 5.441406 17.488281 4.792969 C 16.117188 4.148438 14.511719 3.824219 12.867188 3.960938 C 11.109375 4.105469 9.5 4.761719 8.234375 5.691406 C 6.539062 6.9375 5.65625 8.492188 5.210938 9.53125 C 5.660156 8.484375 6.605469 6.972656 8.332031 5.832031 C 9.621094 4.980469 11.210938 4.4375 12.890625 4.394531 C 14.460938 4.359375 15.945312 4.753906 17.179688 5.417969 C 18.449219 6.097656 19.332031 6.980469 19.929688 7.734375 C 19.046875 7.5625 17.449219 7.300781 17.402344 7.65625 C 17.339844 8.144531 21.203125 10.082031 21.808594 9.636719 C 22.226562 9.324219 21.835938 6.453125 21.421875 5.347656 Z M 21.421875 5.347656 " fill-opacity="1" fill-rule="nonzero"/></g></g></g><g clip-path="url(#657c1307fe)"><g transform="matrix(1, 0, 0, 1, 0, 9)"><g clip-path="url(#44c993923c)"><g fill="#000000" fill-opacity="1"><g transform="translate(0.81023, 7.19389)"><g><path d="M 2.28125 0.09375 C 1.875 0.09375 1.484375 0.0390625 1.109375 -0.0625 C 0.734375 -0.175781 0.429688 -0.320312 0.203125 -0.5 L 0.609375 -1.390625 C 0.828125 -1.234375 1.082031 -1.101562 1.375 -1 C 1.675781 -0.90625 1.976562 -0.859375 2.28125 -0.859375 C 2.613281 -0.859375 2.859375 -0.90625 3.015625 -1 C 3.179688 -1.101562 3.265625 -1.238281 3.265625 -1.40625 C 3.265625 -1.53125 3.21875 -1.628906 3.125 -1.703125 C 3.03125 -1.785156 2.910156 -1.847656 2.765625 -1.890625 C 2.617188 -1.941406 2.414062 -2 2.15625 -2.0625 C 1.769531 -2.15625 1.453125 -2.242188 1.203125 -2.328125 C 0.960938 -2.421875 0.753906 -2.570312 0.578125 -2.78125 C 0.398438 -2.988281 0.3125 -3.257812 0.3125 -3.59375 C 0.3125 -3.894531 0.390625 -4.164062 0.546875 -4.40625 C 0.703125 -4.644531 0.941406 -4.832031 1.265625 -4.96875 C 1.585938 -5.113281 1.984375 -5.1875 2.453125 -5.1875 C 2.773438 -5.1875 3.09375 -5.144531 3.40625 -5.0625 C 3.71875 -4.988281 3.988281 -4.878906 4.21875 -4.734375 L 3.859375 -3.84375 C 3.390625 -4.101562 2.921875 -4.234375 2.453125 -4.234375 C 2.117188 -4.234375 1.875 -4.179688 1.71875 -4.078125 C 1.5625 -3.972656 1.484375 -3.832031 1.484375 -3.65625 C 1.484375 -3.476562 1.570312 -3.347656 1.75 -3.265625 C 1.9375 -3.179688 2.210938 -3.097656 2.578125 -3.015625 C 2.972656 -2.921875 3.289062 -2.828125 3.53125 -2.734375 C 3.78125 -2.640625 3.992188 -2.492188 4.171875 -2.296875 C 4.347656 -2.097656 4.4375 -1.832031 4.4375 -1.5 C 4.4375 -1.207031 4.351562 -0.9375 4.1875 -0.6875 C 4.03125 -0.445312 3.789062 -0.253906 3.46875 -0.109375 C 3.144531 0.0234375 2.75 0.09375 2.28125 0.09375 Z M 2.28125 0.09375 "/></g></g></g><g fill="#000000" fill-opacity="1"><g transform="translate(5.073316, 7.19389)"><g><path d="M 0.53125 -3.921875 L 1.65625 -3.921875 L 1.65625 0 L 0.53125 0 Z M 1.09375 -4.46875 C 0.882812 -4.46875 0.710938 -4.523438 0.578125 -4.640625 C 0.453125 -4.765625 0.390625 -4.914062 0.390625 -5.09375 C 0.390625 -5.269531 0.453125 -5.421875 0.578125 -5.546875 C 0.710938 -5.671875 0.882812 -5.734375 1.09375 -5.734375 C 1.300781 -5.734375 1.46875 -5.671875 1.59375 -5.546875 C 1.726562 -5.429688 1.796875 -5.289062 1.796875 -5.125 C 1.796875 -4.925781 1.726562 -4.765625 1.59375 -4.640625 C 1.46875 -4.523438 1.300781 -4.46875 1.09375 -4.46875 Z M 1.09375 -4.46875 "/></g></g></g><g fill="#000000" fill-opacity="1"><g transform="translate(6.880514, 7.19389)"><g><path d="M 5.546875 -3.96875 C 6.035156 -3.96875 6.421875 -3.820312 6.703125 -3.53125 C 6.992188 -3.25 7.140625 -2.820312 7.140625 -2.25 L 7.140625 0 L 6 0 L 6 -2.0625 C 6 -2.375 5.9375 -2.609375 5.8125 -2.765625 C 5.6875 -2.921875 5.503906 -3 5.265625 -3 C 4.992188 -3 4.78125 -2.910156 4.625 -2.734375 C 4.46875 -2.554688 4.390625 -2.300781 4.390625 -1.96875 L 4.390625 0 L 3.265625 0 L 3.265625 -2.0625 C 3.265625 -2.6875 3.015625 -3 2.515625 -3 C 2.253906 -3 2.046875 -2.910156 1.890625 -2.734375 C 1.734375 -2.554688 1.65625 -2.300781 1.65625 -1.96875 L 1.65625 0 L 0.53125 0 L 0.53125 -3.921875 L 1.609375 -3.921875 L 1.609375 -3.46875 C 1.753906 -3.632812 1.929688 -3.757812 2.140625 -3.84375 C 2.359375 -3.925781 2.59375 -3.96875 2.84375 -3.96875 C 3.113281 -3.96875 3.359375 -3.910156 3.578125 -3.796875 C 3.804688 -3.691406 3.988281 -3.535156 4.125 -3.328125 C 4.289062 -3.535156 4.492188 -3.691406 4.734375 -3.796875 C 4.984375 -3.910156 5.253906 -3.96875 5.546875 -3.96875 Z M 5.546875 -3.96875 "/></g></g></g><g fill="#000000" fill-opacity="1"><g transform="translate(14.138764, 7.19389)"><g><path d="M 2.84375 -3.96875 C 3.207031 -3.96875 3.535156 -3.882812 3.828125 -3.71875 C 4.128906 -3.550781 4.363281 -3.316406 4.53125 -3.015625 C 4.707031 -2.710938 4.796875 -2.359375 4.796875 -1.953125 C 4.796875 -1.554688 4.707031 -1.203125 4.53125 -0.890625 C 4.363281 -0.585938 4.128906 -0.351562 3.828125 -0.1875 C 3.535156 -0.0195312 3.207031 0.0625 2.84375 0.0625 C 2.34375 0.0625 1.945312 -0.0976562 1.65625 -0.421875 L 1.65625 1.40625 L 0.53125 1.40625 L 0.53125 -3.921875 L 1.609375 -3.921875 L 1.609375 -3.46875 C 1.890625 -3.800781 2.300781 -3.96875 2.84375 -3.96875 Z M 2.640625 -0.875 C 2.929688 -0.875 3.171875 -0.972656 3.359375 -1.171875 C 3.546875 -1.367188 3.640625 -1.628906 3.640625 -1.953125 C 3.640625 -2.285156 3.546875 -2.550781 3.359375 -2.75 C 3.171875 -2.945312 2.929688 -3.046875 2.640625 -3.046875 C 2.347656 -3.046875 2.109375 -2.945312 1.921875 -2.75 C 1.734375 -2.550781 1.640625 -2.285156 1.640625 -1.953125 C 1.640625 -1.628906 1.734375 -1.367188 1.921875 -1.171875 C 2.109375 -0.972656 2.347656 -0.875 2.640625 -0.875 Z M 2.640625 -0.875 "/></g></g></g><g fill="#000000" fill-opacity="1"><g transform="translate(18.7808, 7.19389)"><g><path d="M 0.53125 -5.40625 L 1.65625 -5.40625 L 1.65625 0 L 0.53125 0 Z M 0.53125 -5.40625 "/></g></g></g><g fill="#000000" fill-opacity="1"><g transform="translate(20.587998, 7.19389)"><g><path d="M 4.359375 -1.9375 C 4.359375 -1.925781 4.351562 -1.828125 4.34375 -1.640625 L 1.375 -1.640625 C 1.425781 -1.398438 1.550781 -1.207031 1.75 -1.0625 C 1.945312 -0.925781 2.195312 -0.859375 2.5 -0.859375 C 2.695312 -0.859375 2.875 -0.882812 3.03125 -0.9375 C 3.195312 -1 3.347656 -1.097656 3.484375 -1.234375 L 4.078125 -0.578125 C 3.710938 -0.148438 3.175781 0.0625 2.46875 0.0625 C 2.03125 0.0625 1.640625 -0.0195312 1.296875 -0.1875 C 0.953125 -0.363281 0.6875 -0.601562 0.5 -0.90625 C 0.320312 -1.21875 0.234375 -1.566406 0.234375 -1.953125 C 0.234375 -2.335938 0.320312 -2.679688 0.5 -2.984375 C 0.6875 -3.296875 0.9375 -3.535156 1.25 -3.703125 C 1.570312 -3.878906 1.929688 -3.96875 2.328125 -3.96875 C 2.703125 -3.96875 3.046875 -3.882812 3.359375 -3.71875 C 3.671875 -3.5625 3.914062 -3.328125 4.09375 -3.015625 C 4.269531 -2.710938 4.359375 -2.351562 4.359375 -1.9375 Z M 2.328125 -3.109375 C 2.066406 -3.109375 1.847656 -3.035156 1.671875 -2.890625 C 1.503906 -2.742188 1.398438 -2.546875 1.359375 -2.296875 L 3.296875 -2.296875 C 3.253906 -2.546875 3.144531 -2.742188 2.96875 -2.890625 C 2.789062 -3.035156 2.578125 -3.109375 2.328125 -3.109375 Z M 2.328125 -3.109375 "/></g></g></g></g></g></g><g clip-path="url(#2a9709c9de)"><g clip-path="url(#b1d290561a)"><g transform="matrix(1, 0, 0, 1, 4, 12)"><g clip-path="url(#4f28c7eb84)"><g clip-path="url(#22bd498415)"><g clip-path="url(#a61d16e059)"><g clip-path="url(#18f0ec8fa6)"><path fill="#212121" d="M 1.65625 9.914062 C 1.753906 10.167969 1.847656 10.328125 1.9375 10.339844 C 2.304688 10.398438 2.472656 9.019531 2.542969 8.132812 C 3.214844 8.929688 4.210938 9.820312 5.589844 10.464844 C 6.960938 11.109375 8.570312 11.433594 10.210938 11.300781 C 11.972656 11.15625 13.578125 10.5 14.847656 9.570312 C 16.539062 8.324219 17.421875 6.769531 17.871094 5.730469 C 17.417969 6.777344 16.472656 8.289062 14.75 9.429688 C 13.460938 10.28125 11.867188 10.824219 10.1875 10.867188 C 8.621094 10.902344 7.136719 10.503906 5.902344 9.84375 C 4.632812 9.164062 3.746094 8.28125 3.152344 7.527344 C 4.03125 7.699219 5.632812 7.960938 5.675781 7.605469 C 5.738281 7.117188 1.875 5.179688 1.269531 5.625 C 0.851562 5.933594 1.242188 8.808594 1.65625 9.914062 Z M 1.65625 9.914062 " fill-opacity="1" fill-rule="nonzero"/></g></g></g></g></g></g></g></g></g><path fill="#000000" d="M 60.996094 63.035156 L 60.652344 63.035156 L 60.652344 65.414062 L 69.636719 65.414062 L 69.636719 63.035156 L 64.4375 63.035156 C 63.921875 63.308594 63.339844 63.46875 62.71875 63.46875 C 62.09375 63.46875 61.511719 63.308594 60.996094 63.035156 Z M 60.996094 63.035156 " fill-opacity="1" fill-rule="nonzero"/><path fill="#000000" d="M 57.144531 43.683594 C 57.261719 43.894531 57.324219 44.136719 57.324219 44.394531 C 57.324219 45.214844 56.667969 45.878906 55.859375 45.878906 C 55.050781 45.878906 54.394531 45.214844 54.394531 44.394531 C 54.394531 43.730469 54.824219 43.167969 55.421875 42.976562 C 54.308594 42.605469 53.464844 42.476562 53.171875 42.441406 C 52.207031 44.28125 52.683594 46.605469 54.386719 47.882812 C 54.988281 48.332031 55.664062 48.59375 56.355469 48.6875 C 56.820312 47.746094 58.03125 45.335938 58.484375 44.4375 C 58.03125 44.148438 57.582031 43.898438 57.144531 43.683594 Z M 57.144531 43.683594 " fill-opacity="1" fill-rule="nonzero"/><path fill="#000000" d="M 59.097656 40.777344 C 57.6875 39.914062 55.9375 39.976562 54.605469 40.855469 C 55.316406 41.113281 57.113281 41.589844 59.097656 40.777344 Z M 59.097656 40.777344 " fill-opacity="1" fill-rule="nonzero"/><path fill="#000000" d="M 59.460938 59.734375 C 59.460938 61.554688 60.917969 63.03125 62.71875 63.03125 C 64.515625 63.03125 65.972656 61.554688 65.972656 59.734375 C 65.972656 57.914062 64.515625 56.441406 62.71875 56.441406 C 60.917969 56.441406 59.460938 57.914062 59.460938 59.734375 Z M 62.71875 57.246094 C 64.074219 57.246094 65.175781 58.359375 65.175781 59.734375 C 65.175781 61.109375 64.074219 62.222656 62.71875 62.222656 C 61.359375 62.222656 60.257812 61.109375 60.257812 59.734375 C 60.257812 58.359375 61.359375 57.246094 62.71875 57.246094 Z M 62.71875 57.246094 " fill-opacity="1" fill-rule="nonzero"/><path fill="#000000" d="M 61.191406 59.734375 C 61.191406 60.589844 61.875 61.277344 62.71875 61.277344 C 63.558594 61.277344 64.242188 60.589844 64.242188 59.734375 C 64.242188 58.882812 63.558594 58.191406 62.71875 58.191406 C 61.875 58.191406 61.191406 58.882812 61.191406 59.734375 Z M 62.71875 59.277344 C 62.964844 59.277344 63.167969 59.484375 63.167969 59.734375 C 63.167969 59.988281 62.964844 60.191406 62.71875 60.191406 C 62.46875 60.191406 62.265625 59.988281 62.265625 59.734375 C 62.265625 59.484375 62.46875 59.277344 62.71875 59.277344 Z M 62.71875 59.277344 " fill-opacity="1" fill-rule="nonzero"/><g clip-path="url(#07710a3e12)"><path fill="#000000" d="M 43.6875 69.03125 C 44.414062 67.46875 45.117188 66.179688 45.78125 65.117188 C 45.859375 64.988281 45.9375 64.863281 46.015625 64.742188 L 49.265625 67.671875 L 46.011719 77.214844 C 45.589844 78.457031 46.242188 79.808594 47.46875 80.238281 C 47.722656 80.328125 47.980469 80.367188 48.238281 80.367188 C 49.210938 80.367188 50.125 79.75 50.460938 78.765625 L 54.222656 67.726562 C 54.53125 66.816406 54.269531 65.8125 53.5625 65.171875 L 49.0625 61.117188 C 49.128906 61.0625 49.195312 61.007812 49.257812 60.960938 C 49.308594 60.917969 49.359375 60.882812 49.410156 60.84375 C 49.761719 60.585938 50.078125 60.394531 50.351562 60.261719 L 49.710938 59.742188 C 49.441406 59.894531 49.152344 60.085938 48.839844 60.328125 C 48.824219 60.339844 48.8125 60.347656 48.796875 60.359375 C 48.695312 60.4375 48.597656 60.519531 48.496094 60.605469 L 47.6875 59.875 C 47.855469 59.371094 48.058594 58.871094 48.285156 58.371094 C 48.304688 58.324219 48.324219 58.277344 48.347656 58.230469 C 48.34375 58.203125 48.34375 58.175781 48.34375 58.148438 L 44.394531 54.953125 C 43.9375 54.582031 43.671875 54.027344 43.667969 53.429688 C 43.664062 52.835938 43.925781 52.277344 44.382812 51.902344 L 48.191406 48.761719 C 48.535156 48.476562 48.96875 48.320312 49.414062 48.320312 C 50 48.320312 50.546875 48.582031 50.917969 49.042969 C 51.242188 49.449219 51.394531 49.960938 51.34375 50.480469 C 51.289062 51 51.039062 51.46875 50.636719 51.800781 L 48.691406 53.40625 L 50.316406 54.722656 C 50.535156 54.382812 50.75 54.050781 50.964844 53.730469 L 51.207031 55.078125 C 51.339844 55.109375 51.460938 55.164062 51.5625 55.246094 L 54.105469 57.304688 C 54.15625 57.34375 54.203125 57.386719 54.246094 57.433594 L 57.613281 57.542969 L 57.613281 58.300781 L 54.890625 58.527344 C 55.074219 59.222656 54.941406 59.992188 54.464844 60.59375 C 54.382812 60.703125 54.285156 60.796875 54.1875 60.886719 L 59.378906 61.3125 C 59.15625 60.832031 59.027344 60.300781 59.027344 59.734375 C 59.027344 59.171875 59.15625 58.636719 59.378906 58.15625 L 58.804688 58.203125 L 58.804688 57.457031 C 59.347656 57.242188 59.738281 56.714844 59.757812 56.085938 C 59.78125 55.425781 59.378906 54.851562 58.804688 54.621094 L 58.804688 53.976562 L 57.613281 53.976562 L 57.613281 54.496094 L 54.140625 54.382812 L 53.082031 48.484375 C 53.050781 48.304688 52.984375 48.140625 52.898438 47.988281 C 52.75 47.644531 52.53125 47.34375 52.230469 47.113281 C 50.902344 46.109375 48.421875 46.011719 46.480469 48.207031 C 43.976562 51.078125 42.757812 53.199219 41.640625 56.871094 C 41.578125 57.085938 41.511719 57.304688 41.445312 57.53125 C 41.257812 58.445312 41.289062 59.183594 41.460938 59.789062 C 41.515625 60.363281 41.777344 60.917969 42.234375 61.335938 L 45.445312 64.226562 C 45.367188 64.347656 45.285156 64.472656 45.207031 64.601562 C 44.464844 65.789062 43.726562 67.160156 43.007812 68.707031 C 41.316406 72.339844 39.347656 74.519531 37.308594 75.015625 C 35.558594 75.441406 34.351562 74.511719 34.300781 74.472656 C 34.136719 74.339844 33.902344 74.371094 33.773438 74.535156 C 33.644531 74.699219 33.671875 74.9375 33.835938 75.070312 C 33.886719 75.109375 34.878906 75.886719 36.398438 75.886719 C 36.730469 75.886719 37.089844 75.851562 37.464844 75.761719 C 39.773438 75.210938 41.867188 72.945312 43.6875 69.03125 Z M 43.6875 69.03125 " fill-opacity="1" fill-rule="nonzero"/></g><path fill="#000000" d="M 71.53125 79.878906 L 73.414062 79.878906 L 73.414062 66.078125 L 56.859375 66.078125 L 56.859375 79.878906 L 58.742188 79.878906 L 58.742188 78.164062 L 71.53125 78.164062 Z M 57.808594 77.460938 C 57.660156 77.460938 57.542969 77.339844 57.542969 77.191406 C 57.542969 77.039062 57.660156 76.921875 57.808594 76.921875 C 57.957031 76.921875 58.074219 77.039062 58.074219 77.191406 C 58.074219 77.339844 57.957031 77.460938 57.808594 77.460938 Z M 57.808594 67.324219 C 57.660156 67.324219 57.542969 67.203125 57.542969 67.054688 C 57.542969 66.90625 57.660156 66.785156 57.808594 66.785156 C 57.957031 66.785156 58.074219 66.90625 58.074219 67.054688 C 58.074219 67.203125 57.957031 67.324219 57.808594 67.324219 Z M 71.53125 76.261719 L 58.742188 76.261719 L 58.742188 67.980469 L 71.53125 67.980469 Z M 72.480469 66.785156 C 72.628906 66.785156 72.746094 66.90625 72.746094 67.054688 C 72.746094 67.203125 72.628906 67.324219 72.480469 67.324219 C 72.332031 67.324219 72.214844 67.203125 72.214844 67.054688 C 72.214844 66.90625 72.332031 66.785156 72.480469 66.785156 Z M 72.480469 76.921875 C 72.628906 76.921875 72.746094 77.039062 72.746094 77.191406 C 72.746094 77.339844 72.628906 77.460938 72.480469 77.460938 C 72.332031 77.460938 72.214844 77.339844 72.214844 77.191406 C 72.214844 77.039062 72.332031 76.921875 72.480469 76.921875 Z M 72.480469 76.921875 " fill-opacity="1" fill-rule="nonzero"/><path fill="#000000" d="M 57.261719 51.035156 L 60.808594 46.339844 C 60.175781 45.683594 59.511719 45.136719 58.847656 44.679688 C 58.316406 45.738281 56.863281 48.621094 56.601562 49.171875 C 56.433594 49.515625 56.847656 50.390625 57.261719 51.035156 Z M 57.261719 51.035156 " fill-opacity="1" fill-rule="nonzero"/><path fill="#000000" d="M 61.308594 46.234375 C 61.867188 45.363281 62.09375 44.328125 61.941406 43.292969 C 61.785156 42.214844 61.238281 41.261719 60.402344 40.589844 C 57.589844 42.414062 54.832031 41.429688 54.214844 41.171875 C 53.824219 41.484375 53.570312 41.816406 53.425781 42.035156 C 54.554688 42.207031 58.324219 43.007812 61.308594 46.234375 Z M 61.308594 46.234375 " fill-opacity="1" fill-rule="nonzero"/><path fill="#000000" d="M 56.824219 44.394531 C 56.824219 44.664062 56.730469 44.894531 56.539062 45.085938 C 56.351562 45.273438 56.125 45.371094 55.859375 45.371094 C 55.59375 45.371094 55.367188 45.273438 55.175781 45.085938 C 54.988281 44.894531 54.894531 44.664062 54.894531 44.394531 C 54.894531 44.125 54.988281 43.894531 55.175781 43.703125 C 55.367188 43.515625 55.59375 43.417969 55.859375 43.417969 C 56.125 43.417969 56.351562 43.515625 56.539062 43.703125 C 56.730469 43.894531 56.824219 44.125 56.824219 44.394531 Z M 56.824219 44.394531 " fill-opacity="1" fill-rule="nonzero"/><g clip-path="url(#a9bfa0e5da)"><path fill="#000000" d="M 82.773438 53.414062 L 82.832031 53.847656 C 83.910156 53.699219 85.027344 53.597656 86.152344 53.546875 L 86.132812 53.109375 C 84.996094 53.160156 83.863281 53.261719 82.773438 53.414062 Z M 82.773438 53.414062 " fill-opacity="1" fill-rule="nonzero"/></g><path fill="#000000" d="M 81.800781 54.007812 L 81.730469 53.578125 C 81.082031 53.6875 80.429688 53.820312 79.800781 53.96875 L 79.898438 54.394531 C 80.519531 54.246094 81.160156 54.117188 81.800781 54.007812 Z M 81.800781 54.007812 " fill-opacity="1" fill-rule="nonzero"/><path fill="#000000" d="M 71.3125 57.402344 L 71.539062 57.777344 C 73.21875 56.746094 75.058594 55.886719 77 55.222656 L 76.863281 54.808594 C 74.890625 55.484375 73.023438 56.355469 71.3125 57.402344 Z M 71.3125 57.402344 " fill-opacity="1" fill-rule="nonzero"/><path fill="#000000" d="M 70.820312 58.230469 L 70.585938 57.863281 C 69.992188 58.253906 69.421875 58.667969 68.878906 59.09375 L 69.144531 59.4375 C 69.675781 59.019531 70.238281 58.613281 70.820312 58.230469 Z M 70.820312 58.230469 " fill-opacity="1" fill-rule="nonzero"/><path fill="#000000" d="M 66.21875 62.277344 C 66.222656 62.269531 66.71875 61.605469 67.726562 60.65625 L 67.433594 60.335938 C 66.390625 61.3125 65.894531 61.988281 65.871094 62.015625 Z M 66.21875 62.277344 " fill-opacity="1" fill-rule="nonzero"/><path fill="#000000" d="M 80.191406 57.375 C 81.515625 57.410156 82.902344 57.570312 84.3125 57.855469 L 84.398438 57.425781 C 82.964844 57.136719 81.550781 56.972656 80.199219 56.9375 Z M 80.191406 57.375 " fill-opacity="1" fill-rule="nonzero"/><path fill="#000000" d="M 78.9375 56.9375 C 77.289062 56.992188 75.703125 57.246094 74.214844 57.6875 L 74.339844 58.109375 C 75.789062 57.675781 77.339844 57.429688 78.953125 57.375 Z M 78.9375 56.9375 " fill-opacity="1" fill-rule="nonzero"/><path fill="#000000" d="M 72.929688 58.128906 C 72.015625 58.488281 71.136719 58.925781 70.320312 59.429688 L 70.542969 59.804688 C 71.339844 59.3125 72.195312 58.886719 73.085938 58.539062 Z M 72.929688 58.128906 " fill-opacity="1" fill-rule="nonzero"/><path fill="#000000" d="M 69.386719 60.601562 L 69.125 60.253906 C 67.703125 61.335938 67.027344 62.261719 67 62.300781 L 67.347656 62.558594 C 67.355469 62.550781 68.015625 61.648438 69.386719 60.601562 Z M 69.386719 60.601562 " fill-opacity="1" fill-rule="nonzero"/><path fill="#000000" d="M 68.914062 57.671875 C 68.914062 57.839844 68.855469 57.980469 68.738281 58.097656 C 68.625 58.214844 68.484375 58.277344 68.320312 58.277344 C 68.152344 58.277344 68.015625 58.214844 67.898438 58.097656 C 67.78125 57.980469 67.722656 57.839844 67.722656 57.671875 C 67.722656 57.507812 67.78125 57.363281 67.898438 57.246094 C 68.015625 57.128906 68.152344 57.070312 68.320312 57.070312 C 68.484375 57.070312 68.625 57.128906 68.738281 57.246094 C 68.855469 57.363281 68.914062 57.507812 68.914062 57.671875 Z M 68.914062 57.671875 " fill-opacity="1" fill-rule="nonzero"/><path fill="#000000" d="M 67.574219 58.84375 C 67.574219 58.957031 67.535156 59.050781 67.457031 59.132812 C 67.378906 59.210938 67.28125 59.25 67.171875 59.25 C 67.058594 59.25 66.964844 59.210938 66.886719 59.132812 C 66.804688 59.050781 66.765625 58.957031 66.765625 58.84375 C 66.765625 58.730469 66.804688 58.632812 66.886719 58.554688 C 66.964844 58.472656 67.058594 58.433594 67.171875 58.433594 C 67.28125 58.433594 67.378906 58.472656 67.457031 58.554688 C 67.535156 58.632812 67.574219 58.730469 67.574219 58.84375 Z M 67.574219 58.84375 " fill-opacity="1" fill-rule="nonzero"/><path fill="#000000" d="M 72.171875 52.195312 C 72.171875 52.285156 72.140625 52.363281 72.078125 52.425781 C 72.015625 52.492188 71.9375 52.523438 71.847656 52.523438 C 71.761719 52.523438 71.683594 52.492188 71.621094 52.425781 C 71.558594 52.363281 71.527344 52.285156 71.527344 52.195312 C 71.527344 52.109375 71.558594 52.03125 71.621094 51.96875 C 71.683594 51.902344 71.761719 51.871094 71.847656 51.871094 C 71.9375 51.871094 72.015625 51.902344 72.078125 51.96875 C 72.140625 52.03125 72.171875 52.109375 72.171875 52.195312 Z M 72.171875 52.195312 " fill-opacity="1" fill-rule="nonzero"/><path fill="#000000" d="M 71.070312 44.070312 C 71.070312 44.160156 71.039062 44.238281 70.976562 44.300781 C 70.914062 44.363281 70.835938 44.398438 70.75 44.398438 C 70.660156 44.398438 70.582031 44.363281 70.519531 44.300781 C 70.457031 44.238281 70.425781 44.160156 70.425781 44.070312 C 70.425781 43.980469 70.457031 43.90625 70.519531 43.839844 C 70.582031 43.777344 70.660156 43.746094 70.75 43.746094 C 70.835938 43.746094 70.914062 43.777344 70.976562 43.839844 C 71.039062 43.90625 71.070312 43.980469 71.070312 44.070312 Z M 71.070312 44.070312 " fill-opacity="1" fill-rule="nonzero"/><path fill="#000000" d="M 68.058594 42.730469 C 68.058594 42.820312 68.027344 42.898438 67.964844 42.960938 C 67.902344 43.023438 67.828125 43.054688 67.738281 43.054688 C 67.648438 43.054688 67.574219 43.023438 67.511719 42.960938 C 67.449219 42.898438 67.417969 42.820312 67.417969 42.730469 C 67.417969 42.640625 67.449219 42.566406 67.511719 42.5 C 67.574219 42.4375 67.648438 42.40625 67.738281 42.40625 C 67.828125 42.40625 67.902344 42.4375 67.964844 42.5 C 68.027344 42.566406 68.058594 42.640625 68.058594 42.730469 Z M 68.058594 42.730469 " fill-opacity="1" fill-rule="nonzero"/><path fill="#000000" d="M 68.972656 55.589844 C 68.972656 55.59375 68.972656 55.597656 68.972656 55.597656 C 68.972656 55.867188 68.800781 56.09375 68.558594 56.171875 C 68.574219 56.492188 68.832031 56.75 69.152344 56.75 C 69.480469 56.75 69.75 56.480469 69.75 56.148438 C 69.75 55.925781 69.628906 55.734375 69.457031 55.628906 C 69.410156 55.636719 69.359375 55.640625 69.3125 55.640625 C 69.195312 55.640625 69.082031 55.621094 68.972656 55.589844 Z M 68.972656 55.589844 " fill-opacity="1" fill-rule="nonzero"/><path fill="#000000" d="M 67.121094 53.984375 C 67.730469 53.984375 68.238281 53.53125 68.328125 52.9375 C 68.328125 52.964844 68.332031 52.996094 68.332031 53.023438 C 68.332031 53.050781 68.328125 53.078125 68.328125 53.105469 C 68.375 53.132812 68.421875 53.15625 68.472656 53.179688 C 68.410156 53.21875 68.347656 53.265625 68.292969 53.316406 C 68.238281 53.558594 68.109375 53.769531 67.933594 53.933594 C 67.914062 54.027344 67.898438 54.125 67.898438 54.226562 C 67.898438 54.488281 67.980469 54.734375 68.121094 54.933594 C 67.871094 55.007812 67.6875 55.234375 67.6875 55.511719 C 67.6875 55.710938 67.785156 55.886719 67.933594 55.996094 C 68.03125 56.070312 68.152344 56.113281 68.285156 56.113281 C 68.597656 56.113281 68.851562 55.867188 68.875 55.554688 C 68.6875 55.484375 68.527344 55.367188 68.398438 55.21875 C 68.601562 55.371094 68.847656 55.460938 69.121094 55.460938 C 69.792969 55.460938 70.339844 54.90625 70.339844 54.226562 C 70.339844 53.914062 70.226562 53.628906 70.035156 53.410156 C 70.03125 53.40625 70.03125 53.402344 70.027344 53.398438 C 69.917969 53.421875 69.808594 53.433594 69.691406 53.433594 C 69.492188 53.433594 69.300781 53.394531 69.121094 53.332031 C 69.136719 53.332031 69.148438 53.332031 69.164062 53.332031 C 70.085938 53.332031 70.832031 52.574219 70.832031 51.640625 C 70.832031 51.554688 70.824219 51.46875 70.8125 51.386719 C 70.613281 51.386719 70.425781 51.347656 70.25 51.285156 C 70.261719 51.285156 70.277344 51.285156 70.292969 51.285156 C 71.214844 51.285156 71.960938 50.527344 71.960938 49.59375 C 71.960938 48.867188 71.503906 48.246094 70.863281 48.007812 C 70.6875 47.941406 70.492188 47.90625 70.292969 47.90625 C 69.757812 47.90625 69.28125 48.160156 68.972656 48.558594 C 69.089844 48.785156 69.152344 49.042969 69.152344 49.316406 C 69.152344 50.15625 68.546875 50.851562 67.75 50.984375 C 68.378906 50.742188 68.828125 50.125 68.828125 49.40625 C 68.828125 48.472656 68.078125 47.714844 67.15625 47.714844 C 67.066406 47.714844 66.976562 47.722656 66.890625 47.738281 C 66.09375 47.867188 65.484375 48.5625 65.484375 49.40625 C 65.484375 50.339844 66.234375 51.09375 67.15625 51.09375 C 67.3125 51.09375 67.460938 51.074219 67.605469 51.03125 C 67.539062 51.203125 67.503906 51.382812 67.496094 51.574219 C 67.378906 51.535156 67.253906 51.515625 67.121094 51.515625 C 66.449219 51.515625 65.902344 52.066406 65.902344 52.75 C 65.902344 52.78125 65.902344 52.808594 65.90625 52.835938 C 65.949219 53.480469 66.476562 53.984375 67.121094 53.984375 Z M 67.121094 53.984375 " fill-opacity="1" fill-rule="nonzero"/><path fill="#000000" d="M 65.15625 47.589844 C 65.15625 47.746094 65.125 47.898438 65.066406 48.042969 C 65.007812 48.1875 64.921875 48.3125 64.8125 48.425781 C 64.703125 48.535156 64.578125 48.621094 64.433594 48.679688 C 64.292969 48.742188 64.144531 48.769531 63.988281 48.769531 C 63.832031 48.769531 63.683594 48.742188 63.542969 48.679688 C 63.398438 48.621094 63.273438 48.535156 63.164062 48.425781 C 63.054688 48.3125 62.96875 48.1875 62.910156 48.042969 C 62.851562 47.898438 62.820312 47.746094 62.820312 47.589844 C 62.820312 47.433594 62.851562 47.28125 62.910156 47.136719 C 62.96875 46.992188 63.054688 46.863281 63.164062 46.753906 C 63.273438 46.644531 63.398438 46.558594 63.542969 46.496094 C 63.683594 46.4375 63.832031 46.40625 63.988281 46.40625 C 64.144531 46.40625 64.292969 46.4375 64.433594 46.496094 C 64.578125 46.558594 64.703125 46.644531 64.8125 46.753906 C 64.921875 46.863281 65.007812 46.992188 65.066406 47.136719 C 65.125 47.28125 65.15625 47.433594 65.15625 47.589844 Z M 65.15625 47.589844 " fill-opacity="1" fill-rule="nonzero"/><path fill="#000000" d="M 66.894531 46.257812 C 66.894531 46.453125 66.828125 46.617188 66.691406 46.757812 C 66.554688 46.894531 66.390625 46.964844 66.199219 46.964844 C 66.007812 46.964844 65.839844 46.894531 65.707031 46.757812 C 65.570312 46.617188 65.5 46.453125 65.5 46.257812 C 65.5 46.0625 65.570312 45.894531 65.707031 45.757812 C 65.839844 45.621094 66.007812 45.550781 66.199219 45.550781 C 66.390625 45.550781 66.554688 45.621094 66.691406 45.757812 C 66.828125 45.894531 66.894531 46.0625 66.894531 46.257812 Z M 66.894531 46.257812 " fill-opacity="1" fill-rule="nonzero"/><path fill="#000000" d="M 69.8125 46.613281 C 69.8125 46.875 69.71875 47.097656 69.539062 47.28125 C 69.355469 47.464844 69.136719 47.558594 68.878906 47.558594 C 68.621094 47.558594 68.402344 47.464844 68.21875 47.28125 C 68.039062 47.097656 67.945312 46.875 67.945312 46.613281 C 67.945312 46.355469 68.039062 46.132812 68.21875 45.945312 C 68.402344 45.761719 68.621094 45.671875 68.878906 45.671875 C 69.136719 45.671875 69.355469 45.761719 69.539062 45.945312 C 69.71875 46.132812 69.8125 46.355469 69.8125 46.613281 Z M 69.8125 46.613281 " fill-opacity="1" fill-rule="nonzero"/><path fill="#000000" d="M 69.726562 62.191406 C 69.726562 62.28125 69.695312 62.355469 69.632812 62.417969 C 69.570312 62.484375 69.492188 62.515625 69.402344 62.515625 C 69.316406 62.515625 69.238281 62.484375 69.175781 62.417969 C 69.113281 62.355469 69.082031 62.28125 69.082031 62.191406 C 69.082031 62.101562 69.113281 62.023438 69.175781 61.960938 C 69.238281 61.894531 69.316406 61.863281 69.402344 61.863281 C 69.492188 61.863281 69.570312 61.894531 69.632812 61.960938 C 69.695312 62.023438 69.726562 62.101562 69.726562 62.191406 Z M 69.726562 62.191406 " fill-opacity="1" fill-rule="nonzero"/><path fill="#000000" d="M 59.238281 62.855469 C 59.238281 62.945312 59.207031 63.023438 59.144531 63.085938 C 59.082031 63.148438 59.007812 63.179688 58.917969 63.179688 C 58.828125 63.179688 58.753906 63.148438 58.691406 63.085938 C 58.628906 63.023438 58.597656 62.945312 58.597656 62.855469 C 58.597656 62.765625 58.628906 62.691406 58.691406 62.625 C 58.753906 62.5625 58.828125 62.53125 58.917969 62.53125 C 59.007812 62.53125 59.082031 62.5625 59.144531 62.625 C 59.207031 62.691406 59.238281 62.765625 59.238281 62.855469 Z M 59.238281 62.855469 " fill-opacity="1" fill-rule="nonzero"/><path fill="#000000" d="M 58.011719 64.175781 C 58.011719 64.265625 57.980469 64.34375 57.917969 64.40625 C 57.855469 64.46875 57.78125 64.5 57.691406 64.5 C 57.601562 64.5 57.527344 64.46875 57.464844 64.40625 C 57.402344 64.34375 57.371094 64.265625 57.371094 64.175781 C 57.371094 64.085938 57.402344 64.007812 57.464844 63.945312 C 57.527344 63.882812 57.601562 63.851562 57.691406 63.851562 C 57.78125 63.851562 57.855469 63.882812 57.917969 63.945312 C 57.980469 64.007812 58.011719 64.085938 58.011719 64.175781 Z M 58.011719 64.175781 " fill-opacity="1" fill-rule="nonzero"/><path fill="#000000" d="M 59.671875 64.175781 C 59.671875 64.265625 59.640625 64.34375 59.578125 64.40625 C 59.515625 64.46875 59.441406 64.5 59.351562 64.5 C 59.265625 64.5 59.1875 64.46875 59.125 64.40625 C 59.0625 64.34375 59.03125 64.265625 59.03125 64.175781 C 59.03125 64.085938 59.0625 64.007812 59.125 63.945312 C 59.1875 63.882812 59.265625 63.851562 59.351562 63.851562 C 59.441406 63.851562 59.515625 63.882812 59.578125 63.945312 C 59.640625 64.007812 59.671875 64.085938 59.671875 64.175781 Z M 59.671875 64.175781 " fill-opacity="1" fill-rule="nonzero"/><path fill="#000000" d="M 71.214844 63.15625 C 71.214844 63.246094 71.183594 63.324219 71.121094 63.386719 C 71.058594 63.449219 70.980469 63.480469 70.894531 63.480469 C 70.804688 63.480469 70.730469 63.449219 70.667969 63.386719 C 70.601562 63.324219 70.570312 63.246094 70.570312 63.15625 C 70.570312 63.066406 70.601562 62.992188 70.667969 62.925781 C 70.730469 62.863281 70.804688 62.832031 70.894531 62.832031 C 70.980469 62.832031 71.058594 62.863281 71.121094 62.925781 C 71.183594 62.992188 71.214844 63.066406 71.214844 63.15625 Z M 71.214844 63.15625 " fill-opacity="1" fill-rule="nonzero"/><path fill="#000000" d="M 71.214844 61.539062 C 71.214844 61.628906 71.183594 61.707031 71.121094 61.769531 C 71.058594 61.832031 70.980469 61.863281 70.894531 61.863281 C 70.804688 61.863281 70.730469 61.832031 70.667969 61.769531 C 70.601562 61.707031 70.570312 61.628906 70.570312 61.539062 C 70.570312 61.449219 70.601562 61.371094 70.667969 61.308594 C 70.730469 61.246094 70.804688 61.214844 70.894531 61.214844 C 70.980469 61.214844 71.058594 61.246094 71.121094 61.308594 C 71.183594 61.371094 71.214844 61.449219 71.214844 61.539062 Z M 71.214844 61.539062 " fill-opacity="1" fill-rule="nonzero"/><path fill="#000000" d="M 50.308594 55.28125 L 48 53.410156 L 50.363281 51.460938 C 51.007812 50.929688 51.105469 49.972656 50.582031 49.320312 C 50.054688 48.667969 49.109375 48.570312 48.464844 49.101562 L 44.65625 52.242188 C 44.300781 52.53125 44.097656 52.96875 44.101562 53.429688 C 44.101562 53.890625 44.308594 54.324219 44.664062 54.609375 L 48.425781 57.652344 C 48.433594 57.621094 48.445312 57.585938 48.457031 57.550781 C 48.71875 56.796875 49.515625 55.734375 50.308594 55.28125 Z M 50.308594 55.28125 " fill-opacity="1" fill-rule="nonzero"/><path fill="#000000" d="M 54.128906 60.320312 C 54.777344 59.5 54.644531 58.300781 53.835938 57.644531 L 51.292969 55.589844 C 50.484375 54.933594 48.132812 57.90625 48.945312 58.5625 L 51.484375 60.617188 C 51.832031 60.898438 52.246094 61.035156 52.65625 61.035156 C 53.210938 61.035156 53.757812 60.789062 54.128906 60.320312 Z M 54.128906 60.320312 " fill-opacity="1" fill-rule="nonzero"/><g fill="#21282e" fill-opacity="1"><g transform="translate(16.079686, 20.750011)"><g><path d="M 5.296875 0 L 4.46875 -2.203125 L 1.796875 -2.203125 L 1 0 L 0.15625 0 L 2.671875 -7 L 3.59375 -7 L 6.125 0 Z M 2.796875 -5.203125 L 2.046875 -2.90625 L 4.21875 -2.90625 L 3.453125 -5.203125 L 3.15625 -6.171875 L 3.078125 -6.171875 Z M 2.796875 -5.203125 "/></g></g></g><g fill="#21282e" fill-opacity="1"><g transform="translate(23.217171, 20.750011)"><g><path d="M 1.03125 0 L 1.03125 -7.03125 L 2.015625 -7.03125 L 4.765625 -2.265625 L 5.453125 -0.953125 L 5.46875 -0.953125 L 5.375 -2.609375 L 5.375 -7.03125 L 6.1875 -7.03125 L 6.1875 0 L 5.203125 0 L 2.46875 -4.734375 L 1.765625 -6.0625 L 1.734375 -6.0625 L 1.84375 -4.4375 L 1.84375 0 Z M 1.03125 0 "/></g></g></g><g fill="#21282e" fill-opacity="1"><g transform="translate(31.334271, 20.750011)"><g><path d="M 3.71875 -3.484375 L 7.546875 -3.484375 L 7.515625 -3.15625 C 7.472656 -2.488281 7.300781 -1.910156 7 -1.421875 C 6.707031 -0.941406 6.316406 -0.566406 5.828125 -0.296875 C 5.335938 -0.0351562 4.773438 0.09375 4.140625 0.09375 C 3.578125 0.09375 3.078125 -0.00390625 2.640625 -0.203125 C 2.203125 -0.410156 1.832031 -0.679688 1.53125 -1.015625 C 1.226562 -1.359375 1 -1.742188 0.84375 -2.171875 C 0.6875 -2.597656 0.609375 -3.035156 0.609375 -3.484375 C 0.609375 -3.941406 0.6875 -4.382812 0.84375 -4.8125 C 1 -5.238281 1.226562 -5.625 1.53125 -5.96875 C 1.832031 -6.320312 2.203125 -6.597656 2.640625 -6.796875 C 3.078125 -7.003906 3.578125 -7.109375 4.140625 -7.109375 C 4.679688 -7.109375 5.1875 -7 5.65625 -6.78125 C 6.132812 -6.5625 6.550781 -6.253906 6.90625 -5.859375 L 6.328125 -5.390625 C 6.035156 -5.722656 5.703125 -5.96875 5.328125 -6.125 C 4.953125 -6.289062 4.554688 -6.375 4.140625 -6.375 C 3.710938 -6.375 3.328125 -6.289062 2.984375 -6.125 C 2.648438 -5.96875 2.363281 -5.75 2.125 -5.46875 C 1.894531 -5.195312 1.71875 -4.890625 1.59375 -4.546875 C 1.476562 -4.203125 1.421875 -3.847656 1.421875 -3.484375 C 1.421875 -3.140625 1.476562 -2.796875 1.59375 -2.453125 C 1.71875 -2.117188 1.894531 -1.8125 2.125 -1.53125 C 2.363281 -1.257812 2.648438 -1.039062 2.984375 -0.875 C 3.328125 -0.71875 3.710938 -0.640625 4.140625 -0.640625 C 4.523438 -0.640625 4.898438 -0.710938 5.265625 -0.859375 C 5.628906 -1.015625 5.941406 -1.25 6.203125 -1.5625 C 6.460938 -1.882812 6.625 -2.285156 6.6875 -2.765625 L 3.71875 -2.765625 Z M 3.71875 -3.484375 "/></g></g></g><g fill="#21282e" fill-opacity="1"><g transform="translate(40.430984, 20.750011)"><g><path d="M 1.8125 -0.734375 L 4.53125 -0.734375 L 4.53125 0 L 1.015625 0 L 1.015625 -7 L 1.8125 -7 Z M 1.8125 -0.734375 "/></g></g></g><g fill="#21282e" fill-opacity="1"><g transform="translate(46.009086, 20.750011)"><g><path d="M 4.5625 -6.296875 L 1.625 -6.296875 L 1.625 -3.90625 L 4.53125 -3.90625 L 4.53125 -3.203125 L 1.625 -3.203125 L 1.625 -0.703125 L 4.5625 -0.703125 L 4.5625 0 L 0.828125 0 L 0.828125 -7.015625 L 4.5625 -7.015625 Z M 4.5625 -6.296875 "/></g></g></g><g fill="#21282e" fill-opacity="1"><g transform="translate(52.136974, 20.750011)"><g/></g></g><g fill="#21282e" fill-opacity="1"><g transform="translate(55.595916, 20.750011)"><g><path d="M 3.71875 -3.484375 L 7.546875 -3.484375 L 7.515625 -3.15625 C 7.472656 -2.488281 7.300781 -1.910156 7 -1.421875 C 6.707031 -0.941406 6.316406 -0.566406 5.828125 -0.296875 C 5.335938 -0.0351562 4.773438 0.09375 4.140625 0.09375 C 3.578125 0.09375 3.078125 -0.00390625 2.640625 -0.203125 C 2.203125 -0.410156 1.832031 -0.679688 1.53125 -1.015625 C 1.226562 -1.359375 1 -1.742188 0.84375 -2.171875 C 0.6875 -2.597656 0.609375 -3.035156 0.609375 -3.484375 C 0.609375 -3.941406 0.6875 -4.382812 0.84375 -4.8125 C 1 -5.238281 1.226562 -5.625 1.53125 -5.96875 C 1.832031 -6.320312 2.203125 -6.597656 2.640625 -6.796875 C 3.078125 -7.003906 3.578125 -7.109375 4.140625 -7.109375 C 4.679688 -7.109375 5.1875 -7 5.65625 -6.78125 C 6.132812 -6.5625 6.550781 -6.253906 6.90625 -5.859375 L 6.328125 -5.390625 C 6.035156 -5.722656 5.703125 -5.96875 5.328125 -6.125 C 4.953125 -6.289062 4.554688 -6.375 4.140625 -6.375 C 3.710938 -6.375 3.328125 -6.289062 2.984375 -6.125 C 2.648438 -5.96875 2.363281 -5.75 2.125 -5.46875 C 1.894531 -5.195312 1.71875 -4.890625 1.59375 -4.546875 C 1.476562 -4.203125 1.421875 -3.847656 1.421875 -3.484375 C 1.421875 -3.140625 1.476562 -2.796875 1.59375 -2.453125 C 1.71875 -2.117188 1.894531 -1.8125 2.125 -1.53125 C 2.363281 -1.257812 2.648438 -1.039062 2.984375 -0.875 C 3.328125 -0.71875 3.710938 -0.640625 4.140625 -0.640625 C 4.523438 -0.640625 4.898438 -0.710938 5.265625 -0.859375 C 5.628906 -1.015625 5.941406 -1.25 6.203125 -1.5625 C 6.460938 -1.882812 6.625 -2.285156 6.6875 -2.765625 L 3.71875 -2.765625 Z M 3.71875 -3.484375 "/></g></g></g><g fill="#21282e" fill-opacity="1"><g transform="translate(64.692629, 20.750011)"><g><path d="M 4.796875 0 L 2.59375 -2.84375 L 1.84375 -2.84375 L 1.84375 0 L 1.03125 0 L 1.03125 -7 L 3.203125 -7 C 3.648438 -7 4.046875 -6.925781 4.390625 -6.78125 C 4.734375 -6.632812 5.003906 -6.40625 5.203125 -6.09375 C 5.410156 -5.789062 5.515625 -5.394531 5.515625 -4.90625 C 5.515625 -4.28125 5.332031 -3.789062 4.96875 -3.4375 C 4.613281 -3.09375 4.128906 -2.898438 3.515625 -2.859375 L 5.734375 0 Z M 4.703125 -4.9375 C 4.703125 -5.382812 4.5625 -5.71875 4.28125 -5.9375 C 4 -6.164062 3.640625 -6.28125 3.203125 -6.28125 L 1.84375 -6.28125 L 1.84375 -3.5625 L 3.1875 -3.5625 C 3.664062 -3.5625 4.035156 -3.675781 4.296875 -3.90625 C 4.566406 -4.144531 4.703125 -4.488281 4.703125 -4.9375 Z M 4.703125 -4.9375 "/></g></g></g><g fill="#21282e" fill-opacity="1"><g transform="translate(71.740152, 20.750011)"><g><path d="M 1 0 L 1 -7 L 1.796875 -7 L 1.796875 0 Z M 1 0 "/></g></g></g><g fill="#21282e" fill-opacity="1"><g transform="translate(75.369028, 20.750011)"><g><path d="M 1.03125 0 L 1.03125 -7.03125 L 2.015625 -7.03125 L 4.765625 -2.265625 L 5.453125 -0.953125 L 5.46875 -0.953125 L 5.375 -2.609375 L 5.375 -7.03125 L 6.1875 -7.03125 L 6.1875 0 L 5.203125 0 L 2.46875 -4.734375 L 1.765625 -6.0625 L 1.734375 -6.0625 L 1.84375 -4.4375 L 1.84375 0 Z M 1.03125 0 "/></g></g></g><g fill="#21282e" fill-opacity="1"><g transform="translate(83.486127, 20.750011)"><g><path d="M 3.234375 -7.046875 C 3.804688 -7.046875 4.300781 -6.945312 4.71875 -6.75 C 5.144531 -6.550781 5.492188 -6.285156 5.765625 -5.953125 C 6.046875 -5.628906 6.253906 -5.257812 6.390625 -4.84375 C 6.523438 -4.4375 6.59375 -4.015625 6.59375 -3.578125 C 6.59375 -3.128906 6.523438 -2.691406 6.390625 -2.265625 C 6.265625 -1.835938 6.066406 -1.453125 5.796875 -1.109375 C 5.523438 -0.765625 5.175781 -0.492188 4.75 -0.296875 C 4.332031 -0.0976562 3.828125 0 3.234375 0 L 1.03125 0 L 1.03125 -7.046875 Z M 3.234375 -0.734375 C 3.679688 -0.734375 4.066406 -0.8125 4.390625 -0.96875 C 4.722656 -1.125 4.992188 -1.332031 5.203125 -1.59375 C 5.410156 -1.863281 5.5625 -2.164062 5.65625 -2.5 C 5.757812 -2.832031 5.8125 -3.175781 5.8125 -3.53125 C 5.8125 -3.875 5.757812 -4.210938 5.65625 -4.546875 C 5.550781 -4.878906 5.394531 -5.175781 5.1875 -5.4375 C 4.976562 -5.695312 4.710938 -5.90625 4.390625 -6.0625 C 4.066406 -6.21875 3.6875 -6.296875 3.25 -6.296875 L 1.828125 -6.296875 L 1.828125 -0.734375 Z M 3.234375 -0.734375 "/></g></g></g><g fill="#21282e" fill-opacity="1"><g transform="translate(91.533257, 20.750011)"><g><path d="M 4.5625 -6.296875 L 1.625 -6.296875 L 1.625 -3.90625 L 4.53125 -3.90625 L 4.53125 -3.203125 L 1.625 -3.203125 L 1.625 -0.703125 L 4.5625 -0.703125 L 4.5625 0 L 0.828125 0 L 0.828125 -7.015625 L 4.5625 -7.015625 Z M 4.5625 -6.296875 "/></g></g></g><g fill="#21282e" fill-opacity="1"><g transform="translate(97.661145, 20.750011)"><g><path d="M 4.796875 0 L 2.59375 -2.84375 L 1.84375 -2.84375 L 1.84375 0 L 1.03125 0 L 1.03125 -7 L 3.203125 -7 C 3.648438 -7 4.046875 -6.925781 4.390625 -6.78125 C 4.734375 -6.632812 5.003906 -6.40625 5.203125 -6.09375 C 5.410156 -5.789062 5.515625 -5.394531 5.515625 -4.90625 C 5.515625 -4.28125 5.332031 -3.789062 4.96875 -3.4375 C 4.613281 -3.09375 4.128906 -2.898438 3.515625 -2.859375 L 5.734375 0 Z M 4.703125 -4.9375 C 4.703125 -5.382812 4.5625 -5.71875 4.28125 -5.9375 C 4 -6.164062 3.640625 -6.28125 3.203125 -6.28125 L 1.84375 -6.28125 L 1.84375 -3.5625 L 3.1875 -3.5625 C 3.664062 -3.5625 4.035156 -3.675781 4.296875 -3.90625 C 4.566406 -4.144531 4.703125 -4.488281 4.703125 -4.9375 Z M 4.703125 -4.9375 "/></g></g></g></svg>