<svg xmlns="http://www.w3.org/2000/svg" xmlns:xlink="http://www.w3.org/1999/xlink" width="160" zoomAndPan="magnify" viewBox="0 0 120 119.999999" height="160" preserveAspectRatio="xMidYMid meet" version="1.0"><defs><g/><clipPath id="77d4f7cbf9"><path d="M 5 3 L 22 3 L 22 10 L 5 10 Z M 5 3 " clip-rule="nonzero"/></clipPath><clipPath id="fabf19efeb"><path d="M 19.808594 0.914062 L 22.929688 9.4375 L 7.273438 15.175781 L 4.148438 6.652344 Z M 19.808594 0.914062 " clip-rule="nonzero"/></clipPath><clipPath id="bffe91ecc3"><path d="M 19.808594 0.914062 L 22.929688 9.4375 L 7.273438 15.175781 L 4.148438 6.652344 Z M 19.808594 0.914062 " clip-rule="nonzero"/></clipPath><clipPath id="aa750f0f7a"><path d="M 0.761719 9 L 25.238281 9 L 25.238281 19 L 0.761719 19 Z M 0.761719 9 " clip-rule="nonzero"/></clipPath><clipPath id="1817c1b07b"><rect x="0" width="26" y="0" height="10"/></clipPath><clipPath id="c97ec5f953"><path d="M 4 12 L 23 12 L 23 26.441406 L 4 26.441406 Z M 4 12 " clip-rule="nonzero"/></clipPath><clipPath id="bc146c8752"><path d="M 19.808594 12.074219 L 22.929688 20.597656 L 7.273438 26.335938 L 4.148438 17.8125 Z M 19.808594 12.074219 " clip-rule="nonzero"/></clipPath><clipPath id="225c6e5c37"><path d="M 1 5 L 18 5 L 18 12 L 1 12 Z M 1 5 " clip-rule="nonzero"/></clipPath><clipPath id="51d8b47fb3"><path d="M 15.808594 0.0742188 L 18.929688 8.597656 L 3.273438 14.335938 L 0.148438 5.8125 Z M 15.808594 0.0742188 " clip-rule="nonzero"/></clipPath><clipPath id="72eb972c5b"><path d="M 3.273438 14.347656 L 0.148438 5.824219 L 15.808594 0.0859375 L 18.933594 8.609375 Z M 3.273438 14.347656 " clip-rule="nonzero"/></clipPath><clipPath id="3edb9a9bc3"><rect x="0" width="19" y="0" height="15"/></clipPath><clipPath id="900d2c66bd"><rect x="0" width="26" y="0" height="27"/></clipPath><clipPath id="b2bd7c8d5c"><path d="M 36.023438 36 L 84.023438 36 L 84.023438 84 L 36.023438 84 Z M 36.023438 36 " clip-rule="nonzero"/></clipPath></defs><rect x="-12" width="144" fill="#ffffff" y="-12" height="143.999998" fill-opacity="1"/><rect x="-12" width="144" fill="#ffffff" y="-12" height="143.999998" fill-opacity="1"/><g transform="matrix(1, 0, 0, 1, 47, 89)"><g clip-path="url(#900d2c66bd)"><g clip-path="url(#77d4f7cbf9)"><g clip-path="url(#fabf19efeb)"><g clip-path="url(#bffe91ecc3)"><path fill="#212121" d="M 21.421875 5.347656 C 21.328125 5.09375 21.230469 4.933594 21.144531 4.917969 C 20.773438 4.863281 20.609375 6.242188 20.539062 7.128906 C 19.863281 6.332031 18.867188 5.441406 17.488281 4.792969 C 16.117188 4.148438 14.511719 3.824219 12.867188 3.960938 C 11.109375 4.105469 9.5 4.761719 8.234375 5.691406 C 6.539062 6.9375 5.65625 8.492188 5.210938 9.53125 C 5.660156 8.484375 6.605469 6.972656 8.332031 5.832031 C 9.621094 4.980469 11.210938 4.4375 12.890625 4.394531 C 14.460938 4.359375 15.945312 4.753906 17.179688 5.417969 C 18.449219 6.097656 19.332031 6.980469 19.929688 7.734375 C 19.046875 7.5625 17.449219 7.300781 17.402344 7.65625 C 17.339844 8.144531 21.203125 10.082031 21.808594 9.636719 C 22.226562 9.324219 21.835938 6.453125 21.421875 5.347656 Z M 21.421875 5.347656 " fill-opacity="1" fill-rule="nonzero"/></g></g></g><g clip-path="url(#aa750f0f7a)"><g transform="matrix(1, 0, 0, 1, 0, 9)"><g clip-path="url(#1817c1b07b)"><g fill="#000000" fill-opacity="1"><g transform="translate(0.81023, 7.19389)"><g><path d="M 2.28125 0.09375 C 1.875 0.09375 1.484375 0.0390625 1.109375 -0.0625 C 0.734375 -0.175781 0.429688 -0.320312 0.203125 -0.5 L 0.609375 -1.390625 C 0.828125 -1.234375 1.082031 -1.101562 1.375 -1 C 1.675781 -0.90625 1.976562 -0.859375 2.28125 -0.859375 C 2.613281 -0.859375 2.859375 -0.90625 3.015625 -1 C 3.179688 -1.101562 3.265625 -1.238281 3.265625 -1.40625 C 3.265625 -1.53125 3.21875 -1.628906 3.125 -1.703125 C 3.03125 -1.785156 2.910156 -1.847656 2.765625 -1.890625 C 2.617188 -1.941406 2.414062 -2 2.15625 -2.0625 C 1.769531 -2.15625 1.453125 -2.242188 1.203125 -2.328125 C 0.960938 -2.421875 0.753906 -2.570312 0.578125 -2.78125 C 0.398438 -2.988281 0.3125 -3.257812 0.3125 -3.59375 C 0.3125 -3.894531 0.390625 -4.164062 0.546875 -4.40625 C 0.703125 -4.644531 0.941406 -4.832031 1.265625 -4.96875 C 1.585938 -5.113281 1.984375 -5.1875 2.453125 -5.1875 C 2.773438 -5.1875 3.09375 -5.144531 3.40625 -5.0625 C 3.71875 -4.988281 3.988281 -4.878906 4.21875 -4.734375 L 3.859375 -3.84375 C 3.390625 -4.101562 2.921875 -4.234375 2.453125 -4.234375 C 2.117188 -4.234375 1.875 -4.179688 1.71875 -4.078125 C 1.5625 -3.972656 1.484375 -3.832031 1.484375 -3.65625 C 1.484375 -3.476562 1.570312 -3.347656 1.75 -3.265625 C 1.9375 -3.179688 2.210938 -3.097656 2.578125 -3.015625 C 2.972656 -2.921875 3.289062 -2.828125 3.53125 -2.734375 C 3.78125 -2.640625 3.992188 -2.492188 4.171875 -2.296875 C 4.347656 -2.097656 4.4375 -1.832031 4.4375 -1.5 C 4.4375 -1.207031 4.351562 -0.9375 4.1875 -0.6875 C 4.03125 -0.445312 3.789062 -0.253906 3.46875 -0.109375 C 3.144531 0.0234375 2.75 0.09375 2.28125 0.09375 Z M 2.28125 0.09375 "/></g></g></g><g fill="#000000" fill-opacity="1"><g transform="translate(5.073316, 7.19389)"><g><path d="M 0.53125 -3.921875 L 1.65625 -3.921875 L 1.65625 0 L 0.53125 0 Z M 1.09375 -4.46875 C 0.882812 -4.46875 0.710938 -4.523438 0.578125 -4.640625 C 0.453125 -4.765625 0.390625 -4.914062 0.390625 -5.09375 C 0.390625 -5.269531 0.453125 -5.421875 0.578125 -5.546875 C 0.710938 -5.671875 0.882812 -5.734375 1.09375 -5.734375 C 1.300781 -5.734375 1.46875 -5.671875 1.59375 -5.546875 C 1.726562 -5.429688 1.796875 -5.289062 1.796875 -5.125 C 1.796875 -4.925781 1.726562 -4.765625 1.59375 -4.640625 C 1.46875 -4.523438 1.300781 -4.46875 1.09375 -4.46875 Z M 1.09375 -4.46875 "/></g></g></g><g fill="#000000" fill-opacity="1"><g transform="translate(6.880514, 7.19389)"><g><path d="M 5.546875 -3.96875 C 6.035156 -3.96875 6.421875 -3.820312 6.703125 -3.53125 C 6.992188 -3.25 7.140625 -2.820312 7.140625 -2.25 L 7.140625 0 L 6 0 L 6 -2.0625 C 6 -2.375 5.9375 -2.609375 5.8125 -2.765625 C 5.6875 -2.921875 5.503906 -3 5.265625 -3 C 4.992188 -3 4.78125 -2.910156 4.625 -2.734375 C 4.46875 -2.554688 4.390625 -2.300781 4.390625 -1.96875 L 4.390625 0 L 3.265625 0 L 3.265625 -2.0625 C 3.265625 -2.6875 3.015625 -3 2.515625 -3 C 2.253906 -3 2.046875 -2.910156 1.890625 -2.734375 C 1.734375 -2.554688 1.65625 -2.300781 1.65625 -1.96875 L 1.65625 0 L 0.53125 0 L 0.53125 -3.921875 L 1.609375 -3.921875 L 1.609375 -3.46875 C 1.753906 -3.632812 1.929688 -3.757812 2.140625 -3.84375 C 2.359375 -3.925781 2.59375 -3.96875 2.84375 -3.96875 C 3.113281 -3.96875 3.359375 -3.910156 3.578125 -3.796875 C 3.804688 -3.691406 3.988281 -3.535156 4.125 -3.328125 C 4.289062 -3.535156 4.492188 -3.691406 4.734375 -3.796875 C 4.984375 -3.910156 5.253906 -3.96875 5.546875 -3.96875 Z M 5.546875 -3.96875 "/></g></g></g><g fill="#000000" fill-opacity="1"><g transform="translate(14.138764, 7.19389)"><g><path d="M 2.84375 -3.96875 C 3.207031 -3.96875 3.535156 -3.882812 3.828125 -3.71875 C 4.128906 -3.550781 4.363281 -3.316406 4.53125 -3.015625 C 4.707031 -2.710938 4.796875 -2.359375 4.796875 -1.953125 C 4.796875 -1.554688 4.707031 -1.203125 4.53125 -0.890625 C 4.363281 -0.585938 4.128906 -0.351562 3.828125 -0.1875 C 3.535156 -0.0195312 3.207031 0.0625 2.84375 0.0625 C 2.34375 0.0625 1.945312 -0.0976562 1.65625 -0.421875 L 1.65625 1.40625 L 0.53125 1.40625 L 0.53125 -3.921875 L 1.609375 -3.921875 L 1.609375 -3.46875 C 1.890625 -3.800781 2.300781 -3.96875 2.84375 -3.96875 Z M 2.640625 -0.875 C 2.929688 -0.875 3.171875 -0.972656 3.359375 -1.171875 C 3.546875 -1.367188 3.640625 -1.628906 3.640625 -1.953125 C 3.640625 -2.285156 3.546875 -2.550781 3.359375 -2.75 C 3.171875 -2.945312 2.929688 -3.046875 2.640625 -3.046875 C 2.347656 -3.046875 2.109375 -2.945312 1.921875 -2.75 C 1.734375 -2.550781 1.640625 -2.285156 1.640625 -1.953125 C 1.640625 -1.628906 1.734375 -1.367188 1.921875 -1.171875 C 2.109375 -0.972656 2.347656 -0.875 2.640625 -0.875 Z M 2.640625 -0.875 "/></g></g></g><g fill="#000000" fill-opacity="1"><g transform="translate(18.7808, 7.19389)"><g><path d="M 0.53125 -5.40625 L 1.65625 -5.40625 L 1.65625 0 L 0.53125 0 Z M 0.53125 -5.40625 "/></g></g></g><g fill="#000000" fill-opacity="1"><g transform="translate(20.587998, 7.19389)"><g><path d="M 4.359375 -1.9375 C 4.359375 -1.925781 4.351562 -1.828125 4.34375 -1.640625 L 1.375 -1.640625 C 1.425781 -1.398438 1.550781 -1.207031 1.75 -1.0625 C 1.945312 -0.925781 2.195312 -0.859375 2.5 -0.859375 C 2.695312 -0.859375 2.875 -0.882812 3.03125 -0.9375 C 3.195312 -1 3.347656 -1.097656 3.484375 -1.234375 L 4.078125 -0.578125 C 3.710938 -0.148438 3.175781 0.0625 2.46875 0.0625 C 2.03125 0.0625 1.640625 -0.0195312 1.296875 -0.1875 C 0.953125 -0.363281 0.6875 -0.601562 0.5 -0.90625 C 0.320312 -1.21875 0.234375 -1.566406 0.234375 -1.953125 C 0.234375 -2.335938 0.320312 -2.679688 0.5 -2.984375 C 0.6875 -3.296875 0.9375 -3.535156 1.25 -3.703125 C 1.570312 -3.878906 1.929688 -3.96875 2.328125 -3.96875 C 2.703125 -3.96875 3.046875 -3.882812 3.359375 -3.71875 C 3.671875 -3.5625 3.914062 -3.328125 4.09375 -3.015625 C 4.269531 -2.710938 4.359375 -2.351562 4.359375 -1.9375 Z M 2.328125 -3.109375 C 2.066406 -3.109375 1.847656 -3.035156 1.671875 -2.890625 C 1.503906 -2.742188 1.398438 -2.546875 1.359375 -2.296875 L 3.296875 -2.296875 C 3.253906 -2.546875 3.144531 -2.742188 2.96875 -2.890625 C 2.789062 -3.035156 2.578125 -3.109375 2.328125 -3.109375 Z M 2.328125 -3.109375 "/></g></g></g></g></g></g><g clip-path="url(#c97ec5f953)"><g clip-path="url(#bc146c8752)"><g transform="matrix(1, 0, 0, 1, 4, 12)"><g clip-path="url(#3edb9a9bc3)"><g clip-path="url(#225c6e5c37)"><g clip-path="url(#51d8b47fb3)"><g clip-path="url(#72eb972c5b)"><path fill="#212121" d="M 1.65625 9.914062 C 1.753906 10.167969 1.847656 10.328125 1.9375 10.339844 C 2.304688 10.398438 2.472656 9.019531 2.542969 8.132812 C 3.214844 8.929688 4.210938 9.820312 5.589844 10.464844 C 6.960938 11.109375 8.570312 11.433594 10.210938 11.300781 C 11.972656 11.15625 13.578125 10.5 14.847656 9.570312 C 16.539062 8.324219 17.421875 6.769531 17.871094 5.730469 C 17.417969 6.777344 16.472656 8.289062 14.75 9.429688 C 13.460938 10.28125 11.867188 10.824219 10.1875 10.867188 C 8.621094 10.902344 7.136719 10.503906 5.902344 9.84375 C 4.632812 9.164062 3.746094 8.28125 3.152344 7.527344 C 4.03125 7.699219 5.632812 7.960938 5.675781 7.605469 C 5.738281 7.117188 1.875 5.179688 1.269531 5.625 C 0.851562 5.933594 1.242188 8.808594 1.65625 9.914062 Z M 1.65625 9.914062 " fill-opacity="1" fill-rule="nonzero"/></g></g></g></g></g></g></g></g></g><g clip-path="url(#b2bd7c8d5c)"><path fill="#000000" d="M 61.296875 36 L 59.34375 37.246094 L 57.984375 40 C 57.378906 40.0625 56.773438 40.148438 56.175781 40.265625 L 55.175781 37.75 L 55.601562 36.992188 L 55.417969 36.460938 L 53.5 38.1875 L 52.875 41.191406 C 52.289062 41.417969 51.714844 41.667969 51.152344 41.945312 L 49.535156 39.78125 L 49.746094 38.9375 L 49.425781 38.472656 L 48.03125 40.636719 L 48.210938 43.726562 C 47.714844 44.089844 47.230469 44.472656 46.769531 44.878906 L 44.613281 43.207031 L 44.59375 42.34375 L 44.164062 41.980469 L 43.382812 44.429688 L 44.375 47.351562 C 43.992188 47.820312 43.628906 48.304688 43.289062 48.808594 L 40.796875 47.734375 L 40.5625 46.894531 L 40.054688 46.652344 L 39.921875 49.226562 L 41.632812 51.824219 C 41.382812 52.386719 41.15625 52.964844 40.960938 53.550781 L 38.253906 53.160156 L 37.808594 52.414062 L 37.253906 52.3125 L 37.800781 54.828125 L 40.140625 56.902344 C 40.046875 57.503906 39.980469 58.109375 39.941406 58.71875 L 37.214844 59.0625 L 36.585938 58.460938 L 36.027344 58.511719 L 37.210938 60.796875 L 40.019531 62.171875 C 40.082031 62.765625 40.171875 63.355469 40.289062 63.941406 L 37.730469 64.972656 L 36.96875 64.546875 L 36.4375 64.734375 L 38.175781 66.648438 L 41.238281 67.261719 C 41.460938 67.832031 41.710938 68.394531 41.988281 68.941406 L 39.792969 70.601562 L 38.949219 70.398438 L 38.488281 70.722656 L 40.65625 72.097656 L 43.804688 71.894531 C 44.160156 72.378906 44.535156 72.84375 44.933594 73.292969 L 43.238281 75.484375 L 42.371094 75.507812 L 42.011719 75.941406 L 44.457031 76.703125 L 47.441406 75.691406 C 47.910156 76.070312 48.394531 76.425781 48.894531 76.757812 L 47.828125 79.308594 L 47 79.554688 L 46.761719 80.066406 L 49.328125 80.171875 L 51.941406 78.417969 C 52.492188 78.660156 53.054688 78.875 53.625 79.0625 L 53.273438 81.816406 L 52.539062 82.269531 L 52.445312 82.828125 L 54.953125 82.257812 L 57.007812 79.871094 C 57.597656 79.960938 58.191406 80.023438 58.785156 80.0625 L 59.128906 82.8125 L 58.527344 83.441406 L 58.574219 84 L 60.871094 82.808594 L 62.257812 79.972656 C 62.847656 79.910156 63.429688 79.820312 64.011719 79.703125 L 65.050781 82.273438 L 64.625 83.035156 L 64.921875 83.542969 L 66.726562 81.824219 L 67.339844 78.75 C 67.910156 78.523438 68.46875 78.273438 69.015625 78 L 70.679688 80.195312 L 70.476562 81.039062 L 70.796875 81.5 L 72.171875 79.324219 L 71.953125 76.1875 C 72.441406 75.828125 72.914062 75.445312 73.367188 75.042969 L 75.554688 76.734375 L 75.578125 77.601562 L 76.011719 77.960938 L 76.769531 75.511719 L 75.75 72.550781 C 76.132812 72.074219 76.492188 71.585938 76.828125 71.078125 L 79.367188 72.132812 L 79.613281 72.964844 L 80.125 73.199219 L 80.222656 70.636719 L 78.480469 68.046875 C 78.722656 67.488281 78.9375 66.917969 79.128906 66.339844 L 81.855469 66.6875 L 82.3125 67.421875 L 82.871094 67.515625 L 82.292969 65.007812 L 79.925781 62.980469 C 80.015625 62.386719 80.078125 61.789062 80.113281 61.191406 L 82.832031 60.835938 L 83.460938 61.4375 L 84.023438 61.386719 L 82.820312 59.097656 L 80.019531 57.730469 C 79.953125 57.132812 79.859375 56.535156 79.738281 55.945312 L 82.273438 54.925781 L 83.015625 55.253906 L 83.542969 55.054688 L 81.789062 53.175781 L 78.765625 52.621094 C 78.542969 52.054688 78.292969 51.5 78.019531 50.957031 L 80.167969 49.308594 L 81.015625 49.511719 L 81.476562 49.1875 L 79.292969 47.820312 L 76.199219 48.039062 C 75.832031 47.546875 75.445312 47.070312 75.035156 46.613281 L 76.6875 44.453125 L 77.554688 44.425781 L 77.914062 43.996094 L 75.457031 43.242188 L 72.535156 44.253906 C 72.050781 43.863281 71.546875 43.5 71.023438 43.160156 L 72.066406 40.664062 L 72.898438 40.414062 L 73.136719 39.902344 L 70.5625 39.8125 L 68.023438 41.539062 C 67.445312 41.289062 66.859375 41.070312 66.261719 40.878906 L 66.601562 38.195312 L 67.339844 37.738281 L 67.433594 37.183594 L 64.921875 37.765625 L 62.914062 40.109375 C 62.421875 40.035156 61.929688 39.980469 61.433594 39.945312 L 60.917969 37.21875 L 61.390625 36.554688 Z M 60.023438 41.394531 C 60.636719 41.394531 61.242188 41.425781 61.851562 41.484375 C 62.457031 41.546875 63.0625 41.632812 63.660156 41.753906 C 64.257812 41.871094 64.847656 42.019531 65.433594 42.195312 C 66.015625 42.375 66.589844 42.578125 67.152344 42.8125 C 67.71875 43.046875 68.269531 43.304688 68.804688 43.59375 C 69.34375 43.878906 69.867188 44.191406 70.375 44.53125 C 70.878906 44.871094 71.371094 45.230469 71.839844 45.617188 C 72.3125 46.003906 72.765625 46.414062 73.195312 46.84375 C 73.628906 47.277344 74.035156 47.726562 74.421875 48.199219 C 74.8125 48.667969 75.171875 49.15625 75.511719 49.664062 C 75.851562 50.171875 76.164062 50.691406 76.453125 51.230469 C 76.738281 51.765625 77 52.316406 77.234375 52.878906 C 77.46875 53.441406 77.671875 54.015625 77.847656 54.597656 C 78.027344 55.183594 78.175781 55.773438 78.292969 56.371094 C 78.414062 56.96875 78.503906 57.570312 78.5625 58.175781 C 78.621094 58.78125 78.652344 59.390625 78.652344 60 C 78.652344 60.609375 78.621094 61.21875 78.5625 61.824219 C 78.503906 62.429688 78.414062 63.03125 78.292969 63.628906 C 78.175781 64.226562 78.027344 64.816406 77.847656 65.398438 C 77.671875 65.984375 77.46875 66.554688 77.234375 67.117188 C 77 67.683594 76.738281 68.230469 76.453125 68.769531 C 76.164062 69.308594 75.851562 69.828125 75.511719 70.335938 C 75.171875 70.84375 74.8125 71.332031 74.421875 71.800781 C 74.035156 72.273438 73.628906 72.722656 73.195312 73.15625 C 72.765625 73.585938 72.3125 73.992188 71.839844 74.378906 C 71.371094 74.765625 70.878906 75.128906 70.375 75.46875 C 69.867188 75.804688 69.34375 76.121094 68.804688 76.40625 C 68.269531 76.695312 67.71875 76.953125 67.152344 77.1875 C 66.589844 77.421875 66.015625 77.625 65.433594 77.800781 C 64.847656 77.980469 64.257812 78.128906 63.660156 78.246094 C 63.0625 78.363281 62.457031 78.453125 61.851562 78.515625 C 61.242188 78.574219 60.636719 78.601562 60.023438 78.601562 C 59.414062 78.601562 58.804688 78.574219 58.199219 78.515625 C 57.59375 78.453125 56.988281 78.363281 56.390625 78.246094 C 55.792969 78.128906 55.203125 77.980469 54.617188 77.800781 C 54.035156 77.625 53.460938 77.421875 52.898438 77.1875 C 52.332031 76.953125 51.78125 76.695312 51.246094 76.40625 C 50.707031 76.121094 50.183594 75.804688 49.675781 75.46875 C 49.167969 75.128906 48.679688 74.765625 48.207031 74.378906 C 47.738281 73.992188 47.285156 73.585938 46.855469 73.15625 C 46.421875 72.722656 46.015625 72.273438 45.625 71.800781 C 45.238281 71.332031 44.875 70.84375 44.539062 70.335938 C 44.199219 69.828125 43.886719 69.308594 43.597656 68.769531 C 43.3125 68.230469 43.050781 67.683594 42.816406 67.117188 C 42.582031 66.554688 42.378906 65.984375 42.199219 65.398438 C 42.023438 64.816406 41.875 64.226562 41.757812 63.628906 C 41.636719 63.03125 41.546875 62.429688 41.488281 61.824219 C 41.429688 61.21875 41.398438 60.609375 41.398438 60 C 41.398438 59.390625 41.429688 58.78125 41.488281 58.175781 C 41.546875 57.570312 41.636719 56.96875 41.757812 56.371094 C 41.875 55.773438 42.023438 55.183594 42.199219 54.597656 C 42.378906 54.015625 42.582031 53.441406 42.816406 52.878906 C 43.050781 52.316406 43.3125 51.765625 43.597656 51.230469 C 43.886719 50.691406 44.199219 50.171875 44.539062 49.664062 C 44.875 49.15625 45.238281 48.667969 45.625 48.199219 C 46.015625 47.726562 46.421875 47.277344 46.855469 46.84375 C 47.285156 46.414062 47.738281 46.003906 48.207031 45.617188 C 48.679688 45.230469 49.167969 44.871094 49.675781 44.53125 C 50.183594 44.191406 50.707031 43.878906 51.246094 43.59375 C 51.78125 43.304688 52.332031 43.046875 52.898438 42.8125 C 53.460938 42.578125 54.035156 42.375 54.617188 42.195312 C 55.203125 42.019531 55.792969 41.871094 56.390625 41.753906 C 56.988281 41.632812 57.59375 41.546875 58.199219 41.484375 C 58.804688 41.425781 59.414062 41.394531 60.023438 41.394531 Z M 60.023438 42.863281 C 59.464844 42.863281 58.902344 42.890625 58.34375 42.945312 C 57.785156 43 57.230469 43.082031 56.675781 43.191406 C 56.125 43.300781 55.582031 43.4375 55.042969 43.597656 C 54.507812 43.761719 53.976562 43.953125 53.457031 44.167969 C 52.941406 44.382812 52.433594 44.621094 51.9375 44.886719 C 51.441406 45.148438 50.960938 45.4375 50.492188 45.75 C 50.023438 46.0625 49.574219 46.394531 49.140625 46.75 C 48.707031 47.109375 48.289062 47.484375 47.890625 47.882812 C 47.496094 48.277344 47.117188 48.695312 46.761719 49.128906 C 46.40625 49.5625 46.070312 50.011719 45.757812 50.476562 C 45.445312 50.945312 45.15625 51.425781 44.890625 51.921875 C 44.628906 52.414062 44.386719 52.921875 44.171875 53.441406 C 43.957031 53.960938 43.769531 54.488281 43.605469 55.023438 C 43.441406 55.5625 43.304688 56.105469 43.195312 56.65625 C 43.085938 57.207031 43.003906 57.761719 42.949219 58.320312 C 42.894531 58.878906 42.867188 59.4375 42.867188 60 C 42.867188 60.5625 42.894531 61.121094 42.949219 61.679688 C 43.003906 62.238281 43.085938 62.792969 43.195312 63.34375 C 43.304688 63.894531 43.441406 64.4375 43.605469 64.972656 C 43.769531 65.511719 43.957031 66.039062 44.171875 66.558594 C 44.386719 67.078125 44.628906 67.582031 44.890625 68.078125 C 45.15625 68.574219 45.445312 69.054688 45.757812 69.519531 C 46.070312 69.988281 46.40625 70.4375 46.761719 70.871094 C 47.117188 71.304688 47.496094 71.722656 47.890625 72.117188 C 48.289062 72.515625 48.707031 72.890625 49.140625 73.246094 C 49.574219 73.601562 50.023438 73.9375 50.492188 74.25 C 50.960938 74.5625 51.441406 74.847656 51.9375 75.113281 C 52.433594 75.378906 52.941406 75.617188 53.457031 75.832031 C 53.976562 76.046875 54.507812 76.238281 55.042969 76.398438 C 55.582031 76.5625 56.125 76.699219 56.675781 76.808594 C 57.230469 76.917969 57.785156 77 58.34375 77.054688 C 58.902344 77.109375 59.464844 77.136719 60.023438 77.136719 C 60.585938 77.136719 61.148438 77.109375 61.707031 77.054688 C 62.265625 77 62.820312 76.917969 63.371094 76.808594 C 63.925781 76.699219 64.46875 76.5625 65.007812 76.398438 C 65.542969 76.238281 66.074219 76.046875 66.589844 75.832031 C 67.109375 75.617188 67.617188 75.378906 68.113281 75.113281 C 68.609375 74.847656 69.089844 74.5625 69.558594 74.25 C 70.027344 73.9375 70.476562 73.601562 70.910156 73.246094 C 71.34375 72.890625 71.761719 72.515625 72.160156 72.117188 C 72.554688 71.722656 72.933594 71.304688 73.289062 70.871094 C 73.644531 70.4375 73.980469 69.988281 74.292969 69.519531 C 74.605469 69.054688 74.894531 68.574219 75.15625 68.078125 C 75.421875 67.582031 75.664062 67.078125 75.878906 66.558594 C 76.09375 66.039062 76.28125 65.511719 76.445312 64.972656 C 76.609375 64.4375 76.746094 63.894531 76.855469 63.34375 C 76.964844 62.792969 77.046875 62.238281 77.101562 61.679688 C 77.15625 61.121094 77.183594 60.5625 77.183594 60 C 77.183594 59.4375 77.15625 58.878906 77.101562 58.320312 C 77.046875 57.761719 76.964844 57.207031 76.855469 56.65625 C 76.746094 56.105469 76.609375 55.5625 76.445312 55.023438 C 76.28125 54.488281 76.09375 53.960938 75.878906 53.441406 C 75.664062 52.921875 75.421875 52.414062 75.15625 51.921875 C 74.894531 51.425781 74.605469 50.945312 74.292969 50.476562 C 73.980469 50.011719 73.644531 49.5625 73.289062 49.128906 C 72.933594 48.695312 72.554688 48.277344 72.160156 47.882812 C 71.761719 47.484375 71.34375 47.109375 70.910156 46.75 C 70.476562 46.394531 70.027344 46.0625 69.558594 45.75 C 69.089844 45.4375 68.609375 45.148438 68.113281 44.886719 C 67.617188 44.621094 67.109375 44.382812 66.589844 44.167969 C 66.074219 43.953125 65.542969 43.761719 65.007812 43.597656 C 64.46875 43.4375 63.925781 43.300781 63.371094 43.191406 C 62.820312 43.082031 62.265625 43 61.707031 42.945312 C 61.148438 42.890625 60.585938 42.863281 60.023438 42.863281 Z M 60.023438 44.523438 C 61.042969 44.523438 62.050781 44.621094 63.046875 44.820312 C 64.046875 45.019531 65.015625 45.3125 65.957031 45.699219 C 66.894531 46.089844 67.789062 46.566406 68.632812 47.128906 C 69.480469 47.695312 70.261719 48.335938 70.984375 49.054688 C 71.703125 49.773438 72.34375 50.554688 72.910156 51.402344 C 73.476562 52.246094 73.953125 53.136719 74.339844 54.078125 C 74.730469 55.015625 75.023438 55.984375 75.222656 56.980469 C 75.421875 57.976562 75.519531 58.984375 75.519531 60 C 75.519531 61.015625 75.421875 62.023438 75.222656 63.019531 C 75.023438 64.015625 74.730469 64.984375 74.339844 65.921875 C 73.953125 66.863281 73.476562 67.753906 72.910156 68.597656 C 72.34375 69.441406 71.703125 70.226562 70.984375 70.945312 C 70.261719 71.664062 69.480469 72.304688 68.632812 72.867188 C 67.789062 73.433594 66.894531 73.910156 65.957031 74.296875 C 65.015625 74.6875 64.046875 74.980469 63.046875 75.179688 C 62.050781 75.378906 61.042969 75.476562 60.023438 75.476562 C 59.007812 75.476562 58 75.378906 57.003906 75.179688 C 56.003906 74.980469 55.035156 74.6875 54.09375 74.296875 C 53.15625 73.910156 52.261719 73.433594 51.417969 72.867188 C 50.570312 72.304688 49.789062 71.664062 49.066406 70.945312 C 48.347656 70.226562 47.707031 69.441406 47.140625 68.597656 C 46.574219 67.753906 46.097656 66.863281 45.707031 65.921875 C 45.320312 64.984375 45.023438 64.015625 44.828125 63.019531 C 44.628906 62.023438 44.527344 61.015625 44.527344 60 C 44.527344 58.984375 44.628906 57.976562 44.828125 56.980469 C 45.023438 55.984375 45.320312 55.015625 45.707031 54.078125 C 46.097656 53.136719 46.574219 52.246094 47.140625 51.402344 C 47.707031 50.554688 48.347656 49.773438 49.066406 49.054688 C 49.789062 48.335938 50.570312 47.695312 51.417969 47.128906 C 52.261719 46.566406 53.15625 46.089844 54.09375 45.699219 C 55.035156 45.3125 56.003906 45.019531 57.003906 44.820312 C 58 44.621094 59.007812 44.523438 60.023438 44.523438 Z M 60.023438 54.976562 C 59.695312 54.976562 59.367188 55.007812 59.042969 55.074219 C 58.71875 55.136719 58.40625 55.234375 58.101562 55.359375 C 57.796875 55.484375 57.503906 55.640625 57.230469 55.824219 C 56.957031 56.007812 56.703125 56.214844 56.46875 56.449219 C 56.234375 56.679688 56.027344 56.933594 55.84375 57.210938 C 55.660156 57.484375 55.503906 57.773438 55.378906 58.078125 C 55.253906 58.382812 55.15625 58.695312 55.09375 59.019531 C 55.027344 59.34375 54.996094 59.667969 54.996094 60 C 54.996094 60.328125 55.027344 60.65625 55.09375 60.980469 C 55.15625 61.304688 55.253906 61.617188 55.378906 61.921875 C 55.503906 62.226562 55.660156 62.515625 55.84375 62.789062 C 56.027344 63.066406 56.234375 63.316406 56.46875 63.550781 C 56.703125 63.785156 56.957031 63.992188 57.230469 64.175781 C 57.503906 64.359375 57.796875 64.515625 58.101562 64.640625 C 58.40625 64.765625 58.71875 64.863281 59.042969 64.925781 C 59.367188 64.992188 59.695312 65.023438 60.023438 65.023438 C 60.355469 65.023438 60.683594 64.992188 61.007812 64.925781 C 61.332031 64.863281 61.644531 64.765625 61.949219 64.640625 C 62.253906 64.515625 62.542969 64.359375 62.820312 64.175781 C 63.09375 63.992188 63.347656 63.785156 63.582031 63.550781 C 63.816406 63.316406 64.023438 63.066406 64.207031 62.789062 C 64.390625 62.515625 64.546875 62.226562 64.671875 61.921875 C 64.796875 61.617188 64.894531 61.304688 64.957031 60.980469 C 65.023438 60.65625 65.054688 60.328125 65.054688 60 C 65.054688 59.667969 65.023438 59.34375 64.957031 59.019531 C 64.894531 58.695312 64.796875 58.382812 64.671875 58.078125 C 64.546875 57.773438 64.390625 57.484375 64.207031 57.210938 C 64.023438 56.933594 63.816406 56.679688 63.582031 56.449219 C 63.347656 56.214844 63.09375 56.007812 62.820312 55.824219 C 62.542969 55.640625 62.253906 55.484375 61.949219 55.359375 C 61.644531 55.234375 61.332031 55.136719 61.007812 55.074219 C 60.683594 55.007812 60.355469 54.976562 60.023438 54.976562 Z M 60.023438 55.371094 C 60.328125 55.371094 60.628906 55.402344 60.929688 55.460938 C 61.226562 55.519531 61.515625 55.609375 61.796875 55.722656 C 62.078125 55.839844 62.347656 55.984375 62.597656 56.152344 C 62.851562 56.320312 63.085938 56.511719 63.300781 56.726562 C 63.515625 56.941406 63.707031 57.175781 63.878906 57.429688 C 64.046875 57.679688 64.1875 57.949219 64.304688 58.230469 C 64.421875 58.507812 64.511719 58.800781 64.570312 59.097656 C 64.628906 59.394531 64.660156 59.695312 64.660156 60 C 64.660156 60.304688 64.628906 60.605469 64.570312 60.902344 C 64.511719 61.199219 64.421875 61.488281 64.304688 61.769531 C 64.1875 62.050781 64.046875 62.316406 63.878906 62.570312 C 63.707031 62.824219 63.515625 63.058594 63.300781 63.273438 C 63.085938 63.488281 62.851562 63.679688 62.597656 63.847656 C 62.347656 64.015625 62.078125 64.160156 61.796875 64.273438 C 61.515625 64.390625 61.226562 64.480469 60.929688 64.539062 C 60.628906 64.597656 60.328125 64.628906 60.023438 64.628906 C 59.722656 64.628906 59.417969 64.597656 59.121094 64.539062 C 58.824219 64.480469 58.535156 64.390625 58.253906 64.273438 C 57.972656 64.160156 57.703125 64.015625 57.453125 63.847656 C 57.199219 63.679688 56.964844 63.488281 56.75 63.273438 C 56.535156 63.058594 56.34375 62.824219 56.171875 62.570312 C 56.003906 62.316406 55.859375 62.050781 55.746094 61.769531 C 55.628906 61.488281 55.539062 61.199219 55.480469 60.902344 C 55.421875 60.605469 55.390625 60.304688 55.390625 60 C 55.390625 59.695312 55.421875 59.394531 55.480469 59.097656 C 55.539062 58.800781 55.628906 58.507812 55.746094 58.230469 C 55.859375 57.949219 56.003906 57.679688 56.171875 57.429688 C 56.34375 57.175781 56.535156 56.941406 56.75 56.726562 C 56.964844 56.511719 57.199219 56.320312 57.453125 56.152344 C 57.703125 55.984375 57.972656 55.839844 58.253906 55.722656 C 58.535156 55.609375 58.824219 55.519531 59.121094 55.460938 C 59.417969 55.402344 59.722656 55.371094 60.023438 55.371094 Z M 60.023438 55.820312 C 59.75 55.820312 59.476562 55.847656 59.207031 55.902344 C 58.941406 55.953125 58.679688 56.035156 58.425781 56.140625 C 58.171875 56.242188 57.929688 56.371094 57.699219 56.523438 C 57.472656 56.675781 57.261719 56.851562 57.066406 57.042969 C 56.871094 57.238281 56.699219 57.449219 56.546875 57.679688 C 56.394531 57.90625 56.265625 58.148438 56.160156 58.402344 C 56.054688 58.652344 55.976562 58.914062 55.921875 59.183594 C 55.867188 59.453125 55.839844 59.726562 55.839844 60 C 55.839844 60.273438 55.867188 60.546875 55.921875 60.816406 C 55.976562 61.085938 56.054688 61.34375 56.160156 61.597656 C 56.265625 61.851562 56.394531 62.09375 56.546875 62.320312 C 56.699219 62.550781 56.871094 62.761719 57.066406 62.953125 C 57.261719 63.148438 57.472656 63.320312 57.699219 63.472656 C 57.929688 63.625 58.171875 63.753906 58.425781 63.859375 C 58.679688 63.964844 58.941406 64.042969 59.207031 64.097656 C 59.476562 64.152344 59.75 64.179688 60.023438 64.179688 C 60.300781 64.179688 60.570312 64.152344 60.839844 64.097656 C 61.109375 64.042969 61.371094 63.964844 61.625 63.859375 C 61.878906 63.753906 62.121094 63.625 62.351562 63.472656 C 62.578125 63.320312 62.789062 63.148438 62.984375 62.953125 C 63.179688 62.761719 63.351562 62.550781 63.503906 62.320312 C 63.65625 62.09375 63.785156 61.851562 63.890625 61.597656 C 63.996094 61.34375 64.074219 61.085938 64.128906 60.816406 C 64.183594 60.546875 64.210938 60.273438 64.210938 60 C 64.210938 59.726562 64.183594 59.453125 64.128906 59.183594 C 64.074219 58.914062 63.996094 58.652344 63.890625 58.402344 C 63.785156 58.148438 63.65625 57.90625 63.503906 57.679688 C 63.351562 57.449219 63.179688 57.238281 62.984375 57.042969 C 62.789062 56.851562 62.578125 56.675781 62.351562 56.523438 C 62.121094 56.371094 61.878906 56.242188 61.625 56.140625 C 61.371094 56.035156 61.109375 55.953125 60.839844 55.902344 C 60.570312 55.847656 60.300781 55.820312 60.023438 55.820312 Z M 60.023438 55.820312 " fill-opacity="1" fill-rule="evenodd"/></g><path fill="#000000" d="M 60.765625 52.707031 C 60.765625 52.917969 60.6875 53.101562 60.539062 53.25 C 60.386719 53.402344 60.207031 53.476562 59.992188 53.476562 C 59.78125 53.476562 59.597656 53.402344 59.449219 53.25 C 59.296875 53.101562 59.222656 52.917969 59.222656 52.707031 C 59.222656 52.496094 59.296875 52.3125 59.449219 52.164062 C 59.597656 52.011719 59.78125 51.9375 59.992188 51.9375 C 60.207031 51.9375 60.386719 52.011719 60.539062 52.164062 C 60.6875 52.3125 60.765625 52.496094 60.765625 52.707031 Z M 60.765625 52.707031 " fill-opacity="1" fill-rule="evenodd"/><path fill="#000000" d="M 60.828125 67.292969 C 60.828125 67.082031 60.753906 66.898438 60.601562 66.75 C 60.453125 66.597656 60.269531 66.523438 60.058594 66.523438 C 59.84375 66.523438 59.660156 66.597656 59.511719 66.75 C 59.359375 66.898438 59.285156 67.082031 59.285156 67.292969 C 59.285156 67.503906 59.359375 67.6875 59.511719 67.835938 C 59.660156 67.988281 59.84375 68.0625 60.058594 68.0625 C 60.269531 68.0625 60.453125 67.988281 60.601562 67.835938 C 60.753906 67.6875 60.828125 67.503906 60.828125 67.292969 Z M 60.828125 67.292969 " fill-opacity="1" fill-rule="evenodd"/><g fill="#21282e" fill-opacity="1"><g transform="translate(10.88828, 20.750003)"><g><path d="M 4.109375 -3.765625 C 4.410156 -3.671875 4.65625 -3.519531 4.84375 -3.3125 C 5.03125 -3.113281 5.164062 -2.894531 5.25 -2.65625 C 5.34375 -2.425781 5.382812 -2.210938 5.375 -2.015625 C 5.375 -1.566406 5.265625 -1.191406 5.046875 -0.890625 C 4.835938 -0.597656 4.5625 -0.375 4.21875 -0.21875 C 3.875 -0.0703125 3.492188 0 3.078125 0 L 1.015625 0 L 1.015625 -7.046875 L 3.09375 -7.046875 C 3.46875 -7.046875 3.800781 -6.96875 4.09375 -6.8125 C 4.394531 -6.65625 4.632812 -6.4375 4.8125 -6.15625 C 4.988281 -5.875 5.078125 -5.550781 5.078125 -5.1875 C 5.078125 -5.03125 5.046875 -4.859375 4.984375 -4.671875 C 4.929688 -4.484375 4.832031 -4.304688 4.6875 -4.140625 C 4.550781 -3.984375 4.359375 -3.859375 4.109375 -3.765625 Z M 4.3125 -5.1875 C 4.3125 -5.363281 4.265625 -5.539062 4.171875 -5.71875 C 4.085938 -5.894531 3.957031 -6.039062 3.78125 -6.15625 C 3.601562 -6.28125 3.375 -6.34375 3.09375 -6.34375 L 1.8125 -6.34375 L 1.8125 -4.0625 L 3.09375 -4.0625 C 3.375 -4.0625 3.601562 -4.117188 3.78125 -4.234375 C 3.957031 -4.347656 4.085938 -4.492188 4.171875 -4.671875 C 4.265625 -4.847656 4.3125 -5.019531 4.3125 -5.1875 Z M 3.09375 -0.703125 C 3.4375 -0.703125 3.71875 -0.765625 3.9375 -0.890625 C 4.164062 -1.023438 4.332031 -1.191406 4.4375 -1.390625 C 4.550781 -1.597656 4.609375 -1.8125 4.609375 -2.03125 C 4.609375 -2.238281 4.550781 -2.441406 4.4375 -2.640625 C 4.332031 -2.847656 4.164062 -3.019531 3.9375 -3.15625 C 3.71875 -3.300781 3.4375 -3.375 3.09375 -3.375 L 1.8125 -3.375 L 1.8125 -0.703125 Z M 3.09375 -0.703125 "/></g></g></g><g fill="#21282e" fill-opacity="1"><g transform="translate(17.775861, 20.750003)"><g><path d="M 5.296875 0 L 4.46875 -2.203125 L 1.796875 -2.203125 L 1 0 L 0.15625 0 L 2.671875 -7 L 3.59375 -7 L 6.125 0 Z M 2.796875 -5.203125 L 2.046875 -2.90625 L 4.21875 -2.90625 L 3.453125 -5.203125 L 3.15625 -6.171875 L 3.078125 -6.171875 Z M 2.796875 -5.203125 "/></g></g></g><g fill="#21282e" fill-opacity="1"><g transform="translate(24.913346, 20.750003)"><g><path d="M 1.03125 0 L 1.03125 -7.03125 L 2.015625 -7.03125 L 4.765625 -2.265625 L 5.453125 -0.953125 L 5.46875 -0.953125 L 5.375 -2.609375 L 5.375 -7.03125 L 6.1875 -7.03125 L 6.1875 0 L 5.203125 0 L 2.46875 -4.734375 L 1.765625 -6.0625 L 1.734375 -6.0625 L 1.84375 -4.4375 L 1.84375 0 Z M 1.03125 0 "/></g></g></g><g fill="#21282e" fill-opacity="1"><g transform="translate(33.030445, 20.750003)"><g><path d="M 3.234375 -7.046875 C 3.804688 -7.046875 4.300781 -6.945312 4.71875 -6.75 C 5.144531 -6.550781 5.492188 -6.285156 5.765625 -5.953125 C 6.046875 -5.628906 6.253906 -5.257812 6.390625 -4.84375 C 6.523438 -4.4375 6.59375 -4.015625 6.59375 -3.578125 C 6.59375 -3.128906 6.523438 -2.691406 6.390625 -2.265625 C 6.265625 -1.835938 6.066406 -1.453125 5.796875 -1.109375 C 5.523438 -0.765625 5.175781 -0.492188 4.75 -0.296875 C 4.332031 -0.0976562 3.828125 0 3.234375 0 L 1.03125 0 L 1.03125 -7.046875 Z M 3.234375 -0.734375 C 3.679688 -0.734375 4.066406 -0.8125 4.390625 -0.96875 C 4.722656 -1.125 4.992188 -1.332031 5.203125 -1.59375 C 5.410156 -1.863281 5.5625 -2.164062 5.65625 -2.5 C 5.757812 -2.832031 5.8125 -3.175781 5.8125 -3.53125 C 5.8125 -3.875 5.757812 -4.210938 5.65625 -4.546875 C 5.550781 -4.878906 5.394531 -5.175781 5.1875 -5.4375 C 4.976562 -5.695312 4.710938 -5.90625 4.390625 -6.0625 C 4.066406 -6.21875 3.6875 -6.296875 3.25 -6.296875 L 1.828125 -6.296875 L 1.828125 -0.734375 Z M 3.234375 -0.734375 "/></g></g></g><g fill="#21282e" fill-opacity="1"><g transform="translate(41.077575, 20.750003)"><g/></g></g><g fill="#21282e" fill-opacity="1"><g transform="translate(44.536518, 20.750003)"><g><path d="M 0.3125 0.578125 L 3.125 -7.625 L 3.921875 -7.625 L 1.125 0.578125 Z M 0.3125 0.578125 "/></g></g></g><g fill="#21282e" fill-opacity="1"><g transform="translate(49.484874, 20.750003)"><g/></g></g><g fill="#21282e" fill-opacity="1"><g transform="translate(52.943816, 20.750003)"><g><path d="M 3.0625 -7.015625 C 3.582031 -7.015625 4.007812 -6.90625 4.34375 -6.6875 C 4.675781 -6.46875 4.925781 -6.1875 5.09375 -5.84375 C 5.269531 -5.507812 5.359375 -5.15625 5.359375 -4.78125 C 5.359375 -4.414062 5.269531 -4.066406 5.09375 -3.734375 C 4.925781 -3.398438 4.675781 -3.125 4.34375 -2.90625 C 4.007812 -2.695312 3.585938 -2.59375 3.078125 -2.59375 L 1.8125 -2.59375 L 1.8125 0.015625 L 1.015625 0.015625 L 1.015625 -7.015625 Z M 3.0625 -3.3125 C 3.394531 -3.3125 3.671875 -3.382812 3.890625 -3.53125 C 4.117188 -3.675781 4.285156 -3.863281 4.390625 -4.09375 C 4.503906 -4.320312 4.5625 -4.550781 4.5625 -4.78125 C 4.5625 -5.019531 4.503906 -5.253906 4.390625 -5.484375 C 4.273438 -5.710938 4.109375 -5.898438 3.890625 -6.046875 C 3.671875 -6.203125 3.394531 -6.28125 3.0625 -6.28125 L 1.8125 -6.28125 L 1.8125 -3.3125 Z M 3.0625 -3.3125 "/></g></g></g><g fill="#21282e" fill-opacity="1"><g transform="translate(59.651473, 20.750003)"><g><path d="M 4.796875 0 L 2.59375 -2.84375 L 1.84375 -2.84375 L 1.84375 0 L 1.03125 0 L 1.03125 -7 L 3.203125 -7 C 3.648438 -7 4.046875 -6.925781 4.390625 -6.78125 C 4.734375 -6.632812 5.003906 -6.40625 5.203125 -6.09375 C 5.410156 -5.789062 5.515625 -5.394531 5.515625 -4.90625 C 5.515625 -4.28125 5.332031 -3.789062 4.96875 -3.4375 C 4.613281 -3.09375 4.128906 -2.898438 3.515625 -2.859375 L 5.734375 0 Z M 4.703125 -4.9375 C 4.703125 -5.382812 4.5625 -5.71875 4.28125 -5.9375 C 4 -6.164062 3.640625 -6.28125 3.203125 -6.28125 L 1.84375 -6.28125 L 1.84375 -3.5625 L 3.1875 -3.5625 C 3.664062 -3.5625 4.035156 -3.675781 4.296875 -3.90625 C 4.566406 -4.144531 4.703125 -4.488281 4.703125 -4.9375 Z M 4.703125 -4.9375 "/></g></g></g><g fill="#21282e" fill-opacity="1"><g transform="translate(66.698996, 20.750003)"><g><path d="M 4.09375 0.125 C 3.59375 0.125 3.125 0.0351562 2.6875 -0.140625 C 2.25 -0.328125 1.867188 -0.582031 1.546875 -0.90625 C 1.222656 -1.238281 0.972656 -1.625 0.796875 -2.0625 C 0.617188 -2.5 0.53125 -2.972656 0.53125 -3.484375 C 0.53125 -4.003906 0.617188 -4.484375 0.796875 -4.921875 C 0.972656 -5.367188 1.222656 -5.753906 1.546875 -6.078125 C 1.867188 -6.398438 2.25 -6.65625 2.6875 -6.84375 C 3.125 -7.03125 3.59375 -7.125 4.09375 -7.125 C 4.601562 -7.125 5.070312 -7.03125 5.5 -6.84375 C 5.9375 -6.65625 6.316406 -6.398438 6.640625 -6.078125 C 6.960938 -5.753906 7.210938 -5.367188 7.390625 -4.921875 C 7.566406 -4.484375 7.65625 -4.003906 7.65625 -3.484375 C 7.65625 -2.972656 7.566406 -2.5 7.390625 -2.0625 C 7.210938 -1.625 6.960938 -1.238281 6.640625 -0.90625 C 6.316406 -0.582031 5.9375 -0.328125 5.5 -0.140625 C 5.070312 0.0351562 4.601562 0.125 4.09375 0.125 Z M 4.09375 -0.609375 C 4.632812 -0.609375 5.109375 -0.726562 5.515625 -0.96875 C 5.929688 -1.21875 6.253906 -1.5625 6.484375 -2 C 6.722656 -2.4375 6.84375 -2.929688 6.84375 -3.484375 C 6.84375 -4.046875 6.722656 -4.546875 6.484375 -4.984375 C 6.242188 -5.421875 5.914062 -5.765625 5.5 -6.015625 C 5.09375 -6.265625 4.625 -6.390625 4.09375 -6.390625 C 3.570312 -6.390625 3.101562 -6.265625 2.6875 -6.015625 C 2.269531 -5.765625 1.941406 -5.421875 1.703125 -4.984375 C 1.460938 -4.546875 1.34375 -4.046875 1.34375 -3.484375 C 1.34375 -2.929688 1.460938 -2.4375 1.703125 -2 C 1.941406 -1.5625 2.269531 -1.21875 2.6875 -0.96875 C 3.101562 -0.726562 3.570312 -0.609375 4.09375 -0.609375 Z M 4.09375 -0.609375 "/></g></g></g><g fill="#21282e" fill-opacity="1"><g transform="translate(75.805712, 20.750003)"><g><path d="M 3.0625 -7.015625 C 3.582031 -7.015625 4.007812 -6.90625 4.34375 -6.6875 C 4.675781 -6.46875 4.925781 -6.1875 5.09375 -5.84375 C 5.269531 -5.507812 5.359375 -5.15625 5.359375 -4.78125 C 5.359375 -4.414062 5.269531 -4.066406 5.09375 -3.734375 C 4.925781 -3.398438 4.675781 -3.125 4.34375 -2.90625 C 4.007812 -2.695312 3.585938 -2.59375 3.078125 -2.59375 L 1.8125 -2.59375 L 1.8125 0.015625 L 1.015625 0.015625 L 1.015625 -7.015625 Z M 3.0625 -3.3125 C 3.394531 -3.3125 3.671875 -3.382812 3.890625 -3.53125 C 4.117188 -3.675781 4.285156 -3.863281 4.390625 -4.09375 C 4.503906 -4.320312 4.5625 -4.550781 4.5625 -4.78125 C 4.5625 -5.019531 4.503906 -5.253906 4.390625 -5.484375 C 4.273438 -5.710938 4.109375 -5.898438 3.890625 -6.046875 C 3.671875 -6.203125 3.394531 -6.28125 3.0625 -6.28125 L 1.8125 -6.28125 L 1.8125 -3.3125 Z M 3.0625 -3.3125 "/></g></g></g><g fill="#21282e" fill-opacity="1"><g transform="translate(82.513368, 20.750003)"><g/></g></g><g fill="#21282e" fill-opacity="1"><g transform="translate(85.97231, 20.750003)"><g><path d="M 2.6875 0.125 C 2.257812 0.125 1.835938 0.00390625 1.421875 -0.234375 C 1.015625 -0.472656 0.710938 -0.832031 0.515625 -1.3125 L 1.1875 -1.65625 C 1.363281 -1.300781 1.585938 -1.035156 1.859375 -0.859375 C 2.128906 -0.691406 2.421875 -0.609375 2.734375 -0.609375 C 3.140625 -0.609375 3.472656 -0.722656 3.734375 -0.953125 C 3.992188 -1.191406 4.125 -1.5 4.125 -1.875 C 4.125 -2.175781 4.046875 -2.421875 3.890625 -2.609375 C 3.734375 -2.796875 3.539062 -2.941406 3.3125 -3.046875 C 3.09375 -3.148438 2.875 -3.234375 2.65625 -3.296875 C 2.445312 -3.347656 2.226562 -3.421875 2 -3.515625 C 1.78125 -3.609375 1.570312 -3.726562 1.375 -3.875 C 1.1875 -4.03125 1.035156 -4.222656 0.921875 -4.453125 C 0.804688 -4.679688 0.75 -4.957031 0.75 -5.28125 C 0.75 -5.707031 0.847656 -6.054688 1.046875 -6.328125 C 1.253906 -6.597656 1.515625 -6.796875 1.828125 -6.921875 C 2.148438 -7.054688 2.472656 -7.125 2.796875 -7.125 C 3.210938 -7.125 3.597656 -7.015625 3.953125 -6.796875 C 4.304688 -6.585938 4.578125 -6.257812 4.765625 -5.8125 L 4.125 -5.515625 C 3.976562 -5.835938 3.785156 -6.066406 3.546875 -6.203125 C 3.304688 -6.335938 3.046875 -6.40625 2.765625 -6.40625 C 2.566406 -6.40625 2.375 -6.363281 2.1875 -6.28125 C 2 -6.195312 1.84375 -6.066406 1.71875 -5.890625 C 1.59375 -5.722656 1.53125 -5.503906 1.53125 -5.234375 C 1.53125 -4.972656 1.601562 -4.757812 1.75 -4.59375 C 1.90625 -4.425781 2.082031 -4.296875 2.28125 -4.203125 C 2.488281 -4.109375 2.6875 -4.039062 2.875 -4 C 3.125 -3.9375 3.367188 -3.851562 3.609375 -3.75 C 3.859375 -3.644531 4.082031 -3.507812 4.28125 -3.34375 C 4.476562 -3.1875 4.632812 -2.984375 4.75 -2.734375 C 4.875 -2.492188 4.9375 -2.195312 4.9375 -1.84375 C 4.9375 -1.5 4.867188 -1.203125 4.734375 -0.953125 C 4.597656 -0.710938 4.414062 -0.507812 4.1875 -0.34375 C 3.96875 -0.1875 3.722656 -0.0703125 3.453125 0 C 3.191406 0.0820312 2.9375 0.125 2.6875 0.125 Z M 2.6875 0.125 "/></g></g></g><g fill="#21282e" fill-opacity="1"><g transform="translate(92.430062, 20.750003)"><g><path d="M 5.296875 0 L 4.46875 -2.203125 L 1.796875 -2.203125 L 1 0 L 0.15625 0 L 2.671875 -7 L 3.59375 -7 L 6.125 0 Z M 2.796875 -5.203125 L 2.046875 -2.90625 L 4.21875 -2.90625 L 3.453125 -5.203125 L 3.15625 -6.171875 L 3.078125 -6.171875 Z M 2.796875 -5.203125 "/></g></g></g><g fill="#21282e" fill-opacity="1"><g transform="translate(99.567547, 20.750003)"><g><path d="M 2.3125 0.015625 L 0.40625 -7.015625 L 1.234375 -7.015625 L 2.5 -2.15625 L 2.8125 -0.65625 L 2.84375 -0.65625 L 3.1875 -2.078125 L 4.265625 -6.015625 L 5.203125 -6.015625 L 6.296875 -2.0625 L 6.625 -0.65625 L 6.65625 -0.65625 L 7 -2.265625 L 8.234375 -7.015625 L 9.0625 -7.015625 L 7.15625 0.015625 L 6.15625 0.015625 L 5.109375 -3.640625 L 4.75 -5.140625 L 4.71875 -5.140625 L 4.375 -3.640625 L 3.3125 0.015625 Z M 2.3125 0.015625 "/></g></g></g></svg>