<svg xmlns="http://www.w3.org/2000/svg" xmlns:xlink="http://www.w3.org/1999/xlink" width="160" zoomAndPan="magnify" viewBox="0 0 120 119.999999" height="160" preserveAspectRatio="xMidYMid meet" version="1.0"><defs><g/><clipPath id="b406a259a2"><path d="M 5 3 L 22 3 L 22 10 L 5 10 Z M 5 3 " clip-rule="nonzero"/></clipPath><clipPath id="28c373d639"><path d="M 19.808594 0.914062 L 22.929688 9.4375 L 7.273438 15.175781 L 4.148438 6.652344 Z M 19.808594 0.914062 " clip-rule="nonzero"/></clipPath><clipPath id="98c9f5ae58"><path d="M 19.808594 0.914062 L 22.929688 9.4375 L 7.273438 15.175781 L 4.148438 6.652344 Z M 19.808594 0.914062 " clip-rule="nonzero"/></clipPath><clipPath id="b04233f84e"><path d="M 0.761719 9 L 25.238281 9 L 25.238281 19 L 0.761719 19 Z M 0.761719 9 " clip-rule="nonzero"/></clipPath><clipPath id="0ef95847fb"><rect x="0" width="26" y="0" height="10"/></clipPath><clipPath id="a74957f19b"><path d="M 4 12 L 23 12 L 23 26.441406 L 4 26.441406 Z M 4 12 " clip-rule="nonzero"/></clipPath><clipPath id="696edf9110"><path d="M 19.808594 12.074219 L 22.929688 20.597656 L 7.273438 26.335938 L 4.148438 17.8125 Z M 19.808594 12.074219 " clip-rule="nonzero"/></clipPath><clipPath id="939f87b637"><path d="M 1 5 L 18 5 L 18 12 L 1 12 Z M 1 5 " clip-rule="nonzero"/></clipPath><clipPath id="977f724f47"><path d="M 15.808594 0.0742188 L 18.929688 8.597656 L 3.273438 14.335938 L 0.148438 5.8125 Z M 15.808594 0.0742188 " clip-rule="nonzero"/></clipPath><clipPath id="5bb3fb1d2c"><path d="M 3.273438 14.347656 L 0.148438 5.824219 L 15.808594 0.0859375 L 18.933594 8.609375 Z M 3.273438 14.347656 " clip-rule="nonzero"/></clipPath><clipPath id="5808347633"><rect x="0" width="19" y="0" height="15"/></clipPath><clipPath id="4c7bb44661"><rect x="0" width="26" y="0" height="27"/></clipPath><clipPath id="3fb8921906"><path d="M 12 35 L 110 35 L 110 78 L 12 78 Z M 12 35 " clip-rule="nonzero"/></clipPath><clipPath id="46603599ab"><path d="M 53.949219 6.976562 L 113.238281 54.125 L 66.085938 113.410156 L 6.800781 66.261719 Z M 53.949219 6.976562 " clip-rule="nonzero"/></clipPath><clipPath id="21e7b39dfd"><path d="M 53.949219 6.976562 L 113.238281 54.125 L 66.085938 113.410156 L 6.800781 66.261719 Z M 53.949219 6.976562 " clip-rule="nonzero"/></clipPath><clipPath id="039f92dd54"><path d="M 53.949219 6.976562 L 113.238281 54.125 L 66.085938 113.410156 L 6.800781 66.261719 Z M 53.949219 6.976562 " clip-rule="nonzero"/></clipPath></defs><rect x="-12" width="144" fill="#ffffff" y="-12" height="143.999998" fill-opacity="1"/><rect x="-12" width="144" fill="#ffffff" y="-12" height="143.999998" fill-opacity="1"/><g transform="matrix(1, 0, 0, 1, 47, 89)"><g clip-path="url(#4c7bb44661)"><g clip-path="url(#b406a259a2)"><g clip-path="url(#28c373d639)"><g clip-path="url(#98c9f5ae58)"><path fill="#212121" d="M 21.421875 5.347656 C 21.328125 5.09375 21.230469 4.933594 21.144531 4.917969 C 20.773438 4.863281 20.609375 6.242188 20.539062 7.128906 C 19.863281 6.332031 18.867188 5.441406 17.488281 4.792969 C 16.117188 4.148438 14.511719 3.824219 12.867188 3.960938 C 11.109375 4.105469 9.5 4.761719 8.234375 5.691406 C 6.539062 6.9375 5.65625 8.492188 5.210938 9.53125 C 5.660156 8.484375 6.605469 6.972656 8.332031 5.832031 C 9.621094 4.980469 11.210938 4.4375 12.890625 4.394531 C 14.460938 4.359375 15.945312 4.753906 17.179688 5.417969 C 18.449219 6.097656 19.332031 6.980469 19.929688 7.734375 C 19.046875 7.5625 17.449219 7.300781 17.402344 7.65625 C 17.339844 8.144531 21.203125 10.082031 21.808594 9.636719 C 22.226562 9.324219 21.835938 6.453125 21.421875 5.347656 Z M 21.421875 5.347656 " fill-opacity="1" fill-rule="nonzero"/></g></g></g><g clip-path="url(#b04233f84e)"><g transform="matrix(1, 0, 0, 1, 0, 9)"><g clip-path="url(#0ef95847fb)"><g fill="#000000" fill-opacity="1"><g transform="translate(0.81023, 7.19389)"><g><path d="M 2.28125 0.09375 C 1.875 0.09375 1.484375 0.0390625 1.109375 -0.0625 C 0.734375 -0.175781 0.429688 -0.320312 0.203125 -0.5 L 0.609375 -1.390625 C 0.828125 -1.234375 1.082031 -1.101562 1.375 -1 C 1.675781 -0.90625 1.976562 -0.859375 2.28125 -0.859375 C 2.613281 -0.859375 2.859375 -0.90625 3.015625 -1 C 3.179688 -1.101562 3.265625 -1.238281 3.265625 -1.40625 C 3.265625 -1.53125 3.21875 -1.628906 3.125 -1.703125 C 3.03125 -1.785156 2.910156 -1.847656 2.765625 -1.890625 C 2.617188 -1.941406 2.414062 -2 2.15625 -2.0625 C 1.769531 -2.15625 1.453125 -2.242188 1.203125 -2.328125 C 0.960938 -2.421875 0.753906 -2.570312 0.578125 -2.78125 C 0.398438 -2.988281 0.3125 -3.257812 0.3125 -3.59375 C 0.3125 -3.894531 0.390625 -4.164062 0.546875 -4.40625 C 0.703125 -4.644531 0.941406 -4.832031 1.265625 -4.96875 C 1.585938 -5.113281 1.984375 -5.1875 2.453125 -5.1875 C 2.773438 -5.1875 3.09375 -5.144531 3.40625 -5.0625 C 3.71875 -4.988281 3.988281 -4.878906 4.21875 -4.734375 L 3.859375 -3.84375 C 3.390625 -4.101562 2.921875 -4.234375 2.453125 -4.234375 C 2.117188 -4.234375 1.875 -4.179688 1.71875 -4.078125 C 1.5625 -3.972656 1.484375 -3.832031 1.484375 -3.65625 C 1.484375 -3.476562 1.570312 -3.347656 1.75 -3.265625 C 1.9375 -3.179688 2.210938 -3.097656 2.578125 -3.015625 C 2.972656 -2.921875 3.289062 -2.828125 3.53125 -2.734375 C 3.78125 -2.640625 3.992188 -2.492188 4.171875 -2.296875 C 4.347656 -2.097656 4.4375 -1.832031 4.4375 -1.5 C 4.4375 -1.207031 4.351562 -0.9375 4.1875 -0.6875 C 4.03125 -0.445312 3.789062 -0.253906 3.46875 -0.109375 C 3.144531 0.0234375 2.75 0.09375 2.28125 0.09375 Z M 2.28125 0.09375 "/></g></g></g><g fill="#000000" fill-opacity="1"><g transform="translate(5.073316, 7.19389)"><g><path d="M 0.53125 -3.921875 L 1.65625 -3.921875 L 1.65625 0 L 0.53125 0 Z M 1.09375 -4.46875 C 0.882812 -4.46875 0.710938 -4.523438 0.578125 -4.640625 C 0.453125 -4.765625 0.390625 -4.914062 0.390625 -5.09375 C 0.390625 -5.269531 0.453125 -5.421875 0.578125 -5.546875 C 0.710938 -5.671875 0.882812 -5.734375 1.09375 -5.734375 C 1.300781 -5.734375 1.46875 -5.671875 1.59375 -5.546875 C 1.726562 -5.429688 1.796875 -5.289062 1.796875 -5.125 C 1.796875 -4.925781 1.726562 -4.765625 1.59375 -4.640625 C 1.46875 -4.523438 1.300781 -4.46875 1.09375 -4.46875 Z M 1.09375 -4.46875 "/></g></g></g><g fill="#000000" fill-opacity="1"><g transform="translate(6.880514, 7.19389)"><g><path d="M 5.546875 -3.96875 C 6.035156 -3.96875 6.421875 -3.820312 6.703125 -3.53125 C 6.992188 -3.25 7.140625 -2.820312 7.140625 -2.25 L 7.140625 0 L 6 0 L 6 -2.0625 C 6 -2.375 5.9375 -2.609375 5.8125 -2.765625 C 5.6875 -2.921875 5.503906 -3 5.265625 -3 C 4.992188 -3 4.78125 -2.910156 4.625 -2.734375 C 4.46875 -2.554688 4.390625 -2.300781 4.390625 -1.96875 L 4.390625 0 L 3.265625 0 L 3.265625 -2.0625 C 3.265625 -2.6875 3.015625 -3 2.515625 -3 C 2.253906 -3 2.046875 -2.910156 1.890625 -2.734375 C 1.734375 -2.554688 1.65625 -2.300781 1.65625 -1.96875 L 1.65625 0 L 0.53125 0 L 0.53125 -3.921875 L 1.609375 -3.921875 L 1.609375 -3.46875 C 1.753906 -3.632812 1.929688 -3.757812 2.140625 -3.84375 C 2.359375 -3.925781 2.59375 -3.96875 2.84375 -3.96875 C 3.113281 -3.96875 3.359375 -3.910156 3.578125 -3.796875 C 3.804688 -3.691406 3.988281 -3.535156 4.125 -3.328125 C 4.289062 -3.535156 4.492188 -3.691406 4.734375 -3.796875 C 4.984375 -3.910156 5.253906 -3.96875 5.546875 -3.96875 Z M 5.546875 -3.96875 "/></g></g></g><g fill="#000000" fill-opacity="1"><g transform="translate(14.138764, 7.19389)"><g><path d="M 2.84375 -3.96875 C 3.207031 -3.96875 3.535156 -3.882812 3.828125 -3.71875 C 4.128906 -3.550781 4.363281 -3.316406 4.53125 -3.015625 C 4.707031 -2.710938 4.796875 -2.359375 4.796875 -1.953125 C 4.796875 -1.554688 4.707031 -1.203125 4.53125 -0.890625 C 4.363281 -0.585938 4.128906 -0.351562 3.828125 -0.1875 C 3.535156 -0.0195312 3.207031 0.0625 2.84375 0.0625 C 2.34375 0.0625 1.945312 -0.0976562 1.65625 -0.421875 L 1.65625 1.40625 L 0.53125 1.40625 L 0.53125 -3.921875 L 1.609375 -3.921875 L 1.609375 -3.46875 C 1.890625 -3.800781 2.300781 -3.96875 2.84375 -3.96875 Z M 2.640625 -0.875 C 2.929688 -0.875 3.171875 -0.972656 3.359375 -1.171875 C 3.546875 -1.367188 3.640625 -1.628906 3.640625 -1.953125 C 3.640625 -2.285156 3.546875 -2.550781 3.359375 -2.75 C 3.171875 -2.945312 2.929688 -3.046875 2.640625 -3.046875 C 2.347656 -3.046875 2.109375 -2.945312 1.921875 -2.75 C 1.734375 -2.550781 1.640625 -2.285156 1.640625 -1.953125 C 1.640625 -1.628906 1.734375 -1.367188 1.921875 -1.171875 C 2.109375 -0.972656 2.347656 -0.875 2.640625 -0.875 Z M 2.640625 -0.875 "/></g></g></g><g fill="#000000" fill-opacity="1"><g transform="translate(18.7808, 7.19389)"><g><path d="M 0.53125 -5.40625 L 1.65625 -5.40625 L 1.65625 0 L 0.53125 0 Z M 0.53125 -5.40625 "/></g></g></g><g fill="#000000" fill-opacity="1"><g transform="translate(20.587998, 7.19389)"><g><path d="M 4.359375 -1.9375 C 4.359375 -1.925781 4.351562 -1.828125 4.34375 -1.640625 L 1.375 -1.640625 C 1.425781 -1.398438 1.550781 -1.207031 1.75 -1.0625 C 1.945312 -0.925781 2.195312 -0.859375 2.5 -0.859375 C 2.695312 -0.859375 2.875 -0.882812 3.03125 -0.9375 C 3.195312 -1 3.347656 -1.097656 3.484375 -1.234375 L 4.078125 -0.578125 C 3.710938 -0.148438 3.175781 0.0625 2.46875 0.0625 C 2.03125 0.0625 1.640625 -0.0195312 1.296875 -0.1875 C 0.953125 -0.363281 0.6875 -0.601562 0.5 -0.90625 C 0.320312 -1.21875 0.234375 -1.566406 0.234375 -1.953125 C 0.234375 -2.335938 0.320312 -2.679688 0.5 -2.984375 C 0.6875 -3.296875 0.9375 -3.535156 1.25 -3.703125 C 1.570312 -3.878906 1.929688 -3.96875 2.328125 -3.96875 C 2.703125 -3.96875 3.046875 -3.882812 3.359375 -3.71875 C 3.671875 -3.5625 3.914062 -3.328125 4.09375 -3.015625 C 4.269531 -2.710938 4.359375 -2.351562 4.359375 -1.9375 Z M 2.328125 -3.109375 C 2.066406 -3.109375 1.847656 -3.035156 1.671875 -2.890625 C 1.503906 -2.742188 1.398438 -2.546875 1.359375 -2.296875 L 3.296875 -2.296875 C 3.253906 -2.546875 3.144531 -2.742188 2.96875 -2.890625 C 2.789062 -3.035156 2.578125 -3.109375 2.328125 -3.109375 Z M 2.328125 -3.109375 "/></g></g></g></g></g></g><g clip-path="url(#a74957f19b)"><g clip-path="url(#696edf9110)"><g transform="matrix(1, 0, 0, 1, 4, 12)"><g clip-path="url(#5808347633)"><g clip-path="url(#939f87b637)"><g clip-path="url(#977f724f47)"><g clip-path="url(#5bb3fb1d2c)"><path fill="#212121" d="M 1.65625 9.914062 C 1.753906 10.167969 1.847656 10.328125 1.9375 10.339844 C 2.304688 10.398438 2.472656 9.019531 2.542969 8.132812 C 3.214844 8.929688 4.210938 9.820312 5.589844 10.464844 C 6.960938 11.109375 8.570312 11.433594 10.210938 11.300781 C 11.972656 11.15625 13.578125 10.5 14.847656 9.570312 C 16.539062 8.324219 17.421875 6.769531 17.871094 5.730469 C 17.417969 6.777344 16.472656 8.289062 14.75 9.429688 C 13.460938 10.28125 11.867188 10.824219 10.1875 10.867188 C 8.621094 10.902344 7.136719 10.503906 5.902344 9.84375 C 4.632812 9.164062 3.746094 8.28125 3.152344 7.527344 C 4.03125 7.699219 5.632812 7.960938 5.675781 7.605469 C 5.738281 7.117188 1.875 5.179688 1.269531 5.625 C 0.851562 5.933594 1.242188 8.808594 1.65625 9.914062 Z M 1.65625 9.914062 " fill-opacity="1" fill-rule="nonzero"/></g></g></g></g></g></g></g></g></g><g clip-path="url(#3fb8921906)"><g clip-path="url(#46603599ab)"><g clip-path="url(#21e7b39dfd)"><g clip-path="url(#039f92dd54)"><path fill="#000000" d="M 16.445312 63.527344 C 16.675781 63.257812 16.949219 63.152344 17.246094 63.109375 C 16.230469 62.15625 15.347656 61.066406 14.769531 59.800781 C 14.335938 59.964844 13.882812 60.082031 13.453125 60.265625 C 13.832031 61.261719 14.496094 62.09375 15.023438 63.027344 C 15.25 63.429688 15.574219 63.882812 15.832031 64.351562 C 16.023438 64.050781 16.242188 63.769531 16.445312 63.527344 Z M 22.046875 64.207031 C 22.242188 64.039062 22.296875 63.808594 22.257812 63.582031 C 22.195312 63.527344 22.140625 63.46875 22.085938 63.394531 C 21.847656 63.070312 21.628906 62.886719 21.417969 62.789062 C 21.335938 62.785156 21.25 62.796875 21.167969 62.832031 C 20.851562 62.953125 20.578125 63.144531 20.316406 63.371094 C 20.386719 63.570312 20.566406 63.773438 20.675781 63.863281 C 21.003906 64.148438 21.621094 64.570312 22.046875 64.207031 Z M 21.007812 65.886719 C 21.335938 65.582031 21.707031 65.214844 22.015625 64.816406 C 21.667969 64.925781 21.25 64.898438 20.851562 64.703125 C 20.449219 64.507812 20.09375 64.183594 19.886719 63.78125 C 19.550781 64.160156 19.246094 64.574219 18.957031 64.949219 C 19.3125 65.617188 20.261719 66.578125 21.007812 65.886719 Z M 19.6875 68.28125 C 20.023438 68.230469 20.472656 68.085938 20.832031 67.847656 C 19.386719 68.203125 17.15625 66.738281 16.796875 65.042969 C 16.328125 65.851562 16.144531 66.578125 17.042969 67.25 C 17.746094 67.773438 18.753906 68.417969 19.6875 68.28125 Z M 17.347656 64.457031 C 17.269531 66.375 20.730469 68.433594 21.371094 66.632812 C 21.355469 66.578125 21.335938 66.527344 21.304688 66.472656 C 21.292969 66.449219 21.289062 66.433594 21.277344 66.40625 C 21.128906 66.515625 20.964844 66.601562 20.78125 66.644531 C 19.6875 66.875 18.777344 65.964844 18.355469 65.046875 C 18.308594 64.949219 18.328125 64.859375 18.378906 64.792969 C 18.390625 64.75 18.402344 64.707031 18.433594 64.664062 C 18.527344 64.546875 18.617188 64.433594 18.710938 64.3125 C 18.679688 64.320312 18.640625 64.332031 18.609375 64.332031 C 18.132812 64.355469 17.710938 64.285156 17.347656 64.457031 Z M 17.492188 72.242188 C 18.179688 71.292969 18.902344 70.140625 19.851562 69.402344 C 19.703125 69.425781 19.554688 69.4375 19.410156 69.441406 C 18.3125 69.4375 16.855469 68.832031 15.972656 67.890625 C 15.695312 68.929688 15.226562 69.933594 14.675781 70.824219 C 15.472656 71.496094 16.570312 71.734375 17.492188 72.242188 Z M 24.195312 65.425781 C 24.261719 65.402344 24.332031 65.394531 24.398438 65.394531 C 24.394531 64.742188 24.316406 64.066406 24.074219 63.46875 C 24.023438 63.511719 23.960938 63.546875 23.890625 63.570312 C 23.652344 63.652344 23.417969 63.734375 23.191406 63.777344 C 23.019531 64.464844 22.585938 65.042969 22.117188 65.5625 C 22.074219 65.605469 22.035156 65.648438 21.996094 65.695312 C 22.015625 65.695312 22.03125 65.691406 22.050781 65.691406 C 22.769531 65.710938 23.507812 65.664062 24.195312 65.425781 Z M 28.902344 62.199219 C 29.253906 62.152344 29.601562 62.109375 29.949219 62.0625 C 29.621094 61.886719 29.28125 61.75 28.910156 61.65625 C 28.910156 61.839844 28.910156 62.019531 28.902344 62.199219 Z M 25.601562 68.597656 C 25.554688 68.117188 25.515625 67.644531 25.507812 67.167969 C 25.398438 67.191406 25.292969 67.210938 25.183594 67.214844 C 24.714844 67.222656 24.382812 66.996094 24.140625 66.644531 C 23.644531 66.769531 23.136719 66.832031 22.621094 66.84375 C 22.667969 67.554688 22.265625 68.179688 21.679688 68.636719 C 22.972656 68.410156 24.277344 68.652344 25.601562 68.597656 Z M 30.867188 61.960938 C 31.15625 61.925781 31.449219 61.890625 31.742188 61.863281 C 31.390625 61.488281 30.96875 61.207031 30.472656 60.9375 C 30.0625 60.722656 29.515625 60.347656 29.035156 60.394531 C 29.03125 60.410156 29.027344 60.429688 29.023438 60.445312 C 28.964844 60.644531 28.9375 60.851562 28.925781 61.058594 C 29.632812 61.214844 30.273438 61.535156 30.867188 61.960938 Z M 31.515625 75.347656 C 31.894531 74.652344 31.910156 72.941406 31.945312 72.609375 C 32.054688 71.535156 32.1875 70.453125 32.238281 69.363281 C 32.289062 68.09375 31.867188 66.832031 31.980469 65.578125 C 31.203125 65.699219 30.417969 65.820312 29.640625 65.917969 C 30.421875 68.9375 30.386719 72.4375 31.515625 75.347656 Z M 31.828125 76.0625 C 32.199219 76.601562 32.84375 73.796875 32.902344 73.390625 C 33.027344 72.488281 33.160156 71.589844 33.332031 70.695312 C 33.691406 68.855469 33.800781 67.230469 33.5625 65.363281 C 33.5625 65.355469 33.5625 65.339844 33.5625 65.332031 C 33.234375 65.378906 32.90625 65.429688 32.578125 65.484375 C 32.457031 66.605469 32.890625 67.65625 32.839844 68.800781 C 32.769531 70.484375 32.65625 72.203125 32.4375 73.875 C 32.34375 74.609375 32.199219 75.574219 31.828125 76.0625 Z M 81.214844 37.839844 C 81.171875 37.210938 80.957031 36.707031 80.3125 36.671875 C 79.429688 36.621094 76.652344 36.773438 77.585938 38.046875 C 78.8125 38.308594 79.996094 38.136719 81.214844 37.839844 Z M 78.378906 40.429688 C 78.449219 40.417969 78.519531 40.421875 78.578125 40.441406 C 78.777344 40.082031 78.945312 39.710938 78.988281 39.320312 C 79.027344 38.960938 78.761719 38.945312 78.457031 38.925781 C 78.304688 38.917969 78.15625 38.90625 78.003906 38.894531 C 78 38.960938 77.976562 39.027344 77.9375 39.085938 C 77.707031 39.457031 77.386719 39.875 77.363281 40.328125 C 77.347656 40.601562 77.375 40.585938 77.636719 40.550781 C 77.890625 40.519531 78.132812 40.46875 78.378906 40.429688 Z M 64.40625 60.203125 C 64.316406 59.808594 64.1875 59.421875 64.023438 59.050781 C 60.097656 59.546875 56.179688 60.046875 52.253906 60.527344 C 46.296875 61.257812 40.339844 61.992188 34.386719 62.746094 C 32.394531 63.003906 30.394531 63.253906 28.402344 63.523438 C 27.96875 63.582031 27.085938 63.671875 26.527344 63.753906 C 26.683594 64.136719 26.789062 64.527344 26.84375 64.929688 C 35.683594 64.296875 44.550781 62.773438 53.34375 61.675781 C 57.023438 61.222656 60.71875 60.703125 64.40625 60.203125 Z M 65.566406 60.046875 C 66.058594 59.980469 66.554688 59.914062 67.042969 59.851562 C 66.957031 59.449219 66.808594 59.074219 66.585938 58.734375 C 66.132812 58.792969 65.679688 58.84375 65.230469 58.902344 C 65.371094 59.273438 65.480469 59.65625 65.566406 60.046875 Z M 81.007812 42.96875 C 82.132812 42.320312 81.214844 41.210938 81.085938 40.25 C 81.03125 39.863281 81.171875 39.132812 81.210938 38.433594 C 81.097656 38.460938 80.988281 38.484375 80.878906 38.507812 C 80.542969 39.882812 80.671875 41.34375 80.773438 42.742188 C 80.78125 42.871094 80.789062 43 80.796875 43.125 C 80.859375 43.070312 80.929688 43.015625 81.007812 42.96875 Z M 79.914062 44.9375 C 80.015625 44.644531 80.105469 44.332031 80.21875 44.035156 C 80.308594 43.171875 80.160156 42.246094 80.121094 41.414062 C 80.082031 40.472656 80.074219 39.542969 80.265625 38.625 C 79.992188 38.667969 79.722656 38.703125 79.445312 38.722656 C 79.5 38.800781 79.542969 38.890625 79.5625 39 C 79.6875 39.75 79.207031 40.511719 78.808594 41.191406 C 78.808594 41.195312 78.808594 41.195312 78.808594 41.199219 C 78.648438 41.683594 78.695312 42.203125 78.511719 42.6875 C 78.359375 43.097656 78.097656 43.527344 78.039062 43.960938 C 77.960938 44.476562 78.414062 44.675781 78.945312 44.792969 C 79.269531 44.8125 79.589844 44.863281 79.914062 44.9375 Z M 79.847656 54.667969 C 80.007812 54.652344 80.167969 54.65625 80.324219 54.671875 C 79.878906 53.222656 79.117188 51.921875 79.050781 50.34375 C 78.992188 48.777344 79.269531 47.335938 79.507812 45.816406 C 79.375 45.78125 79.234375 45.75 79.09375 45.722656 C 79.011719 45.714844 78.925781 45.707031 78.84375 45.707031 C 78.441406 48.453125 78.292969 52.296875 79.847656 54.667969 Z M 78.78125 58.503906 C 78.695312 58.113281 78.605469 57.726562 78.507812 57.339844 C 74.953125 57.71875 71.398438 58.144531 67.851562 58.578125 C 68.015625 58.933594 68.128906 59.316406 68.207031 59.699219 C 71.726562 59.242188 75.253906 58.820312 78.78125 58.503906 Z M 80.632812 59.175781 C 80.832031 59.128906 81.035156 59.058594 81.230469 58.984375 C 81.1875 57.921875 80.832031 56.902344 80.496094 55.898438 C 80.308594 55.832031 80.09375 55.8125 79.882812 55.839844 C 79.789062 55.851562 79.648438 55.871094 79.574219 55.917969 C 79.574219 55.917969 79.4375 56.039062 79.46875 55.992188 C 79.480469 55.949219 79.472656 55.964844 79.445312 56.039062 C 79.429688 56.066406 79.414062 56.09375 79.398438 56.121094 C 79.429688 56.261719 79.46875 56.402344 79.503906 56.535156 C 79.507812 56.550781 79.507812 56.558594 79.507812 56.566406 C 79.730469 57.429688 79.9375 58.296875 80.121094 59.167969 C 80.125 59.175781 80.121094 59.179688 80.125 59.183594 C 80.242188 59.269531 80.421875 59.21875 80.632812 59.175781 Z M 86.070312 66.496094 C 86.125 66.316406 86.21875 66.136719 86.335938 65.960938 C 84.796875 65.3125 83.300781 64.5625 82.632812 62.917969 C 82.28125 62.058594 81.8125 61.050781 81.65625 60.066406 C 81.613281 60.082031 81.566406 60.09375 81.523438 60.109375 C 81.839844 62.703125 83.433594 65.78125 86.070312 66.496094 Z M 95.566406 55.816406 C 95.574219 55.648438 95.554688 55.488281 95.511719 55.328125 C 93.515625 55.28125 90.859375 55.898438 88.757812 56.175781 C 87.1875 56.386719 85.613281 56.601562 84.042969 56.832031 C 83.46875 56.921875 82.691406 56.929688 82.109375 57.136719 C 82.160156 57.332031 82.207031 57.527344 82.25 57.722656 C 86.574219 56.757812 91.15625 56.351562 95.566406 55.816406 Z M 104.257812 48.542969 C 104.25 48.527344 104.238281 48.511719 104.226562 48.5 C 102.921875 48.203125 101.476562 48.3125 100.28125 48.953125 C 99.601562 49.324219 99.109375 49.796875 98.546875 50.320312 C 98.164062 50.675781 98.171875 50.78125 98.417969 51.039062 C 98.949219 50.609375 99.417969 50.105469 99.972656 49.707031 C 100.445312 49.367188 101.019531 48.714844 101.65625 48.691406 C 102.472656 48.667969 103.25 48.683594 104.0625 48.5625 C 104.132812 48.550781 104.191406 48.550781 104.257812 48.542969 Z M 97.199219 56.835938 C 97.71875 56.695312 98.332031 56.480469 98.496094 55.972656 C 98.660156 55.429688 98.472656 54.867188 98.222656 54.386719 C 98.125 54.203125 97.953125 53.820312 97.71875 53.753906 C 97.574219 53.710938 97.355469 53.855469 97.210938 53.898438 C 96.890625 53.996094 96.5625 54.070312 96.234375 54.140625 C 96.589844 54.71875 96.828125 55.386719 96.71875 56.070312 C 96.949219 56.277344 97.082031 56.484375 97.175781 56.78125 C 97.179688 56.800781 97.1875 56.820312 97.199219 56.835938 Z M 90.558594 67.558594 C 90.496094 67.53125 90.433594 67.5 90.375 67.476562 C 89.308594 67.007812 88.4375 66.417969 87.28125 66.253906 C 86.816406 66.832031 86.886719 67.316406 87.867188 67.574219 C 88.152344 67.65625 88.503906 67.796875 88.6875 68.046875 C 88.792969 68.1875 88.867188 68.335938 88.9375 68.488281 C 89.496094 68.128906 89.996094 67.746094 90.558594 67.558594 Z M 104.992188 49.613281 C 104.863281 49.449219 104.738281 49.28125 104.621094 49.113281 C 104.121094 49.109375 103.652344 49.300781 103.113281 49.296875 C 102.34375 49.289062 101.550781 49.226562 100.898438 49.738281 C 100.183594 50.308594 99.496094 50.964844 98.765625 51.511719 C 98.871094 51.628906 98.972656 51.746094 99.070312 51.867188 C 99.847656 50.972656 100.921875 50.421875 102.074219 50.089844 C 103.027344 49.816406 104.003906 49.492188 104.992188 49.613281 Z M 100.335938 56.488281 C 100.351562 56.476562 100.363281 56.476562 100.378906 56.46875 C 100.148438 56.023438 99.886719 55.589844 99.660156 55.171875 C 99.175781 54.28125 98.746094 53.207031 98.054688 52.453125 C 97.753906 52.53125 97.457031 52.640625 97.15625 52.722656 C 97.039062 52.75 96.984375 52.738281 96.949219 52.71875 C 96.9375 52.828125 96.910156 52.9375 96.878906 53.046875 C 96.847656 53.175781 96.8125 53.3125 96.75 53.429688 C 96.878906 53.394531 97.003906 53.351562 97.128906 53.308594 C 97.351562 53.226562 97.605469 53.113281 97.84375 53.183594 C 98.398438 53.347656 98.722656 53.992188 98.90625 54.492188 C 99.136719 55.132812 99.253906 55.738281 98.945312 56.375 C 98.9375 56.390625 98.925781 56.40625 98.910156 56.429688 C 98.96875 56.609375 99.039062 57.132812 99.265625 57.054688 C 99.652344 56.917969 100.003906 56.71875 100.335938 56.488281 Z M 100.820312 57.597656 C 100.769531 57.394531 100.699219 57.199219 100.621094 57 C 100.21875 57.28125 99.59375 57.722656 99.101562 57.644531 C 98.707031 57.585938 98.5625 57.253906 98.460938 56.917969 C 98.234375 57.074219 97.976562 57.191406 97.710938 57.277344 C 98.058594 57.660156 98.1875 58.070312 98.351562 58.527344 C 98.777344 58.558594 99.3125 58.21875 99.648438 58.0625 C 100.03125 57.886719 100.429688 57.757812 100.820312 57.597656 Z M 103.765625 53.605469 C 103.773438 53.605469 103.777344 53.601562 103.78125 53.605469 C 103.421875 53.054688 103.050781 52.519531 102.628906 52.019531 C 102.527344 51.898438 102.570312 51.699219 102.6875 51.609375 C 103.582031 50.976562 104.613281 50.6875 105.667969 50.480469 C 105.613281 50.40625 105.550781 50.332031 105.496094 50.257812 C 105.449219 50.277344 105.394531 50.289062 105.332031 50.273438 C 103.488281 49.792969 100.703125 50.871094 99.429688 52.355469 C 99.851562 52.996094 100.179688 53.703125 100.542969 54.375 C 100.828125 54.898438 101.136719 55.410156 101.40625 55.941406 C 102.285156 55.28125 102.667969 54.058594 103.765625 53.605469 Z M 90.761719 69.773438 C 91.0625 69.707031 92.601562 69.34375 92.066406 68.671875 C 92.003906 68.597656 91.945312 68.523438 91.875 68.457031 C 91.816406 68.464844 91.753906 68.453125 91.691406 68.433594 C 90.746094 68.109375 90.035156 68.882812 89.292969 69.363281 C 89.300781 69.386719 89.308594 69.402344 89.316406 69.421875 C 89.601562 70 90.265625 69.882812 90.761719 69.773438 Z M 104.1875 53.160156 C 105.074219 52.765625 105.988281 52.464844 106.9375 52.234375 C 106.65625 51.769531 106.316406 51.320312 106.0625 50.996094 C 105.09375 51.175781 104.136719 51.398438 103.292969 51.914062 C 103.613281 52.3125 103.90625 52.730469 104.1875 53.160156 Z M 102.730469 57.105469 C 102.734375 57.070312 102.753906 57.035156 102.773438 57 C 103.28125 56.289062 104.59375 55.046875 103.949219 54.132812 C 103.738281 54.257812 103.550781 54.390625 103.402344 54.53125 C 102.792969 55.121094 102.359375 55.996094 101.65625 56.476562 C 101.8125 56.84375 101.9375 57.222656 102.015625 57.617188 C 102.023438 57.628906 102.03125 57.640625 102.035156 57.644531 C 102.246094 57.425781 102.480469 57.257812 102.730469 57.105469 Z M 104.65625 54.335938 C 105.050781 54.273438 105.496094 54.378906 105.785156 54.636719 C 105.882812 54.28125 105.847656 53.917969 105.644531 53.546875 C 105.617188 53.496094 105.605469 53.445312 105.605469 53.402344 C 105.210938 53.535156 104.8125 53.6875 104.453125 53.859375 C 104.550781 54.011719 104.621094 54.175781 104.65625 54.335938 Z M 105.519531 55.355469 C 105.515625 55.347656 105.515625 55.335938 105.515625 55.328125 C 105.515625 55.316406 105.511719 55.3125 105.511719 55.304688 C 105.480469 54.933594 104.964844 54.832031 104.667969 54.917969 C 104.578125 55.476562 104.226562 56.027344 103.847656 56.539062 C 104.390625 56.28125 104.917969 56.007812 105.324219 55.550781 C 105.386719 55.480469 105.449219 55.417969 105.519531 55.355469 Z M 107.421875 53.835938 C 107.480469 53.578125 107.421875 53.273438 107.292969 52.953125 C 107.179688 52.976562 107.054688 53.003906 106.921875 53.035156 C 107.121094 53.261719 107.3125 53.542969 107.421875 53.835938 Z M 106.859375 54.648438 C 106.863281 54.601562 106.875 54.550781 106.90625 54.503906 C 107.046875 54.300781 106.816406 53.917969 106.710938 53.75 C 106.582031 53.550781 106.4375 53.355469 106.25 53.207031 C 106.207031 53.214844 106.171875 53.226562 106.128906 53.238281 C 106.425781 53.78125 106.480469 54.3125 106.324219 54.835938 C 106.496094 54.761719 106.675781 54.699219 106.859375 54.648438 Z M 103.386719 60.023438 C 103.449219 60.089844 103.523438 60.140625 103.601562 60.179688 C 103.828125 59.027344 104.664062 58.351562 105.6875 58.039062 C 105.515625 57.515625 105.269531 57.011719 105.175781 56.472656 C 105.101562 56.523438 105.027344 56.570312 104.941406 56.617188 C 104.023438 57.140625 103.097656 57.3125 102.378906 58.136719 C 102.738281 58.765625 102.917969 59.492188 103.386719 60.023438 Z M 106.257812 57.90625 C 106.648438 57.839844 107.0625 57.820312 107.464844 57.84375 C 107.246094 57.042969 107.136719 56.097656 106.554688 55.496094 C 106.519531 55.460938 106.5 55.429688 106.484375 55.390625 C 106.226562 55.507812 105.992188 55.671875 105.78125 55.914062 C 105.753906 55.941406 105.730469 55.96875 105.703125 55.996094 C 105.707031 56.007812 105.710938 56.011719 105.714844 56.023438 C 105.726562 56.6875 106.0625 57.28125 106.257812 57.90625 Z M 108.050781 57.773438 C 108.136719 57.464844 108.125 57.113281 107.972656 56.71875 C 107.765625 56.179688 107.515625 55.667969 107.3125 55.128906 C 107.226562 55.148438 107.136719 55.167969 107.046875 55.195312 C 107.648438 55.921875 107.777344 56.878906 108.050781 57.773438 Z M 106.160156 59.550781 C 106.703125 59.257812 107.296875 58.902344 107.683594 58.445312 C 106.210938 58.285156 104.511719 58.707031 104.175781 60.277344 C 104.871094 60.226562 105.742188 59.773438 106.160156 59.550781 Z M 109.261719 57.945312 C 109.140625 59.085938 107.839844 59.960938 106.941406 60.445312 C 106 60.949219 104.488281 61.757812 103.375 61.378906 C 102.195312 60.972656 101.96875 59.621094 101.335938 58.65625 C 100.75 58.929688 100.121094 59.15625 99.523438 59.398438 C 98.941406 59.640625 98.316406 59.820312 97.703125 59.5625 C 97.5625 59.503906 97.46875 59.410156 97.414062 59.300781 C 97.390625 59.261719 97.363281 59.222656 97.347656 59.175781 C 97.246094 58.925781 97.195312 58.667969 97.097656 58.421875 C 96.992188 58.175781 96.894531 58.128906 96.679688 58 C 96.464844 57.878906 96.273438 57.699219 96.179688 57.46875 C 96.121094 57.328125 96.097656 57.082031 95.980469 56.976562 C 95.96875 56.96875 95.960938 56.957031 95.957031 56.949219 C 91.519531 57.488281 86.894531 57.894531 82.53125 58.851562 C 82.554688 58.917969 82.566406 59 82.554688 59.089844 C 82.410156 60.078125 83.042969 61.683594 83.503906 62.578125 C 84.269531 64.070312 85.566406 64.632812 87.027344 65.234375 C 87.066406 65.25 87.101562 65.269531 87.128906 65.289062 C 87.160156 65.289062 87.191406 65.296875 87.226562 65.300781 C 87.230469 65.300781 87.238281 65.300781 87.246094 65.304688 C 88.417969 65.421875 89.128906 65.9375 90.1875 66.375 C 91.027344 66.726562 92.039062 67.144531 92.625 67.878906 C 93.714844 69.238281 92.640625 70.226562 91.246094 70.617188 C 90.738281 70.757812 89.859375 70.949219 89.355469 70.683594 C 88.289062 70.125 88.460938 68.722656 87.222656 68.363281 C 86.582031 68.179688 86.214844 67.855469 86.058594 67.457031 L 86.050781 67.460938 C 82.957031 66.710938 81 63.382812 80.605469 60.332031 C 79.953125 60.429688 79.332031 60.328125 79.015625 59.660156 C 70.230469 60.632812 61.46875 61.84375 52.699219 62.9375 C 46.785156 63.667969 40.867188 64.40625 34.953125 65.132812 C 34.875 65.144531 34.789062 65.15625 34.710938 65.167969 C 34.710938 65.1875 34.71875 65.210938 34.722656 65.234375 C 35.070312 67.964844 34.507812 70.300781 34.136719 73 C 33.9375 74.417969 33.777344 77 32.128906 77.636719 C 31.726562 77.792969 31.351562 77.472656 31.011719 76.863281 C 30.714844 76.59375 30.523438 76.269531 30.386719 75.910156 C 30.300781 75.832031 30.28125 75.738281 30.300781 75.644531 C 30.183594 75.246094 30.125 74.816406 30.089844 74.378906 C 29.554688 72.402344 29.140625 69.953125 28.851562 68.1875 C 28.777344 67.875 28.726562 67.554688 28.691406 67.234375 C 28.597656 66.664062 28.523438 66.246094 28.472656 66.035156 C 27.914062 66.078125 27.363281 66.109375 26.816406 66.109375 C 26.804688 66.167969 26.800781 66.226562 26.789062 66.285156 C 26.777344 66.332031 26.761719 66.375 26.746094 66.417969 C 26.734375 66.507812 26.699219 66.59375 26.640625 66.667969 C 26.648438 66.703125 26.652344 66.738281 26.652344 66.773438 C 26.65625 67.527344 26.738281 68.273438 26.816406 69.019531 C 26.847656 69.273438 26.734375 69.453125 26.570312 69.554688 C 26.488281 69.644531 26.371094 69.707031 26.21875 69.722656 C 24.792969 69.882812 23.269531 69.40625 21.886719 69.738281 C 20.128906 70.160156 19.175781 71.980469 18.152344 73.3125 C 18.03125 73.472656 17.875 73.535156 17.726562 73.535156 C 17.570312 73.582031 17.390625 73.570312 17.214844 73.441406 C 16.003906 72.546875 14.515625 72.414062 13.457031 71.25 C 13.226562 70.996094 13.296875 70.71875 13.496094 70.539062 C 13.507812 70.515625 13.515625 70.492188 13.535156 70.46875 C 14.1875 69.476562 14.726562 68.335938 14.925781 67.148438 C 15.132812 65.90625 14.882812 65.136719 14.273438 64.066406 C 13.558594 62.792969 12.578125 61.625 12.207031 60.191406 C 12.15625 59.988281 12.207031 59.8125 12.308594 59.671875 C 12.339844 59.582031 12.402344 59.5 12.492188 59.449219 C 13.160156 59.074219 13.898438 58.929688 14.59375 58.621094 C 14.765625 58.546875 14.914062 58.554688 15.042969 58.617188 C 15.285156 58.566406 15.554688 58.664062 15.675781 58.964844 C 16.285156 60.535156 17.445312 61.800781 18.730469 62.863281 C 18.832031 62.800781 18.9375 62.71875 19.03125 62.613281 C 19.691406 61.828125 20.355469 61.335938 21.417969 61.550781 C 21.929688 61.652344 22.398438 62.070312 22.773438 62.390625 C 22.808594 62.425781 22.839844 62.449219 22.867188 62.476562 C 22.863281 62.34375 22.894531 62.207031 22.992188 62.113281 C 23.332031 61.777344 23.722656 61.609375 24.148438 61.414062 C 24.34375 61.304688 24.589844 61.335938 24.792969 61.46875 C 25.042969 61.628906 25.265625 61.808594 25.480469 62.015625 C 25.550781 62.089844 25.609375 62.171875 25.648438 62.261719 C 25.714844 62.300781 25.777344 62.363281 25.832031 62.445312 C 25.882812 62.527344 25.929688 62.605469 25.980469 62.6875 C 26.554688 62.566406 27.136719 62.464844 27.726562 62.371094 C 27.816406 61.5625 27.792969 60.746094 27.953125 59.933594 C 28.082031 59.3125 28.546875 59.238281 29.117188 59.230469 C 29.851562 59.222656 30.597656 59.664062 31.214844 60.019531 C 31.992188 60.464844 32.632812 60.960938 33.101562 61.71875 C 33.683594 61.652344 34.269531 61.585938 34.851562 61.511719 C 40.863281 60.75 46.882812 60.007812 52.902344 59.269531 C 61.320312 58.234375 69.765625 56.921875 78.214844 56.183594 C 78.210938 56.167969 78.207031 56.152344 78.203125 56.140625 C 78.132812 55.867188 78.242188 55.644531 78.414062 55.5 C 78.542969 55.261719 78.71875 55.085938 78.9375 54.949219 C 77.363281 52.292969 77.488281 48.382812 77.9375 45.4375 C 77.523438 45.273438 77.199219 45.007812 77.113281 44.496094 C 77.003906 43.859375 77.261719 43.289062 77.496094 42.710938 C 77.664062 42.304688 77.71875 41.882812 77.796875 41.464844 C 77.234375 41.519531 76.675781 41.457031 76.476562 40.808594 C 76.265625 40.101562 76.640625 39.410156 77.015625 38.808594 C 74.699219 36.226562 79.671875 34.96875 81.675781 36.203125 C 82.210938 36.535156 82.359375 37.367188 82.242188 37.933594 C 81.945312 39.371094 82.070312 40.332031 82.449219 41.75 C 82.609375 42.34375 82.636719 42.820312 82.269531 43.304688 C 82.089844 43.542969 81.328125 43.757812 81.246094 43.992188 C 81.074219 44.496094 80.902344 44.996094 80.707031 45.484375 C 80.652344 45.617188 80.5625 45.695312 80.464844 45.734375 C 80.203125 47.402344 79.773438 49.03125 80.027344 50.738281 C 80.246094 52.226562 80.980469 53.507812 81.359375 54.9375 C 81.414062 54.996094 81.453125 55.066406 81.484375 55.15625 C 81.574219 55.441406 81.671875 55.726562 81.761719 56.011719 C 82.425781 55.785156 83.265625 55.773438 83.914062 55.675781 C 85.480469 55.441406 87.054688 55.222656 88.625 55.015625 C 90.675781 54.746094 92.898438 54.222656 95.007812 54.171875 C 94.933594 53.863281 94.925781 53.523438 95.152344 53.269531 C 95.300781 53.089844 95.460938 52.957031 95.660156 52.832031 C 95.699219 52.804688 95.730469 52.785156 95.75 52.769531 C 95.765625 52.714844 95.777344 52.65625 95.789062 52.597656 C 95.789062 51.933594 96.5 51.617188 97.195312 51.4375 C 97 51.195312 96.867188 50.921875 96.910156 50.625 C 97.015625 49.871094 98.023438 49.132812 98.574219 48.707031 C 100.285156 47.363281 102.535156 46.824219 104.65625 47.402344 C 104.722656 47.421875 104.78125 47.449219 104.839844 47.488281 C 104.945312 47.519531 105.046875 47.59375 105.121094 47.730469 C 105.917969 49.152344 107.109375 50.304688 107.898438 51.746094 C 108.4375 52.738281 108.886719 53.609375 108.363281 54.589844 C 108.761719 55.714844 109.386719 56.703125 109.261719 57.945312 Z M 25.144531 66.042969 C 25.175781 66.039062 25.210938 66.03125 25.214844 66.035156 C 25.371094 65.988281 25.519531 65.929688 25.671875 65.871094 C 25.8125 64.859375 25.441406 64 24.886719 63.136719 C 24.855469 63.082031 24.832031 63.03125 24.816406 62.976562 C 24.792969 62.960938 24.769531 62.949219 24.75 62.929688 C 24.628906 62.808594 24.5 62.699219 24.359375 62.59375 C 24.335938 62.605469 24.316406 62.617188 24.292969 62.628906 C 24.894531 63.535156 25.011719 64.722656 24.96875 65.800781 C 25.003906 65.84375 25.039062 65.882812 25.058594 65.933594 C 25.078125 65.964844 25.101562 66 25.125 66.03125 C 25.132812 66.03125 25.144531 66.039062 25.144531 66.042969 " fill-opacity="1" fill-rule="nonzero"/></g></g></g></g><g fill="#21282e" fill-opacity="1"><g transform="translate(21.282811, 20.750003)"><g><path d="M 4.109375 -3.765625 C 4.410156 -3.671875 4.65625 -3.519531 4.84375 -3.3125 C 5.03125 -3.113281 5.164062 -2.894531 5.25 -2.65625 C 5.34375 -2.425781 5.382812 -2.210938 5.375 -2.015625 C 5.375 -1.566406 5.265625 -1.191406 5.046875 -0.890625 C 4.835938 -0.597656 4.5625 -0.375 4.21875 -0.21875 C 3.875 -0.0703125 3.492188 0 3.078125 0 L 1.015625 0 L 1.015625 -7.046875 L 3.09375 -7.046875 C 3.46875 -7.046875 3.800781 -6.96875 4.09375 -6.8125 C 4.394531 -6.65625 4.632812 -6.4375 4.8125 -6.15625 C 4.988281 -5.875 5.078125 -5.550781 5.078125 -5.1875 C 5.078125 -5.03125 5.046875 -4.859375 4.984375 -4.671875 C 4.929688 -4.484375 4.832031 -4.304688 4.6875 -4.140625 C 4.550781 -3.984375 4.359375 -3.859375 4.109375 -3.765625 Z M 4.3125 -5.1875 C 4.3125 -5.363281 4.265625 -5.539062 4.171875 -5.71875 C 4.085938 -5.894531 3.957031 -6.039062 3.78125 -6.15625 C 3.601562 -6.28125 3.375 -6.34375 3.09375 -6.34375 L 1.8125 -6.34375 L 1.8125 -4.0625 L 3.09375 -4.0625 C 3.375 -4.0625 3.601562 -4.117188 3.78125 -4.234375 C 3.957031 -4.347656 4.085938 -4.492188 4.171875 -4.671875 C 4.265625 -4.847656 4.3125 -5.019531 4.3125 -5.1875 Z M 3.09375 -0.703125 C 3.4375 -0.703125 3.71875 -0.765625 3.9375 -0.890625 C 4.164062 -1.023438 4.332031 -1.191406 4.4375 -1.390625 C 4.550781 -1.597656 4.609375 -1.8125 4.609375 -2.03125 C 4.609375 -2.238281 4.550781 -2.441406 4.4375 -2.640625 C 4.332031 -2.847656 4.164062 -3.019531 3.9375 -3.15625 C 3.71875 -3.300781 3.4375 -3.375 3.09375 -3.375 L 1.8125 -3.375 L 1.8125 -0.703125 Z M 3.09375 -0.703125 "/></g></g></g><g fill="#21282e" fill-opacity="1"><g transform="translate(28.170392, 20.750003)"><g><path d="M 4.796875 0 L 2.59375 -2.84375 L 1.84375 -2.84375 L 1.84375 0 L 1.03125 0 L 1.03125 -7 L 3.203125 -7 C 3.648438 -7 4.046875 -6.925781 4.390625 -6.78125 C 4.734375 -6.632812 5.003906 -6.40625 5.203125 -6.09375 C 5.410156 -5.789062 5.515625 -5.394531 5.515625 -4.90625 C 5.515625 -4.28125 5.332031 -3.789062 4.96875 -3.4375 C 4.613281 -3.09375 4.128906 -2.898438 3.515625 -2.859375 L 5.734375 0 Z M 4.703125 -4.9375 C 4.703125 -5.382812 4.5625 -5.71875 4.28125 -5.9375 C 4 -6.164062 3.640625 -6.28125 3.203125 -6.28125 L 1.84375 -6.28125 L 1.84375 -3.5625 L 3.1875 -3.5625 C 3.664062 -3.5625 4.035156 -3.675781 4.296875 -3.90625 C 4.566406 -4.144531 4.703125 -4.488281 4.703125 -4.9375 Z M 4.703125 -4.9375 "/></g></g></g><g fill="#21282e" fill-opacity="1"><g transform="translate(35.217915, 20.750003)"><g><path d="M 3.21875 0.109375 C 2.84375 0.109375 2.476562 0.0351562 2.125 -0.109375 C 1.769531 -0.253906 1.484375 -0.484375 1.265625 -0.796875 C 1.046875 -1.109375 0.9375 -1.507812 0.9375 -2 L 0.9375 -7 L 1.734375 -7 L 1.734375 -2 C 1.734375 -1.6875 1.804688 -1.425781 1.953125 -1.21875 C 2.097656 -1.007812 2.28125 -0.859375 2.5 -0.765625 C 2.726562 -0.671875 2.96875 -0.625 3.21875 -0.625 C 3.46875 -0.625 3.707031 -0.671875 3.9375 -0.765625 C 4.164062 -0.859375 4.351562 -1.007812 4.5 -1.21875 C 4.644531 -1.425781 4.71875 -1.6875 4.71875 -2 L 4.71875 -7 L 5.53125 -7 L 5.53125 -2 C 5.53125 -1.507812 5.414062 -1.109375 5.1875 -0.796875 C 4.957031 -0.492188 4.664062 -0.265625 4.3125 -0.109375 C 3.96875 0.0351562 3.601562 0.109375 3.21875 0.109375 Z M 3.21875 0.109375 "/></g></g></g><g fill="#21282e" fill-opacity="1"><g transform="translate(42.555328, 20.750003)"><g><path d="M 2.6875 0.125 C 2.257812 0.125 1.835938 0.00390625 1.421875 -0.234375 C 1.015625 -0.472656 0.710938 -0.832031 0.515625 -1.3125 L 1.1875 -1.65625 C 1.363281 -1.300781 1.585938 -1.035156 1.859375 -0.859375 C 2.128906 -0.691406 2.421875 -0.609375 2.734375 -0.609375 C 3.140625 -0.609375 3.472656 -0.722656 3.734375 -0.953125 C 3.992188 -1.191406 4.125 -1.5 4.125 -1.875 C 4.125 -2.175781 4.046875 -2.421875 3.890625 -2.609375 C 3.734375 -2.796875 3.539062 -2.941406 3.3125 -3.046875 C 3.09375 -3.148438 2.875 -3.234375 2.65625 -3.296875 C 2.445312 -3.347656 2.226562 -3.421875 2 -3.515625 C 1.78125 -3.609375 1.570312 -3.726562 1.375 -3.875 C 1.1875 -4.03125 1.035156 -4.222656 0.921875 -4.453125 C 0.804688 -4.679688 0.75 -4.957031 0.75 -5.28125 C 0.75 -5.707031 0.847656 -6.054688 1.046875 -6.328125 C 1.253906 -6.597656 1.515625 -6.796875 1.828125 -6.921875 C 2.148438 -7.054688 2.472656 -7.125 2.796875 -7.125 C 3.210938 -7.125 3.597656 -7.015625 3.953125 -6.796875 C 4.304688 -6.585938 4.578125 -6.257812 4.765625 -5.8125 L 4.125 -5.515625 C 3.976562 -5.835938 3.785156 -6.066406 3.546875 -6.203125 C 3.304688 -6.335938 3.046875 -6.40625 2.765625 -6.40625 C 2.566406 -6.40625 2.375 -6.363281 2.1875 -6.28125 C 2 -6.195312 1.84375 -6.066406 1.71875 -5.890625 C 1.59375 -5.722656 1.53125 -5.503906 1.53125 -5.234375 C 1.53125 -4.972656 1.601562 -4.757812 1.75 -4.59375 C 1.90625 -4.425781 2.082031 -4.296875 2.28125 -4.203125 C 2.488281 -4.109375 2.6875 -4.039062 2.875 -4 C 3.125 -3.9375 3.367188 -3.851562 3.609375 -3.75 C 3.859375 -3.644531 4.082031 -3.507812 4.28125 -3.34375 C 4.476562 -3.1875 4.632812 -2.984375 4.75 -2.734375 C 4.875 -2.492188 4.9375 -2.195312 4.9375 -1.84375 C 4.9375 -1.5 4.867188 -1.203125 4.734375 -0.953125 C 4.597656 -0.710938 4.414062 -0.507812 4.1875 -0.34375 C 3.96875 -0.1875 3.722656 -0.0703125 3.453125 0 C 3.191406 0.0820312 2.9375 0.125 2.6875 0.125 Z M 2.6875 0.125 "/></g></g></g><g fill="#21282e" fill-opacity="1"><g transform="translate(49.01308, 20.750003)"><g><path d="M 4.921875 -7 L 5.734375 -7 L 5.734375 0 L 4.921875 0 L 4.921875 -3.1875 L 1.8125 -3.1875 L 1.8125 0 L 1 0 L 1 -7 L 1.8125 -7 L 1.8125 -3.9375 L 4.921875 -3.9375 Z M 4.921875 -7 "/></g></g></g><g fill="#21282e" fill-opacity="1"><g transform="translate(56.640372, 20.750003)"><g/></g></g><g fill="#21282e" fill-opacity="1"><g transform="translate(60.099314, 20.750003)"><g><path d="M 4.03125 0.125 C 3.46875 0.125 2.96875 0.0234375 2.53125 -0.171875 C 2.09375 -0.367188 1.71875 -0.632812 1.40625 -0.96875 C 1.101562 -1.3125 0.875 -1.695312 0.71875 -2.125 C 0.5625 -2.5625 0.484375 -3.015625 0.484375 -3.484375 C 0.484375 -3.941406 0.5625 -4.390625 0.71875 -4.828125 C 0.875 -5.265625 1.097656 -5.65625 1.390625 -6 C 1.691406 -6.34375 2.0625 -6.613281 2.5 -6.8125 C 2.945312 -7.019531 3.457031 -7.125 4.03125 -7.125 C 4.539062 -7.125 5.003906 -7.035156 5.421875 -6.859375 C 5.847656 -6.679688 6.226562 -6.398438 6.5625 -6.015625 L 6.0625 -5.546875 C 5.800781 -5.816406 5.503906 -6.023438 5.171875 -6.171875 C 4.847656 -6.328125 4.476562 -6.40625 4.0625 -6.40625 C 3.488281 -6.40625 2.992188 -6.269531 2.578125 -6 C 2.160156 -5.726562 1.84375 -5.367188 1.625 -4.921875 C 1.40625 -4.484375 1.296875 -4.003906 1.296875 -3.484375 C 1.296875 -3.109375 1.359375 -2.75 1.484375 -2.40625 C 1.609375 -2.0625 1.785156 -1.753906 2.015625 -1.484375 C 2.253906 -1.210938 2.539062 -1 2.875 -0.84375 C 3.21875 -0.6875 3.601562 -0.609375 4.03125 -0.609375 C 4.425781 -0.609375 4.816406 -0.695312 5.203125 -0.875 C 5.597656 -1.050781 5.929688 -1.3125 6.203125 -1.65625 L 6.78125 -1.203125 C 6.050781 -0.316406 5.132812 0.125 4.03125 0.125 Z M 4.03125 0.125 "/></g></g></g><g fill="#21282e" fill-opacity="1"><g transform="translate(68.18643, 20.750003)"><g><path d="M 3.21875 0.109375 C 2.84375 0.109375 2.476562 0.0351562 2.125 -0.109375 C 1.769531 -0.253906 1.484375 -0.484375 1.265625 -0.796875 C 1.046875 -1.109375 0.9375 -1.507812 0.9375 -2 L 0.9375 -7 L 1.734375 -7 L 1.734375 -2 C 1.734375 -1.6875 1.804688 -1.425781 1.953125 -1.21875 C 2.097656 -1.007812 2.28125 -0.859375 2.5 -0.765625 C 2.726562 -0.671875 2.96875 -0.625 3.21875 -0.625 C 3.46875 -0.625 3.707031 -0.671875 3.9375 -0.765625 C 4.164062 -0.859375 4.351562 -1.007812 4.5 -1.21875 C 4.644531 -1.425781 4.71875 -1.6875 4.71875 -2 L 4.71875 -7 L 5.53125 -7 L 5.53125 -2 C 5.53125 -1.507812 5.414062 -1.109375 5.1875 -0.796875 C 4.957031 -0.492188 4.664062 -0.265625 4.3125 -0.109375 C 3.96875 0.0351562 3.601562 0.109375 3.21875 0.109375 Z M 3.21875 0.109375 "/></g></g></g><g fill="#21282e" fill-opacity="1"><g transform="translate(75.523844, 20.750003)"><g><path d="M 4.40625 -7.015625 L 4.40625 -6.265625 L 2.671875 -6.265625 L 2.671875 0 L 1.859375 0 L 1.859375 -6.265625 L 0.109375 -6.265625 L 0.109375 -7.015625 Z M 4.40625 -7.015625 "/></g></g></g><g fill="#21282e" fill-opacity="1"><g transform="translate(80.932012, 20.750003)"><g><path d="M 4.40625 -7.015625 L 4.40625 -6.265625 L 2.671875 -6.265625 L 2.671875 0 L 1.859375 0 L 1.859375 -6.265625 L 0.109375 -6.265625 L 0.109375 -7.015625 Z M 4.40625 -7.015625 "/></g></g></g><g fill="#21282e" fill-opacity="1"><g transform="translate(86.340181, 20.750003)"><g><path d="M 4.5625 -6.296875 L 1.625 -6.296875 L 1.625 -3.90625 L 4.53125 -3.90625 L 4.53125 -3.203125 L 1.625 -3.203125 L 1.625 -0.703125 L 4.5625 -0.703125 L 4.5625 0 L 0.828125 0 L 0.828125 -7.015625 L 4.5625 -7.015625 Z M 4.5625 -6.296875 "/></g></g></g><g fill="#21282e" fill-opacity="1"><g transform="translate(92.468068, 20.750003)"><g><path d="M 4.796875 0 L 2.59375 -2.84375 L 1.84375 -2.84375 L 1.84375 0 L 1.03125 0 L 1.03125 -7 L 3.203125 -7 C 3.648438 -7 4.046875 -6.925781 4.390625 -6.78125 C 4.734375 -6.632812 5.003906 -6.40625 5.203125 -6.09375 C 5.410156 -5.789062 5.515625 -5.394531 5.515625 -4.90625 C 5.515625 -4.28125 5.332031 -3.789062 4.96875 -3.4375 C 4.613281 -3.09375 4.128906 -2.898438 3.515625 -2.859375 L 5.734375 0 Z M 4.703125 -4.9375 C 4.703125 -5.382812 4.5625 -5.71875 4.28125 -5.9375 C 4 -6.164062 3.640625 -6.28125 3.203125 -6.28125 L 1.84375 -6.28125 L 1.84375 -3.5625 L 3.1875 -3.5625 C 3.664062 -3.5625 4.035156 -3.675781 4.296875 -3.90625 C 4.566406 -4.144531 4.703125 -4.488281 4.703125 -4.9375 Z M 4.703125 -4.9375 "/></g></g></g></svg>