<svg xmlns="http://www.w3.org/2000/svg" xmlns:xlink="http://www.w3.org/1999/xlink" width="160" zoomAndPan="magnify" viewBox="0 0 120 119.999999" height="160" preserveAspectRatio="xMidYMid meet" version="1.0"><defs><g/><clipPath id="9eb91119c1"><path d="M 5 3 L 22 3 L 22 10 L 5 10 Z M 5 3 " clip-rule="nonzero"/></clipPath><clipPath id="1a9f4f8025"><path d="M 19.808594 0.914062 L 22.929688 9.4375 L 7.273438 15.175781 L 4.148438 6.652344 Z M 19.808594 0.914062 " clip-rule="nonzero"/></clipPath><clipPath id="9877ac35b4"><path d="M 19.808594 0.914062 L 22.929688 9.4375 L 7.273438 15.175781 L 4.148438 6.652344 Z M 19.808594 0.914062 " clip-rule="nonzero"/></clipPath><clipPath id="1d8894c5ba"><path d="M 0.761719 9 L 25.238281 9 L 25.238281 19 L 0.761719 19 Z M 0.761719 9 " clip-rule="nonzero"/></clipPath><clipPath id="f14aa8f574"><rect x="0" width="26" y="0" height="10"/></clipPath><clipPath id="f12918c5c3"><path d="M 4 12 L 23 12 L 23 26.441406 L 4 26.441406 Z M 4 12 " clip-rule="nonzero"/></clipPath><clipPath id="abe0d877ef"><path d="M 19.808594 12.074219 L 22.929688 20.597656 L 7.273438 26.335938 L 4.148438 17.8125 Z M 19.808594 12.074219 " clip-rule="nonzero"/></clipPath><clipPath id="5b1078ff84"><path d="M 1 5 L 18 5 L 18 12 L 1 12 Z M 1 5 " clip-rule="nonzero"/></clipPath><clipPath id="42dc479018"><path d="M 15.808594 0.0742188 L 18.929688 8.597656 L 3.273438 14.335938 L 0.148438 5.8125 Z M 15.808594 0.0742188 " clip-rule="nonzero"/></clipPath><clipPath id="3151f6fb91"><path d="M 3.273438 14.347656 L 0.148438 5.824219 L 15.808594 0.0859375 L 18.933594 8.609375 Z M 3.273438 14.347656 " clip-rule="nonzero"/></clipPath><clipPath id="f4347044b8"><rect x="0" width="19" y="0" height="15"/></clipPath><clipPath id="725242d827"><rect x="0" width="26" y="0" height="27"/></clipPath><clipPath id="e523806103"><path d="M 14 14 L 106 14 L 106 106 L 14 106 Z M 14 14 " clip-rule="nonzero"/></clipPath><clipPath id="282ed8651e"><path d="M 14.1875 59.707031 L 62.953125 14.128906 L 105.972656 60.152344 L 57.207031 105.734375 Z M 14.1875 59.707031 " clip-rule="nonzero"/></clipPath><clipPath id="01c679e212"><path d="M 2 20 L 90 20 L 90 55 L 2 55 Z M 2 20 " clip-rule="nonzero"/></clipPath><clipPath id="aeadf26847"><path d="M 0.1875 45.707031 L 48.953125 0.128906 L 91.972656 46.152344 L 43.207031 91.734375 Z M 0.1875 45.707031 " clip-rule="nonzero"/></clipPath><clipPath id="59f0354cdc"><path d="M 48.800781 0.273438 L 0.0351562 45.851562 L 43.050781 91.875 L 91.816406 46.296875 Z M 48.800781 0.273438 " clip-rule="nonzero"/></clipPath><clipPath id="bc385ef683"><path d="M 48.800781 0.273438 L 0.1875 45.707031 L 43.199219 91.722656 L 91.808594 46.289062 Z M 48.800781 0.273438 " clip-rule="nonzero"/></clipPath><clipPath id="3b8ca41ee2"><path d="M 70 40 L 87 40 L 87 49 L 70 49 Z M 70 40 " clip-rule="nonzero"/></clipPath><clipPath id="305f18d6cf"><path d="M 0.1875 45.707031 L 48.953125 0.128906 L 91.972656 46.152344 L 43.207031 91.734375 Z M 0.1875 45.707031 " clip-rule="nonzero"/></clipPath><clipPath id="bb6df0c0b1"><path d="M 48.800781 0.273438 L 0.0351562 45.851562 L 43.050781 91.875 L 91.816406 46.296875 Z M 48.800781 0.273438 " clip-rule="nonzero"/></clipPath><clipPath id="c001fbff02"><path d="M 44 43 L 55 43 L 55 49 L 44 49 Z M 44 43 " clip-rule="nonzero"/></clipPath><clipPath id="1806395789"><path d="M 0.1875 45.707031 L 48.953125 0.128906 L 91.972656 46.152344 L 43.207031 91.734375 Z M 0.1875 45.707031 " clip-rule="nonzero"/></clipPath><clipPath id="e2ce998355"><path d="M 48.800781 0.273438 L 0.0351562 45.851562 L 43.050781 91.875 L 91.816406 46.296875 Z M 48.800781 0.273438 " clip-rule="nonzero"/></clipPath><clipPath id="de0a9dca53"><path d="M 46 45 L 53 45 L 53 47 L 46 47 Z M 46 45 " clip-rule="nonzero"/></clipPath><clipPath id="b4687a737b"><path d="M 0.1875 45.707031 L 48.953125 0.128906 L 91.972656 46.152344 L 43.207031 91.734375 Z M 0.1875 45.707031 " clip-rule="nonzero"/></clipPath><clipPath id="e94ddef060"><path d="M 48.800781 0.273438 L 0.0351562 45.851562 L 43.050781 91.875 L 91.816406 46.296875 Z M 48.800781 0.273438 " clip-rule="nonzero"/></clipPath><clipPath id="0fe5f892b1"><path d="M 7 45 L 11 45 L 11 47 L 7 47 Z M 7 45 " clip-rule="nonzero"/></clipPath><clipPath id="cef7495fe5"><path d="M 0.1875 45.707031 L 48.953125 0.128906 L 91.972656 46.152344 L 43.207031 91.734375 Z M 0.1875 45.707031 " clip-rule="nonzero"/></clipPath><clipPath id="9cdd645a12"><path d="M 48.800781 0.273438 L 0.0351562 45.851562 L 43.050781 91.875 L 91.816406 46.296875 Z M 48.800781 0.273438 " clip-rule="nonzero"/></clipPath><clipPath id="5ae9a48166"><rect x="0" width="92" y="0" height="92"/></clipPath></defs><rect x="-12" width="144" fill="#ffffff" y="-12" height="143.999998" fill-opacity="1"/><rect x="-12" width="144" fill="#ffffff" y="-12" height="143.999998" fill-opacity="1"/><g transform="matrix(1, 0, 0, 1, 47, 89)"><g clip-path="url(#725242d827)"><g clip-path="url(#9eb91119c1)"><g clip-path="url(#1a9f4f8025)"><g clip-path="url(#9877ac35b4)"><path fill="#212121" d="M 21.421875 5.347656 C 21.328125 5.09375 21.230469 4.933594 21.144531 4.917969 C 20.773438 4.863281 20.609375 6.242188 20.539062 7.128906 C 19.863281 6.332031 18.867188 5.441406 17.488281 4.792969 C 16.117188 4.148438 14.511719 3.824219 12.867188 3.960938 C 11.109375 4.105469 9.5 4.761719 8.234375 5.691406 C 6.539062 6.9375 5.65625 8.492188 5.210938 9.53125 C 5.660156 8.484375 6.605469 6.972656 8.332031 5.832031 C 9.621094 4.980469 11.210938 4.4375 12.890625 4.394531 C 14.460938 4.359375 15.945312 4.753906 17.179688 5.417969 C 18.449219 6.097656 19.332031 6.980469 19.929688 7.734375 C 19.046875 7.5625 17.449219 7.300781 17.402344 7.65625 C 17.339844 8.144531 21.203125 10.082031 21.808594 9.636719 C 22.226562 9.324219 21.835938 6.453125 21.421875 5.347656 Z M 21.421875 5.347656 " fill-opacity="1" fill-rule="nonzero"/></g></g></g><g clip-path="url(#1d8894c5ba)"><g transform="matrix(1, 0, 0, 1, 0, 9)"><g clip-path="url(#f14aa8f574)"><g fill="#000000" fill-opacity="1"><g transform="translate(0.81023, 7.19389)"><g><path d="M 2.28125 0.09375 C 1.875 0.09375 1.484375 0.0390625 1.109375 -0.0625 C 0.734375 -0.175781 0.429688 -0.320312 0.203125 -0.5 L 0.609375 -1.390625 C 0.828125 -1.234375 1.082031 -1.101562 1.375 -1 C 1.675781 -0.90625 1.976562 -0.859375 2.28125 -0.859375 C 2.613281 -0.859375 2.859375 -0.90625 3.015625 -1 C 3.179688 -1.101562 3.265625 -1.238281 3.265625 -1.40625 C 3.265625 -1.53125 3.21875 -1.628906 3.125 -1.703125 C 3.03125 -1.785156 2.910156 -1.847656 2.765625 -1.890625 C 2.617188 -1.941406 2.414062 -2 2.15625 -2.0625 C 1.769531 -2.15625 1.453125 -2.242188 1.203125 -2.328125 C 0.960938 -2.421875 0.753906 -2.570312 0.578125 -2.78125 C 0.398438 -2.988281 0.3125 -3.257812 0.3125 -3.59375 C 0.3125 -3.894531 0.390625 -4.164062 0.546875 -4.40625 C 0.703125 -4.644531 0.941406 -4.832031 1.265625 -4.96875 C 1.585938 -5.113281 1.984375 -5.1875 2.453125 -5.1875 C 2.773438 -5.1875 3.09375 -5.144531 3.40625 -5.0625 C 3.71875 -4.988281 3.988281 -4.878906 4.21875 -4.734375 L 3.859375 -3.84375 C 3.390625 -4.101562 2.921875 -4.234375 2.453125 -4.234375 C 2.117188 -4.234375 1.875 -4.179688 1.71875 -4.078125 C 1.5625 -3.972656 1.484375 -3.832031 1.484375 -3.65625 C 1.484375 -3.476562 1.570312 -3.347656 1.75 -3.265625 C 1.9375 -3.179688 2.210938 -3.097656 2.578125 -3.015625 C 2.972656 -2.921875 3.289062 -2.828125 3.53125 -2.734375 C 3.78125 -2.640625 3.992188 -2.492188 4.171875 -2.296875 C 4.347656 -2.097656 4.4375 -1.832031 4.4375 -1.5 C 4.4375 -1.207031 4.351562 -0.9375 4.1875 -0.6875 C 4.03125 -0.445312 3.789062 -0.253906 3.46875 -0.109375 C 3.144531 0.0234375 2.75 0.09375 2.28125 0.09375 Z M 2.28125 0.09375 "/></g></g></g><g fill="#000000" fill-opacity="1"><g transform="translate(5.073316, 7.19389)"><g><path d="M 0.53125 -3.921875 L 1.65625 -3.921875 L 1.65625 0 L 0.53125 0 Z M 1.09375 -4.46875 C 0.882812 -4.46875 0.710938 -4.523438 0.578125 -4.640625 C 0.453125 -4.765625 0.390625 -4.914062 0.390625 -5.09375 C 0.390625 -5.269531 0.453125 -5.421875 0.578125 -5.546875 C 0.710938 -5.671875 0.882812 -5.734375 1.09375 -5.734375 C 1.300781 -5.734375 1.46875 -5.671875 1.59375 -5.546875 C 1.726562 -5.429688 1.796875 -5.289062 1.796875 -5.125 C 1.796875 -4.925781 1.726562 -4.765625 1.59375 -4.640625 C 1.46875 -4.523438 1.300781 -4.46875 1.09375 -4.46875 Z M 1.09375 -4.46875 "/></g></g></g><g fill="#000000" fill-opacity="1"><g transform="translate(6.880514, 7.19389)"><g><path d="M 5.546875 -3.96875 C 6.035156 -3.96875 6.421875 -3.820312 6.703125 -3.53125 C 6.992188 -3.25 7.140625 -2.820312 7.140625 -2.25 L 7.140625 0 L 6 0 L 6 -2.0625 C 6 -2.375 5.9375 -2.609375 5.8125 -2.765625 C 5.6875 -2.921875 5.503906 -3 5.265625 -3 C 4.992188 -3 4.78125 -2.910156 4.625 -2.734375 C 4.46875 -2.554688 4.390625 -2.300781 4.390625 -1.96875 L 4.390625 0 L 3.265625 0 L 3.265625 -2.0625 C 3.265625 -2.6875 3.015625 -3 2.515625 -3 C 2.253906 -3 2.046875 -2.910156 1.890625 -2.734375 C 1.734375 -2.554688 1.65625 -2.300781 1.65625 -1.96875 L 1.65625 0 L 0.53125 0 L 0.53125 -3.921875 L 1.609375 -3.921875 L 1.609375 -3.46875 C 1.753906 -3.632812 1.929688 -3.757812 2.140625 -3.84375 C 2.359375 -3.925781 2.59375 -3.96875 2.84375 -3.96875 C 3.113281 -3.96875 3.359375 -3.910156 3.578125 -3.796875 C 3.804688 -3.691406 3.988281 -3.535156 4.125 -3.328125 C 4.289062 -3.535156 4.492188 -3.691406 4.734375 -3.796875 C 4.984375 -3.910156 5.253906 -3.96875 5.546875 -3.96875 Z M 5.546875 -3.96875 "/></g></g></g><g fill="#000000" fill-opacity="1"><g transform="translate(14.138764, 7.19389)"><g><path d="M 2.84375 -3.96875 C 3.207031 -3.96875 3.535156 -3.882812 3.828125 -3.71875 C 4.128906 -3.550781 4.363281 -3.316406 4.53125 -3.015625 C 4.707031 -2.710938 4.796875 -2.359375 4.796875 -1.953125 C 4.796875 -1.554688 4.707031 -1.203125 4.53125 -0.890625 C 4.363281 -0.585938 4.128906 -0.351562 3.828125 -0.1875 C 3.535156 -0.0195312 3.207031 0.0625 2.84375 0.0625 C 2.34375 0.0625 1.945312 -0.0976562 1.65625 -0.421875 L 1.65625 1.40625 L 0.53125 1.40625 L 0.53125 -3.921875 L 1.609375 -3.921875 L 1.609375 -3.46875 C 1.890625 -3.800781 2.300781 -3.96875 2.84375 -3.96875 Z M 2.640625 -0.875 C 2.929688 -0.875 3.171875 -0.972656 3.359375 -1.171875 C 3.546875 -1.367188 3.640625 -1.628906 3.640625 -1.953125 C 3.640625 -2.285156 3.546875 -2.550781 3.359375 -2.75 C 3.171875 -2.945312 2.929688 -3.046875 2.640625 -3.046875 C 2.347656 -3.046875 2.109375 -2.945312 1.921875 -2.75 C 1.734375 -2.550781 1.640625 -2.285156 1.640625 -1.953125 C 1.640625 -1.628906 1.734375 -1.367188 1.921875 -1.171875 C 2.109375 -0.972656 2.347656 -0.875 2.640625 -0.875 Z M 2.640625 -0.875 "/></g></g></g><g fill="#000000" fill-opacity="1"><g transform="translate(18.7808, 7.19389)"><g><path d="M 0.53125 -5.40625 L 1.65625 -5.40625 L 1.65625 0 L 0.53125 0 Z M 0.53125 -5.40625 "/></g></g></g><g fill="#000000" fill-opacity="1"><g transform="translate(20.587998, 7.19389)"><g><path d="M 4.359375 -1.9375 C 4.359375 -1.925781 4.351562 -1.828125 4.34375 -1.640625 L 1.375 -1.640625 C 1.425781 -1.398438 1.550781 -1.207031 1.75 -1.0625 C 1.945312 -0.925781 2.195312 -0.859375 2.5 -0.859375 C 2.695312 -0.859375 2.875 -0.882812 3.03125 -0.9375 C 3.195312 -1 3.347656 -1.097656 3.484375 -1.234375 L 4.078125 -0.578125 C 3.710938 -0.148438 3.175781 0.0625 2.46875 0.0625 C 2.03125 0.0625 1.640625 -0.0195312 1.296875 -0.1875 C 0.953125 -0.363281 0.6875 -0.601562 0.5 -0.90625 C 0.320312 -1.21875 0.234375 -1.566406 0.234375 -1.953125 C 0.234375 -2.335938 0.320312 -2.679688 0.5 -2.984375 C 0.6875 -3.296875 0.9375 -3.535156 1.25 -3.703125 C 1.570312 -3.878906 1.929688 -3.96875 2.328125 -3.96875 C 2.703125 -3.96875 3.046875 -3.882812 3.359375 -3.71875 C 3.671875 -3.5625 3.914062 -3.328125 4.09375 -3.015625 C 4.269531 -2.710938 4.359375 -2.351562 4.359375 -1.9375 Z M 2.328125 -3.109375 C 2.066406 -3.109375 1.847656 -3.035156 1.671875 -2.890625 C 1.503906 -2.742188 1.398438 -2.546875 1.359375 -2.296875 L 3.296875 -2.296875 C 3.253906 -2.546875 3.144531 -2.742188 2.96875 -2.890625 C 2.789062 -3.035156 2.578125 -3.109375 2.328125 -3.109375 Z M 2.328125 -3.109375 "/></g></g></g></g></g></g><g clip-path="url(#f12918c5c3)"><g clip-path="url(#abe0d877ef)"><g transform="matrix(1, 0, 0, 1, 4, 12)"><g clip-path="url(#f4347044b8)"><g clip-path="url(#5b1078ff84)"><g clip-path="url(#42dc479018)"><g clip-path="url(#3151f6fb91)"><path fill="#212121" d="M 1.65625 9.914062 C 1.753906 10.167969 1.847656 10.328125 1.9375 10.339844 C 2.304688 10.398438 2.472656 9.019531 2.542969 8.132812 C 3.214844 8.929688 4.210938 9.820312 5.589844 10.464844 C 6.960938 11.109375 8.570312 11.433594 10.210938 11.300781 C 11.972656 11.15625 13.578125 10.5 14.847656 9.570312 C 16.539062 8.324219 17.421875 6.769531 17.871094 5.730469 C 17.417969 6.777344 16.472656 8.289062 14.75 9.429688 C 13.460938 10.28125 11.867188 10.824219 10.1875 10.867188 C 8.621094 10.902344 7.136719 10.503906 5.902344 9.84375 C 4.632812 9.164062 3.746094 8.28125 3.152344 7.527344 C 4.03125 7.699219 5.632812 7.960938 5.675781 7.605469 C 5.738281 7.117188 1.875 5.179688 1.269531 5.625 C 0.851562 5.933594 1.242188 8.808594 1.65625 9.914062 Z M 1.65625 9.914062 " fill-opacity="1" fill-rule="nonzero"/></g></g></g></g></g></g></g></g></g><g fill="#21282e" fill-opacity="1"><g transform="translate(31.138279, 20.750011)"><g><path d="M 4.03125 0.125 C 3.46875 0.125 2.96875 0.0234375 2.53125 -0.171875 C 2.09375 -0.367188 1.71875 -0.632812 1.40625 -0.96875 C 1.101562 -1.3125 0.875 -1.695312 0.71875 -2.125 C 0.5625 -2.5625 0.484375 -3.015625 0.484375 -3.484375 C 0.484375 -3.941406 0.5625 -4.390625 0.71875 -4.828125 C 0.875 -5.265625 1.097656 -5.65625 1.390625 -6 C 1.691406 -6.34375 2.0625 -6.613281 2.5 -6.8125 C 2.945312 -7.019531 3.457031 -7.125 4.03125 -7.125 C 4.539062 -7.125 5.003906 -7.035156 5.421875 -6.859375 C 5.847656 -6.679688 6.226562 -6.398438 6.5625 -6.015625 L 6.0625 -5.546875 C 5.800781 -5.816406 5.503906 -6.023438 5.171875 -6.171875 C 4.847656 -6.328125 4.476562 -6.40625 4.0625 -6.40625 C 3.488281 -6.40625 2.992188 -6.269531 2.578125 -6 C 2.160156 -5.726562 1.84375 -5.367188 1.625 -4.921875 C 1.40625 -4.484375 1.296875 -4.003906 1.296875 -3.484375 C 1.296875 -3.109375 1.359375 -2.75 1.484375 -2.40625 C 1.609375 -2.0625 1.785156 -1.753906 2.015625 -1.484375 C 2.253906 -1.210938 2.539062 -1 2.875 -0.84375 C 3.21875 -0.6875 3.601562 -0.609375 4.03125 -0.609375 C 4.425781 -0.609375 4.816406 -0.695312 5.203125 -0.875 C 5.597656 -1.050781 5.929688 -1.3125 6.203125 -1.65625 L 6.78125 -1.203125 C 6.050781 -0.316406 5.132812 0.125 4.03125 0.125 Z M 4.03125 0.125 "/></g></g></g><g fill="#21282e" fill-opacity="1"><g transform="translate(39.225395, 20.750011)"><g><path d="M 4.921875 -7 L 5.734375 -7 L 5.734375 0 L 4.921875 0 L 4.921875 -3.1875 L 1.8125 -3.1875 L 1.8125 0 L 1 0 L 1 -7 L 1.8125 -7 L 1.8125 -3.9375 L 4.921875 -3.9375 Z M 4.921875 -7 "/></g></g></g><g fill="#21282e" fill-opacity="1"><g transform="translate(46.852687, 20.750011)"><g><path d="M 5.296875 0 L 4.46875 -2.203125 L 1.796875 -2.203125 L 1 0 L 0.15625 0 L 2.671875 -7 L 3.59375 -7 L 6.125 0 Z M 2.796875 -5.203125 L 2.046875 -2.90625 L 4.21875 -2.90625 L 3.453125 -5.203125 L 3.15625 -6.171875 L 3.078125 -6.171875 Z M 2.796875 -5.203125 "/></g></g></g><g fill="#21282e" fill-opacity="1"><g transform="translate(53.990172, 20.750011)"><g><path d="M 1 0 L 1 -7 L 1.796875 -7 L 1.796875 0 Z M 1 0 "/></g></g></g><g fill="#21282e" fill-opacity="1"><g transform="translate(57.619048, 20.750011)"><g><path d="M 1.03125 0 L 1.03125 -7.03125 L 2.015625 -7.03125 L 4.765625 -2.265625 L 5.453125 -0.953125 L 5.46875 -0.953125 L 5.375 -2.609375 L 5.375 -7.03125 L 6.1875 -7.03125 L 6.1875 0 L 5.203125 0 L 2.46875 -4.734375 L 1.765625 -6.0625 L 1.734375 -6.0625 L 1.84375 -4.4375 L 1.84375 0 Z M 1.03125 0 "/></g></g></g><g fill="#21282e" fill-opacity="1"><g transform="translate(65.736147, 20.750011)"><g><path d="M 2.6875 0.125 C 2.257812 0.125 1.835938 0.00390625 1.421875 -0.234375 C 1.015625 -0.472656 0.710938 -0.832031 0.515625 -1.3125 L 1.1875 -1.65625 C 1.363281 -1.300781 1.585938 -1.035156 1.859375 -0.859375 C 2.128906 -0.691406 2.421875 -0.609375 2.734375 -0.609375 C 3.140625 -0.609375 3.472656 -0.722656 3.734375 -0.953125 C 3.992188 -1.191406 4.125 -1.5 4.125 -1.875 C 4.125 -2.175781 4.046875 -2.421875 3.890625 -2.609375 C 3.734375 -2.796875 3.539062 -2.941406 3.3125 -3.046875 C 3.09375 -3.148438 2.875 -3.234375 2.65625 -3.296875 C 2.445312 -3.347656 2.226562 -3.421875 2 -3.515625 C 1.78125 -3.609375 1.570312 -3.726562 1.375 -3.875 C 1.1875 -4.03125 1.035156 -4.222656 0.921875 -4.453125 C 0.804688 -4.679688 0.75 -4.957031 0.75 -5.28125 C 0.75 -5.707031 0.847656 -6.054688 1.046875 -6.328125 C 1.253906 -6.597656 1.515625 -6.796875 1.828125 -6.921875 C 2.148438 -7.054688 2.472656 -7.125 2.796875 -7.125 C 3.210938 -7.125 3.597656 -7.015625 3.953125 -6.796875 C 4.304688 -6.585938 4.578125 -6.257812 4.765625 -5.8125 L 4.125 -5.515625 C 3.976562 -5.835938 3.785156 -6.066406 3.546875 -6.203125 C 3.304688 -6.335938 3.046875 -6.40625 2.765625 -6.40625 C 2.566406 -6.40625 2.375 -6.363281 2.1875 -6.28125 C 2 -6.195312 1.84375 -6.066406 1.71875 -5.890625 C 1.59375 -5.722656 1.53125 -5.503906 1.53125 -5.234375 C 1.53125 -4.972656 1.601562 -4.757812 1.75 -4.59375 C 1.90625 -4.425781 2.082031 -4.296875 2.28125 -4.203125 C 2.488281 -4.109375 2.6875 -4.039062 2.875 -4 C 3.125 -3.9375 3.367188 -3.851562 3.609375 -3.75 C 3.859375 -3.644531 4.082031 -3.507812 4.28125 -3.34375 C 4.476562 -3.1875 4.632812 -2.984375 4.75 -2.734375 C 4.875 -2.492188 4.9375 -2.195312 4.9375 -1.84375 C 4.9375 -1.5 4.867188 -1.203125 4.734375 -0.953125 C 4.597656 -0.710938 4.414062 -0.507812 4.1875 -0.34375 C 3.96875 -0.1875 3.722656 -0.0703125 3.453125 0 C 3.191406 0.0820312 2.9375 0.125 2.6875 0.125 Z M 2.6875 0.125 "/></g></g></g><g fill="#21282e" fill-opacity="1"><g transform="translate(72.193899, 20.750011)"><g><path d="M 5.296875 0 L 4.46875 -2.203125 L 1.796875 -2.203125 L 1 0 L 0.15625 0 L 2.671875 -7 L 3.59375 -7 L 6.125 0 Z M 2.796875 -5.203125 L 2.046875 -2.90625 L 4.21875 -2.90625 L 3.453125 -5.203125 L 3.15625 -6.171875 L 3.078125 -6.171875 Z M 2.796875 -5.203125 "/></g></g></g><g fill="#21282e" fill-opacity="1"><g transform="translate(79.331384, 20.750011)"><g><path d="M 2.3125 0.015625 L 0.40625 -7.015625 L 1.234375 -7.015625 L 2.5 -2.15625 L 2.8125 -0.65625 L 2.84375 -0.65625 L 3.1875 -2.078125 L 4.265625 -6.015625 L 5.203125 -6.015625 L 6.296875 -2.0625 L 6.625 -0.65625 L 6.65625 -0.65625 L 7 -2.265625 L 8.234375 -7.015625 L 9.0625 -7.015625 L 7.15625 0.015625 L 6.15625 0.015625 L 5.109375 -3.640625 L 4.75 -5.140625 L 4.71875 -5.140625 L 4.375 -3.640625 L 3.3125 0.015625 Z M 2.3125 0.015625 "/></g></g></g><g clip-path="url(#e523806103)"><g clip-path="url(#282ed8651e)"><g transform="matrix(1, 0, 0, 1, 14, 14)"><g clip-path="url(#5ae9a48166)"><g clip-path="url(#01c679e212)"><g clip-path="url(#aeadf26847)"><g clip-path="url(#59f0354cdc)"><g clip-path="url(#bc385ef683)"><path fill="#000000" d="M 44.8125 51.414062 L 43.445312 51.300781 L 43.160156 52.3125 Z M 41.515625 37.652344 L 41.980469 38.820312 C 42.03125 38.761719 42.085938 38.703125 42.144531 38.648438 L 42.964844 37.878906 Z M 65.339844 48.667969 L 56.359375 36.128906 L 52.972656 36.09375 C 52.976562 36.214844 52.976562 36.339844 52.96875 36.464844 L 52.957031 36.675781 L 56.910156 38.9375 C 56.984375 38.980469 57.046875 39.039062 57.097656 39.105469 L 63.902344 48.738281 C 63.960938 48.820312 63.996094 48.914062 64.003906 49.015625 L 64.042969 49.40625 L 65.410156 49.402344 Z M 60.371094 35.019531 L 62.671875 35.042969 C 62.855469 35.046875 63.023438 35.132812 63.132812 35.277344 L 68.945312 43.1875 C 69.796875 42.863281 70.703125 42.386719 71.527344 41.699219 C 73.09375 40.394531 73.796875 38.445312 74.042969 37.574219 L 69.089844 30.957031 L 60.214844 30.390625 L 57.171875 30.546875 Z M 49.605469 21.96875 C 49.492188 21.808594 49.320312 21.703125 49.128906 21.667969 C 48.933594 21.636719 48.738281 21.683594 48.578125 21.796875 L 48.472656 21.871094 C 48.449219 21.890625 48.421875 21.910156 48.398438 21.933594 C 48.132812 22.179688 48.085938 22.597656 48.304688 22.902344 L 66.980469 48.976562 C 67.09375 49.136719 67.265625 49.242188 67.460938 49.277344 C 67.652344 49.308594 67.847656 49.261719 68.011719 49.148438 L 68.113281 49.074219 C 68.445312 48.835938 68.519531 48.375 68.28125 48.046875 Z M 48.722656 29.828125 L 49.253906 26.210938 L 47.910156 24.332031 L 47.089844 29.910156 Z M 46.921875 31.074219 L 46.660156 32.863281 L 49.320312 32.746094 C 50.3125 32.703125 51.28125 33.082031 51.972656 33.792969 C 52.300781 34.121094 52.546875 34.515625 52.71875 34.9375 L 55.527344 34.964844 L 52.53125 30.789062 Z M 49.898438 29.765625 L 51.734375 29.671875 L 50.222656 27.5625 Z M 66.660156 43.796875 C 66.988281 43.746094 67.367188 43.667969 67.785156 43.558594 L 62.375 36.195312 L 61.207031 36.183594 Z M 40.734375 27.003906 L 40.375 22.828125 C 40.34375 22.433594 40.019531 22.128906 39.621094 22.113281 C 39.410156 22.105469 39.214844 22.179688 39.0625 22.324219 C 39.050781 22.335938 39.035156 22.347656 39.023438 22.359375 C 38.867188 22.527344 38.792969 22.746094 38.816406 22.972656 L 39.210938 27.019531 C 39.453125 29.457031 40.601562 31.683594 42.453125 33.292969 L 46.550781 36.851562 L 51.8125 36.460938 L 51.816406 36.390625 C 51.859375 35.726562 51.617188 35.074219 51.152344 34.601562 C 50.683594 34.125 50.035156 33.867188 49.371094 33.898438 L 46.011719 34.042969 C 45.863281 34.050781 45.71875 34 45.605469 33.902344 L 43.101562 31.695312 C 41.730469 30.488281 40.890625 28.820312 40.734375 27.003906 Z M 66.742188 51.152344 L 86.234375 49.238281 C 87.535156 49.109375 88.519531 47.960938 88.425781 46.671875 C 88.320312 45.144531 87.992188 44.003906 87.488281 43.375 C 85.109375 40.402344 77.28125 38.417969 75.148438 37.921875 C 74.855469 38.941406 74.054688 41.085938 72.265625 42.585938 C 70.636719 43.945312 68.765625 44.558594 67.402344 44.835938 L 69.21875 47.375 C 69.777344 48.152344 69.660156 49.21875 68.972656 49.855469 C 68.914062 49.910156 68.851562 49.964844 68.78125 50.011719 L 68.679688 50.085938 C 68.269531 50.378906 67.769531 50.496094 67.269531 50.414062 C 67.046875 50.378906 66.839844 50.296875 66.648438 50.1875 Z M 63.046875 51.078125 L 62.871094 49.28125 L 56.226562 39.875 L 52.222656 37.589844 L 46.398438 38.019531 L 44.734375 38.144531 C 44.484375 38.160156 44.242188 38.265625 44.058594 38.4375 L 42.933594 39.492188 C 42.683594 39.726562 42.554688 40.070312 42.589844 40.410156 L 43.542969 50.148438 L 55.703125 51.160156 Z M 6.929688 48.976562 L 7.445312 49.476562 L 8.117188 49.027344 C 8.316406 48.898438 8.570312 48.898438 8.765625 49.035156 L 9.496094 49.535156 L 10.234375 49.046875 C 10.429688 48.917969 10.683594 48.917969 10.878906 49.054688 L 11.609375 49.554688 L 12.351562 49.066406 C 12.546875 48.9375 12.804688 48.9375 12.996094 49.074219 L 13.722656 49.574219 L 14.460938 49.082031 C 14.660156 48.953125 14.914062 48.953125 15.109375 49.089844 L 15.839844 49.59375 L 16.574219 49.101562 C 16.773438 48.972656 17.027344 48.972656 17.222656 49.105469 L 17.953125 49.613281 L 18.691406 49.121094 C 18.890625 48.992188 19.144531 48.992188 19.339844 49.125 L 20.070312 49.628906 L 20.808594 49.140625 C 21.003906 49.011719 21.257812 49.011719 21.453125 49.144531 L 22.183594 49.648438 L 22.917969 49.160156 C 23.117188 49.027344 23.371094 49.03125 23.566406 49.164062 L 24.296875 49.667969 L 25.03125 49.175781 C 25.226562 49.042969 25.484375 49.046875 25.679688 49.179688 L 26.410156 49.6875 L 27.144531 49.195312 C 27.339844 49.0625 27.597656 49.066406 27.792969 49.199219 L 28.523438 49.703125 L 29.265625 49.210938 C 29.460938 49.082031 29.714844 49.085938 29.910156 49.21875 L 30.640625 49.722656 L 31.378906 49.230469 C 31.574219 49.101562 31.828125 49.105469 32.023438 49.238281 L 32.753906 49.742188 L 33.496094 49.25 C 33.691406 49.121094 33.945312 49.125 34.140625 49.257812 L 34.871094 49.757812 L 35.609375 49.265625 C 35.808594 49.136719 36.0625 49.136719 36.257812 49.273438 L 36.988281 49.777344 L 37.726562 49.285156 C 37.925781 49.15625 38.179688 49.15625 38.375 49.292969 L 39.105469 49.796875 L 39.84375 49.304688 C 40.039062 49.175781 40.296875 49.175781 40.492188 49.308594 L 41.226562 49.8125 L 41.96875 49.324219 C 42.066406 49.257812 42.179688 49.226562 42.292969 49.226562 L 41.671875 42.894531 L 41.296875 42.636719 L 40.554688 43.125 C 40.359375 43.257812 40.101562 43.253906 39.910156 43.121094 L 39.183594 42.617188 L 38.445312 43.109375 C 38.246094 43.242188 37.992188 43.238281 37.796875 43.105469 L 37.066406 42.601562 L 36.332031 43.089844 C 36.136719 43.222656 35.878906 43.21875 35.683594 43.085938 L 34.953125 42.582031 L 34.210938 43.074219 C 34.015625 43.203125 33.761719 43.199219 33.566406 43.066406 L 32.839844 42.5625 L 32.097656 43.054688 C 31.902344 43.183594 31.648438 43.179688 31.453125 43.046875 L 30.722656 42.546875 L 29.984375 43.035156 C 29.789062 43.164062 29.535156 43.160156 29.339844 43.027344 L 28.609375 42.527344 L 27.875 43.019531 C 27.675781 43.148438 27.421875 43.148438 27.226562 43.011719 L 26.496094 42.507812 L 25.761719 43 C 25.566406 43.128906 25.308594 43.128906 25.113281 42.992188 L 24.382812 42.492188 L 23.648438 42.980469 C 23.449219 43.109375 23.195312 43.109375 23 42.972656 L 22.269531 42.472656 L 21.527344 42.960938 C 21.332031 43.089844 21.078125 43.089844 20.882812 42.957031 L 20.152344 42.453125 L 19.417969 42.941406 C 19.21875 43.070312 18.964844 43.070312 18.769531 42.9375 L 18.039062 42.433594 L 17.300781 42.925781 C 17.105469 43.054688 16.847656 43.054688 16.652344 42.921875 L 15.917969 42.414062 L 15.183594 42.90625 C 14.988281 43.039062 14.730469 43.035156 14.535156 42.902344 L 13.804688 42.398438 L 13.0625 42.890625 C 12.867188 43.019531 12.613281 43.015625 12.417969 42.882812 L 11.6875 42.378906 L 10.945312 42.871094 C 10.75 43 10.496094 42.996094 10.300781 42.863281 L 9.566406 42.359375 L 8.824219 42.851562 C 8.628906 42.980469 8.375 42.976562 8.179688 42.84375 L 7.503906 42.378906 L 6.964844 42.859375 C 6.789062 43.015625 6.539062 43.050781 6.328125 42.949219 L 5.800781 42.695312 L 5.585938 43.238281 C 5.503906 43.449219 5.300781 43.589844 5.074219 43.601562 L 4.496094 43.628906 L 4.566406 44.207031 C 4.59375 44.4375 4.484375 44.664062 4.285156 44.777344 L 3.765625 45.078125 L 4.09375 45.578125 C 4.222656 45.777344 4.21875 46.03125 4.082031 46.222656 L 3.742188 46.710938 L 4.25 47.019531 C 4.445312 47.140625 4.554688 47.367188 4.523438 47.59375 L 4.441406 48.164062 L 5.019531 48.195312 C 5.246094 48.203125 5.445312 48.347656 5.527344 48.5625 L 5.742188 49.113281 L 6.285156 48.863281 C 6.503906 48.765625 6.757812 48.808594 6.929688 48.976562 Z M 3.214844 48.628906 L 3.328125 47.808594 L 2.617188 47.378906 C 2.480469 47.296875 2.386719 47.160156 2.351562 47.003906 C 2.320312 46.847656 2.351562 46.6875 2.445312 46.554688 L 2.914062 45.882812 L 2.46875 45.199219 C 2.382812 45.066406 2.355469 44.90625 2.390625 44.75 C 2.425781 44.597656 2.523438 44.464844 2.660156 44.386719 L 3.375 43.972656 L 3.273438 43.152344 C 3.25 42.992188 3.300781 42.832031 3.402344 42.707031 C 3.507812 42.582031 3.65625 42.511719 3.816406 42.503906 L 4.648438 42.464844 L 4.953125 41.691406 C 5.011719 41.542969 5.132812 41.425781 5.28125 41.367188 C 5.429688 41.308594 5.597656 41.316406 5.742188 41.386719 L 6.484375 41.742188 L 7.074219 41.214844 C 7.273438 41.039062 7.570312 41.019531 7.789062 41.171875 L 8.515625 41.671875 L 9.253906 41.183594 C 9.449219 41.054688 9.707031 41.058594 9.898438 41.1875 L 10.632812 41.695312 L 11.375 41.203125 C 11.570312 41.074219 11.828125 41.074219 12.019531 41.207031 L 12.753906 41.710938 L 13.492188 41.222656 C 13.691406 41.09375 13.945312 41.09375 14.136719 41.226562 L 14.867188 41.730469 L 15.605469 41.238281 C 15.800781 41.109375 16.058594 41.109375 16.25 41.242188 L 16.984375 41.75 L 17.722656 41.257812 C 17.917969 41.125 18.171875 41.128906 18.367188 41.261719 L 19.101562 41.765625 L 19.839844 41.277344 C 20.035156 41.144531 20.292969 41.148438 20.484375 41.28125 L 21.214844 41.785156 L 21.957031 41.292969 C 22.152344 41.164062 22.410156 41.167969 22.601562 41.300781 L 23.332031 41.800781 L 24.070312 41.3125 C 24.265625 41.183594 24.523438 41.1875 24.714844 41.320312 L 25.445312 41.820312 L 26.183594 41.332031 C 26.378906 41.199219 26.636719 41.199219 26.832031 41.335938 L 27.558594 41.839844 L 28.296875 41.351562 C 28.492188 41.21875 28.746094 41.21875 28.941406 41.355469 L 29.671875 41.855469 L 30.410156 41.367188 C 30.605469 41.238281 30.863281 41.242188 31.054688 41.375 L 31.785156 41.875 L 32.527344 41.386719 C 32.722656 41.257812 32.980469 41.257812 33.171875 41.394531 L 33.902344 41.894531 L 34.640625 41.40625 C 34.835938 41.277344 35.09375 41.277344 35.285156 41.414062 L 36.015625 41.914062 L 36.75 41.421875 C 36.949219 41.292969 37.207031 41.292969 37.398438 41.429688 L 38.128906 41.933594 L 38.871094 41.441406 C 39.066406 41.3125 39.324219 41.3125 39.515625 41.449219 L 40.246094 41.949219 L 40.984375 41.460938 C 41.148438 41.351562 41.351562 41.339844 41.527344 41.417969 L 41.449219 40.605469 L 40.070312 37.140625 C 39.992188 36.945312 40.027344 36.726562 40.15625 36.566406 C 40.285156 36.402344 40.492188 36.324219 40.695312 36.355469 L 44.714844 36.988281 L 44.890625 36.972656 L 44.894531 36.9375 L 41.695312 34.164062 C 39.621094 32.359375 38.332031 29.863281 38.0625 27.128906 L 37.667969 23.085938 C 37.613281 22.53125 37.800781 21.980469 38.183594 21.570312 C 38.566406 21.167969 39.101562 20.941406 39.660156 20.960938 C 40.640625 20.992188 41.441406 21.753906 41.527344 22.730469 L 41.882812 26.902344 C 42.015625 28.425781 42.71875 29.820312 43.863281 30.828125 L 45.570312 32.332031 L 45.605469 32.078125 L 47.015625 22.484375 C 47.011719 21.890625 47.285156 21.304688 47.804688 20.933594 L 47.90625 20.859375 C 48.316406 20.566406 48.816406 20.449219 49.316406 20.53125 C 49.8125 20.613281 50.25 20.886719 50.542969 21.296875 L 56.371094 29.433594 L 60.1875 29.238281 C 60.210938 29.238281 60.230469 29.238281 60.253906 29.238281 L 69.429688 29.824219 C 69.597656 29.832031 69.753906 29.917969 69.855469 30.054688 L 74.808594 36.667969 C 74.820312 36.671875 74.832031 36.667969 74.84375 36.671875 C 75.269531 36.761719 85.378906 38.894531 88.390625 42.652344 C 89.050781 43.480469 89.449219 44.804688 89.578125 46.589844 C 89.65625 47.691406 89.207031 48.722656 88.445312 49.433594 C 87.886719 49.957031 87.160156 50.308594 86.347656 50.386719 L 66.28125 52.355469 C 66.128906 52.371094 65.976562 52.328125 65.859375 52.230469 C 65.742188 52.132812 65.664062 51.992188 65.652344 51.839844 L 65.523438 50.558594 L 64.15625 50.558594 L 64.257812 51.589844 C 64.273438 51.75 64.222656 51.910156 64.113281 52.03125 C 64.101562 52.042969 64.089844 52.058594 64.078125 52.066406 C 63.972656 52.167969 63.835938 52.222656 63.691406 52.222656 L 55.691406 52.316406 C 55.671875 52.316406 55.652344 52.3125 55.636719 52.3125 L 46.902344 51.585938 L 42.507812 53.980469 C 42.304688 54.09375 42.054688 54.070312 41.871094 53.925781 C 41.691406 53.78125 41.613281 53.542969 41.675781 53.320312 L 42.433594 50.632812 L 42.429688 50.601562 L 42.28125 50.5 L 41.539062 50.988281 C 41.34375 51.117188 41.085938 51.117188 40.894531 50.984375 L 40.160156 50.480469 L 39.417969 50.972656 C 39.222656 51.105469 38.964844 51.101562 38.769531 50.96875 L 38.039062 50.464844 L 37.300781 50.953125 C 37.105469 51.085938 36.847656 51.082031 36.652344 50.949219 L 35.921875 50.445312 L 35.183594 50.9375 C 34.988281 51.066406 34.730469 51.0625 34.539062 50.929688 L 33.808594 50.429688 L 33.066406 50.917969 C 32.871094 51.046875 32.613281 51.046875 32.421875 50.910156 L 31.691406 50.410156 L 30.953125 50.898438 C 30.757812 51.027344 30.5 51.027344 30.308594 50.890625 L 29.574219 50.390625 L 28.835938 50.878906 C 28.640625 51.007812 28.382812 51.007812 28.191406 50.875 L 27.460938 50.371094 L 26.722656 50.863281 C 26.527344 50.992188 26.269531 50.992188 26.074219 50.859375 L 25.347656 50.351562 L 24.613281 50.84375 C 24.414062 50.976562 24.160156 50.972656 23.964844 50.839844 L 23.234375 50.335938 L 22.496094 50.824219 C 22.300781 50.953125 22.042969 50.953125 21.851562 50.820312 L 21.121094 50.316406 L 20.382812 50.804688 C 20.1875 50.933594 19.929688 50.933594 19.738281 50.800781 L 19.007812 50.296875 L 18.265625 50.789062 C 18.070312 50.921875 17.8125 50.917969 17.617188 50.785156 L 16.890625 50.28125 L 16.15625 50.769531 C 15.957031 50.902344 15.699219 50.898438 15.507812 50.765625 L 14.777344 50.261719 L 14.035156 50.75 C 13.839844 50.882812 13.582031 50.878906 13.390625 50.746094 L 12.660156 50.242188 L 11.921875 50.734375 C 11.726562 50.863281 11.46875 50.859375 11.277344 50.726562 L 10.546875 50.222656 L 9.808594 50.714844 C 9.613281 50.84375 9.355469 50.839844 9.164062 50.707031 L 8.433594 50.207031 L 7.699219 50.695312 C 7.472656 50.847656 7.171875 50.820312 6.976562 50.628906 L 6.40625 50.078125 L 5.664062 50.417969 C 5.519531 50.484375 5.355469 50.488281 5.207031 50.429688 C 5.0625 50.371094 4.945312 50.25 4.886719 50.101562 L 4.585938 49.328125 L 3.757812 49.285156 C 3.59375 49.277344 3.445312 49.203125 3.339844 49.078125 C 3.238281 48.953125 3.191406 48.789062 3.214844 48.628906 " fill-opacity="1" fill-rule="nonzero"/></g></g></g></g><g clip-path="url(#3b8ca41ee2)"><g clip-path="url(#305f18d6cf)"><g clip-path="url(#bb6df0c0b1)"><path fill="#000000" d="M 79.207031 42.003906 C 78.4375 41.742188 77.636719 41.488281 76.835938 41.261719 C 76.667969 41.585938 76.484375 41.898438 76.292969 42.199219 L 78.628906 42.925781 Z M 85.574219 46.464844 C 85.46875 45.503906 85.28125 45.140625 85.285156 45.136719 C 84.570312 44.246094 82.597656 43.261719 80.316406 42.40625 L 79.371094 43.917969 C 79.34375 43.960938 79.308594 44 79.273438 44.03125 C 79.125 44.171875 78.910156 44.226562 78.707031 44.160156 L 75.59375 43.1875 C 75.132812 43.769531 74.625 44.292969 74.074219 44.753906 C 73.441406 45.28125 72.746094 45.75 72 46.15625 L 72.160156 47.785156 Z M 71.070312 48.472656 L 70.816406 45.878906 C 70.792969 45.644531 70.917969 45.417969 71.128906 45.308594 C 71.929688 44.90625 72.671875 44.421875 73.335938 43.867188 C 73.917969 43.382812 74.441406 42.816406 74.910156 42.175781 C 74.910156 42.175781 74.910156 42.175781 74.914062 42.175781 C 75.117188 41.894531 75.3125 41.597656 75.496094 41.292969 C 75.507812 41.269531 75.519531 41.246094 75.535156 41.226562 C 75.613281 41.09375 75.6875 40.960938 75.757812 40.828125 C 75.835938 40.683594 75.910156 40.535156 75.984375 40.386719 C 75.992188 40.367188 76.003906 40.347656 76.011719 40.332031 C 76.042969 40.269531 76.082031 40.210938 76.128906 40.164062 C 76.273438 40.027344 76.480469 39.96875 76.683594 40.023438 C 76.957031 40.097656 77.238281 40.175781 77.519531 40.261719 C 77.59375 40.28125 77.667969 40.304688 77.742188 40.324219 C 77.957031 40.390625 78.175781 40.457031 78.394531 40.527344 C 78.460938 40.546875 78.527344 40.566406 78.597656 40.589844 C 78.832031 40.664062 79.070312 40.742188 79.308594 40.820312 C 79.351562 40.835938 79.394531 40.851562 79.4375 40.863281 C 79.714844 40.957031 79.992188 41.054688 80.269531 41.15625 C 80.269531 41.15625 80.273438 41.15625 80.273438 41.15625 C 82.875 42.097656 85.257812 43.257812 86.195312 44.429688 C 86.40625 44.710938 86.667969 45.480469 86.761719 46.789062 C 86.777344 47.015625 86.6875 47.222656 86.527344 47.371094 C 86.40625 47.484375 86.25 47.558594 86.070312 47.578125 L 71.699219 48.988281 C 71.546875 49.003906 71.394531 48.957031 71.277344 48.859375 C 71.160156 48.761719 71.085938 48.621094 71.070312 48.472656 " fill-opacity="1" fill-rule="nonzero"/></g></g></g><g clip-path="url(#c001fbff02)"><g clip-path="url(#1806395789)"><g clip-path="url(#e2ce998355)"><path fill="#000000" d="M 53.1875 47.578125 L 53.179688 44.5 L 45.761719 44.523438 L 45.773438 47.601562 Z M 44.621094 48.179688 L 44.609375 43.949219 C 44.605469 43.632812 44.863281 43.371094 45.183594 43.371094 L 53.753906 43.34375 C 54.070312 43.34375 54.328125 43.601562 54.332031 43.921875 L 54.34375 48.152344 C 54.34375 48.304688 54.285156 48.449219 54.175781 48.558594 C 54.171875 48.566406 54.164062 48.570312 54.160156 48.574219 C 54.054688 48.675781 53.914062 48.730469 53.769531 48.730469 L 45.199219 48.753906 C 45.046875 48.757812 44.898438 48.695312 44.789062 48.585938 C 44.683594 48.480469 44.621094 48.332031 44.621094 48.179688 " fill-opacity="1" fill-rule="nonzero"/></g></g></g><g clip-path="url(#de0a9dca53)"><g clip-path="url(#b4687a737b)"><g clip-path="url(#e94ddef060)"><path fill="#000000" d="M 47.445312 45.425781 L 51.523438 45.425781 C 51.839844 45.425781 52.101562 45.6875 52.101562 46.003906 C 52.097656 46.171875 52.03125 46.320312 51.917969 46.425781 C 51.8125 46.523438 51.675781 46.582031 51.523438 46.582031 L 47.445312 46.582031 C 47.128906 46.582031 46.867188 46.324219 46.867188 46.003906 C 46.871094 45.6875 47.128906 45.425781 47.445312 45.425781 " fill-opacity="1" fill-rule="nonzero"/></g></g></g><g clip-path="url(#0fe5f892b1)"><g clip-path="url(#cef7495fe5)"><g clip-path="url(#9cdd645a12)"><path fill="#000000" d="M 7.957031 45.433594 L 10.050781 45.429688 C 10.371094 45.429688 10.628906 45.6875 10.628906 46.003906 C 10.628906 46.171875 10.558594 46.320312 10.445312 46.425781 C 10.34375 46.523438 10.203125 46.582031 10.054688 46.582031 L 7.960938 46.585938 C 7.640625 46.585938 7.382812 46.328125 7.382812 46.011719 C 7.382812 45.691406 7.640625 45.433594 7.957031 45.433594 " fill-opacity="1" fill-rule="nonzero"/></g></g></g></g></g></g></g></svg>