<svg xmlns="http://www.w3.org/2000/svg" xmlns:xlink="http://www.w3.org/1999/xlink" width="160" zoomAndPan="magnify" viewBox="0 0 120 119.999999" height="160" preserveAspectRatio="xMidYMid meet" version="1.0"><defs><g/><clipPath id="6b8734cad4"><path d="M 5 3 L 22 3 L 22 10 L 5 10 Z M 5 3 " clip-rule="nonzero"/></clipPath><clipPath id="61ccc9ac05"><path d="M 19.808594 0.914062 L 22.929688 9.4375 L 7.273438 15.175781 L 4.148438 6.652344 Z M 19.808594 0.914062 " clip-rule="nonzero"/></clipPath><clipPath id="914e9d7392"><path d="M 19.808594 0.914062 L 22.929688 9.4375 L 7.273438 15.175781 L 4.148438 6.652344 Z M 19.808594 0.914062 " clip-rule="nonzero"/></clipPath><clipPath id="0442429813"><path d="M 0.761719 9 L 25.238281 9 L 25.238281 19 L 0.761719 19 Z M 0.761719 9 " clip-rule="nonzero"/></clipPath><clipPath id="007634b825"><rect x="0" width="26" y="0" height="10"/></clipPath><clipPath id="79ab0d892b"><path d="M 4 12 L 23 12 L 23 26.441406 L 4 26.441406 Z M 4 12 " clip-rule="nonzero"/></clipPath><clipPath id="2d6ebbf9c6"><path d="M 19.808594 12.074219 L 22.929688 20.597656 L 7.273438 26.335938 L 4.148438 17.8125 Z M 19.808594 12.074219 " clip-rule="nonzero"/></clipPath><clipPath id="1b1d23802f"><path d="M 1 5 L 18 5 L 18 12 L 1 12 Z M 1 5 " clip-rule="nonzero"/></clipPath><clipPath id="30c0766ead"><path d="M 15.808594 0.0742188 L 18.929688 8.597656 L 3.273438 14.335938 L 0.148438 5.8125 Z M 15.808594 0.0742188 " clip-rule="nonzero"/></clipPath><clipPath id="6498bc7dbb"><path d="M 3.273438 14.347656 L 0.148438 5.824219 L 15.808594 0.0859375 L 18.933594 8.609375 Z M 3.273438 14.347656 " clip-rule="nonzero"/></clipPath><clipPath id="3c7af8edc0"><rect x="0" width="19" y="0" height="15"/></clipPath><clipPath id="339cda05ff"><rect x="0" width="26" y="0" height="27"/></clipPath><clipPath id="b30516783c"><path d="M 36 44 L 51 44 L 51 80.28125 L 36 80.28125 Z M 36 44 " clip-rule="nonzero"/></clipPath><clipPath id="6e283ddfea"><path d="M 47 39.78125 L 59 39.78125 L 59 49 L 47 49 Z M 47 39.78125 " clip-rule="nonzero"/></clipPath></defs><rect x="-12" width="144" fill="#ffffff" y="-12" height="143.999998" fill-opacity="1"/><rect x="-12" width="144" fill="#ffffff" y="-12" height="143.999998" fill-opacity="1"/><g transform="matrix(1, 0, 0, 1, 47, 89)"><g clip-path="url(#339cda05ff)"><g clip-path="url(#6b8734cad4)"><g clip-path="url(#61ccc9ac05)"><g clip-path="url(#914e9d7392)"><path fill="#212121" d="M 21.421875 5.347656 C 21.328125 5.09375 21.230469 4.933594 21.144531 4.917969 C 20.773438 4.863281 20.609375 6.242188 20.539062 7.128906 C 19.863281 6.332031 18.867188 5.441406 17.488281 4.792969 C 16.117188 4.148438 14.511719 3.824219 12.867188 3.960938 C 11.109375 4.105469 9.5 4.761719 8.234375 5.691406 C 6.539062 6.9375 5.65625 8.492188 5.210938 9.53125 C 5.660156 8.484375 6.605469 6.972656 8.332031 5.832031 C 9.621094 4.980469 11.210938 4.4375 12.890625 4.394531 C 14.460938 4.359375 15.945312 4.753906 17.179688 5.417969 C 18.449219 6.097656 19.332031 6.980469 19.929688 7.734375 C 19.046875 7.5625 17.449219 7.300781 17.402344 7.65625 C 17.339844 8.144531 21.203125 10.082031 21.808594 9.636719 C 22.226562 9.324219 21.835938 6.453125 21.421875 5.347656 Z M 21.421875 5.347656 " fill-opacity="1" fill-rule="nonzero"/></g></g></g><g clip-path="url(#0442429813)"><g transform="matrix(1, 0, 0, 1, 0, 9)"><g clip-path="url(#007634b825)"><g fill="#000000" fill-opacity="1"><g transform="translate(0.81023, 7.19389)"><g><path d="M 2.28125 0.09375 C 1.875 0.09375 1.484375 0.0390625 1.109375 -0.0625 C 0.734375 -0.175781 0.429688 -0.320312 0.203125 -0.5 L 0.609375 -1.390625 C 0.828125 -1.234375 1.082031 -1.101562 1.375 -1 C 1.675781 -0.90625 1.976562 -0.859375 2.28125 -0.859375 C 2.613281 -0.859375 2.859375 -0.90625 3.015625 -1 C 3.179688 -1.101562 3.265625 -1.238281 3.265625 -1.40625 C 3.265625 -1.53125 3.21875 -1.628906 3.125 -1.703125 C 3.03125 -1.785156 2.910156 -1.847656 2.765625 -1.890625 C 2.617188 -1.941406 2.414062 -2 2.15625 -2.0625 C 1.769531 -2.15625 1.453125 -2.242188 1.203125 -2.328125 C 0.960938 -2.421875 0.753906 -2.570312 0.578125 -2.78125 C 0.398438 -2.988281 0.3125 -3.257812 0.3125 -3.59375 C 0.3125 -3.894531 0.390625 -4.164062 0.546875 -4.40625 C 0.703125 -4.644531 0.941406 -4.832031 1.265625 -4.96875 C 1.585938 -5.113281 1.984375 -5.1875 2.453125 -5.1875 C 2.773438 -5.1875 3.09375 -5.144531 3.40625 -5.0625 C 3.71875 -4.988281 3.988281 -4.878906 4.21875 -4.734375 L 3.859375 -3.84375 C 3.390625 -4.101562 2.921875 -4.234375 2.453125 -4.234375 C 2.117188 -4.234375 1.875 -4.179688 1.71875 -4.078125 C 1.5625 -3.972656 1.484375 -3.832031 1.484375 -3.65625 C 1.484375 -3.476562 1.570312 -3.347656 1.75 -3.265625 C 1.9375 -3.179688 2.210938 -3.097656 2.578125 -3.015625 C 2.972656 -2.921875 3.289062 -2.828125 3.53125 -2.734375 C 3.78125 -2.640625 3.992188 -2.492188 4.171875 -2.296875 C 4.347656 -2.097656 4.4375 -1.832031 4.4375 -1.5 C 4.4375 -1.207031 4.351562 -0.9375 4.1875 -0.6875 C 4.03125 -0.445312 3.789062 -0.253906 3.46875 -0.109375 C 3.144531 0.0234375 2.75 0.09375 2.28125 0.09375 Z M 2.28125 0.09375 "/></g></g></g><g fill="#000000" fill-opacity="1"><g transform="translate(5.073316, 7.19389)"><g><path d="M 0.53125 -3.921875 L 1.65625 -3.921875 L 1.65625 0 L 0.53125 0 Z M 1.09375 -4.46875 C 0.882812 -4.46875 0.710938 -4.523438 0.578125 -4.640625 C 0.453125 -4.765625 0.390625 -4.914062 0.390625 -5.09375 C 0.390625 -5.269531 0.453125 -5.421875 0.578125 -5.546875 C 0.710938 -5.671875 0.882812 -5.734375 1.09375 -5.734375 C 1.300781 -5.734375 1.46875 -5.671875 1.59375 -5.546875 C 1.726562 -5.429688 1.796875 -5.289062 1.796875 -5.125 C 1.796875 -4.925781 1.726562 -4.765625 1.59375 -4.640625 C 1.46875 -4.523438 1.300781 -4.46875 1.09375 -4.46875 Z M 1.09375 -4.46875 "/></g></g></g><g fill="#000000" fill-opacity="1"><g transform="translate(6.880514, 7.19389)"><g><path d="M 5.546875 -3.96875 C 6.035156 -3.96875 6.421875 -3.820312 6.703125 -3.53125 C 6.992188 -3.25 7.140625 -2.820312 7.140625 -2.25 L 7.140625 0 L 6 0 L 6 -2.0625 C 6 -2.375 5.9375 -2.609375 5.8125 -2.765625 C 5.6875 -2.921875 5.503906 -3 5.265625 -3 C 4.992188 -3 4.78125 -2.910156 4.625 -2.734375 C 4.46875 -2.554688 4.390625 -2.300781 4.390625 -1.96875 L 4.390625 0 L 3.265625 0 L 3.265625 -2.0625 C 3.265625 -2.6875 3.015625 -3 2.515625 -3 C 2.253906 -3 2.046875 -2.910156 1.890625 -2.734375 C 1.734375 -2.554688 1.65625 -2.300781 1.65625 -1.96875 L 1.65625 0 L 0.53125 0 L 0.53125 -3.921875 L 1.609375 -3.921875 L 1.609375 -3.46875 C 1.753906 -3.632812 1.929688 -3.757812 2.140625 -3.84375 C 2.359375 -3.925781 2.59375 -3.96875 2.84375 -3.96875 C 3.113281 -3.96875 3.359375 -3.910156 3.578125 -3.796875 C 3.804688 -3.691406 3.988281 -3.535156 4.125 -3.328125 C 4.289062 -3.535156 4.492188 -3.691406 4.734375 -3.796875 C 4.984375 -3.910156 5.253906 -3.96875 5.546875 -3.96875 Z M 5.546875 -3.96875 "/></g></g></g><g fill="#000000" fill-opacity="1"><g transform="translate(14.138764, 7.19389)"><g><path d="M 2.84375 -3.96875 C 3.207031 -3.96875 3.535156 -3.882812 3.828125 -3.71875 C 4.128906 -3.550781 4.363281 -3.316406 4.53125 -3.015625 C 4.707031 -2.710938 4.796875 -2.359375 4.796875 -1.953125 C 4.796875 -1.554688 4.707031 -1.203125 4.53125 -0.890625 C 4.363281 -0.585938 4.128906 -0.351562 3.828125 -0.1875 C 3.535156 -0.0195312 3.207031 0.0625 2.84375 0.0625 C 2.34375 0.0625 1.945312 -0.0976562 1.65625 -0.421875 L 1.65625 1.40625 L 0.53125 1.40625 L 0.53125 -3.921875 L 1.609375 -3.921875 L 1.609375 -3.46875 C 1.890625 -3.800781 2.300781 -3.96875 2.84375 -3.96875 Z M 2.640625 -0.875 C 2.929688 -0.875 3.171875 -0.972656 3.359375 -1.171875 C 3.546875 -1.367188 3.640625 -1.628906 3.640625 -1.953125 C 3.640625 -2.285156 3.546875 -2.550781 3.359375 -2.75 C 3.171875 -2.945312 2.929688 -3.046875 2.640625 -3.046875 C 2.347656 -3.046875 2.109375 -2.945312 1.921875 -2.75 C 1.734375 -2.550781 1.640625 -2.285156 1.640625 -1.953125 C 1.640625 -1.628906 1.734375 -1.367188 1.921875 -1.171875 C 2.109375 -0.972656 2.347656 -0.875 2.640625 -0.875 Z M 2.640625 -0.875 "/></g></g></g><g fill="#000000" fill-opacity="1"><g transform="translate(18.7808, 7.19389)"><g><path d="M 0.53125 -5.40625 L 1.65625 -5.40625 L 1.65625 0 L 0.53125 0 Z M 0.53125 -5.40625 "/></g></g></g><g fill="#000000" fill-opacity="1"><g transform="translate(20.587998, 7.19389)"><g><path d="M 4.359375 -1.9375 C 4.359375 -1.925781 4.351562 -1.828125 4.34375 -1.640625 L 1.375 -1.640625 C 1.425781 -1.398438 1.550781 -1.207031 1.75 -1.0625 C 1.945312 -0.925781 2.195312 -0.859375 2.5 -0.859375 C 2.695312 -0.859375 2.875 -0.882812 3.03125 -0.9375 C 3.195312 -1 3.347656 -1.097656 3.484375 -1.234375 L 4.078125 -0.578125 C 3.710938 -0.148438 3.175781 0.0625 2.46875 0.0625 C 2.03125 0.0625 1.640625 -0.0195312 1.296875 -0.1875 C 0.953125 -0.363281 0.6875 -0.601562 0.5 -0.90625 C 0.320312 -1.21875 0.234375 -1.566406 0.234375 -1.953125 C 0.234375 -2.335938 0.320312 -2.679688 0.5 -2.984375 C 0.6875 -3.296875 0.9375 -3.535156 1.25 -3.703125 C 1.570312 -3.878906 1.929688 -3.96875 2.328125 -3.96875 C 2.703125 -3.96875 3.046875 -3.882812 3.359375 -3.71875 C 3.671875 -3.5625 3.914062 -3.328125 4.09375 -3.015625 C 4.269531 -2.710938 4.359375 -2.351562 4.359375 -1.9375 Z M 2.328125 -3.109375 C 2.066406 -3.109375 1.847656 -3.035156 1.671875 -2.890625 C 1.503906 -2.742188 1.398438 -2.546875 1.359375 -2.296875 L 3.296875 -2.296875 C 3.253906 -2.546875 3.144531 -2.742188 2.96875 -2.890625 C 2.789062 -3.035156 2.578125 -3.109375 2.328125 -3.109375 Z M 2.328125 -3.109375 "/></g></g></g></g></g></g><g clip-path="url(#79ab0d892b)"><g clip-path="url(#2d6ebbf9c6)"><g transform="matrix(1, 0, 0, 1, 4, 12)"><g clip-path="url(#3c7af8edc0)"><g clip-path="url(#1b1d23802f)"><g clip-path="url(#30c0766ead)"><g clip-path="url(#6498bc7dbb)"><path fill="#212121" d="M 1.65625 9.914062 C 1.753906 10.167969 1.847656 10.328125 1.9375 10.339844 C 2.304688 10.398438 2.472656 9.019531 2.542969 8.132812 C 3.214844 8.929688 4.210938 9.820312 5.589844 10.464844 C 6.960938 11.109375 8.570312 11.433594 10.210938 11.300781 C 11.972656 11.15625 13.578125 10.5 14.847656 9.570312 C 16.539062 8.324219 17.421875 6.769531 17.871094 5.730469 C 17.417969 6.777344 16.472656 8.289062 14.75 9.429688 C 13.460938 10.28125 11.867188 10.824219 10.1875 10.867188 C 8.621094 10.902344 7.136719 10.503906 5.902344 9.84375 C 4.632812 9.164062 3.746094 8.28125 3.152344 7.527344 C 4.03125 7.699219 5.632812 7.960938 5.675781 7.605469 C 5.738281 7.117188 1.875 5.179688 1.269531 5.625 C 0.851562 5.933594 1.242188 8.808594 1.65625 9.914062 Z M 1.65625 9.914062 " fill-opacity="1" fill-rule="nonzero"/></g></g></g></g></g></g></g></g></g><g clip-path="url(#b30516783c)"><path fill="#000000" d="M 42.085938 44.835938 C 40.339844 44.464844 38.605469 45.589844 38.234375 47.34375 L 38.203125 47.488281 L 44.425781 48.8125 C 44.296875 48.980469 44.171875 49.160156 44.054688 49.359375 L 38.074219 48.082031 L 36.136719 57.207031 C 36.027344 57.726562 36.507812 58.207031 37.25 58.585938 C 36.710938 60.386719 36.296875 62.667969 37.226562 63.640625 C 37.527344 63.957031 37.9375 64.117188 38.445312 64.117188 C 38.847656 64.117188 39.316406 64.015625 39.847656 63.816406 C 41.308594 63.261719 42.757812 62.84375 44.109375 62.550781 C 44.410156 62.742188 44.734375 62.871094 45.070312 62.957031 C 45.851562 65.5625 46.988281 71.199219 44.714844 77.351562 C 44.296875 78.480469 44.871094 79.734375 46 80.152344 C 46.25 80.242188 46.503906 80.285156 46.753906 80.285156 C 47.640625 80.285156 48.46875 79.742188 48.796875 78.863281 C 51.410156 71.792969 50.3125 65.410156 49.351562 62.066406 C 44.546875 56.671875 45.359375 50.582031 45.398438 50.296875 C 45.523438 49.429688 46.28125 48.777344 47.15625 48.777344 C 47.238281 48.777344 47.324219 48.78125 47.410156 48.792969 C 48.375 48.933594 49.050781 49.835938 48.914062 50.804688 C 48.898438 50.921875 48.71875 52.390625 49.199219 54.386719 C 49.386719 53.359375 49.59375 52.390625 49.757812 51.550781 C 50.257812 49.8125 49.601562 47.738281 48.117188 47.367188 C 47.050781 47.101562 45.640625 47.441406 44.605469 48.601562 C 44.914062 46.882812 43.804688 45.203125 42.085938 44.835938 Z M 39.601562 63.164062 C 38.691406 63.507812 38.058594 63.507812 37.726562 63.160156 C 37.105469 62.507812 37.378906 60.652344 37.894531 58.871094 C 39.667969 59.527344 42.171875 59.648438 42.476562 58.613281 C 42.507812 59.066406 42.554688 59.539062 42.613281 60.035156 C 42.78125 60.910156 43.085938 61.539062 43.46875 61.988281 C 42.195312 62.285156 40.878906 62.679688 39.601562 63.164062 Z M 39.601562 63.164062 " fill-opacity="1" fill-rule="nonzero"/></g><g clip-path="url(#6e283ddfea)"><path fill="#000000" d="M 58.40625 42.160156 C 58.40625 41.46875 56.730469 40.910156 54.664062 40.910156 C 54.59375 40.910156 54.527344 40.914062 54.457031 40.914062 C 53.75 40.214844 52.777344 39.78125 51.703125 39.78125 C 49.65625 39.78125 47.976562 41.355469 47.804688 43.359375 C 48.800781 43.855469 50.210938 44.253906 51.050781 44.46875 L 51.046875 44.480469 C 51.046875 44.507812 51.039062 44.65625 51.042969 44.878906 C 50.246094 44.683594 48.855469 44.296875 47.789062 43.796875 C 47.839844 45.921875 49.574219 47.625 51.703125 47.625 C 51.789062 47.625 51.871094 47.621094 51.953125 47.617188 C 52.113281 47.785156 52.300781 47.933594 52.523438 48.046875 L 52.597656 48.085938 L 52.675781 48.0625 C 55.261719 47.25 55.519531 45.660156 55.527344 45.589844 L 55.554688 45.414062 L 55.261719 45.335938 C 55.421875 44.992188 55.53125 44.621094 55.582031 44.230469 C 55.230469 44.214844 54.855469 44.175781 54.472656 44.117188 C 52.46875 43.804688 50.921875 43.015625 50.96875 42.34375 C 51.234375 42.945312 52.785156 43.410156 54.664062 43.410156 C 56.085938 43.410156 57.320312 43.144531 57.953125 42.757812 C 58.242188 42.578125 58.40625 42.375 58.40625 42.160156 Z M 55.085938 45.707031 C 54.945312 46.097656 54.425781 47.066406 52.636719 47.652344 C 51.5625 47.023438 51.445312 45.378906 51.441406 44.753906 Z M 55.085938 45.707031 " fill-opacity="1" fill-rule="nonzero"/></g><path fill="#000000" d="M 49.886719 62.640625 L 49.746094 62.695312 L 50.371094 64.324219 L 51.324219 63.957031 C 51.296875 63.9375 51.269531 63.914062 51.242188 63.894531 C 50.75 63.484375 50.300781 63.066406 49.886719 62.640625 Z M 49.886719 62.640625 " fill-opacity="1" fill-rule="nonzero"/><path fill="#000000" d="M 54.117188 62.882812 L 58.441406 61.21875 L 58.273438 60.785156 L 65.375 58.054688 L 67.386719 58.523438 L 67.546875 57.84375 L 65.328125 57.324219 L 58.023438 60.136719 L 57.816406 59.59375 L 53.582031 61.222656 C 54.050781 61.65625 54.234375 62.289062 54.117188 62.882812 Z M 54.117188 62.882812 " fill-opacity="1" fill-rule="nonzero"/><path fill="#000000" d="M 48.535156 50.75 C 48.640625 49.988281 48.117188 49.285156 47.355469 49.175781 C 46.59375 49.0625 45.886719 49.589844 45.777344 50.355469 C 45.734375 50.664062 44.757812 57.992188 51.488281 63.597656 C 51.746094 63.816406 52.0625 63.921875 52.375 63.921875 C 52.777344 63.921875 53.171875 63.75 53.449219 63.417969 C 53.9375 62.824219 53.859375 61.945312 53.265625 61.453125 C 47.78125 56.882812 48.5 51.015625 48.535156 50.75 Z M 48.535156 50.75 " fill-opacity="1" fill-rule="nonzero"/><path fill="#000000" d="M 68.527344 57.855469 L 83.902344 55.242188 L 83.960938 55.585938 L 68.585938 58.199219 Z M 68.527344 57.855469 " fill-opacity="1" fill-rule="nonzero"/><path fill="#000000" d="M 68.386719 59.238281 L 68.578125 58.945312 L 81.65625 67.449219 L 81.46875 67.742188 Z M 68.386719 59.238281 " fill-opacity="1" fill-rule="nonzero"/><path fill="#000000" d="M 70.835938 58.609375 L 82.84375 57.867188 L 82.867188 58.214844 L 70.859375 58.957031 Z M 70.835938 58.609375 " fill-opacity="1" fill-rule="nonzero"/><path fill="#000000" d="M 71.117188 59.773438 L 71.234375 59.445312 L 80.957031 62.804688 L 80.839844 63.136719 Z M 71.117188 59.773438 " fill-opacity="1" fill-rule="nonzero"/><g fill="#21282e" fill-opacity="1"><g transform="translate(32.637105, 20.750003)"><g><path d="M 4.03125 0.125 C 3.46875 0.125 2.96875 0.0234375 2.53125 -0.171875 C 2.09375 -0.367188 1.71875 -0.632812 1.40625 -0.96875 C 1.101562 -1.3125 0.875 -1.695312 0.71875 -2.125 C 0.5625 -2.5625 0.484375 -3.015625 0.484375 -3.484375 C 0.484375 -3.941406 0.5625 -4.390625 0.71875 -4.828125 C 0.875 -5.265625 1.097656 -5.65625 1.390625 -6 C 1.691406 -6.34375 2.0625 -6.613281 2.5 -6.8125 C 2.945312 -7.019531 3.457031 -7.125 4.03125 -7.125 C 4.539062 -7.125 5.003906 -7.035156 5.421875 -6.859375 C 5.847656 -6.679688 6.226562 -6.398438 6.5625 -6.015625 L 6.0625 -5.546875 C 5.800781 -5.816406 5.503906 -6.023438 5.171875 -6.171875 C 4.847656 -6.328125 4.476562 -6.40625 4.0625 -6.40625 C 3.488281 -6.40625 2.992188 -6.269531 2.578125 -6 C 2.160156 -5.726562 1.84375 -5.367188 1.625 -4.921875 C 1.40625 -4.484375 1.296875 -4.003906 1.296875 -3.484375 C 1.296875 -3.109375 1.359375 -2.75 1.484375 -2.40625 C 1.609375 -2.0625 1.785156 -1.753906 2.015625 -1.484375 C 2.253906 -1.210938 2.539062 -1 2.875 -0.84375 C 3.21875 -0.6875 3.601562 -0.609375 4.03125 -0.609375 C 4.425781 -0.609375 4.816406 -0.695312 5.203125 -0.875 C 5.597656 -1.050781 5.929688 -1.3125 6.203125 -1.65625 L 6.78125 -1.203125 C 6.050781 -0.316406 5.132812 0.125 4.03125 0.125 Z M 4.03125 0.125 "/></g></g></g><g fill="#21282e" fill-opacity="1"><g transform="translate(40.72422, 20.750003)"><g><path d="M 4.921875 -7 L 5.734375 -7 L 5.734375 0 L 4.921875 0 L 4.921875 -3.1875 L 1.8125 -3.1875 L 1.8125 0 L 1 0 L 1 -7 L 1.8125 -7 L 1.8125 -3.9375 L 4.921875 -3.9375 Z M 4.921875 -7 "/></g></g></g><g fill="#21282e" fill-opacity="1"><g transform="translate(48.351513, 20.750003)"><g><path d="M 4.5625 -6.296875 L 1.625 -6.296875 L 1.625 -3.90625 L 4.53125 -3.90625 L 4.53125 -3.203125 L 1.625 -3.203125 L 1.625 -0.703125 L 4.5625 -0.703125 L 4.5625 0 L 0.828125 0 L 0.828125 -7.015625 L 4.5625 -7.015625 Z M 4.5625 -6.296875 "/></g></g></g><g fill="#21282e" fill-opacity="1"><g transform="translate(54.4794, 20.750003)"><g><path d="M 6.3125 -7.03125 L 7.296875 -7.03125 L 7.296875 0 L 6.484375 0 L 6.484375 -3.640625 L 6.578125 -5.796875 L 6.546875 -5.8125 L 5.734375 -3.78125 L 4.5 -1.09375 L 3.765625 -1.09375 L 2.546875 -3.765625 L 1.71875 -5.8125 L 1.6875 -5.796875 L 1.78125 -3.640625 L 1.78125 0 L 0.96875 0 L 0.96875 -7.03125 L 1.9375 -7.03125 L 4.125 -2.046875 Z M 6.3125 -7.03125 "/></g></g></g><g fill="#21282e" fill-opacity="1"><g transform="translate(63.716063, 20.750003)"><g><path d="M 1 0 L 1 -7 L 1.796875 -7 L 1.796875 0 Z M 1 0 "/></g></g></g><g fill="#21282e" fill-opacity="1"><g transform="translate(67.344939, 20.750003)"><g><path d="M 4.03125 0.125 C 3.46875 0.125 2.96875 0.0234375 2.53125 -0.171875 C 2.09375 -0.367188 1.71875 -0.632812 1.40625 -0.96875 C 1.101562 -1.3125 0.875 -1.695312 0.71875 -2.125 C 0.5625 -2.5625 0.484375 -3.015625 0.484375 -3.484375 C 0.484375 -3.941406 0.5625 -4.390625 0.71875 -4.828125 C 0.875 -5.265625 1.097656 -5.65625 1.390625 -6 C 1.691406 -6.34375 2.0625 -6.613281 2.5 -6.8125 C 2.945312 -7.019531 3.457031 -7.125 4.03125 -7.125 C 4.539062 -7.125 5.003906 -7.035156 5.421875 -6.859375 C 5.847656 -6.679688 6.226562 -6.398438 6.5625 -6.015625 L 6.0625 -5.546875 C 5.800781 -5.816406 5.503906 -6.023438 5.171875 -6.171875 C 4.847656 -6.328125 4.476562 -6.40625 4.0625 -6.40625 C 3.488281 -6.40625 2.992188 -6.269531 2.578125 -6 C 2.160156 -5.726562 1.84375 -5.367188 1.625 -4.921875 C 1.40625 -4.484375 1.296875 -4.003906 1.296875 -3.484375 C 1.296875 -3.109375 1.359375 -2.75 1.484375 -2.40625 C 1.609375 -2.0625 1.785156 -1.753906 2.015625 -1.484375 C 2.253906 -1.210938 2.539062 -1 2.875 -0.84375 C 3.21875 -0.6875 3.601562 -0.609375 4.03125 -0.609375 C 4.425781 -0.609375 4.816406 -0.695312 5.203125 -0.875 C 5.597656 -1.050781 5.929688 -1.3125 6.203125 -1.65625 L 6.78125 -1.203125 C 6.050781 -0.316406 5.132812 0.125 4.03125 0.125 Z M 4.03125 0.125 "/></g></g></g><g fill="#21282e" fill-opacity="1"><g transform="translate(75.432055, 20.750003)"><g><path d="M 5.296875 0 L 4.46875 -2.203125 L 1.796875 -2.203125 L 1 0 L 0.15625 0 L 2.671875 -7 L 3.59375 -7 L 6.125 0 Z M 2.796875 -5.203125 L 2.046875 -2.90625 L 4.21875 -2.90625 L 3.453125 -5.203125 L 3.15625 -6.171875 L 3.078125 -6.171875 Z M 2.796875 -5.203125 "/></g></g></g><g fill="#21282e" fill-opacity="1"><g transform="translate(82.56954, 20.750003)"><g><path d="M 1.8125 -0.734375 L 4.53125 -0.734375 L 4.53125 0 L 1.015625 0 L 1.015625 -7 L 1.8125 -7 Z M 1.8125 -0.734375 "/></g></g></g><g fill="#21282e" fill-opacity="1"><g transform="translate(33.012105, 34.250003)"><g><path d="M 2.6875 0.125 C 2.257812 0.125 1.835938 0.00390625 1.421875 -0.234375 C 1.015625 -0.472656 0.710938 -0.832031 0.515625 -1.3125 L 1.1875 -1.65625 C 1.363281 -1.300781 1.585938 -1.035156 1.859375 -0.859375 C 2.128906 -0.691406 2.421875 -0.609375 2.734375 -0.609375 C 3.140625 -0.609375 3.472656 -0.722656 3.734375 -0.953125 C 3.992188 -1.191406 4.125 -1.5 4.125 -1.875 C 4.125 -2.175781 4.046875 -2.421875 3.890625 -2.609375 C 3.734375 -2.796875 3.539062 -2.941406 3.3125 -3.046875 C 3.09375 -3.148438 2.875 -3.234375 2.65625 -3.296875 C 2.445312 -3.347656 2.226562 -3.421875 2 -3.515625 C 1.78125 -3.609375 1.570312 -3.726562 1.375 -3.875 C 1.1875 -4.03125 1.035156 -4.222656 0.921875 -4.453125 C 0.804688 -4.679688 0.75 -4.957031 0.75 -5.28125 C 0.75 -5.707031 0.847656 -6.054688 1.046875 -6.328125 C 1.253906 -6.597656 1.515625 -6.796875 1.828125 -6.921875 C 2.148438 -7.054688 2.472656 -7.125 2.796875 -7.125 C 3.210938 -7.125 3.597656 -7.015625 3.953125 -6.796875 C 4.304688 -6.585938 4.578125 -6.257812 4.765625 -5.8125 L 4.125 -5.515625 C 3.976562 -5.835938 3.785156 -6.066406 3.546875 -6.203125 C 3.304688 -6.335938 3.046875 -6.40625 2.765625 -6.40625 C 2.566406 -6.40625 2.375 -6.363281 2.1875 -6.28125 C 2 -6.195312 1.84375 -6.066406 1.71875 -5.890625 C 1.59375 -5.722656 1.53125 -5.503906 1.53125 -5.234375 C 1.53125 -4.972656 1.601562 -4.757812 1.75 -4.59375 C 1.90625 -4.425781 2.082031 -4.296875 2.28125 -4.203125 C 2.488281 -4.109375 2.6875 -4.039062 2.875 -4 C 3.125 -3.9375 3.367188 -3.851562 3.609375 -3.75 C 3.859375 -3.644531 4.082031 -3.507812 4.28125 -3.34375 C 4.476562 -3.1875 4.632812 -2.984375 4.75 -2.734375 C 4.875 -2.492188 4.9375 -2.195312 4.9375 -1.84375 C 4.9375 -1.5 4.867188 -1.203125 4.734375 -0.953125 C 4.597656 -0.710938 4.414062 -0.507812 4.1875 -0.34375 C 3.96875 -0.1875 3.722656 -0.0703125 3.453125 0 C 3.191406 0.0820312 2.9375 0.125 2.6875 0.125 Z M 2.6875 0.125 "/></g></g></g><g fill="#21282e" fill-opacity="1"><g transform="translate(39.469856, 34.250003)"><g><path d="M 3.0625 -7.015625 C 3.582031 -7.015625 4.007812 -6.90625 4.34375 -6.6875 C 4.675781 -6.46875 4.925781 -6.1875 5.09375 -5.84375 C 5.269531 -5.507812 5.359375 -5.15625 5.359375 -4.78125 C 5.359375 -4.414062 5.269531 -4.066406 5.09375 -3.734375 C 4.925781 -3.398438 4.675781 -3.125 4.34375 -2.90625 C 4.007812 -2.695312 3.585938 -2.59375 3.078125 -2.59375 L 1.8125 -2.59375 L 1.8125 0.015625 L 1.015625 0.015625 L 1.015625 -7.015625 Z M 3.0625 -3.3125 C 3.394531 -3.3125 3.671875 -3.382812 3.890625 -3.53125 C 4.117188 -3.675781 4.285156 -3.863281 4.390625 -4.09375 C 4.503906 -4.320312 4.5625 -4.550781 4.5625 -4.78125 C 4.5625 -5.019531 4.503906 -5.253906 4.390625 -5.484375 C 4.273438 -5.710938 4.109375 -5.898438 3.890625 -6.046875 C 3.671875 -6.203125 3.394531 -6.28125 3.0625 -6.28125 L 1.8125 -6.28125 L 1.8125 -3.3125 Z M 3.0625 -3.3125 "/></g></g></g><g fill="#21282e" fill-opacity="1"><g transform="translate(46.177513, 34.250003)"><g><path d="M 5.296875 0 L 4.46875 -2.203125 L 1.796875 -2.203125 L 1 0 L 0.15625 0 L 2.671875 -7 L 3.59375 -7 L 6.125 0 Z M 2.796875 -5.203125 L 2.046875 -2.90625 L 4.21875 -2.90625 L 3.453125 -5.203125 L 3.15625 -6.171875 L 3.078125 -6.171875 Z M 2.796875 -5.203125 "/></g></g></g><g fill="#21282e" fill-opacity="1"><g transform="translate(53.314998, 34.250003)"><g><path d="M 4.796875 0 L 2.59375 -2.84375 L 1.84375 -2.84375 L 1.84375 0 L 1.03125 0 L 1.03125 -7 L 3.203125 -7 C 3.648438 -7 4.046875 -6.925781 4.390625 -6.78125 C 4.734375 -6.632812 5.003906 -6.40625 5.203125 -6.09375 C 5.410156 -5.789062 5.515625 -5.394531 5.515625 -4.90625 C 5.515625 -4.28125 5.332031 -3.789062 4.96875 -3.4375 C 4.613281 -3.09375 4.128906 -2.898438 3.515625 -2.859375 L 5.734375 0 Z M 4.703125 -4.9375 C 4.703125 -5.382812 4.5625 -5.71875 4.28125 -5.9375 C 4 -6.164062 3.640625 -6.28125 3.203125 -6.28125 L 1.84375 -6.28125 L 1.84375 -3.5625 L 3.1875 -3.5625 C 3.664062 -3.5625 4.035156 -3.675781 4.296875 -3.90625 C 4.566406 -4.144531 4.703125 -4.488281 4.703125 -4.9375 Z M 4.703125 -4.9375 "/></g></g></g><g fill="#21282e" fill-opacity="1"><g transform="translate(60.362521, 34.250003)"><g><path d="M 2.453125 0 L 2.453125 -2.828125 L 2.046875 -3.53125 L 0.078125 -7 L 1 -7 L 2.84375 -3.640625 L 3.234375 -4.359375 L 4.6875 -7 L 5.609375 -7 L 3.640625 -3.515625 L 3.234375 -2.8125 L 3.234375 0 Z M 2.453125 0 "/></g></g></g><g fill="#21282e" fill-opacity="1"><g transform="translate(66.930228, 34.250003)"><g><path d="M 1 0 L 1 -7 L 1.796875 -7 L 1.796875 0 Z M 1 0 "/></g></g></g><g fill="#21282e" fill-opacity="1"><g transform="translate(70.559103, 34.250003)"><g><path d="M 1.03125 0 L 1.03125 -7.03125 L 2.015625 -7.03125 L 4.765625 -2.265625 L 5.453125 -0.953125 L 5.46875 -0.953125 L 5.375 -2.609375 L 5.375 -7.03125 L 6.1875 -7.03125 L 6.1875 0 L 5.203125 0 L 2.46875 -4.734375 L 1.765625 -6.0625 L 1.734375 -6.0625 L 1.84375 -4.4375 L 1.84375 0 Z M 1.03125 0 "/></g></g></g><g fill="#21282e" fill-opacity="1"><g transform="translate(78.676203, 34.250003)"><g><path d="M 3.71875 -3.484375 L 7.546875 -3.484375 L 7.515625 -3.15625 C 7.472656 -2.488281 7.300781 -1.910156 7 -1.421875 C 6.707031 -0.941406 6.316406 -0.566406 5.828125 -0.296875 C 5.335938 -0.0351562 4.773438 0.09375 4.140625 0.09375 C 3.578125 0.09375 3.078125 -0.00390625 2.640625 -0.203125 C 2.203125 -0.410156 1.832031 -0.679688 1.53125 -1.015625 C 1.226562 -1.359375 1 -1.742188 0.84375 -2.171875 C 0.6875 -2.597656 0.609375 -3.035156 0.609375 -3.484375 C 0.609375 -3.941406 0.6875 -4.382812 0.84375 -4.8125 C 1 -5.238281 1.226562 -5.625 1.53125 -5.96875 C 1.832031 -6.320312 2.203125 -6.597656 2.640625 -6.796875 C 3.078125 -7.003906 3.578125 -7.109375 4.140625 -7.109375 C 4.679688 -7.109375 5.1875 -7 5.65625 -6.78125 C 6.132812 -6.5625 6.550781 -6.253906 6.90625 -5.859375 L 6.328125 -5.390625 C 6.035156 -5.722656 5.703125 -5.96875 5.328125 -6.125 C 4.953125 -6.289062 4.554688 -6.375 4.140625 -6.375 C 3.710938 -6.375 3.328125 -6.289062 2.984375 -6.125 C 2.648438 -5.96875 2.363281 -5.75 2.125 -5.46875 C 1.894531 -5.195312 1.71875 -4.890625 1.59375 -4.546875 C 1.476562 -4.203125 1.421875 -3.847656 1.421875 -3.484375 C 1.421875 -3.140625 1.476562 -2.796875 1.59375 -2.453125 C 1.71875 -2.117188 1.894531 -1.8125 2.125 -1.53125 C 2.363281 -1.257812 2.648438 -1.039062 2.984375 -0.875 C 3.328125 -0.71875 3.710938 -0.640625 4.140625 -0.640625 C 4.523438 -0.640625 4.898438 -0.710938 5.265625 -0.859375 C 5.628906 -1.015625 5.941406 -1.25 6.203125 -1.5625 C 6.460938 -1.882812 6.625 -2.285156 6.6875 -2.765625 L 3.71875 -2.765625 Z M 3.71875 -3.484375 "/></g></g></g></svg>