<svg xmlns="http://www.w3.org/2000/svg" xmlns:xlink="http://www.w3.org/1999/xlink" width="160" zoomAndPan="magnify" viewBox="0 0 120 119.999999" height="160" preserveAspectRatio="xMidYMid meet" version="1.0"><defs><g/><clipPath id="84e89a25b7"><path d="M 5 3 L 22 3 L 22 10 L 5 10 Z M 5 3 " clip-rule="nonzero"/></clipPath><clipPath id="b1fe31e36a"><path d="M 19.808594 0.914062 L 22.929688 9.4375 L 7.273438 15.175781 L 4.148438 6.652344 Z M 19.808594 0.914062 " clip-rule="nonzero"/></clipPath><clipPath id="0195a33d4a"><path d="M 19.808594 0.914062 L 22.929688 9.4375 L 7.273438 15.175781 L 4.148438 6.652344 Z M 19.808594 0.914062 " clip-rule="nonzero"/></clipPath><clipPath id="4e4097afcc"><path d="M 0.761719 9 L 25.238281 9 L 25.238281 19 L 0.761719 19 Z M 0.761719 9 " clip-rule="nonzero"/></clipPath><clipPath id="7c7f5a9521"><rect x="0" width="26" y="0" height="10"/></clipPath><clipPath id="db89e26f86"><path d="M 4 12 L 23 12 L 23 26.441406 L 4 26.441406 Z M 4 12 " clip-rule="nonzero"/></clipPath><clipPath id="bd99d19d35"><path d="M 19.808594 12.074219 L 22.929688 20.597656 L 7.273438 26.335938 L 4.148438 17.8125 Z M 19.808594 12.074219 " clip-rule="nonzero"/></clipPath><clipPath id="0281089d63"><path d="M 1 5 L 18 5 L 18 12 L 1 12 Z M 1 5 " clip-rule="nonzero"/></clipPath><clipPath id="e1f11612b5"><path d="M 15.808594 0.0742188 L 18.929688 8.597656 L 3.273438 14.335938 L 0.148438 5.8125 Z M 15.808594 0.0742188 " clip-rule="nonzero"/></clipPath><clipPath id="ef30b4a339"><path d="M 3.273438 14.347656 L 0.148438 5.824219 L 15.808594 0.0859375 L 18.933594 8.609375 Z M 3.273438 14.347656 " clip-rule="nonzero"/></clipPath><clipPath id="730aaafb81"><rect x="0" width="19" y="0" height="15"/></clipPath><clipPath id="e40763fef2"><rect x="0" width="26" y="0" height="27"/></clipPath><clipPath id="e09015226e"><path d="M 13 13 L 107 13 L 107 107 L 13 107 Z M 13 13 " clip-rule="nonzero"/></clipPath><clipPath id="0e49906143"><path d="M 13.878906 58.296875 L 61.6875 13.886719 L 106.09375 61.695312 L 58.289062 106.101562 Z M 13.878906 58.296875 " clip-rule="nonzero"/></clipPath><clipPath id="950b711895"><path d="M 72 49 L 80 49 L 80 58 L 72 58 Z M 72 49 " clip-rule="nonzero"/></clipPath><clipPath id="7aad862dc5"><path d="M 0.878906 45.296875 L 48.6875 0.886719 L 93.09375 48.695312 L 45.289062 93.101562 Z M 0.878906 45.296875 " clip-rule="nonzero"/></clipPath><clipPath id="9b42439e31"><path d="M 48.695312 0.878906 L 0.890625 45.289062 L 45.296875 93.09375 L 93.105469 48.6875 Z M 48.695312 0.878906 " clip-rule="nonzero"/></clipPath><clipPath id="98ab3b5205"><path d="M 48.695312 0.878906 L 0.890625 45.289062 L 45.296875 93.09375 L 93.105469 48.6875 Z M 48.695312 0.878906 " clip-rule="nonzero"/></clipPath><clipPath id="a49d613658"><path d="M 54 31 L 85 31 L 85 62 L 54 62 Z M 54 31 " clip-rule="nonzero"/></clipPath><clipPath id="76b18809b4"><path d="M 0.878906 45.296875 L 48.6875 0.886719 L 93.09375 48.695312 L 45.289062 93.101562 Z M 0.878906 45.296875 " clip-rule="nonzero"/></clipPath><clipPath id="2d2c296d7f"><path d="M 48.695312 0.878906 L 0.890625 45.289062 L 45.296875 93.09375 L 93.105469 48.6875 Z M 48.695312 0.878906 " clip-rule="nonzero"/></clipPath><clipPath id="7478629fa6"><path d="M 48.695312 0.878906 L 0.890625 45.289062 L 45.296875 93.09375 L 93.105469 48.6875 Z M 48.695312 0.878906 " clip-rule="nonzero"/></clipPath><clipPath id="f23751c411"><path d="M 67 32 L 82 32 L 82 46 L 67 46 Z M 67 32 " clip-rule="nonzero"/></clipPath><clipPath id="a839a21403"><path d="M 0.878906 45.296875 L 48.6875 0.886719 L 93.09375 48.695312 L 45.289062 93.101562 Z M 0.878906 45.296875 " clip-rule="nonzero"/></clipPath><clipPath id="13b8605dd2"><path d="M 48.695312 0.878906 L 0.890625 45.289062 L 45.296875 93.09375 L 93.105469 48.6875 Z M 48.695312 0.878906 " clip-rule="nonzero"/></clipPath><clipPath id="b83eea8576"><path d="M 48.695312 0.878906 L 0.890625 45.289062 L 45.296875 93.09375 L 93.105469 48.6875 Z M 48.695312 0.878906 " clip-rule="nonzero"/></clipPath><clipPath id="7643f00dc7"><path d="M 3 30 L 57 30 L 57 44 L 3 44 Z M 3 30 " clip-rule="nonzero"/></clipPath><clipPath id="9000cc4530"><path d="M 0.878906 45.296875 L 48.6875 0.886719 L 93.09375 48.695312 L 45.289062 93.101562 Z M 0.878906 45.296875 " clip-rule="nonzero"/></clipPath><clipPath id="3c2aa85d11"><path d="M 48.695312 0.878906 L 0.890625 45.289062 L 45.296875 93.09375 L 93.105469 48.6875 Z M 48.695312 0.878906 " clip-rule="nonzero"/></clipPath><clipPath id="b010f6981a"><path d="M 48.695312 0.878906 L 0.890625 45.289062 L 45.296875 93.09375 L 93.105469 48.6875 Z M 48.695312 0.878906 " clip-rule="nonzero"/></clipPath><clipPath id="1b5a54626d"><rect x="0" width="94" y="0" height="94"/></clipPath></defs><rect x="-12" width="144" fill="#ffffff" y="-12" height="143.999998" fill-opacity="1"/><rect x="-12" width="144" fill="#ffffff" y="-12" height="143.999998" fill-opacity="1"/><g transform="matrix(1, 0, 0, 1, 47, 89)"><g clip-path="url(#e40763fef2)"><g clip-path="url(#84e89a25b7)"><g clip-path="url(#b1fe31e36a)"><g clip-path="url(#0195a33d4a)"><path fill="#212121" d="M 21.421875 5.347656 C 21.328125 5.09375 21.230469 4.933594 21.144531 4.917969 C 20.773438 4.863281 20.609375 6.242188 20.539062 7.128906 C 19.863281 6.332031 18.867188 5.441406 17.488281 4.792969 C 16.117188 4.148438 14.511719 3.824219 12.867188 3.960938 C 11.109375 4.105469 9.5 4.761719 8.234375 5.691406 C 6.539062 6.9375 5.65625 8.492188 5.210938 9.53125 C 5.660156 8.484375 6.605469 6.972656 8.332031 5.832031 C 9.621094 4.980469 11.210938 4.4375 12.890625 4.394531 C 14.460938 4.359375 15.945312 4.753906 17.179688 5.417969 C 18.449219 6.097656 19.332031 6.980469 19.929688 7.734375 C 19.046875 7.5625 17.449219 7.300781 17.402344 7.65625 C 17.339844 8.144531 21.203125 10.082031 21.808594 9.636719 C 22.226562 9.324219 21.835938 6.453125 21.421875 5.347656 Z M 21.421875 5.347656 " fill-opacity="1" fill-rule="nonzero"/></g></g></g><g clip-path="url(#4e4097afcc)"><g transform="matrix(1, 0, 0, 1, 0, 9)"><g clip-path="url(#7c7f5a9521)"><g fill="#000000" fill-opacity="1"><g transform="translate(0.81023, 7.19389)"><g><path d="M 2.28125 0.09375 C 1.875 0.09375 1.484375 0.0390625 1.109375 -0.0625 C 0.734375 -0.175781 0.429688 -0.320312 0.203125 -0.5 L 0.609375 -1.390625 C 0.828125 -1.234375 1.082031 -1.101562 1.375 -1 C 1.675781 -0.90625 1.976562 -0.859375 2.28125 -0.859375 C 2.613281 -0.859375 2.859375 -0.90625 3.015625 -1 C 3.179688 -1.101562 3.265625 -1.238281 3.265625 -1.40625 C 3.265625 -1.53125 3.21875 -1.628906 3.125 -1.703125 C 3.03125 -1.785156 2.910156 -1.847656 2.765625 -1.890625 C 2.617188 -1.941406 2.414062 -2 2.15625 -2.0625 C 1.769531 -2.15625 1.453125 -2.242188 1.203125 -2.328125 C 0.960938 -2.421875 0.753906 -2.570312 0.578125 -2.78125 C 0.398438 -2.988281 0.3125 -3.257812 0.3125 -3.59375 C 0.3125 -3.894531 0.390625 -4.164062 0.546875 -4.40625 C 0.703125 -4.644531 0.941406 -4.832031 1.265625 -4.96875 C 1.585938 -5.113281 1.984375 -5.1875 2.453125 -5.1875 C 2.773438 -5.1875 3.09375 -5.144531 3.40625 -5.0625 C 3.71875 -4.988281 3.988281 -4.878906 4.21875 -4.734375 L 3.859375 -3.84375 C 3.390625 -4.101562 2.921875 -4.234375 2.453125 -4.234375 C 2.117188 -4.234375 1.875 -4.179688 1.71875 -4.078125 C 1.5625 -3.972656 1.484375 -3.832031 1.484375 -3.65625 C 1.484375 -3.476562 1.570312 -3.347656 1.75 -3.265625 C 1.9375 -3.179688 2.210938 -3.097656 2.578125 -3.015625 C 2.972656 -2.921875 3.289062 -2.828125 3.53125 -2.734375 C 3.78125 -2.640625 3.992188 -2.492188 4.171875 -2.296875 C 4.347656 -2.097656 4.4375 -1.832031 4.4375 -1.5 C 4.4375 -1.207031 4.351562 -0.9375 4.1875 -0.6875 C 4.03125 -0.445312 3.789062 -0.253906 3.46875 -0.109375 C 3.144531 0.0234375 2.75 0.09375 2.28125 0.09375 Z M 2.28125 0.09375 "/></g></g></g><g fill="#000000" fill-opacity="1"><g transform="translate(5.073316, 7.19389)"><g><path d="M 0.53125 -3.921875 L 1.65625 -3.921875 L 1.65625 0 L 0.53125 0 Z M 1.09375 -4.46875 C 0.882812 -4.46875 0.710938 -4.523438 0.578125 -4.640625 C 0.453125 -4.765625 0.390625 -4.914062 0.390625 -5.09375 C 0.390625 -5.269531 0.453125 -5.421875 0.578125 -5.546875 C 0.710938 -5.671875 0.882812 -5.734375 1.09375 -5.734375 C 1.300781 -5.734375 1.46875 -5.671875 1.59375 -5.546875 C 1.726562 -5.429688 1.796875 -5.289062 1.796875 -5.125 C 1.796875 -4.925781 1.726562 -4.765625 1.59375 -4.640625 C 1.46875 -4.523438 1.300781 -4.46875 1.09375 -4.46875 Z M 1.09375 -4.46875 "/></g></g></g><g fill="#000000" fill-opacity="1"><g transform="translate(6.880514, 7.19389)"><g><path d="M 5.546875 -3.96875 C 6.035156 -3.96875 6.421875 -3.820312 6.703125 -3.53125 C 6.992188 -3.25 7.140625 -2.820312 7.140625 -2.25 L 7.140625 0 L 6 0 L 6 -2.0625 C 6 -2.375 5.9375 -2.609375 5.8125 -2.765625 C 5.6875 -2.921875 5.503906 -3 5.265625 -3 C 4.992188 -3 4.78125 -2.910156 4.625 -2.734375 C 4.46875 -2.554688 4.390625 -2.300781 4.390625 -1.96875 L 4.390625 0 L 3.265625 0 L 3.265625 -2.0625 C 3.265625 -2.6875 3.015625 -3 2.515625 -3 C 2.253906 -3 2.046875 -2.910156 1.890625 -2.734375 C 1.734375 -2.554688 1.65625 -2.300781 1.65625 -1.96875 L 1.65625 0 L 0.53125 0 L 0.53125 -3.921875 L 1.609375 -3.921875 L 1.609375 -3.46875 C 1.753906 -3.632812 1.929688 -3.757812 2.140625 -3.84375 C 2.359375 -3.925781 2.59375 -3.96875 2.84375 -3.96875 C 3.113281 -3.96875 3.359375 -3.910156 3.578125 -3.796875 C 3.804688 -3.691406 3.988281 -3.535156 4.125 -3.328125 C 4.289062 -3.535156 4.492188 -3.691406 4.734375 -3.796875 C 4.984375 -3.910156 5.253906 -3.96875 5.546875 -3.96875 Z M 5.546875 -3.96875 "/></g></g></g><g fill="#000000" fill-opacity="1"><g transform="translate(14.138764, 7.19389)"><g><path d="M 2.84375 -3.96875 C 3.207031 -3.96875 3.535156 -3.882812 3.828125 -3.71875 C 4.128906 -3.550781 4.363281 -3.316406 4.53125 -3.015625 C 4.707031 -2.710938 4.796875 -2.359375 4.796875 -1.953125 C 4.796875 -1.554688 4.707031 -1.203125 4.53125 -0.890625 C 4.363281 -0.585938 4.128906 -0.351562 3.828125 -0.1875 C 3.535156 -0.0195312 3.207031 0.0625 2.84375 0.0625 C 2.34375 0.0625 1.945312 -0.0976562 1.65625 -0.421875 L 1.65625 1.40625 L 0.53125 1.40625 L 0.53125 -3.921875 L 1.609375 -3.921875 L 1.609375 -3.46875 C 1.890625 -3.800781 2.300781 -3.96875 2.84375 -3.96875 Z M 2.640625 -0.875 C 2.929688 -0.875 3.171875 -0.972656 3.359375 -1.171875 C 3.546875 -1.367188 3.640625 -1.628906 3.640625 -1.953125 C 3.640625 -2.285156 3.546875 -2.550781 3.359375 -2.75 C 3.171875 -2.945312 2.929688 -3.046875 2.640625 -3.046875 C 2.347656 -3.046875 2.109375 -2.945312 1.921875 -2.75 C 1.734375 -2.550781 1.640625 -2.285156 1.640625 -1.953125 C 1.640625 -1.628906 1.734375 -1.367188 1.921875 -1.171875 C 2.109375 -0.972656 2.347656 -0.875 2.640625 -0.875 Z M 2.640625 -0.875 "/></g></g></g><g fill="#000000" fill-opacity="1"><g transform="translate(18.7808, 7.19389)"><g><path d="M 0.53125 -5.40625 L 1.65625 -5.40625 L 1.65625 0 L 0.53125 0 Z M 0.53125 -5.40625 "/></g></g></g><g fill="#000000" fill-opacity="1"><g transform="translate(20.587998, 7.19389)"><g><path d="M 4.359375 -1.9375 C 4.359375 -1.925781 4.351562 -1.828125 4.34375 -1.640625 L 1.375 -1.640625 C 1.425781 -1.398438 1.550781 -1.207031 1.75 -1.0625 C 1.945312 -0.925781 2.195312 -0.859375 2.5 -0.859375 C 2.695312 -0.859375 2.875 -0.882812 3.03125 -0.9375 C 3.195312 -1 3.347656 -1.097656 3.484375 -1.234375 L 4.078125 -0.578125 C 3.710938 -0.148438 3.175781 0.0625 2.46875 0.0625 C 2.03125 0.0625 1.640625 -0.0195312 1.296875 -0.1875 C 0.953125 -0.363281 0.6875 -0.601562 0.5 -0.90625 C 0.320312 -1.21875 0.234375 -1.566406 0.234375 -1.953125 C 0.234375 -2.335938 0.320312 -2.679688 0.5 -2.984375 C 0.6875 -3.296875 0.9375 -3.535156 1.25 -3.703125 C 1.570312 -3.878906 1.929688 -3.96875 2.328125 -3.96875 C 2.703125 -3.96875 3.046875 -3.882812 3.359375 -3.71875 C 3.671875 -3.5625 3.914062 -3.328125 4.09375 -3.015625 C 4.269531 -2.710938 4.359375 -2.351562 4.359375 -1.9375 Z M 2.328125 -3.109375 C 2.066406 -3.109375 1.847656 -3.035156 1.671875 -2.890625 C 1.503906 -2.742188 1.398438 -2.546875 1.359375 -2.296875 L 3.296875 -2.296875 C 3.253906 -2.546875 3.144531 -2.742188 2.96875 -2.890625 C 2.789062 -3.035156 2.578125 -3.109375 2.328125 -3.109375 Z M 2.328125 -3.109375 "/></g></g></g></g></g></g><g clip-path="url(#db89e26f86)"><g clip-path="url(#bd99d19d35)"><g transform="matrix(1, 0, 0, 1, 4, 12)"><g clip-path="url(#730aaafb81)"><g clip-path="url(#0281089d63)"><g clip-path="url(#e1f11612b5)"><g clip-path="url(#ef30b4a339)"><path fill="#212121" d="M 1.65625 9.914062 C 1.753906 10.167969 1.847656 10.328125 1.9375 10.339844 C 2.304688 10.398438 2.472656 9.019531 2.542969 8.132812 C 3.214844 8.929688 4.210938 9.820312 5.589844 10.464844 C 6.960938 11.109375 8.570312 11.433594 10.210938 11.300781 C 11.972656 11.15625 13.578125 10.5 14.847656 9.570312 C 16.539062 8.324219 17.421875 6.769531 17.871094 5.730469 C 17.417969 6.777344 16.472656 8.289062 14.75 9.429688 C 13.460938 10.28125 11.867188 10.824219 10.1875 10.867188 C 8.621094 10.902344 7.136719 10.503906 5.902344 9.84375 C 4.632812 9.164062 3.746094 8.28125 3.152344 7.527344 C 4.03125 7.699219 5.632812 7.960938 5.675781 7.605469 C 5.738281 7.117188 1.875 5.179688 1.269531 5.625 C 0.851562 5.933594 1.242188 8.808594 1.65625 9.914062 Z M 1.65625 9.914062 " fill-opacity="1" fill-rule="nonzero"/></g></g></g></g></g></g></g></g></g><g fill="#21282e" fill-opacity="1"><g transform="translate(31.923436, 20.750003)"><g><path d="M 4.6875 -6.28125 L 1.78125 -6.28125 L 1.78125 -3.859375 L 4.640625 -3.859375 L 4.640625 -3.125 L 1.78125 -3.125 L 1.78125 0 L 0.984375 0 L 0.984375 -7.015625 L 4.6875 -7.015625 Z M 4.6875 -6.28125 "/></g></g></g><g fill="#21282e" fill-opacity="1"><g transform="translate(38.051323, 20.750003)"><g><path d="M 5.296875 0 L 4.46875 -2.203125 L 1.796875 -2.203125 L 1 0 L 0.15625 0 L 2.671875 -7 L 3.59375 -7 L 6.125 0 Z M 2.796875 -5.203125 L 2.046875 -2.90625 L 4.21875 -2.90625 L 3.453125 -5.203125 L 3.15625 -6.171875 L 3.078125 -6.171875 Z M 2.796875 -5.203125 "/></g></g></g><g fill="#21282e" fill-opacity="1"><g transform="translate(45.188808, 20.750003)"><g><path d="M 4.796875 0 L 2.59375 -2.84375 L 1.84375 -2.84375 L 1.84375 0 L 1.03125 0 L 1.03125 -7 L 3.203125 -7 C 3.648438 -7 4.046875 -6.925781 4.390625 -6.78125 C 4.734375 -6.632812 5.003906 -6.40625 5.203125 -6.09375 C 5.410156 -5.789062 5.515625 -5.394531 5.515625 -4.90625 C 5.515625 -4.28125 5.332031 -3.789062 4.96875 -3.4375 C 4.613281 -3.09375 4.128906 -2.898438 3.515625 -2.859375 L 5.734375 0 Z M 4.703125 -4.9375 C 4.703125 -5.382812 4.5625 -5.71875 4.28125 -5.9375 C 4 -6.164062 3.640625 -6.28125 3.203125 -6.28125 L 1.84375 -6.28125 L 1.84375 -3.5625 L 3.1875 -3.5625 C 3.664062 -3.5625 4.035156 -3.675781 4.296875 -3.90625 C 4.566406 -4.144531 4.703125 -4.488281 4.703125 -4.9375 Z M 4.703125 -4.9375 "/></g></g></g><g fill="#21282e" fill-opacity="1"><g transform="translate(52.236331, 20.750003)"><g><path d="M 6.3125 -7.03125 L 7.296875 -7.03125 L 7.296875 0 L 6.484375 0 L 6.484375 -3.640625 L 6.578125 -5.796875 L 6.546875 -5.8125 L 5.734375 -3.78125 L 4.5 -1.09375 L 3.765625 -1.09375 L 2.546875 -3.765625 L 1.71875 -5.8125 L 1.6875 -5.796875 L 1.78125 -3.640625 L 1.78125 0 L 0.96875 0 L 0.96875 -7.03125 L 1.9375 -7.03125 L 4.125 -2.046875 Z M 6.3125 -7.03125 "/></g></g></g><g fill="#21282e" fill-opacity="1"><g transform="translate(61.472994, 20.750003)"><g/></g></g><g fill="#21282e" fill-opacity="1"><g transform="translate(64.931937, 20.750003)"><g><path d="M 2.6875 0.125 C 2.257812 0.125 1.835938 0.00390625 1.421875 -0.234375 C 1.015625 -0.472656 0.710938 -0.832031 0.515625 -1.3125 L 1.1875 -1.65625 C 1.363281 -1.300781 1.585938 -1.035156 1.859375 -0.859375 C 2.128906 -0.691406 2.421875 -0.609375 2.734375 -0.609375 C 3.140625 -0.609375 3.472656 -0.722656 3.734375 -0.953125 C 3.992188 -1.191406 4.125 -1.5 4.125 -1.875 C 4.125 -2.175781 4.046875 -2.421875 3.890625 -2.609375 C 3.734375 -2.796875 3.539062 -2.941406 3.3125 -3.046875 C 3.09375 -3.148438 2.875 -3.234375 2.65625 -3.296875 C 2.445312 -3.347656 2.226562 -3.421875 2 -3.515625 C 1.78125 -3.609375 1.570312 -3.726562 1.375 -3.875 C 1.1875 -4.03125 1.035156 -4.222656 0.921875 -4.453125 C 0.804688 -4.679688 0.75 -4.957031 0.75 -5.28125 C 0.75 -5.707031 0.847656 -6.054688 1.046875 -6.328125 C 1.253906 -6.597656 1.515625 -6.796875 1.828125 -6.921875 C 2.148438 -7.054688 2.472656 -7.125 2.796875 -7.125 C 3.210938 -7.125 3.597656 -7.015625 3.953125 -6.796875 C 4.304688 -6.585938 4.578125 -6.257812 4.765625 -5.8125 L 4.125 -5.515625 C 3.976562 -5.835938 3.785156 -6.066406 3.546875 -6.203125 C 3.304688 -6.335938 3.046875 -6.40625 2.765625 -6.40625 C 2.566406 -6.40625 2.375 -6.363281 2.1875 -6.28125 C 2 -6.195312 1.84375 -6.066406 1.71875 -5.890625 C 1.59375 -5.722656 1.53125 -5.503906 1.53125 -5.234375 C 1.53125 -4.972656 1.601562 -4.757812 1.75 -4.59375 C 1.90625 -4.425781 2.082031 -4.296875 2.28125 -4.203125 C 2.488281 -4.109375 2.6875 -4.039062 2.875 -4 C 3.125 -3.9375 3.367188 -3.851562 3.609375 -3.75 C 3.859375 -3.644531 4.082031 -3.507812 4.28125 -3.34375 C 4.476562 -3.1875 4.632812 -2.984375 4.75 -2.734375 C 4.875 -2.492188 4.9375 -2.195312 4.9375 -1.84375 C 4.9375 -1.5 4.867188 -1.203125 4.734375 -0.953125 C 4.597656 -0.710938 4.414062 -0.507812 4.1875 -0.34375 C 3.96875 -0.1875 3.722656 -0.0703125 3.453125 0 C 3.191406 0.0820312 2.9375 0.125 2.6875 0.125 Z M 2.6875 0.125 "/></g></g></g><g fill="#21282e" fill-opacity="1"><g transform="translate(71.389689, 20.750003)"><g><path d="M 5.296875 0 L 4.46875 -2.203125 L 1.796875 -2.203125 L 1 0 L 0.15625 0 L 2.671875 -7 L 3.59375 -7 L 6.125 0 Z M 2.796875 -5.203125 L 2.046875 -2.90625 L 4.21875 -2.90625 L 3.453125 -5.203125 L 3.15625 -6.171875 L 3.078125 -6.171875 Z M 2.796875 -5.203125 "/></g></g></g><g fill="#21282e" fill-opacity="1"><g transform="translate(78.527174, 20.750003)"><g><path d="M 2.3125 0.015625 L 0.40625 -7.015625 L 1.234375 -7.015625 L 2.5 -2.15625 L 2.8125 -0.65625 L 2.84375 -0.65625 L 3.1875 -2.078125 L 4.265625 -6.015625 L 5.203125 -6.015625 L 6.296875 -2.0625 L 6.625 -0.65625 L 6.65625 -0.65625 L 7 -2.265625 L 8.234375 -7.015625 L 9.0625 -7.015625 L 7.15625 0.015625 L 6.15625 0.015625 L 5.109375 -3.640625 L 4.75 -5.140625 L 4.71875 -5.140625 L 4.375 -3.640625 L 3.3125 0.015625 Z M 2.3125 0.015625 "/></g></g></g><g clip-path="url(#e09015226e)"><g clip-path="url(#0e49906143)"><g transform="matrix(1, 0, 0, 1, 13, 13)"><g clip-path="url(#1b5a54626d)"><g clip-path="url(#950b711895)"><g clip-path="url(#7aad862dc5)"><g clip-path="url(#9b42439e31)"><g clip-path="url(#98ab3b5205)"><path fill="#000000" d="M 79.597656 52.691406 C 79.878906 53.988281 79.464844 55.359375 78.484375 56.269531 C 78.011719 56.710938 77.414062 57.019531 76.78125 57.175781 C 74.773438 57.625 72.765625 56.367188 72.296875 54.359375 C 72.011719 53.0625 72.425781 51.691406 73.40625 50.78125 C 73.878906 50.339844 74.476562 50.035156 75.121094 49.886719 C 76.089844 49.667969 77.082031 49.832031 77.925781 50.363281 C 78.777344 50.882812 79.367188 51.714844 79.597656 52.691406 Z M 79.597656 52.691406 " fill-opacity="1" fill-rule="evenodd"/></g></g></g></g><g clip-path="url(#a49d613658)"><g clip-path="url(#76b18809b4)"><g clip-path="url(#2d2c296d7f)"><g clip-path="url(#7478629fa6)"><path fill="#000000" d="M 69.292969 44.230469 C 68.039062 42.484375 65.035156 41.617188 59.59375 41.4375 C 57.964844 41.386719 56.527344 40.546875 55.65625 39.300781 C 55.636719 39.257812 55.617188 39.214844 55.585938 39.183594 C 55.042969 38.351562 54.738281 37.363281 54.789062 36.308594 C 54.828125 34.980469 55.394531 33.734375 56.375 32.824219 C 57.34375 31.921875 58.597656 31.457031 59.914062 31.507812 C 61.660156 31.550781 63.660156 31.867188 65.644531 32.367188 C 66.492188 35.292969 68.296875 38.339844 70.777344 41.007812 C 74.378906 44.886719 78.855469 47.339844 82.597656 47.542969 C 83.046875 48.871094 83.453125 50.277344 83.800781 51.804688 C 84.445312 54.617188 83.523438 57.585938 81.410156 59.550781 C 80.382812 60.503906 79.101562 61.179688 77.71875 61.5 C 74.410156 62.253906 71.96875 61.832031 70.460938 60.234375 C 68.035156 57.640625 68.425781 52.472656 69.605469 48.5 C 69.980469 47.226562 70.289062 45.589844 69.292969 44.230469 Z M 74.753906 48.320312 C 73.832031 48.519531 72.996094 48.96875 72.3125 49.601562 C 70.910156 50.902344 70.308594 52.859375 70.726562 54.726562 C 71.386719 57.605469 74.269531 59.40625 77.148438 58.742188 C 78.0625 58.53125 78.898438 58.085938 79.582031 57.449219 C 80.980469 56.148438 81.585938 54.191406 81.164062 52.324219 C 80.84375 50.9375 80.003906 49.746094 78.796875 49 C 77.589844 48.230469 76.148438 47.988281 74.753906 48.320312 Z M 74.753906 48.320312 " fill-opacity="1" fill-rule="evenodd"/></g></g></g></g><g clip-path="url(#f23751c411)"><g clip-path="url(#a839a21403)"><g clip-path="url(#13b8605dd2)"><g clip-path="url(#b83eea8576)"><path fill="#000000" d="M 71.964844 39.902344 C 69.9375 37.71875 68.398438 35.289062 67.527344 32.914062 C 68.066406 33.09375 68.613281 33.285156 69.125 33.484375 L 69.167969 33.484375 L 69.210938 33.507812 L 69.242188 33.519531 L 69.25 33.53125 L 69.292969 33.535156 C 69.589844 33.652344 69.871094 33.777344 70.164062 33.894531 L 70.835938 34.195312 L 70.84375 34.207031 L 71.097656 34.324219 C 76.234375 36.757812 79.714844 40.464844 81.957031 45.859375 C 78.789062 45.414062 75.007812 43.175781 71.964844 39.902344 Z M 71.964844 39.902344 " fill-opacity="1" fill-rule="evenodd"/></g></g></g></g><g clip-path="url(#7643f00dc7)"><g clip-path="url(#9000cc4530)"><g clip-path="url(#3c2aa85d11)"><g clip-path="url(#b010f6981a)"><path fill="#000000" d="M 53.171875 36.25 C 53.132812 37.335938 53.359375 38.355469 53.785156 39.273438 L 53.546875 39.394531 C 53.082031 39.601562 52.636719 39.808594 52.242188 39.847656 C 51.855469 39.875 51.382812 39.71875 50.886719 39.582031 C 50.300781 39.390625 49.648438 39.195312 48.953125 39.246094 C 48.257812 39.296875 47.628906 39.589844 47.078125 39.835938 C 46.613281 40.066406 46.167969 40.273438 45.773438 40.289062 C 45.378906 40.328125 44.914062 40.183594 44.421875 40.027344 C 43.832031 39.855469 43.167969 39.652344 42.472656 39.699219 C 41.792969 39.738281 41.164062 40.035156 40.609375 40.300781 C 40.132812 40.519531 39.691406 40.726562 39.304688 40.753906 C 38.910156 40.769531 38.4375 40.636719 37.941406 40.480469 C 37.351562 40.308594 36.691406 40.105469 35.996094 40.152344 C 35.324219 40.203125 34.683594 40.488281 34.132812 40.753906 C 33.65625 40.972656 33.210938 41.179688 32.828125 41.207031 C 32.441406 41.234375 31.957031 41.089844 31.472656 40.945312 C 30.886719 40.753906 30.222656 40.566406 29.539062 40.605469 C 28.84375 40.65625 28.214844 40.953125 27.652344 41.207031 C 27.1875 41.4375 26.742188 41.644531 26.347656 41.660156 C 25.964844 41.6875 25.5 41.542969 24.996094 41.398438 C 24.417969 41.214844 23.753906 41.011719 23.058594 41.058594 C 22.367188 41.109375 21.738281 41.40625 21.183594 41.671875 C 20.71875 41.878906 20.277344 42.085938 19.878906 42.125 C 19.484375 42.140625 19.023438 41.996094 18.515625 41.851562 C 17.9375 41.671875 17.273438 41.464844 16.582031 41.511719 C 15.898438 41.574219 15.257812 41.859375 14.71875 42.117188 C 14.242188 42.332031 13.796875 42.539062 13.414062 42.566406 C 13.015625 42.605469 12.542969 42.449219 12.058594 42.304688 C 11.460938 42.125 10.808594 41.929688 10.113281 41.976562 C 9.429688 42.015625 8.800781 42.3125 8.238281 42.570312 C 7.773438 42.796875 7.328125 43.003906 6.933594 43.019531 C 6.550781 43.050781 6.074219 42.914062 5.582031 42.757812 C 5.097656 42.613281 4.550781 42.445312 3.976562 42.421875 C 20.957031 29.359375 46.445312 30.179688 56.003906 31.054688 C 55.753906 31.226562 55.511719 31.429688 55.28125 31.644531 C 53.980469 32.851562 53.226562 34.496094 53.171875 36.25 Z M 53.171875 36.25 " fill-opacity="1" fill-rule="evenodd"/></g></g></g></g></g></g></g></g></svg>