<svg xmlns="http://www.w3.org/2000/svg" xmlns:xlink="http://www.w3.org/1999/xlink" width="160" zoomAndPan="magnify" viewBox="0 0 120 119.999999" height="160" preserveAspectRatio="xMidYMid meet" version="1.0"><defs><g/><clipPath id="588149e783"><path d="M 5 3 L 22 3 L 22 10 L 5 10 Z M 5 3 " clip-rule="nonzero"/></clipPath><clipPath id="1c2de8a4d9"><path d="M 19.808594 0.914062 L 22.929688 9.4375 L 7.273438 15.175781 L 4.148438 6.652344 Z M 19.808594 0.914062 " clip-rule="nonzero"/></clipPath><clipPath id="2c80e33c91"><path d="M 19.808594 0.914062 L 22.929688 9.4375 L 7.273438 15.175781 L 4.148438 6.652344 Z M 19.808594 0.914062 " clip-rule="nonzero"/></clipPath><clipPath id="ef2f9de051"><path d="M 0.761719 9 L 25.238281 9 L 25.238281 19 L 0.761719 19 Z M 0.761719 9 " clip-rule="nonzero"/></clipPath><clipPath id="78bc9e7ae5"><rect x="0" width="26" y="0" height="10"/></clipPath><clipPath id="d3d5de5de3"><path d="M 4 12 L 23 12 L 23 26.441406 L 4 26.441406 Z M 4 12 " clip-rule="nonzero"/></clipPath><clipPath id="42994268d9"><path d="M 19.808594 12.074219 L 22.929688 20.597656 L 7.273438 26.335938 L 4.148438 17.8125 Z M 19.808594 12.074219 " clip-rule="nonzero"/></clipPath><clipPath id="8c0be79480"><path d="M 1 5 L 18 5 L 18 12 L 1 12 Z M 1 5 " clip-rule="nonzero"/></clipPath><clipPath id="c14b5450a4"><path d="M 15.808594 0.0742188 L 18.929688 8.597656 L 3.273438 14.335938 L 0.148438 5.8125 Z M 15.808594 0.0742188 " clip-rule="nonzero"/></clipPath><clipPath id="efe79af318"><path d="M 3.273438 14.347656 L 0.148438 5.824219 L 15.808594 0.0859375 L 18.933594 8.609375 Z M 3.273438 14.347656 " clip-rule="nonzero"/></clipPath><clipPath id="dae799beb0"><rect x="0" width="19" y="0" height="15"/></clipPath><clipPath id="ac0cb45eec"><rect x="0" width="26" y="0" height="27"/></clipPath><clipPath id="cecccf83c7"><path d="M 45.347656 39.683594 L 54 39.683594 L 54 49 L 45.347656 49 Z M 45.347656 39.683594 " clip-rule="nonzero"/></clipPath><clipPath id="235a692396"><path d="M 66 39.683594 L 74.597656 39.683594 L 74.597656 49 L 66 49 Z M 66 39.683594 " clip-rule="nonzero"/></clipPath><clipPath id="0462ef11aa"><path d="M 51 45 L 69 45 L 69 80.183594 L 51 80.183594 Z M 51 45 " clip-rule="nonzero"/></clipPath><clipPath id="22412ddaca"><path d="M 0.078125 2 L 48.800781 2 L 48.800781 8 L 0.078125 8 Z M 0.078125 2 " clip-rule="nonzero"/></clipPath><clipPath id="0f64599bd5"><rect x="0" width="49" y="0" height="9"/></clipPath></defs><rect x="-12" width="144" fill="#ffffff" y="-12" height="143.999998" fill-opacity="1"/><rect x="-12" width="144" fill="#ffffff" y="-12" height="143.999998" fill-opacity="1"/><g transform="matrix(1, 0, 0, 1, 47, 89)"><g clip-path="url(#ac0cb45eec)"><g clip-path="url(#588149e783)"><g clip-path="url(#1c2de8a4d9)"><g clip-path="url(#2c80e33c91)"><path fill="#212121" d="M 21.421875 5.347656 C 21.328125 5.09375 21.230469 4.933594 21.144531 4.917969 C 20.773438 4.863281 20.609375 6.242188 20.539062 7.128906 C 19.863281 6.332031 18.867188 5.441406 17.488281 4.792969 C 16.117188 4.148438 14.511719 3.824219 12.867188 3.960938 C 11.109375 4.105469 9.5 4.761719 8.234375 5.691406 C 6.539062 6.9375 5.65625 8.492188 5.210938 9.53125 C 5.660156 8.484375 6.605469 6.972656 8.332031 5.832031 C 9.621094 4.980469 11.210938 4.4375 12.890625 4.394531 C 14.460938 4.359375 15.945312 4.753906 17.179688 5.417969 C 18.449219 6.097656 19.332031 6.980469 19.929688 7.734375 C 19.046875 7.5625 17.449219 7.300781 17.402344 7.65625 C 17.339844 8.144531 21.203125 10.082031 21.808594 9.636719 C 22.226562 9.324219 21.835938 6.453125 21.421875 5.347656 Z M 21.421875 5.347656 " fill-opacity="1" fill-rule="nonzero"/></g></g></g><g clip-path="url(#ef2f9de051)"><g transform="matrix(1, 0, 0, 1, 0, 9)"><g clip-path="url(#78bc9e7ae5)"><g fill="#000000" fill-opacity="1"><g transform="translate(0.81023, 7.19389)"><g><path d="M 2.28125 0.09375 C 1.875 0.09375 1.484375 0.0390625 1.109375 -0.0625 C 0.734375 -0.175781 0.429688 -0.320312 0.203125 -0.5 L 0.609375 -1.390625 C 0.828125 -1.234375 1.082031 -1.101562 1.375 -1 C 1.675781 -0.90625 1.976562 -0.859375 2.28125 -0.859375 C 2.613281 -0.859375 2.859375 -0.90625 3.015625 -1 C 3.179688 -1.101562 3.265625 -1.238281 3.265625 -1.40625 C 3.265625 -1.53125 3.21875 -1.628906 3.125 -1.703125 C 3.03125 -1.785156 2.910156 -1.847656 2.765625 -1.890625 C 2.617188 -1.941406 2.414062 -2 2.15625 -2.0625 C 1.769531 -2.15625 1.453125 -2.242188 1.203125 -2.328125 C 0.960938 -2.421875 0.753906 -2.570312 0.578125 -2.78125 C 0.398438 -2.988281 0.3125 -3.257812 0.3125 -3.59375 C 0.3125 -3.894531 0.390625 -4.164062 0.546875 -4.40625 C 0.703125 -4.644531 0.941406 -4.832031 1.265625 -4.96875 C 1.585938 -5.113281 1.984375 -5.1875 2.453125 -5.1875 C 2.773438 -5.1875 3.09375 -5.144531 3.40625 -5.0625 C 3.71875 -4.988281 3.988281 -4.878906 4.21875 -4.734375 L 3.859375 -3.84375 C 3.390625 -4.101562 2.921875 -4.234375 2.453125 -4.234375 C 2.117188 -4.234375 1.875 -4.179688 1.71875 -4.078125 C 1.5625 -3.972656 1.484375 -3.832031 1.484375 -3.65625 C 1.484375 -3.476562 1.570312 -3.347656 1.75 -3.265625 C 1.9375 -3.179688 2.210938 -3.097656 2.578125 -3.015625 C 2.972656 -2.921875 3.289062 -2.828125 3.53125 -2.734375 C 3.78125 -2.640625 3.992188 -2.492188 4.171875 -2.296875 C 4.347656 -2.097656 4.4375 -1.832031 4.4375 -1.5 C 4.4375 -1.207031 4.351562 -0.9375 4.1875 -0.6875 C 4.03125 -0.445312 3.789062 -0.253906 3.46875 -0.109375 C 3.144531 0.0234375 2.75 0.09375 2.28125 0.09375 Z M 2.28125 0.09375 "/></g></g></g><g fill="#000000" fill-opacity="1"><g transform="translate(5.073316, 7.19389)"><g><path d="M 0.53125 -3.921875 L 1.65625 -3.921875 L 1.65625 0 L 0.53125 0 Z M 1.09375 -4.46875 C 0.882812 -4.46875 0.710938 -4.523438 0.578125 -4.640625 C 0.453125 -4.765625 0.390625 -4.914062 0.390625 -5.09375 C 0.390625 -5.269531 0.453125 -5.421875 0.578125 -5.546875 C 0.710938 -5.671875 0.882812 -5.734375 1.09375 -5.734375 C 1.300781 -5.734375 1.46875 -5.671875 1.59375 -5.546875 C 1.726562 -5.429688 1.796875 -5.289062 1.796875 -5.125 C 1.796875 -4.925781 1.726562 -4.765625 1.59375 -4.640625 C 1.46875 -4.523438 1.300781 -4.46875 1.09375 -4.46875 Z M 1.09375 -4.46875 "/></g></g></g><g fill="#000000" fill-opacity="1"><g transform="translate(6.880514, 7.19389)"><g><path d="M 5.546875 -3.96875 C 6.035156 -3.96875 6.421875 -3.820312 6.703125 -3.53125 C 6.992188 -3.25 7.140625 -2.820312 7.140625 -2.25 L 7.140625 0 L 6 0 L 6 -2.0625 C 6 -2.375 5.9375 -2.609375 5.8125 -2.765625 C 5.6875 -2.921875 5.503906 -3 5.265625 -3 C 4.992188 -3 4.78125 -2.910156 4.625 -2.734375 C 4.46875 -2.554688 4.390625 -2.300781 4.390625 -1.96875 L 4.390625 0 L 3.265625 0 L 3.265625 -2.0625 C 3.265625 -2.6875 3.015625 -3 2.515625 -3 C 2.253906 -3 2.046875 -2.910156 1.890625 -2.734375 C 1.734375 -2.554688 1.65625 -2.300781 1.65625 -1.96875 L 1.65625 0 L 0.53125 0 L 0.53125 -3.921875 L 1.609375 -3.921875 L 1.609375 -3.46875 C 1.753906 -3.632812 1.929688 -3.757812 2.140625 -3.84375 C 2.359375 -3.925781 2.59375 -3.96875 2.84375 -3.96875 C 3.113281 -3.96875 3.359375 -3.910156 3.578125 -3.796875 C 3.804688 -3.691406 3.988281 -3.535156 4.125 -3.328125 C 4.289062 -3.535156 4.492188 -3.691406 4.734375 -3.796875 C 4.984375 -3.910156 5.253906 -3.96875 5.546875 -3.96875 Z M 5.546875 -3.96875 "/></g></g></g><g fill="#000000" fill-opacity="1"><g transform="translate(14.138764, 7.19389)"><g><path d="M 2.84375 -3.96875 C 3.207031 -3.96875 3.535156 -3.882812 3.828125 -3.71875 C 4.128906 -3.550781 4.363281 -3.316406 4.53125 -3.015625 C 4.707031 -2.710938 4.796875 -2.359375 4.796875 -1.953125 C 4.796875 -1.554688 4.707031 -1.203125 4.53125 -0.890625 C 4.363281 -0.585938 4.128906 -0.351562 3.828125 -0.1875 C 3.535156 -0.0195312 3.207031 0.0625 2.84375 0.0625 C 2.34375 0.0625 1.945312 -0.0976562 1.65625 -0.421875 L 1.65625 1.40625 L 0.53125 1.40625 L 0.53125 -3.921875 L 1.609375 -3.921875 L 1.609375 -3.46875 C 1.890625 -3.800781 2.300781 -3.96875 2.84375 -3.96875 Z M 2.640625 -0.875 C 2.929688 -0.875 3.171875 -0.972656 3.359375 -1.171875 C 3.546875 -1.367188 3.640625 -1.628906 3.640625 -1.953125 C 3.640625 -2.285156 3.546875 -2.550781 3.359375 -2.75 C 3.171875 -2.945312 2.929688 -3.046875 2.640625 -3.046875 C 2.347656 -3.046875 2.109375 -2.945312 1.921875 -2.75 C 1.734375 -2.550781 1.640625 -2.285156 1.640625 -1.953125 C 1.640625 -1.628906 1.734375 -1.367188 1.921875 -1.171875 C 2.109375 -0.972656 2.347656 -0.875 2.640625 -0.875 Z M 2.640625 -0.875 "/></g></g></g><g fill="#000000" fill-opacity="1"><g transform="translate(18.7808, 7.19389)"><g><path d="M 0.53125 -5.40625 L 1.65625 -5.40625 L 1.65625 0 L 0.53125 0 Z M 0.53125 -5.40625 "/></g></g></g><g fill="#000000" fill-opacity="1"><g transform="translate(20.587998, 7.19389)"><g><path d="M 4.359375 -1.9375 C 4.359375 -1.925781 4.351562 -1.828125 4.34375 -1.640625 L 1.375 -1.640625 C 1.425781 -1.398438 1.550781 -1.207031 1.75 -1.0625 C 1.945312 -0.925781 2.195312 -0.859375 2.5 -0.859375 C 2.695312 -0.859375 2.875 -0.882812 3.03125 -0.9375 C 3.195312 -1 3.347656 -1.097656 3.484375 -1.234375 L 4.078125 -0.578125 C 3.710938 -0.148438 3.175781 0.0625 2.46875 0.0625 C 2.03125 0.0625 1.640625 -0.0195312 1.296875 -0.1875 C 0.953125 -0.363281 0.6875 -0.601562 0.5 -0.90625 C 0.320312 -1.21875 0.234375 -1.566406 0.234375 -1.953125 C 0.234375 -2.335938 0.320312 -2.679688 0.5 -2.984375 C 0.6875 -3.296875 0.9375 -3.535156 1.25 -3.703125 C 1.570312 -3.878906 1.929688 -3.96875 2.328125 -3.96875 C 2.703125 -3.96875 3.046875 -3.882812 3.359375 -3.71875 C 3.671875 -3.5625 3.914062 -3.328125 4.09375 -3.015625 C 4.269531 -2.710938 4.359375 -2.351562 4.359375 -1.9375 Z M 2.328125 -3.109375 C 2.066406 -3.109375 1.847656 -3.035156 1.671875 -2.890625 C 1.503906 -2.742188 1.398438 -2.546875 1.359375 -2.296875 L 3.296875 -2.296875 C 3.253906 -2.546875 3.144531 -2.742188 2.96875 -2.890625 C 2.789062 -3.035156 2.578125 -3.109375 2.328125 -3.109375 Z M 2.328125 -3.109375 "/></g></g></g></g></g></g><g clip-path="url(#d3d5de5de3)"><g clip-path="url(#42994268d9)"><g transform="matrix(1, 0, 0, 1, 4, 12)"><g clip-path="url(#dae799beb0)"><g clip-path="url(#8c0be79480)"><g clip-path="url(#c14b5450a4)"><g clip-path="url(#efe79af318)"><path fill="#212121" d="M 1.65625 9.914062 C 1.753906 10.167969 1.847656 10.328125 1.9375 10.339844 C 2.304688 10.398438 2.472656 9.019531 2.542969 8.132812 C 3.214844 8.929688 4.210938 9.820312 5.589844 10.464844 C 6.960938 11.109375 8.570312 11.433594 10.210938 11.300781 C 11.972656 11.15625 13.578125 10.5 14.847656 9.570312 C 16.539062 8.324219 17.421875 6.769531 17.871094 5.730469 C 17.417969 6.777344 16.472656 8.289062 14.75 9.429688 C 13.460938 10.28125 11.867188 10.824219 10.1875 10.867188 C 8.621094 10.902344 7.136719 10.503906 5.902344 9.84375 C 4.632812 9.164062 3.746094 8.28125 3.152344 7.527344 C 4.03125 7.699219 5.632812 7.960938 5.675781 7.605469 C 5.738281 7.117188 1.875 5.179688 1.269531 5.625 C 0.851562 5.933594 1.242188 8.808594 1.65625 9.914062 Z M 1.65625 9.914062 " fill-opacity="1" fill-rule="nonzero"/></g></g></g></g></g></g></g></g></g><g clip-path="url(#cecccf83c7)"><path fill="#000000" d="M 46.238281 40.867188 C 46.371094 40.464844 46.605469 40.207031 46.78125 40.128906 C 46.828125 40.109375 46.886719 40.09375 46.9375 40.113281 C 47.097656 40.1875 47.160156 40.605469 47 41.109375 C 46.296875 43.289062 46.296875 45.597656 47 47.777344 C 47.125 48.164062 47.378906 48.484375 47.664062 48.609375 C 47.746094 48.648438 47.832031 48.664062 47.910156 48.664062 C 47.980469 48.664062 48.050781 48.652344 48.113281 48.621094 C 48.464844 48.464844 48.582031 47.917969 48.394531 47.328125 C 48.089844 46.394531 47.9375 45.421875 47.9375 44.441406 C 47.9375 43.460938 48.089844 42.492188 48.394531 41.554688 C 48.488281 41.257812 48.671875 41.085938 48.808594 41.027344 C 48.863281 41 48.941406 40.980469 49.011719 41.011719 C 49.203125 41.097656 49.265625 41.453125 49.152344 41.800781 C 48.597656 43.53125 48.597656 45.355469 49.152344 47.082031 C 49.246094 47.371094 49.445312 47.609375 49.683594 47.714844 C 49.855469 47.792969 50.035156 47.796875 50.1875 47.726562 C 50.539062 47.566406 50.691406 47.097656 50.546875 46.636719 C 50.316406 45.925781 50.199219 45.1875 50.199219 44.441406 C 50.199219 43.695312 50.316406 42.957031 50.546875 42.25 C 50.59375 42.09375 50.699219 41.972656 50.828125 41.914062 C 50.917969 41.875 51.011719 41.875 51.089844 41.910156 C 51.285156 42 51.382812 42.253906 51.304688 42.492188 C 50.894531 43.769531 50.894531 45.117188 51.304688 46.390625 C 51.367188 46.589844 51.511719 46.746094 51.699219 46.832031 C 51.878906 46.910156 52.085938 46.910156 52.261719 46.828125 C 52.339844 46.792969 52.40625 46.75 52.464844 46.695312 C 52.535156 46.578125 52.613281 46.46875 52.6875 46.363281 C 52.734375 46.226562 52.742188 46.082031 52.699219 45.945312 C 52.542969 45.457031 52.460938 44.953125 52.460938 44.441406 C 52.460938 43.933594 52.542969 43.425781 52.699219 42.941406 C 52.722656 42.859375 52.789062 42.816406 52.835938 42.792969 C 52.933594 42.75 53.054688 42.753906 53.164062 42.804688 C 53.378906 42.902344 53.492188 43.085938 53.457031 43.183594 C 53.210938 43.953125 53.199219 44.765625 53.414062 45.542969 C 53.503906 45.460938 53.597656 45.382812 53.695312 45.3125 C 53.535156 44.644531 53.5625 43.949219 53.773438 43.285156 C 53.867188 43.003906 53.664062 42.667969 53.300781 42.503906 C 53.105469 42.414062 52.886719 42.410156 52.699219 42.492188 C 52.546875 42.558594 52.433594 42.683594 52.382812 42.839844 C 52.214844 43.359375 52.128906 43.898438 52.128906 44.441406 C 52.128906 44.988281 52.214844 45.527344 52.382812 46.042969 C 52.4375 46.222656 52.324219 46.4375 52.125 46.527344 C 52.035156 46.570312 51.929688 46.570312 51.832031 46.527344 C 51.730469 46.484375 51.65625 46.398438 51.621094 46.289062 C 51.230469 45.082031 51.230469 43.804688 51.621094 42.59375 C 51.75 42.199219 51.574219 41.765625 51.226562 41.605469 C 51.058594 41.53125 50.871094 41.535156 50.695312 41.613281 C 50.476562 41.707031 50.308594 41.902344 50.230469 42.148438 C 49.988281 42.890625 49.867188 43.660156 49.867188 44.441406 C 49.867188 45.222656 49.988281 45.996094 50.230469 46.738281 C 50.324219 47.035156 50.246094 47.335938 50.050781 47.425781 C 49.96875 47.460938 49.878906 47.4375 49.820312 47.414062 C 49.664062 47.34375 49.535156 47.183594 49.46875 46.980469 C 48.933594 45.320312 48.933594 43.566406 49.46875 41.902344 C 49.636719 41.371094 49.503906 40.871094 49.148438 40.710938 C 49.007812 40.644531 48.839844 40.648438 48.675781 40.722656 C 48.410156 40.839844 48.183594 41.113281 48.078125 41.457031 C 47.765625 42.421875 47.605469 43.425781 47.605469 44.441406 C 47.605469 45.457031 47.765625 46.464844 48.078125 47.429688 C 48.207031 47.835938 48.160156 48.238281 47.976562 48.320312 C 47.914062 48.347656 47.84375 48.328125 47.796875 48.308594 C 47.648438 48.242188 47.433594 48.035156 47.316406 47.675781 C 46.632812 45.5625 46.632812 43.324219 47.316406 41.210938 C 47.527344 40.546875 47.429688 39.972656 47.074219 39.8125 C 46.949219 39.753906 46.800781 39.761719 46.648438 39.828125 C 46.347656 39.960938 46.066406 40.320312 45.925781 40.765625 C 45.539062 41.953125 45.347656 43.191406 45.347656 44.441406 L 45.679688 44.441406 C 45.679688 43.226562 45.867188 42.023438 46.238281 40.867188 Z M 46.238281 40.867188 " fill-opacity="1" fill-rule="nonzero"/></g><path fill="#000000" d="M 54.722656 44.441406 C 54.753906 44.410156 54.894531 44.359375 55.113281 44.382812 C 55.269531 44.402344 55.414062 44.4375 55.503906 44.480469 C 55.675781 44.558594 55.871094 44.601562 56.089844 44.601562 L 56.21875 44.601562 L 56.21875 44.273438 L 56.089844 44.269531 C 55.921875 44.269531 55.773438 44.238281 55.644531 44.179688 C 55.523438 44.121094 55.34375 44.078125 55.152344 44.054688 C 54.886719 44.023438 54.636719 44.078125 54.503906 44.195312 C 54.433594 44.257812 54.390625 44.339844 54.390625 44.429688 C 54.390625 44.585938 54.402344 44.738281 54.425781 44.890625 C 54.53125 44.847656 54.636719 44.808594 54.746094 44.773438 C 54.734375 44.664062 54.722656 44.554688 54.722656 44.441406 Z M 54.722656 44.441406 " fill-opacity="1" fill-rule="nonzero"/><g clip-path="url(#235a692396)"><path fill="#000000" d="M 66.480469 43.183594 C 66.449219 43.085938 66.5625 42.902344 66.777344 42.804688 C 66.886719 42.753906 67.007812 42.75 67.105469 42.792969 C 67.152344 42.816406 67.214844 42.859375 67.242188 42.941406 C 67.398438 43.425781 67.476562 43.933594 67.476562 44.441406 C 67.476562 44.953125 67.398438 45.457031 67.242188 45.945312 C 67.199219 46.082031 67.207031 46.226562 67.253906 46.363281 C 67.328125 46.46875 67.402344 46.578125 67.476562 46.695312 C 67.535156 46.75 67.601562 46.792969 67.675781 46.828125 C 67.855469 46.910156 68.058594 46.910156 68.242188 46.832031 C 68.429688 46.746094 68.570312 46.589844 68.632812 46.390625 C 69.046875 45.117188 69.046875 43.769531 68.632812 42.492188 C 68.558594 42.253906 68.652344 42 68.851562 41.910156 C 68.929688 41.875 69.023438 41.875 69.113281 41.914062 C 69.242188 41.972656 69.34375 42.09375 69.394531 42.25 C 69.625 42.957031 69.738281 43.695312 69.738281 44.441406 C 69.738281 45.1875 69.625 45.925781 69.394531 46.636719 C 69.246094 47.097656 69.402344 47.566406 69.753906 47.726562 C 69.90625 47.796875 70.082031 47.792969 70.253906 47.714844 C 70.496094 47.609375 70.695312 47.371094 70.785156 47.082031 C 71.34375 45.355469 71.34375 43.53125 70.789062 41.800781 C 70.675781 41.453125 70.738281 41.097656 70.929688 41.011719 C 70.996094 40.980469 71.078125 41 71.128906 41.027344 C 71.269531 41.085938 71.453125 41.257812 71.546875 41.558594 C 71.847656 42.492188 72 43.460938 72 44.441406 C 72 45.421875 71.847656 46.394531 71.546875 47.328125 C 71.359375 47.917969 71.476562 48.464844 71.828125 48.621094 C 71.890625 48.652344 71.957031 48.664062 72.027344 48.664062 C 72.109375 48.664062 72.191406 48.648438 72.277344 48.609375 C 72.5625 48.484375 72.8125 48.164062 72.941406 47.777344 C 73.644531 45.597656 73.644531 43.289062 72.941406 41.109375 C 72.777344 40.605469 72.84375 40.1875 73.003906 40.113281 C 73.050781 40.09375 73.113281 40.109375 73.15625 40.128906 C 73.335938 40.207031 73.570312 40.464844 73.699219 40.867188 C 74.074219 42.023438 74.261719 43.226562 74.261719 44.441406 L 74.59375 44.441406 C 74.59375 43.191406 74.398438 41.953125 74.015625 40.765625 C 73.871094 40.320312 73.59375 39.960938 73.289062 39.828125 C 73.140625 39.761719 72.992188 39.753906 72.867188 39.8125 C 72.511719 39.972656 72.414062 40.546875 72.625 41.210938 C 73.304688 43.324219 73.304688 45.5625 72.625 47.675781 C 72.507812 48.035156 72.292969 48.242188 72.144531 48.308594 C 72.09375 48.328125 72.023438 48.347656 71.964844 48.320312 C 71.777344 48.238281 71.734375 47.835938 71.863281 47.429688 C 72.175781 46.464844 72.332031 45.457031 72.332031 44.441406 C 72.332031 43.425781 72.175781 42.421875 71.863281 41.457031 C 71.753906 41.113281 71.53125 40.839844 71.265625 40.722656 C 71.101562 40.648438 70.933594 40.644531 70.789062 40.710938 C 70.4375 40.871094 70.300781 41.371094 70.472656 41.902344 C 71.007812 43.566406 71.007812 45.320312 70.472656 46.980469 C 70.40625 47.183594 70.277344 47.34375 70.121094 47.414062 C 70.0625 47.4375 69.972656 47.460938 69.890625 47.425781 C 69.695312 47.335938 69.617188 47.035156 69.710938 46.738281 C 69.949219 45.996094 70.070312 45.222656 70.070312 44.441406 C 70.070312 43.660156 69.949219 42.890625 69.710938 42.148438 C 69.632812 41.902344 69.464844 41.707031 69.246094 41.613281 C 69.070312 41.535156 68.878906 41.53125 68.714844 41.605469 C 68.367188 41.765625 68.191406 42.199219 68.320312 42.59375 C 68.707031 43.804688 68.707031 45.082031 68.320312 46.289062 C 68.285156 46.398438 68.210938 46.484375 68.109375 46.527344 C 68.011719 46.570312 67.90625 46.570312 67.816406 46.527344 C 67.617188 46.4375 67.503906 46.222656 67.558594 46.046875 C 67.726562 45.527344 67.808594 44.988281 67.808594 44.441406 C 67.808594 43.898438 67.726562 43.359375 67.558594 42.839844 C 67.507812 42.683594 67.394531 42.558594 67.238281 42.492188 C 67.054688 42.410156 66.835938 42.414062 66.640625 42.503906 C 66.277344 42.667969 66.074219 43.003906 66.164062 43.285156 C 66.378906 43.949219 66.40625 44.644531 66.246094 45.3125 C 66.339844 45.382812 66.433594 45.460938 66.527344 45.542969 C 66.742188 44.765625 66.730469 43.957031 66.480469 43.183594 Z M 66.480469 43.183594 " fill-opacity="1" fill-rule="nonzero"/></g><path fill="#000000" d="M 65.546875 44.429688 C 65.546875 44.339844 65.507812 44.257812 65.4375 44.195312 C 65.300781 44.078125 65.054688 44.023438 64.785156 44.054688 C 64.59375 44.078125 64.417969 44.121094 64.296875 44.179688 C 64.167969 44.238281 64.019531 44.269531 63.847656 44.269531 L 63.722656 44.273438 L 63.722656 44.601562 L 63.851562 44.601562 C 64.070312 44.601562 64.265625 44.558594 64.4375 44.480469 C 64.527344 44.4375 64.671875 44.402344 64.824219 44.382812 C 65.042969 44.359375 65.183594 44.410156 65.21875 44.441406 C 65.21875 44.554688 65.207031 44.664062 65.195312 44.773438 C 65.304688 44.808594 65.410156 44.847656 65.515625 44.890625 C 65.539062 44.738281 65.550781 44.585938 65.546875 44.429688 Z M 65.546875 44.429688 " fill-opacity="1" fill-rule="nonzero"/><g clip-path="url(#0462ef11aa)"><path fill="#000000" d="M 66.378906 54.8125 C 66.617188 55.234375 67.0625 55.480469 67.53125 55.480469 C 67.664062 55.480469 67.796875 55.460938 67.929688 55.417969 C 68.527344 55.230469 68.910156 54.648438 68.851562 54.027344 C 68.84375 53.953125 68.671875 52.199219 68.199219 50.332031 C 67.464844 47.421875 66.398438 45.804688 64.933594 45.386719 C 64.589844 45.289062 64.238281 45.335938 63.945312 45.492188 C 64.058594 45.867188 64.117188 46.261719 64.117188 46.671875 C 64.117188 47.074219 64.058594 47.464844 63.953125 47.832031 C 64.03125 47.875 64.117188 47.910156 64.207031 47.933594 C 64.355469 47.976562 64.820312 48.433594 65.308594 49.882812 C 64.503906 49.414062 63.839844 49.25 63.480469 49.191406 C 63.414062 49.179688 63.351562 49.167969 63.285156 49.160156 C 62.527344 50.164062 61.324219 50.8125 59.96875 50.8125 C 58.617188 50.8125 57.414062 50.164062 56.65625 49.160156 C 56.589844 49.167969 56.523438 49.179688 56.460938 49.191406 C 56.101562 49.25 55.4375 49.414062 54.632812 49.882812 C 55.121094 48.433594 55.585938 47.976562 55.734375 47.933594 C 55.824219 47.910156 55.910156 47.875 55.988281 47.832031 C 55.882812 47.464844 55.824219 47.074219 55.824219 46.671875 C 55.824219 46.261719 55.882812 45.867188 55.996094 45.492188 C 55.703125 45.335938 55.351562 45.289062 55.003906 45.386719 C 53.542969 45.804688 52.476562 47.421875 51.742188 50.332031 C 51.269531 52.199219 51.097656 53.953125 51.089844 54.027344 C 51.03125 54.648438 51.414062 55.230469 52.007812 55.417969 C 52.140625 55.460938 52.277344 55.480469 52.410156 55.480469 C 52.878906 55.480469 53.320312 55.234375 53.5625 54.8125 C 54.230469 53.652344 54.910156 52.9375 55.484375 52.5 L 55.484375 60.476562 L 54.066406 77.800781 C 53.976562 78.929688 54.816406 79.917969 55.945312 80.007812 C 57.074219 80.101562 58.066406 79.261719 58.15625 78.132812 L 59.390625 63.046875 L 60.550781 63.046875 L 61.785156 78.132812 C 61.875 79.261719 62.867188 80.101562 63.996094 80.007812 C 65.125 79.917969 65.964844 78.929688 65.871094 77.800781 L 64.457031 60.476562 L 64.457031 52.5 C 65.03125 52.9375 65.710938 53.652344 66.378906 54.8125 Z M 66.378906 54.8125 " fill-opacity="1" fill-rule="nonzero"/></g><path fill="#000000" d="M 56.238281 46.671875 C 56.238281 48.730469 57.910156 50.398438 59.96875 50.398438 C 62.03125 50.398438 63.703125 48.730469 63.703125 46.671875 C 63.703125 44.613281 62.03125 42.945312 59.96875 42.945312 C 57.910156 42.945312 56.238281 44.613281 56.238281 46.671875 Z M 62.238281 47.570312 L 61.996094 48.003906 C 60.5 47.183594 58.621094 48.289062 58.601562 48.300781 L 58.34375 47.875 C 58.433594 47.824219 60.488281 46.609375 62.238281 47.570312 Z M 62.238281 47.570312 " fill-opacity="1" fill-rule="nonzero"/><g fill="#21282e" fill-opacity="1"><g transform="translate(27.165623, 20.750011)"><g><path d="M 4.6875 -6.28125 L 1.78125 -6.28125 L 1.78125 -3.859375 L 4.640625 -3.859375 L 4.640625 -3.125 L 1.78125 -3.125 L 1.78125 0 L 0.984375 0 L 0.984375 -7.015625 L 4.6875 -7.015625 Z M 4.6875 -6.28125 "/></g></g></g><g fill="#21282e" fill-opacity="1"><g transform="translate(33.293511, 20.750011)"><g><path d="M 5.296875 0 L 4.46875 -2.203125 L 1.796875 -2.203125 L 1 0 L 0.15625 0 L 2.671875 -7 L 3.59375 -7 L 6.125 0 Z M 2.796875 -5.203125 L 2.046875 -2.90625 L 4.21875 -2.90625 L 3.453125 -5.203125 L 3.15625 -6.171875 L 3.078125 -6.171875 Z M 2.796875 -5.203125 "/></g></g></g><g fill="#21282e" fill-opacity="1"><g transform="translate(40.430996, 20.750011)"><g><path d="M 4.796875 0 L 2.59375 -2.84375 L 1.84375 -2.84375 L 1.84375 0 L 1.03125 0 L 1.03125 -7 L 3.203125 -7 C 3.648438 -7 4.046875 -6.925781 4.390625 -6.78125 C 4.734375 -6.632812 5.003906 -6.40625 5.203125 -6.09375 C 5.410156 -5.789062 5.515625 -5.394531 5.515625 -4.90625 C 5.515625 -4.28125 5.332031 -3.789062 4.96875 -3.4375 C 4.613281 -3.09375 4.128906 -2.898438 3.515625 -2.859375 L 5.734375 0 Z M 4.703125 -4.9375 C 4.703125 -5.382812 4.5625 -5.71875 4.28125 -5.9375 C 4 -6.164062 3.640625 -6.28125 3.203125 -6.28125 L 1.84375 -6.28125 L 1.84375 -3.5625 L 3.1875 -3.5625 C 3.664062 -3.5625 4.035156 -3.675781 4.296875 -3.90625 C 4.566406 -4.144531 4.703125 -4.488281 4.703125 -4.9375 Z M 4.703125 -4.9375 "/></g></g></g><g fill="#21282e" fill-opacity="1"><g transform="translate(47.478519, 20.750011)"><g><path d="M 6.3125 -7.03125 L 7.296875 -7.03125 L 7.296875 0 L 6.484375 0 L 6.484375 -3.640625 L 6.578125 -5.796875 L 6.546875 -5.8125 L 5.734375 -3.78125 L 4.5 -1.09375 L 3.765625 -1.09375 L 2.546875 -3.765625 L 1.71875 -5.8125 L 1.6875 -5.796875 L 1.78125 -3.640625 L 1.78125 0 L 0.96875 0 L 0.96875 -7.03125 L 1.9375 -7.03125 L 4.125 -2.046875 Z M 6.3125 -7.03125 "/></g></g></g><g fill="#21282e" fill-opacity="1"><g transform="translate(56.715182, 20.750011)"><g/></g></g><g fill="#21282e" fill-opacity="1"><g transform="translate(60.174124, 20.750011)"><g><path d="M 1.03125 0 L 1.03125 -7.03125 L 2.015625 -7.03125 L 4.765625 -2.265625 L 5.453125 -0.953125 L 5.46875 -0.953125 L 5.375 -2.609375 L 5.375 -7.03125 L 6.1875 -7.03125 L 6.1875 0 L 5.203125 0 L 2.46875 -4.734375 L 1.765625 -6.0625 L 1.734375 -6.0625 L 1.84375 -4.4375 L 1.84375 0 Z M 1.03125 0 "/></g></g></g><g fill="#21282e" fill-opacity="1"><g transform="translate(68.291224, 20.750011)"><g><path d="M 4.09375 0.125 C 3.59375 0.125 3.125 0.0351562 2.6875 -0.140625 C 2.25 -0.328125 1.867188 -0.582031 1.546875 -0.90625 C 1.222656 -1.238281 0.972656 -1.625 0.796875 -2.0625 C 0.617188 -2.5 0.53125 -2.972656 0.53125 -3.484375 C 0.53125 -4.003906 0.617188 -4.484375 0.796875 -4.921875 C 0.972656 -5.367188 1.222656 -5.753906 1.546875 -6.078125 C 1.867188 -6.398438 2.25 -6.65625 2.6875 -6.84375 C 3.125 -7.03125 3.59375 -7.125 4.09375 -7.125 C 4.601562 -7.125 5.070312 -7.03125 5.5 -6.84375 C 5.9375 -6.65625 6.316406 -6.398438 6.640625 -6.078125 C 6.960938 -5.753906 7.210938 -5.367188 7.390625 -4.921875 C 7.566406 -4.484375 7.65625 -4.003906 7.65625 -3.484375 C 7.65625 -2.972656 7.566406 -2.5 7.390625 -2.0625 C 7.210938 -1.625 6.960938 -1.238281 6.640625 -0.90625 C 6.316406 -0.582031 5.9375 -0.328125 5.5 -0.140625 C 5.070312 0.0351562 4.601562 0.125 4.09375 0.125 Z M 4.09375 -0.609375 C 4.632812 -0.609375 5.109375 -0.726562 5.515625 -0.96875 C 5.929688 -1.21875 6.253906 -1.5625 6.484375 -2 C 6.722656 -2.4375 6.84375 -2.929688 6.84375 -3.484375 C 6.84375 -4.046875 6.722656 -4.546875 6.484375 -4.984375 C 6.242188 -5.421875 5.914062 -5.765625 5.5 -6.015625 C 5.09375 -6.265625 4.625 -6.390625 4.09375 -6.390625 C 3.570312 -6.390625 3.101562 -6.265625 2.6875 -6.015625 C 2.269531 -5.765625 1.941406 -5.421875 1.703125 -4.984375 C 1.460938 -4.546875 1.34375 -4.046875 1.34375 -3.484375 C 1.34375 -2.929688 1.460938 -2.4375 1.703125 -2 C 1.941406 -1.5625 2.269531 -1.21875 2.6875 -0.96875 C 3.101562 -0.726562 3.570312 -0.609375 4.09375 -0.609375 Z M 4.09375 -0.609375 "/></g></g></g><g fill="#21282e" fill-opacity="1"><g transform="translate(77.397939, 20.750011)"><g><path d="M 1 0 L 1 -7 L 1.796875 -7 L 1.796875 0 Z M 1 0 "/></g></g></g><g fill="#21282e" fill-opacity="1"><g transform="translate(81.026815, 20.750011)"><g><path d="M 2.6875 0.125 C 2.257812 0.125 1.835938 0.00390625 1.421875 -0.234375 C 1.015625 -0.472656 0.710938 -0.832031 0.515625 -1.3125 L 1.1875 -1.65625 C 1.363281 -1.300781 1.585938 -1.035156 1.859375 -0.859375 C 2.128906 -0.691406 2.421875 -0.609375 2.734375 -0.609375 C 3.140625 -0.609375 3.472656 -0.722656 3.734375 -0.953125 C 3.992188 -1.191406 4.125 -1.5 4.125 -1.875 C 4.125 -2.175781 4.046875 -2.421875 3.890625 -2.609375 C 3.734375 -2.796875 3.539062 -2.941406 3.3125 -3.046875 C 3.09375 -3.148438 2.875 -3.234375 2.65625 -3.296875 C 2.445312 -3.347656 2.226562 -3.421875 2 -3.515625 C 1.78125 -3.609375 1.570312 -3.726562 1.375 -3.875 C 1.1875 -4.03125 1.035156 -4.222656 0.921875 -4.453125 C 0.804688 -4.679688 0.75 -4.957031 0.75 -5.28125 C 0.75 -5.707031 0.847656 -6.054688 1.046875 -6.328125 C 1.253906 -6.597656 1.515625 -6.796875 1.828125 -6.921875 C 2.148438 -7.054688 2.472656 -7.125 2.796875 -7.125 C 3.210938 -7.125 3.597656 -7.015625 3.953125 -6.796875 C 4.304688 -6.585938 4.578125 -6.257812 4.765625 -5.8125 L 4.125 -5.515625 C 3.976562 -5.835938 3.785156 -6.066406 3.546875 -6.203125 C 3.304688 -6.335938 3.046875 -6.40625 2.765625 -6.40625 C 2.566406 -6.40625 2.375 -6.363281 2.1875 -6.28125 C 2 -6.195312 1.84375 -6.066406 1.71875 -5.890625 C 1.59375 -5.722656 1.53125 -5.503906 1.53125 -5.234375 C 1.53125 -4.972656 1.601562 -4.757812 1.75 -4.59375 C 1.90625 -4.425781 2.082031 -4.296875 2.28125 -4.203125 C 2.488281 -4.109375 2.6875 -4.039062 2.875 -4 C 3.125 -3.9375 3.367188 -3.851562 3.609375 -3.75 C 3.859375 -3.644531 4.082031 -3.507812 4.28125 -3.34375 C 4.476562 -3.1875 4.632812 -2.984375 4.75 -2.734375 C 4.875 -2.492188 4.9375 -2.195312 4.9375 -1.84375 C 4.9375 -1.5 4.867188 -1.203125 4.734375 -0.953125 C 4.597656 -0.710938 4.414062 -0.507812 4.1875 -0.34375 C 3.96875 -0.1875 3.722656 -0.0703125 3.453125 0 C 3.191406 0.0820312 2.9375 0.125 2.6875 0.125 Z M 2.6875 0.125 "/></g></g></g><g fill="#21282e" fill-opacity="1"><g transform="translate(87.484567, 20.750011)"><g><path d="M 4.5625 -6.296875 L 1.625 -6.296875 L 1.625 -3.90625 L 4.53125 -3.90625 L 4.53125 -3.203125 L 1.625 -3.203125 L 1.625 -0.703125 L 4.5625 -0.703125 L 4.5625 0 L 0.828125 0 L 0.828125 -7.015625 L 4.5625 -7.015625 Z M 4.5625 -6.296875 "/></g></g></g><g transform="matrix(1, 0, 0, 1, 34, 21)"><g clip-path="url(#0f64599bd5)"><g clip-path="url(#22412ddaca)"><g fill="#000000" fill-opacity="1"><g transform="translate(0.272351, 6.382531)"><g><path d="M 0.921875 0 L 0.546875 0 L 0.546875 -3.5625 L 1.15625 -3.5625 L 2.25 -0.546875 L 2.296875 -0.546875 L 3.375 -3.5625 L 3.984375 -3.5625 L 3.984375 0 L 3.578125 0 L 3.578125 -2.90625 L 3.515625 -2.921875 L 2.46875 0 L 2.046875 0 L 0.984375 -2.921875 L 0.921875 -2.90625 Z M 0.921875 0 "/></g></g><g transform="translate(4.791396, 6.382531)"><g><path d="M 1.109375 0.046875 C 0.847656 0.046875 0.640625 -0.0195312 0.484375 -0.15625 C 0.335938 -0.289062 0.265625 -0.488281 0.265625 -0.75 C 0.265625 -0.90625 0.296875 -1.035156 0.359375 -1.140625 C 0.429688 -1.253906 0.535156 -1.347656 0.671875 -1.421875 C 0.804688 -1.492188 0.988281 -1.546875 1.21875 -1.578125 C 1.40625 -1.609375 1.550781 -1.644531 1.65625 -1.6875 C 1.757812 -1.726562 1.828125 -1.773438 1.859375 -1.828125 C 1.898438 -1.878906 1.921875 -1.941406 1.921875 -2.015625 C 1.921875 -2.140625 1.878906 -2.234375 1.796875 -2.296875 C 1.710938 -2.359375 1.578125 -2.390625 1.390625 -2.390625 C 1.210938 -2.390625 1.0625 -2.351562 0.9375 -2.28125 C 0.8125 -2.21875 0.695312 -2.125 0.59375 -2 L 0.546875 -2 L 0.359375 -2.265625 C 0.460938 -2.410156 0.601562 -2.523438 0.78125 -2.609375 C 0.957031 -2.703125 1.160156 -2.75 1.390625 -2.75 C 1.703125 -2.75 1.929688 -2.675781 2.078125 -2.53125 C 2.234375 -2.394531 2.3125 -2.203125 2.3125 -1.953125 L 2.3125 -0.53125 C 2.3125 -0.382812 2.375 -0.3125 2.5 -0.3125 C 2.539062 -0.3125 2.582031 -0.316406 2.625 -0.328125 L 2.65625 -0.3125 L 2.703125 -0.046875 C 2.671875 -0.0234375 2.628906 -0.0078125 2.578125 0 C 2.535156 0.0078125 2.488281 0.015625 2.4375 0.015625 C 2.289062 0.015625 2.179688 -0.015625 2.109375 -0.078125 C 2.035156 -0.140625 1.988281 -0.234375 1.96875 -0.359375 L 1.90625 -0.375 C 1.832031 -0.226562 1.726562 -0.117188 1.59375 -0.046875 C 1.46875 0.015625 1.304688 0.046875 1.109375 0.046875 Z M 1.203125 -0.265625 C 1.347656 -0.265625 1.472656 -0.296875 1.578125 -0.359375 C 1.691406 -0.429688 1.773438 -0.53125 1.828125 -0.65625 C 1.890625 -0.78125 1.921875 -0.925781 1.921875 -1.09375 L 1.921875 -1.4375 L 1.875 -1.453125 C 1.820312 -1.410156 1.75 -1.375 1.65625 -1.34375 C 1.570312 -1.3125 1.453125 -1.285156 1.296875 -1.265625 C 1.140625 -1.242188 1.015625 -1.207031 0.921875 -1.15625 C 0.835938 -1.113281 0.773438 -1.0625 0.734375 -1 C 0.691406 -0.9375 0.671875 -0.851562 0.671875 -0.75 C 0.671875 -0.59375 0.71875 -0.472656 0.8125 -0.390625 C 0.90625 -0.304688 1.035156 -0.265625 1.203125 -0.265625 Z M 1.203125 -0.265625 "/></g></g><g transform="translate(7.577042, 6.382531)"><g><path d="M 1.546875 0.046875 C 1.304688 0.046875 1.09375 -0.00390625 0.90625 -0.109375 C 0.71875 -0.222656 0.566406 -0.382812 0.453125 -0.59375 C 0.347656 -0.800781 0.296875 -1.050781 0.296875 -1.34375 C 0.296875 -1.632812 0.347656 -1.882812 0.453125 -2.09375 C 0.566406 -2.3125 0.71875 -2.472656 0.90625 -2.578125 C 1.09375 -2.691406 1.304688 -2.75 1.546875 -2.75 C 1.828125 -2.75 2.050781 -2.691406 2.21875 -2.578125 C 2.394531 -2.472656 2.519531 -2.332031 2.59375 -2.15625 L 2.3125 -1.953125 L 2.265625 -1.953125 C 2.191406 -2.109375 2.097656 -2.21875 1.984375 -2.28125 C 1.867188 -2.351562 1.722656 -2.390625 1.546875 -2.390625 C 1.378906 -2.390625 1.234375 -2.347656 1.109375 -2.265625 C 0.984375 -2.191406 0.882812 -2.078125 0.8125 -1.921875 C 0.75 -1.765625 0.71875 -1.570312 0.71875 -1.34375 C 0.71875 -1.125 0.75 -0.9375 0.8125 -0.78125 C 0.882812 -0.625 0.984375 -0.503906 1.109375 -0.421875 C 1.234375 -0.347656 1.378906 -0.3125 1.546875 -0.3125 C 1.734375 -0.3125 1.882812 -0.351562 2 -0.4375 C 2.125 -0.519531 2.222656 -0.648438 2.296875 -0.828125 L 2.34375 -0.828125 L 2.609375 -0.671875 C 2.535156 -0.453125 2.410156 -0.273438 2.234375 -0.140625 C 2.054688 -0.015625 1.828125 0.046875 1.546875 0.046875 Z M 1.546875 0.046875 "/></g></g><g transform="translate(10.352922, 6.382531)"><g><path d="M 1.109375 0.046875 C 0.847656 0.046875 0.640625 -0.0195312 0.484375 -0.15625 C 0.335938 -0.289062 0.265625 -0.488281 0.265625 -0.75 C 0.265625 -0.90625 0.296875 -1.035156 0.359375 -1.140625 C 0.429688 -1.253906 0.535156 -1.347656 0.671875 -1.421875 C 0.804688 -1.492188 0.988281 -1.546875 1.21875 -1.578125 C 1.40625 -1.609375 1.550781 -1.644531 1.65625 -1.6875 C 1.757812 -1.726562 1.828125 -1.773438 1.859375 -1.828125 C 1.898438 -1.878906 1.921875 -1.941406 1.921875 -2.015625 C 1.921875 -2.140625 1.878906 -2.234375 1.796875 -2.296875 C 1.710938 -2.359375 1.578125 -2.390625 1.390625 -2.390625 C 1.210938 -2.390625 1.0625 -2.351562 0.9375 -2.28125 C 0.8125 -2.21875 0.695312 -2.125 0.59375 -2 L 0.546875 -2 L 0.359375 -2.265625 C 0.460938 -2.410156 0.601562 -2.523438 0.78125 -2.609375 C 0.957031 -2.703125 1.160156 -2.75 1.390625 -2.75 C 1.703125 -2.75 1.929688 -2.675781 2.078125 -2.53125 C 2.234375 -2.394531 2.3125 -2.203125 2.3125 -1.953125 L 2.3125 -0.53125 C 2.3125 -0.382812 2.375 -0.3125 2.5 -0.3125 C 2.539062 -0.3125 2.582031 -0.316406 2.625 -0.328125 L 2.65625 -0.3125 L 2.703125 -0.046875 C 2.671875 -0.0234375 2.628906 -0.0078125 2.578125 0 C 2.535156 0.0078125 2.488281 0.015625 2.4375 0.015625 C 2.289062 0.015625 2.179688 -0.015625 2.109375 -0.078125 C 2.035156 -0.140625 1.988281 -0.234375 1.96875 -0.359375 L 1.90625 -0.375 C 1.832031 -0.226562 1.726562 -0.117188 1.59375 -0.046875 C 1.46875 0.015625 1.304688 0.046875 1.109375 0.046875 Z M 1.203125 -0.265625 C 1.347656 -0.265625 1.472656 -0.296875 1.578125 -0.359375 C 1.691406 -0.429688 1.773438 -0.53125 1.828125 -0.65625 C 1.890625 -0.78125 1.921875 -0.925781 1.921875 -1.09375 L 1.921875 -1.4375 L 1.875 -1.453125 C 1.820312 -1.410156 1.75 -1.375 1.65625 -1.34375 C 1.570312 -1.3125 1.453125 -1.285156 1.296875 -1.265625 C 1.140625 -1.242188 1.015625 -1.207031 0.921875 -1.15625 C 0.835938 -1.113281 0.773438 -1.0625 0.734375 -1 C 0.691406 -0.9375 0.671875 -0.851562 0.671875 -0.75 C 0.671875 -0.59375 0.71875 -0.472656 0.8125 -0.390625 C 0.90625 -0.304688 1.035156 -0.265625 1.203125 -0.265625 Z M 1.203125 -0.265625 "/></g></g><g transform="translate(13.138567, 6.382531)"><g><path d="M 1.390625 0.046875 C 1.179688 0.046875 0.992188 -0.00390625 0.828125 -0.109375 C 0.660156 -0.210938 0.53125 -0.367188 0.4375 -0.578125 C 0.34375 -0.785156 0.296875 -1.039062 0.296875 -1.34375 C 0.296875 -1.65625 0.34375 -1.914062 0.4375 -2.125 C 0.539062 -2.332031 0.675781 -2.488281 0.84375 -2.59375 C 1.019531 -2.695312 1.21875 -2.75 1.4375 -2.75 C 1.625 -2.75 1.785156 -2.710938 1.921875 -2.640625 C 2.066406 -2.578125 2.191406 -2.46875 2.296875 -2.3125 L 2.34375 -2.3125 L 2.34375 -3.78125 L 2.75 -3.78125 L 2.75 0 L 2.34375 0 L 2.34375 -0.390625 L 2.296875 -0.40625 C 2.203125 -0.269531 2.082031 -0.160156 1.9375 -0.078125 C 1.789062 0.00390625 1.609375 0.046875 1.390625 0.046875 Z M 1.515625 -0.3125 C 1.765625 -0.3125 1.960938 -0.394531 2.109375 -0.5625 C 2.265625 -0.738281 2.34375 -1 2.34375 -1.34375 C 2.34375 -1.695312 2.265625 -1.957031 2.109375 -2.125 C 1.960938 -2.300781 1.765625 -2.390625 1.515625 -2.390625 C 1.265625 -2.390625 1.066406 -2.304688 0.921875 -2.140625 C 0.785156 -1.972656 0.71875 -1.707031 0.71875 -1.34375 C 0.71875 -0.65625 0.984375 -0.3125 1.515625 -0.3125 Z M 1.515625 -0.3125 "/></g></g><g transform="translate(16.353901, 6.382531)"><g><path d="M 1.109375 0.046875 C 0.847656 0.046875 0.640625 -0.0195312 0.484375 -0.15625 C 0.335938 -0.289062 0.265625 -0.488281 0.265625 -0.75 C 0.265625 -0.90625 0.296875 -1.035156 0.359375 -1.140625 C 0.429688 -1.253906 0.535156 -1.347656 0.671875 -1.421875 C 0.804688 -1.492188 0.988281 -1.546875 1.21875 -1.578125 C 1.40625 -1.609375 1.550781 -1.644531 1.65625 -1.6875 C 1.757812 -1.726562 1.828125 -1.773438 1.859375 -1.828125 C 1.898438 -1.878906 1.921875 -1.941406 1.921875 -2.015625 C 1.921875 -2.140625 1.878906 -2.234375 1.796875 -2.296875 C 1.710938 -2.359375 1.578125 -2.390625 1.390625 -2.390625 C 1.210938 -2.390625 1.0625 -2.351562 0.9375 -2.28125 C 0.8125 -2.21875 0.695312 -2.125 0.59375 -2 L 0.546875 -2 L 0.359375 -2.265625 C 0.460938 -2.410156 0.601562 -2.523438 0.78125 -2.609375 C 0.957031 -2.703125 1.160156 -2.75 1.390625 -2.75 C 1.703125 -2.75 1.929688 -2.675781 2.078125 -2.53125 C 2.234375 -2.394531 2.3125 -2.203125 2.3125 -1.953125 L 2.3125 -0.53125 C 2.3125 -0.382812 2.375 -0.3125 2.5 -0.3125 C 2.539062 -0.3125 2.582031 -0.316406 2.625 -0.328125 L 2.65625 -0.3125 L 2.703125 -0.046875 C 2.671875 -0.0234375 2.628906 -0.0078125 2.578125 0 C 2.535156 0.0078125 2.488281 0.015625 2.4375 0.015625 C 2.289062 0.015625 2.179688 -0.015625 2.109375 -0.078125 C 2.035156 -0.140625 1.988281 -0.234375 1.96875 -0.359375 L 1.90625 -0.375 C 1.832031 -0.226562 1.726562 -0.117188 1.59375 -0.046875 C 1.46875 0.015625 1.304688 0.046875 1.109375 0.046875 Z M 1.203125 -0.265625 C 1.347656 -0.265625 1.472656 -0.296875 1.578125 -0.359375 C 1.691406 -0.429688 1.773438 -0.53125 1.828125 -0.65625 C 1.890625 -0.78125 1.921875 -0.925781 1.921875 -1.09375 L 1.921875 -1.4375 L 1.875 -1.453125 C 1.820312 -1.410156 1.75 -1.375 1.65625 -1.34375 C 1.570312 -1.3125 1.453125 -1.285156 1.296875 -1.265625 C 1.140625 -1.242188 1.015625 -1.207031 0.921875 -1.15625 C 0.835938 -1.113281 0.773438 -1.0625 0.734375 -1 C 0.691406 -0.9375 0.671875 -0.851562 0.671875 -0.75 C 0.671875 -0.59375 0.71875 -0.472656 0.8125 -0.390625 C 0.90625 -0.304688 1.035156 -0.265625 1.203125 -0.265625 Z M 1.203125 -0.265625 "/></g></g><g transform="translate(19.139546, 6.382531)"><g><path d="M 0.46875 0 L 0.46875 -2.6875 L 0.84375 -2.6875 L 0.84375 -2.296875 L 0.90625 -2.28125 C 0.988281 -2.4375 1.09375 -2.550781 1.21875 -2.625 C 1.351562 -2.707031 1.507812 -2.75 1.6875 -2.75 C 1.894531 -2.75 2.054688 -2.707031 2.171875 -2.625 C 2.285156 -2.539062 2.375 -2.414062 2.4375 -2.25 L 2.5 -2.25 C 2.59375 -2.40625 2.707031 -2.523438 2.84375 -2.609375 C 2.976562 -2.703125 3.144531 -2.75 3.34375 -2.75 C 3.613281 -2.75 3.816406 -2.671875 3.953125 -2.515625 C 4.085938 -2.367188 4.15625 -2.144531 4.15625 -1.84375 L 4.15625 0 L 3.765625 0 L 3.765625 -1.828125 C 3.765625 -2.023438 3.722656 -2.164062 3.640625 -2.25 C 3.554688 -2.34375 3.425781 -2.390625 3.25 -2.390625 C 3.03125 -2.390625 2.851562 -2.3125 2.71875 -2.15625 C 2.582031 -2 2.515625 -1.742188 2.515625 -1.390625 L 2.515625 0 L 2.109375 0 L 2.109375 -1.828125 C 2.109375 -2.023438 2.066406 -2.164062 1.984375 -2.25 C 1.910156 -2.34375 1.78125 -2.390625 1.59375 -2.390625 C 1.382812 -2.390625 1.207031 -2.3125 1.0625 -2.15625 C 0.925781 -2.007812 0.859375 -1.769531 0.859375 -1.4375 L 0.859375 0 Z M 0.46875 0 "/></g></g><g transform="translate(23.729392, 6.382531)"><g><path d="M 0.671875 -3.21875 C 0.585938 -3.21875 0.519531 -3.242188 0.46875 -3.296875 C 0.414062 -3.347656 0.390625 -3.414062 0.390625 -3.5 C 0.390625 -3.570312 0.414062 -3.632812 0.46875 -3.6875 C 0.519531 -3.75 0.585938 -3.78125 0.671875 -3.78125 C 0.753906 -3.78125 0.820312 -3.75 0.875 -3.6875 C 0.925781 -3.632812 0.953125 -3.570312 0.953125 -3.5 C 0.953125 -3.414062 0.925781 -3.347656 0.875 -3.296875 C 0.820312 -3.242188 0.753906 -3.21875 0.671875 -3.21875 Z M 0.46875 0 L 0.46875 -2.6875 L 0.859375 -2.6875 L 0.859375 0 Z M 0.46875 0 "/></g></g><g transform="translate(25.064842, 6.382531)"><g><path d="M 1.109375 0.046875 C 0.847656 0.046875 0.640625 -0.0195312 0.484375 -0.15625 C 0.335938 -0.289062 0.265625 -0.488281 0.265625 -0.75 C 0.265625 -0.90625 0.296875 -1.035156 0.359375 -1.140625 C 0.429688 -1.253906 0.535156 -1.347656 0.671875 -1.421875 C 0.804688 -1.492188 0.988281 -1.546875 1.21875 -1.578125 C 1.40625 -1.609375 1.550781 -1.644531 1.65625 -1.6875 C 1.757812 -1.726562 1.828125 -1.773438 1.859375 -1.828125 C 1.898438 -1.878906 1.921875 -1.941406 1.921875 -2.015625 C 1.921875 -2.140625 1.878906 -2.234375 1.796875 -2.296875 C 1.710938 -2.359375 1.578125 -2.390625 1.390625 -2.390625 C 1.210938 -2.390625 1.0625 -2.351562 0.9375 -2.28125 C 0.8125 -2.21875 0.695312 -2.125 0.59375 -2 L 0.546875 -2 L 0.359375 -2.265625 C 0.460938 -2.410156 0.601562 -2.523438 0.78125 -2.609375 C 0.957031 -2.703125 1.160156 -2.75 1.390625 -2.75 C 1.703125 -2.75 1.929688 -2.675781 2.078125 -2.53125 C 2.234375 -2.394531 2.3125 -2.203125 2.3125 -1.953125 L 2.3125 -0.53125 C 2.3125 -0.382812 2.375 -0.3125 2.5 -0.3125 C 2.539062 -0.3125 2.582031 -0.316406 2.625 -0.328125 L 2.65625 -0.3125 L 2.703125 -0.046875 C 2.671875 -0.0234375 2.628906 -0.0078125 2.578125 0 C 2.535156 0.0078125 2.488281 0.015625 2.4375 0.015625 C 2.289062 0.015625 2.179688 -0.015625 2.109375 -0.078125 C 2.035156 -0.140625 1.988281 -0.234375 1.96875 -0.359375 L 1.90625 -0.375 C 1.832031 -0.226562 1.726562 -0.117188 1.59375 -0.046875 C 1.46875 0.015625 1.304688 0.046875 1.109375 0.046875 Z M 1.203125 -0.265625 C 1.347656 -0.265625 1.472656 -0.296875 1.578125 -0.359375 C 1.691406 -0.429688 1.773438 -0.53125 1.828125 -0.65625 C 1.890625 -0.78125 1.921875 -0.925781 1.921875 -1.09375 L 1.921875 -1.4375 L 1.875 -1.453125 C 1.820312 -1.410156 1.75 -1.375 1.65625 -1.34375 C 1.570312 -1.3125 1.453125 -1.285156 1.296875 -1.265625 C 1.140625 -1.242188 1.015625 -1.207031 0.921875 -1.15625 C 0.835938 -1.113281 0.773438 -1.0625 0.734375 -1 C 0.691406 -0.9375 0.671875 -0.851562 0.671875 -0.75 C 0.671875 -0.59375 0.71875 -0.472656 0.8125 -0.390625 C 0.90625 -0.304688 1.035156 -0.265625 1.203125 -0.265625 Z M 1.203125 -0.265625 "/></g></g><g transform="translate(27.850487, 6.382531)"><g/></g><g transform="translate(29.076074, 6.382531)"><g><path d="M 1.5625 0.046875 C 1.332031 0.046875 1.128906 0.0195312 0.953125 -0.03125 C 0.773438 -0.09375 0.625 -0.175781 0.5 -0.28125 C 0.382812 -0.382812 0.300781 -0.492188 0.25 -0.609375 L 0.46875 -0.890625 L 0.53125 -0.890625 C 0.75 -0.515625 1.09375 -0.328125 1.5625 -0.328125 C 1.832031 -0.328125 2.03125 -0.382812 2.15625 -0.5 C 2.289062 -0.613281 2.359375 -0.769531 2.359375 -0.96875 C 2.359375 -1.082031 2.335938 -1.179688 2.296875 -1.265625 C 2.253906 -1.347656 2.179688 -1.414062 2.078125 -1.46875 C 1.972656 -1.53125 1.835938 -1.582031 1.671875 -1.625 L 1.25 -1.71875 C 0.9375 -1.800781 0.707031 -1.921875 0.5625 -2.078125 C 0.414062 -2.242188 0.34375 -2.453125 0.34375 -2.703125 C 0.34375 -2.878906 0.390625 -3.035156 0.484375 -3.171875 C 0.578125 -3.316406 0.707031 -3.425781 0.875 -3.5 C 1.050781 -3.582031 1.265625 -3.625 1.515625 -3.625 C 1.785156 -3.625 2.007812 -3.582031 2.1875 -3.5 C 2.375 -3.425781 2.523438 -3.316406 2.640625 -3.171875 L 2.4375 -2.890625 L 2.375 -2.890625 C 2.269531 -3.015625 2.144531 -3.101562 2 -3.15625 C 1.863281 -3.21875 1.703125 -3.25 1.515625 -3.25 C 1.265625 -3.25 1.078125 -3.203125 0.953125 -3.109375 C 0.828125 -3.015625 0.765625 -2.882812 0.765625 -2.71875 C 0.765625 -2.550781 0.8125 -2.421875 0.90625 -2.328125 C 1 -2.234375 1.15625 -2.160156 1.375 -2.109375 L 1.796875 -2 C 2.140625 -1.914062 2.390625 -1.789062 2.546875 -1.625 C 2.703125 -1.457031 2.78125 -1.242188 2.78125 -0.984375 C 2.78125 -0.785156 2.734375 -0.609375 2.640625 -0.453125 C 2.554688 -0.296875 2.421875 -0.171875 2.234375 -0.078125 C 2.054688 0.00390625 1.832031 0.046875 1.5625 0.046875 Z M 1.5625 0.046875 "/></g></g><g transform="translate(32.135157, 6.382531)"><g><path d="M 0.46875 1.09375 L 0.46875 -2.6875 L 0.859375 -2.6875 L 0.859375 -2.296875 L 0.921875 -2.28125 C 1.117188 -2.59375 1.410156 -2.75 1.796875 -2.75 C 2.023438 -2.75 2.222656 -2.695312 2.390625 -2.59375 C 2.554688 -2.488281 2.6875 -2.332031 2.78125 -2.125 C 2.875 -1.914062 2.921875 -1.65625 2.921875 -1.34375 C 2.921875 -1.039062 2.867188 -0.785156 2.765625 -0.578125 C 2.671875 -0.367188 2.535156 -0.210938 2.359375 -0.109375 C 2.191406 -0.00390625 1.992188 0.046875 1.765625 0.046875 C 1.585938 0.046875 1.425781 0.015625 1.28125 -0.046875 C 1.144531 -0.109375 1.023438 -0.210938 0.921875 -0.359375 L 0.859375 -0.34375 L 0.859375 1.09375 Z M 1.6875 -0.3125 C 2.226562 -0.3125 2.5 -0.65625 2.5 -1.34375 C 2.5 -2.039062 2.226562 -2.390625 1.6875 -2.390625 C 1.519531 -2.390625 1.375 -2.351562 1.25 -2.28125 C 1.132812 -2.207031 1.039062 -2.09375 0.96875 -1.9375 C 0.894531 -1.78125 0.859375 -1.582031 0.859375 -1.34375 C 0.859375 -1.101562 0.894531 -0.90625 0.96875 -0.75 C 1.039062 -0.601562 1.132812 -0.492188 1.25 -0.421875 C 1.375 -0.347656 1.519531 -0.3125 1.6875 -0.3125 Z M 1.6875 -0.3125 "/></g></g><g transform="translate(35.348049, 6.382531)"><g><path d="M 2.5625 -1.25 L 0.71875 -1.25 C 0.726562 -0.925781 0.804688 -0.6875 0.953125 -0.53125 C 1.097656 -0.382812 1.296875 -0.3125 1.546875 -0.3125 C 1.742188 -0.3125 1.898438 -0.34375 2.015625 -0.40625 C 2.128906 -0.476562 2.222656 -0.585938 2.296875 -0.734375 L 2.34375 -0.734375 L 2.59375 -0.578125 C 2.519531 -0.378906 2.394531 -0.222656 2.21875 -0.109375 C 2.050781 -0.00390625 1.828125 0.046875 1.546875 0.046875 C 1.285156 0.046875 1.0625 0 0.875 -0.09375 C 0.6875 -0.195312 0.539062 -0.351562 0.4375 -0.5625 C 0.34375 -0.769531 0.296875 -1.03125 0.296875 -1.34375 C 0.296875 -1.644531 0.347656 -1.898438 0.453125 -2.109375 C 0.554688 -2.328125 0.703125 -2.488281 0.890625 -2.59375 C 1.078125 -2.695312 1.289062 -2.75 1.53125 -2.75 C 1.875 -2.75 2.140625 -2.648438 2.328125 -2.453125 C 2.523438 -2.253906 2.625 -1.96875 2.625 -1.59375 C 2.625 -1.4375 2.625 -1.332031 2.625 -1.28125 Z M 2.234375 -1.59375 C 2.222656 -1.875 2.15625 -2.078125 2.03125 -2.203125 C 1.914062 -2.335938 1.75 -2.40625 1.53125 -2.40625 C 1.289062 -2.40625 1.101562 -2.335938 0.96875 -2.203125 C 0.832031 -2.078125 0.75 -1.875 0.71875 -1.59375 Z M 2.234375 -1.59375 "/></g></g><g transform="translate(38.219144, 6.382531)"><g><path d="M 1.546875 0.046875 C 1.304688 0.046875 1.09375 -0.00390625 0.90625 -0.109375 C 0.71875 -0.222656 0.566406 -0.382812 0.453125 -0.59375 C 0.347656 -0.800781 0.296875 -1.050781 0.296875 -1.34375 C 0.296875 -1.632812 0.347656 -1.882812 0.453125 -2.09375 C 0.566406 -2.3125 0.71875 -2.472656 0.90625 -2.578125 C 1.09375 -2.691406 1.304688 -2.75 1.546875 -2.75 C 1.828125 -2.75 2.050781 -2.691406 2.21875 -2.578125 C 2.394531 -2.472656 2.519531 -2.332031 2.59375 -2.15625 L 2.3125 -1.953125 L 2.265625 -1.953125 C 2.191406 -2.109375 2.097656 -2.21875 1.984375 -2.28125 C 1.867188 -2.351562 1.722656 -2.390625 1.546875 -2.390625 C 1.378906 -2.390625 1.234375 -2.347656 1.109375 -2.265625 C 0.984375 -2.191406 0.882812 -2.078125 0.8125 -1.921875 C 0.75 -1.765625 0.71875 -1.570312 0.71875 -1.34375 C 0.71875 -1.125 0.75 -0.9375 0.8125 -0.78125 C 0.882812 -0.625 0.984375 -0.503906 1.109375 -0.421875 C 1.234375 -0.347656 1.378906 -0.3125 1.546875 -0.3125 C 1.734375 -0.3125 1.882812 -0.351562 2 -0.4375 C 2.125 -0.519531 2.222656 -0.648438 2.296875 -0.828125 L 2.34375 -0.828125 L 2.609375 -0.671875 C 2.535156 -0.453125 2.410156 -0.273438 2.234375 -0.140625 C 2.054688 -0.015625 1.828125 0.046875 1.546875 0.046875 Z M 1.546875 0.046875 "/></g></g><g transform="translate(40.995024, 6.382531)"><g><path d="M 0.671875 -3.21875 C 0.585938 -3.21875 0.519531 -3.242188 0.46875 -3.296875 C 0.414062 -3.347656 0.390625 -3.414062 0.390625 -3.5 C 0.390625 -3.570312 0.414062 -3.632812 0.46875 -3.6875 C 0.519531 -3.75 0.585938 -3.78125 0.671875 -3.78125 C 0.753906 -3.78125 0.820312 -3.75 0.875 -3.6875 C 0.925781 -3.632812 0.953125 -3.570312 0.953125 -3.5 C 0.953125 -3.414062 0.925781 -3.347656 0.875 -3.296875 C 0.820312 -3.242188 0.753906 -3.21875 0.671875 -3.21875 Z M 0.46875 0 L 0.46875 -2.6875 L 0.859375 -2.6875 L 0.859375 0 Z M 0.46875 0 "/></g></g><g transform="translate(42.330474, 6.382531)"><g><path d="M 0.59375 0 L 0.59375 -2.375 L 0.125 -2.375 L 0.125 -2.703125 L 0.59375 -2.703125 C 0.570312 -2.816406 0.5625 -2.925781 0.5625 -3.03125 C 0.5625 -3.207031 0.597656 -3.351562 0.671875 -3.46875 C 0.742188 -3.59375 0.84375 -3.679688 0.96875 -3.734375 C 1.101562 -3.796875 1.257812 -3.828125 1.4375 -3.828125 C 1.707031 -3.828125 1.910156 -3.769531 2.046875 -3.65625 L 1.890625 -3.375 L 1.84375 -3.359375 C 1.738281 -3.441406 1.601562 -3.484375 1.4375 -3.484375 C 1.28125 -3.484375 1.160156 -3.441406 1.078125 -3.359375 C 0.992188 -3.285156 0.953125 -3.171875 0.953125 -3.015625 C 0.953125 -2.921875 0.96875 -2.816406 1 -2.703125 L 1.859375 -2.703125 L 1.859375 -2.375 L 1 -2.375 L 1 0 Z M 0.59375 0 "/></g></g><g transform="translate(44.24942, 6.382531)"><g><path d="M 0.671875 -3.21875 C 0.585938 -3.21875 0.519531 -3.242188 0.46875 -3.296875 C 0.414062 -3.347656 0.390625 -3.414062 0.390625 -3.5 C 0.390625 -3.570312 0.414062 -3.632812 0.46875 -3.6875 C 0.519531 -3.75 0.585938 -3.78125 0.671875 -3.78125 C 0.753906 -3.78125 0.820312 -3.75 0.875 -3.6875 C 0.925781 -3.632812 0.953125 -3.570312 0.953125 -3.5 C 0.953125 -3.414062 0.925781 -3.347656 0.875 -3.296875 C 0.820312 -3.242188 0.753906 -3.21875 0.671875 -3.21875 Z M 0.46875 0 L 0.46875 -2.6875 L 0.859375 -2.6875 L 0.859375 0 Z M 0.46875 0 "/></g></g><g transform="translate(45.584869, 6.382531)"><g><path d="M 1.546875 0.046875 C 1.304688 0.046875 1.09375 -0.00390625 0.90625 -0.109375 C 0.71875 -0.222656 0.566406 -0.382812 0.453125 -0.59375 C 0.347656 -0.800781 0.296875 -1.050781 0.296875 -1.34375 C 0.296875 -1.632812 0.347656 -1.882812 0.453125 -2.09375 C 0.566406 -2.3125 0.71875 -2.472656 0.90625 -2.578125 C 1.09375 -2.691406 1.304688 -2.75 1.546875 -2.75 C 1.828125 -2.75 2.050781 -2.691406 2.21875 -2.578125 C 2.394531 -2.472656 2.519531 -2.332031 2.59375 -2.15625 L 2.3125 -1.953125 L 2.265625 -1.953125 C 2.191406 -2.109375 2.097656 -2.21875 1.984375 -2.28125 C 1.867188 -2.351562 1.722656 -2.390625 1.546875 -2.390625 C 1.378906 -2.390625 1.234375 -2.347656 1.109375 -2.265625 C 0.984375 -2.191406 0.882812 -2.078125 0.8125 -1.921875 C 0.75 -1.765625 0.71875 -1.570312 0.71875 -1.34375 C 0.71875 -1.125 0.75 -0.9375 0.8125 -0.78125 C 0.882812 -0.625 0.984375 -0.503906 1.109375 -0.421875 C 1.234375 -0.347656 1.378906 -0.3125 1.546875 -0.3125 C 1.734375 -0.3125 1.882812 -0.351562 2 -0.4375 C 2.125 -0.519531 2.222656 -0.648438 2.296875 -0.828125 L 2.34375 -0.828125 L 2.609375 -0.671875 C 2.535156 -0.453125 2.410156 -0.273438 2.234375 -0.140625 C 2.054688 -0.015625 1.828125 0.046875 1.546875 0.046875 Z M 1.546875 0.046875 "/></g></g></g></g></g></g></svg>