<svg xmlns="http://www.w3.org/2000/svg" xmlns:xlink="http://www.w3.org/1999/xlink" width="160" zoomAndPan="magnify" viewBox="0 0 120 119.999999" height="160" preserveAspectRatio="xMidYMid meet" version="1.0"><defs><g/><clipPath id="39166b1f62"><path d="M 5 3 L 22 3 L 22 10 L 5 10 Z M 5 3 " clip-rule="nonzero"/></clipPath><clipPath id="60c627db1b"><path d="M 19.808594 0.914062 L 22.929688 9.4375 L 7.273438 15.175781 L 4.148438 6.652344 Z M 19.808594 0.914062 " clip-rule="nonzero"/></clipPath><clipPath id="d4f64fe975"><path d="M 19.808594 0.914062 L 22.929688 9.4375 L 7.273438 15.175781 L 4.148438 6.652344 Z M 19.808594 0.914062 " clip-rule="nonzero"/></clipPath><clipPath id="324daa08ac"><path d="M 0.761719 9 L 25.238281 9 L 25.238281 19 L 0.761719 19 Z M 0.761719 9 " clip-rule="nonzero"/></clipPath><clipPath id="c62d6edd72"><rect x="0" width="26" y="0" height="10"/></clipPath><clipPath id="1ea040f119"><path d="M 4 12 L 23 12 L 23 26.441406 L 4 26.441406 Z M 4 12 " clip-rule="nonzero"/></clipPath><clipPath id="a465a6cc65"><path d="M 19.808594 12.074219 L 22.929688 20.597656 L 7.273438 26.335938 L 4.148438 17.8125 Z M 19.808594 12.074219 " clip-rule="nonzero"/></clipPath><clipPath id="980783179a"><path d="M 1 5 L 18 5 L 18 12 L 1 12 Z M 1 5 " clip-rule="nonzero"/></clipPath><clipPath id="c871644ebe"><path d="M 15.808594 0.0742188 L 18.929688 8.597656 L 3.273438 14.335938 L 0.148438 5.8125 Z M 15.808594 0.0742188 " clip-rule="nonzero"/></clipPath><clipPath id="8e012e4ee7"><path d="M 3.273438 14.347656 L 0.148438 5.824219 L 15.808594 0.0859375 L 18.933594 8.609375 Z M 3.273438 14.347656 " clip-rule="nonzero"/></clipPath><clipPath id="87825a7714"><rect x="0" width="19" y="0" height="15"/></clipPath><clipPath id="2e6c2dc06a"><rect x="0" width="26" y="0" height="27"/></clipPath><clipPath id="cd5b0c43bc"><path d="M 68 44 L 80.441406 44 L 80.441406 78 L 68 78 Z M 68 44 " clip-rule="nonzero"/></clipPath><clipPath id="e57bab5121"><path d="M 39.191406 44 L 51 44 L 51 78 L 39.191406 78 Z M 39.191406 44 " clip-rule="nonzero"/></clipPath><clipPath id="6b999cf04e"><path d="M 51 50 L 69 50 L 69 83.4375 L 51 83.4375 Z M 51 50 " clip-rule="nonzero"/></clipPath></defs><rect x="-12" width="144" fill="#ffffff" y="-12" height="143.999998" fill-opacity="1"/><rect x="-12" width="144" fill="#ffffff" y="-12" height="143.999998" fill-opacity="1"/><g transform="matrix(1, 0, 0, 1, 47, 89)"><g clip-path="url(#2e6c2dc06a)"><g clip-path="url(#39166b1f62)"><g clip-path="url(#60c627db1b)"><g clip-path="url(#d4f64fe975)"><path fill="#212121" d="M 21.421875 5.347656 C 21.328125 5.09375 21.230469 4.933594 21.144531 4.917969 C 20.773438 4.863281 20.609375 6.242188 20.539062 7.128906 C 19.863281 6.332031 18.867188 5.441406 17.488281 4.792969 C 16.117188 4.148438 14.511719 3.824219 12.867188 3.960938 C 11.109375 4.105469 9.5 4.761719 8.234375 5.691406 C 6.539062 6.9375 5.65625 8.492188 5.210938 9.53125 C 5.660156 8.484375 6.605469 6.972656 8.332031 5.832031 C 9.621094 4.980469 11.210938 4.4375 12.890625 4.394531 C 14.460938 4.359375 15.945312 4.753906 17.179688 5.417969 C 18.449219 6.097656 19.332031 6.980469 19.929688 7.734375 C 19.046875 7.5625 17.449219 7.300781 17.402344 7.65625 C 17.339844 8.144531 21.203125 10.082031 21.808594 9.636719 C 22.226562 9.324219 21.835938 6.453125 21.421875 5.347656 Z M 21.421875 5.347656 " fill-opacity="1" fill-rule="nonzero"/></g></g></g><g clip-path="url(#324daa08ac)"><g transform="matrix(1, 0, 0, 1, 0, 9)"><g clip-path="url(#c62d6edd72)"><g fill="#000000" fill-opacity="1"><g transform="translate(0.81023, 7.19389)"><g><path d="M 2.28125 0.09375 C 1.875 0.09375 1.484375 0.0390625 1.109375 -0.0625 C 0.734375 -0.175781 0.429688 -0.320312 0.203125 -0.5 L 0.609375 -1.390625 C 0.828125 -1.234375 1.082031 -1.101562 1.375 -1 C 1.675781 -0.90625 1.976562 -0.859375 2.28125 -0.859375 C 2.613281 -0.859375 2.859375 -0.90625 3.015625 -1 C 3.179688 -1.101562 3.265625 -1.238281 3.265625 -1.40625 C 3.265625 -1.53125 3.21875 -1.628906 3.125 -1.703125 C 3.03125 -1.785156 2.910156 -1.847656 2.765625 -1.890625 C 2.617188 -1.941406 2.414062 -2 2.15625 -2.0625 C 1.769531 -2.15625 1.453125 -2.242188 1.203125 -2.328125 C 0.960938 -2.421875 0.753906 -2.570312 0.578125 -2.78125 C 0.398438 -2.988281 0.3125 -3.257812 0.3125 -3.59375 C 0.3125 -3.894531 0.390625 -4.164062 0.546875 -4.40625 C 0.703125 -4.644531 0.941406 -4.832031 1.265625 -4.96875 C 1.585938 -5.113281 1.984375 -5.1875 2.453125 -5.1875 C 2.773438 -5.1875 3.09375 -5.144531 3.40625 -5.0625 C 3.71875 -4.988281 3.988281 -4.878906 4.21875 -4.734375 L 3.859375 -3.84375 C 3.390625 -4.101562 2.921875 -4.234375 2.453125 -4.234375 C 2.117188 -4.234375 1.875 -4.179688 1.71875 -4.078125 C 1.5625 -3.972656 1.484375 -3.832031 1.484375 -3.65625 C 1.484375 -3.476562 1.570312 -3.347656 1.75 -3.265625 C 1.9375 -3.179688 2.210938 -3.097656 2.578125 -3.015625 C 2.972656 -2.921875 3.289062 -2.828125 3.53125 -2.734375 C 3.78125 -2.640625 3.992188 -2.492188 4.171875 -2.296875 C 4.347656 -2.097656 4.4375 -1.832031 4.4375 -1.5 C 4.4375 -1.207031 4.351562 -0.9375 4.1875 -0.6875 C 4.03125 -0.445312 3.789062 -0.253906 3.46875 -0.109375 C 3.144531 0.0234375 2.75 0.09375 2.28125 0.09375 Z M 2.28125 0.09375 "/></g></g></g><g fill="#000000" fill-opacity="1"><g transform="translate(5.073316, 7.19389)"><g><path d="M 0.53125 -3.921875 L 1.65625 -3.921875 L 1.65625 0 L 0.53125 0 Z M 1.09375 -4.46875 C 0.882812 -4.46875 0.710938 -4.523438 0.578125 -4.640625 C 0.453125 -4.765625 0.390625 -4.914062 0.390625 -5.09375 C 0.390625 -5.269531 0.453125 -5.421875 0.578125 -5.546875 C 0.710938 -5.671875 0.882812 -5.734375 1.09375 -5.734375 C 1.300781 -5.734375 1.46875 -5.671875 1.59375 -5.546875 C 1.726562 -5.429688 1.796875 -5.289062 1.796875 -5.125 C 1.796875 -4.925781 1.726562 -4.765625 1.59375 -4.640625 C 1.46875 -4.523438 1.300781 -4.46875 1.09375 -4.46875 Z M 1.09375 -4.46875 "/></g></g></g><g fill="#000000" fill-opacity="1"><g transform="translate(6.880514, 7.19389)"><g><path d="M 5.546875 -3.96875 C 6.035156 -3.96875 6.421875 -3.820312 6.703125 -3.53125 C 6.992188 -3.25 7.140625 -2.820312 7.140625 -2.25 L 7.140625 0 L 6 0 L 6 -2.0625 C 6 -2.375 5.9375 -2.609375 5.8125 -2.765625 C 5.6875 -2.921875 5.503906 -3 5.265625 -3 C 4.992188 -3 4.78125 -2.910156 4.625 -2.734375 C 4.46875 -2.554688 4.390625 -2.300781 4.390625 -1.96875 L 4.390625 0 L 3.265625 0 L 3.265625 -2.0625 C 3.265625 -2.6875 3.015625 -3 2.515625 -3 C 2.253906 -3 2.046875 -2.910156 1.890625 -2.734375 C 1.734375 -2.554688 1.65625 -2.300781 1.65625 -1.96875 L 1.65625 0 L 0.53125 0 L 0.53125 -3.921875 L 1.609375 -3.921875 L 1.609375 -3.46875 C 1.753906 -3.632812 1.929688 -3.757812 2.140625 -3.84375 C 2.359375 -3.925781 2.59375 -3.96875 2.84375 -3.96875 C 3.113281 -3.96875 3.359375 -3.910156 3.578125 -3.796875 C 3.804688 -3.691406 3.988281 -3.535156 4.125 -3.328125 C 4.289062 -3.535156 4.492188 -3.691406 4.734375 -3.796875 C 4.984375 -3.910156 5.253906 -3.96875 5.546875 -3.96875 Z M 5.546875 -3.96875 "/></g></g></g><g fill="#000000" fill-opacity="1"><g transform="translate(14.138764, 7.19389)"><g><path d="M 2.84375 -3.96875 C 3.207031 -3.96875 3.535156 -3.882812 3.828125 -3.71875 C 4.128906 -3.550781 4.363281 -3.316406 4.53125 -3.015625 C 4.707031 -2.710938 4.796875 -2.359375 4.796875 -1.953125 C 4.796875 -1.554688 4.707031 -1.203125 4.53125 -0.890625 C 4.363281 -0.585938 4.128906 -0.351562 3.828125 -0.1875 C 3.535156 -0.0195312 3.207031 0.0625 2.84375 0.0625 C 2.34375 0.0625 1.945312 -0.0976562 1.65625 -0.421875 L 1.65625 1.40625 L 0.53125 1.40625 L 0.53125 -3.921875 L 1.609375 -3.921875 L 1.609375 -3.46875 C 1.890625 -3.800781 2.300781 -3.96875 2.84375 -3.96875 Z M 2.640625 -0.875 C 2.929688 -0.875 3.171875 -0.972656 3.359375 -1.171875 C 3.546875 -1.367188 3.640625 -1.628906 3.640625 -1.953125 C 3.640625 -2.285156 3.546875 -2.550781 3.359375 -2.75 C 3.171875 -2.945312 2.929688 -3.046875 2.640625 -3.046875 C 2.347656 -3.046875 2.109375 -2.945312 1.921875 -2.75 C 1.734375 -2.550781 1.640625 -2.285156 1.640625 -1.953125 C 1.640625 -1.628906 1.734375 -1.367188 1.921875 -1.171875 C 2.109375 -0.972656 2.347656 -0.875 2.640625 -0.875 Z M 2.640625 -0.875 "/></g></g></g><g fill="#000000" fill-opacity="1"><g transform="translate(18.7808, 7.19389)"><g><path d="M 0.53125 -5.40625 L 1.65625 -5.40625 L 1.65625 0 L 0.53125 0 Z M 0.53125 -5.40625 "/></g></g></g><g fill="#000000" fill-opacity="1"><g transform="translate(20.587998, 7.19389)"><g><path d="M 4.359375 -1.9375 C 4.359375 -1.925781 4.351562 -1.828125 4.34375 -1.640625 L 1.375 -1.640625 C 1.425781 -1.398438 1.550781 -1.207031 1.75 -1.0625 C 1.945312 -0.925781 2.195312 -0.859375 2.5 -0.859375 C 2.695312 -0.859375 2.875 -0.882812 3.03125 -0.9375 C 3.195312 -1 3.347656 -1.097656 3.484375 -1.234375 L 4.078125 -0.578125 C 3.710938 -0.148438 3.175781 0.0625 2.46875 0.0625 C 2.03125 0.0625 1.640625 -0.0195312 1.296875 -0.1875 C 0.953125 -0.363281 0.6875 -0.601562 0.5 -0.90625 C 0.320312 -1.21875 0.234375 -1.566406 0.234375 -1.953125 C 0.234375 -2.335938 0.320312 -2.679688 0.5 -2.984375 C 0.6875 -3.296875 0.9375 -3.535156 1.25 -3.703125 C 1.570312 -3.878906 1.929688 -3.96875 2.328125 -3.96875 C 2.703125 -3.96875 3.046875 -3.882812 3.359375 -3.71875 C 3.671875 -3.5625 3.914062 -3.328125 4.09375 -3.015625 C 4.269531 -2.710938 4.359375 -2.351562 4.359375 -1.9375 Z M 2.328125 -3.109375 C 2.066406 -3.109375 1.847656 -3.035156 1.671875 -2.890625 C 1.503906 -2.742188 1.398438 -2.546875 1.359375 -2.296875 L 3.296875 -2.296875 C 3.253906 -2.546875 3.144531 -2.742188 2.96875 -2.890625 C 2.789062 -3.035156 2.578125 -3.109375 2.328125 -3.109375 Z M 2.328125 -3.109375 "/></g></g></g></g></g></g><g clip-path="url(#1ea040f119)"><g clip-path="url(#a465a6cc65)"><g transform="matrix(1, 0, 0, 1, 4, 12)"><g clip-path="url(#87825a7714)"><g clip-path="url(#980783179a)"><g clip-path="url(#c871644ebe)"><g clip-path="url(#8e012e4ee7)"><path fill="#212121" d="M 1.65625 9.914062 C 1.753906 10.167969 1.847656 10.328125 1.9375 10.339844 C 2.304688 10.398438 2.472656 9.019531 2.542969 8.132812 C 3.214844 8.929688 4.210938 9.820312 5.589844 10.464844 C 6.960938 11.109375 8.570312 11.433594 10.210938 11.300781 C 11.972656 11.15625 13.578125 10.5 14.847656 9.570312 C 16.539062 8.324219 17.421875 6.769531 17.871094 5.730469 C 17.417969 6.777344 16.472656 8.289062 14.75 9.429688 C 13.460938 10.28125 11.867188 10.824219 10.1875 10.867188 C 8.621094 10.902344 7.136719 10.503906 5.902344 9.84375 C 4.632812 9.164062 3.746094 8.28125 3.152344 7.527344 C 4.03125 7.699219 5.632812 7.960938 5.675781 7.605469 C 5.738281 7.117188 1.875 5.179688 1.269531 5.625 C 0.851562 5.933594 1.242188 8.808594 1.65625 9.914062 Z M 1.65625 9.914062 " fill-opacity="1" fill-rule="nonzero"/></g></g></g></g></g></g></g></g></g><g clip-path="url(#cd5b0c43bc)"><path fill="#000000" d="M 73.539062 77.871094 L 72.855469 77.871094 C 72.664062 77.871094 72.503906 77.800781 72.371094 77.664062 C 72.234375 77.53125 72.167969 77.367188 72.167969 77.171875 C 72.167969 76.980469 72.234375 76.816406 72.371094 76.679688 C 72.503906 76.546875 72.664062 76.476562 72.855469 76.476562 L 73.539062 76.476562 C 73.8125 76.476562 74.078125 76.425781 74.328125 76.316406 C 74.582031 76.210938 74.804688 76.0625 74.996094 75.867188 C 75.1875 75.667969 75.339844 75.445312 75.441406 75.1875 C 75.546875 74.933594 75.597656 74.664062 75.597656 74.386719 L 75.597656 66.730469 C 75.597656 66.539062 75.667969 66.375 75.800781 66.238281 C 75.933594 66.101562 76.097656 66.035156 76.285156 66.035156 C 79 66.035156 79.03125 64.03125 79.03125 63.945312 C 79.03125 59.621094 77 56.175781 73.859375 55.164062 C 73.558594 55.066406 73.398438 54.855469 73.382812 54.535156 C 73.367188 54.210938 73.507812 53.988281 73.796875 53.859375 C 74.0625 53.746094 74.3125 53.601562 74.546875 53.433594 C 74.78125 53.265625 74.996094 53.074219 75.191406 52.859375 C 75.386719 52.644531 75.558594 52.414062 75.707031 52.160156 C 75.855469 51.910156 75.972656 51.648438 76.066406 51.371094 C 76.160156 51.09375 76.222656 50.8125 76.257812 50.523438 C 76.292969 50.230469 76.296875 49.941406 76.269531 49.652344 C 76.246094 49.359375 76.1875 49.074219 76.105469 48.796875 C 76.019531 48.515625 75.90625 48.25 75.769531 47.996094 C 75.628906 47.738281 75.464844 47.5 75.273438 47.28125 C 75.085938 47.0625 74.875 46.863281 74.648438 46.6875 C 74.417969 46.511719 74.171875 46.363281 73.910156 46.238281 C 73.648438 46.117188 73.378906 46.019531 73.097656 45.953125 C 72.820312 45.890625 72.535156 45.851562 72.246094 45.847656 C 71.960938 45.84375 71.675781 45.867188 71.390625 45.921875 C 71.109375 45.976562 70.835938 46.0625 70.570312 46.175781 C 70.304688 46.289062 70.054688 46.429688 69.816406 46.59375 C 69.664062 46.699219 69.492188 46.734375 69.308594 46.699219 C 69.125 46.664062 68.980469 46.570312 68.875 46.414062 C 68.765625 46.257812 68.730469 46.085938 68.761719 45.902344 C 68.792969 45.714844 68.882812 45.566406 69.03125 45.453125 C 69.324219 45.246094 69.628906 45.066406 69.953125 44.921875 C 70.277344 44.773438 70.613281 44.660156 70.957031 44.578125 C 71.304688 44.496094 71.652344 44.449219 72.007812 44.4375 C 72.363281 44.425781 72.714844 44.445312 73.066406 44.503906 C 73.417969 44.5625 73.757812 44.652344 74.09375 44.773438 C 74.425781 44.898438 74.742188 45.054688 75.046875 45.242188 C 75.351562 45.429688 75.632812 45.644531 75.894531 45.886719 C 76.15625 46.128906 76.394531 46.394531 76.605469 46.683594 C 76.816406 46.972656 77 47.277344 77.152344 47.605469 C 77.304688 47.929688 77.425781 48.265625 77.515625 48.613281 C 77.605469 48.960938 77.660156 49.316406 77.679688 49.675781 C 77.699219 50.035156 77.6875 50.394531 77.640625 50.75 C 77.589844 51.105469 77.511719 51.457031 77.394531 51.796875 C 77.28125 52.136719 77.136719 52.464844 76.960938 52.777344 C 76.78125 53.089844 76.578125 53.382812 76.34375 53.652344 C 76.113281 53.925781 75.855469 54.171875 75.578125 54.394531 C 78.550781 56.015625 80.402344 59.605469 80.402344 63.945312 C 80.402344 65.058594 79.664062 67.09375 76.972656 67.390625 L 76.972656 74.386719 C 76.972656 74.851562 76.882812 75.292969 76.710938 75.71875 C 76.535156 76.144531 76.289062 76.523438 75.964844 76.847656 C 75.644531 77.175781 75.273438 77.425781 74.851562 77.601562 C 74.433594 77.78125 73.996094 77.867188 73.539062 77.871094 Z M 73.539062 77.871094 " fill-opacity="1" fill-rule="nonzero"/></g><path fill="#000000" d="M 67.363281 80.652344 L 66.679688 80.652344 C 66.488281 80.652344 66.328125 80.585938 66.195312 80.449219 C 66.058594 80.3125 65.992188 80.148438 65.992188 79.957031 C 65.992188 79.765625 66.058594 79.601562 66.195312 79.464844 C 66.328125 79.328125 66.488281 79.261719 66.679688 79.261719 L 67.363281 79.261719 C 67.636719 79.261719 67.902344 79.207031 68.152344 79.101562 C 68.40625 78.996094 68.628906 78.847656 68.820312 78.648438 C 69.011719 78.453125 69.164062 78.226562 69.265625 77.972656 C 69.371094 77.714844 69.421875 77.449219 69.421875 77.171875 L 69.421875 69.515625 C 69.421875 69.324219 69.492188 69.160156 69.625 69.023438 C 69.757812 68.886719 69.921875 68.820312 70.109375 68.820312 C 72.824219 68.820312 72.855469 66.816406 72.855469 66.730469 C 72.855469 62.40625 70.824219 58.957031 67.683594 57.949219 C 67.382812 57.851562 67.222656 57.640625 67.207031 57.316406 C 67.191406 56.996094 67.332031 56.773438 67.621094 56.644531 C 67.886719 56.527344 68.136719 56.386719 68.371094 56.21875 C 68.605469 56.050781 68.820312 55.859375 69.015625 55.644531 C 69.210938 55.429688 69.382812 55.195312 69.53125 54.945312 C 69.675781 54.695312 69.796875 54.433594 69.890625 54.15625 C 69.984375 53.878906 70.046875 53.597656 70.082031 53.304688 C 70.117188 53.015625 70.121094 52.726562 70.09375 52.433594 C 70.070312 52.144531 70.011719 51.859375 69.929688 51.582031 C 69.84375 51.300781 69.730469 51.035156 69.59375 50.78125 C 69.453125 50.523438 69.289062 50.285156 69.097656 50.066406 C 68.910156 49.847656 68.699219 49.648438 68.472656 49.472656 C 68.242188 49.296875 67.996094 49.148438 67.734375 49.023438 C 67.472656 48.898438 67.203125 48.804688 66.921875 48.738281 C 66.644531 48.671875 66.359375 48.636719 66.070312 48.632812 C 65.785156 48.625 65.5 48.652344 65.214844 48.707031 C 64.933594 48.761719 64.660156 48.847656 64.394531 48.960938 C 64.128906 49.074219 63.878906 49.210938 63.640625 49.378906 C 63.488281 49.496094 63.3125 49.535156 63.125 49.503906 C 62.933594 49.472656 62.785156 49.375 62.675781 49.214844 C 62.566406 49.054688 62.527344 48.878906 62.5625 48.6875 C 62.601562 48.496094 62.699219 48.347656 62.855469 48.238281 C 63.148438 48.03125 63.453125 47.851562 63.777344 47.707031 C 64.101562 47.558594 64.4375 47.445312 64.78125 47.363281 C 65.128906 47.28125 65.476562 47.234375 65.832031 47.222656 C 66.1875 47.210938 66.539062 47.230469 66.890625 47.289062 C 67.242188 47.34375 67.582031 47.4375 67.917969 47.558594 C 68.25 47.683594 68.566406 47.839844 68.871094 48.027344 C 69.175781 48.214844 69.457031 48.425781 69.71875 48.671875 C 69.980469 48.914062 70.21875 49.179688 70.429688 49.46875 C 70.640625 49.757812 70.824219 50.0625 70.976562 50.386719 C 71.128906 50.714844 71.25 51.050781 71.339844 51.398438 C 71.429688 51.746094 71.484375 52.101562 71.503906 52.460938 C 71.523438 52.820312 71.511719 53.179688 71.464844 53.535156 C 71.414062 53.890625 71.335938 54.242188 71.21875 54.582031 C 71.105469 54.921875 70.960938 55.25 70.785156 55.5625 C 70.605469 55.875 70.402344 56.164062 70.167969 56.4375 C 69.9375 56.710938 69.679688 56.957031 69.402344 57.175781 C 72.375 58.800781 74.226562 62.386719 74.226562 66.730469 C 74.226562 67.84375 73.488281 69.878906 70.796875 70.175781 L 70.796875 77.171875 C 70.796875 77.632812 70.707031 78.078125 70.535156 78.503906 C 70.359375 78.929688 70.113281 79.308594 69.789062 79.632812 C 69.46875 79.960938 69.097656 80.210938 68.675781 80.386719 C 68.257812 80.566406 67.820312 80.652344 67.363281 80.652344 Z M 67.363281 80.652344 " fill-opacity="1" fill-rule="nonzero"/><g clip-path="url(#e57bab5121)"><path fill="#000000" d="M 46.777344 77.871094 L 46.09375 77.871094 C 45.636719 77.867188 45.199219 77.78125 44.78125 77.601562 C 44.359375 77.425781 43.988281 77.175781 43.667969 76.847656 C 43.347656 76.523438 43.097656 76.144531 42.921875 75.71875 C 42.75 75.292969 42.660156 74.851562 42.660156 74.386719 L 42.660156 67.390625 C 39.96875 67.09375 39.230469 65.058594 39.230469 63.945312 C 39.230469 59.605469 41.082031 56.015625 44.058594 54.394531 C 43.777344 54.171875 43.523438 53.925781 43.289062 53.652344 C 43.058594 53.382812 42.851562 53.089844 42.675781 52.777344 C 42.5 52.464844 42.355469 52.136719 42.238281 51.796875 C 42.125 51.457031 42.042969 51.105469 41.996094 50.75 C 41.949219 50.394531 41.933594 50.035156 41.957031 49.675781 C 41.976562 49.316406 42.03125 48.960938 42.121094 48.613281 C 42.207031 48.265625 42.328125 47.929688 42.480469 47.605469 C 42.636719 47.277344 42.816406 46.972656 43.027344 46.683594 C 43.242188 46.394531 43.476562 46.128906 43.738281 45.886719 C 44.003906 45.644531 44.285156 45.429688 44.589844 45.242188 C 44.890625 45.054688 45.210938 44.898438 45.542969 44.773438 C 45.875 44.652344 46.21875 44.5625 46.570312 44.503906 C 46.917969 44.445312 47.273438 44.425781 47.625 44.4375 C 47.980469 44.449219 48.332031 44.496094 48.675781 44.578125 C 49.023438 44.660156 49.359375 44.773438 49.679688 44.921875 C 50.003906 45.066406 50.3125 45.246094 50.601562 45.453125 C 50.761719 45.5625 50.859375 45.710938 50.894531 45.902344 C 50.929688 46.09375 50.894531 46.269531 50.785156 46.429688 C 50.675781 46.589844 50.523438 46.6875 50.335938 46.71875 C 50.144531 46.75 49.972656 46.710938 49.816406 46.59375 C 49.582031 46.429688 49.332031 46.289062 49.066406 46.175781 C 48.800781 46.0625 48.527344 45.976562 48.242188 45.921875 C 47.960938 45.867188 47.675781 45.84375 47.386719 45.847656 C 47.101562 45.851562 46.816406 45.890625 46.535156 45.953125 C 46.253906 46.019531 45.984375 46.117188 45.722656 46.238281 C 45.464844 46.363281 45.21875 46.511719 44.988281 46.6875 C 44.757812 46.863281 44.550781 47.0625 44.359375 47.28125 C 44.171875 47.5 44.007812 47.738281 43.867188 47.996094 C 43.726562 48.25 43.617188 48.515625 43.53125 48.796875 C 43.445312 49.074219 43.390625 49.359375 43.367188 49.652344 C 43.339844 49.941406 43.34375 50.230469 43.378906 50.523438 C 43.414062 50.8125 43.476562 51.09375 43.570312 51.371094 C 43.660156 51.648438 43.78125 51.910156 43.929688 52.160156 C 44.078125 52.414062 44.246094 52.644531 44.441406 52.859375 C 44.636719 53.074219 44.855469 53.265625 45.089844 53.433594 C 45.324219 53.601562 45.574219 53.746094 45.835938 53.859375 C 46.128906 53.988281 46.265625 54.210938 46.25 54.535156 C 46.238281 54.855469 46.078125 55.066406 45.773438 55.164062 C 42.632812 56.175781 40.601562 59.621094 40.601562 63.945312 C 40.605469 64.15625 40.71875 66.035156 43.347656 66.035156 C 43.539062 66.035156 43.699219 66.101562 43.832031 66.238281 C 43.96875 66.375 44.035156 66.539062 44.035156 66.730469 L 44.035156 74.386719 C 44.035156 74.664062 44.085938 74.933594 44.191406 75.1875 C 44.296875 75.445312 44.445312 75.667969 44.636719 75.867188 C 44.828125 76.0625 45.050781 76.210938 45.304688 76.316406 C 45.558594 76.425781 45.820312 76.476562 46.09375 76.476562 L 46.777344 76.476562 C 46.96875 76.476562 47.128906 76.546875 47.265625 76.679688 C 47.398438 76.816406 47.464844 76.980469 47.464844 77.171875 C 47.464844 77.367188 47.398438 77.53125 47.265625 77.664062 C 47.128906 77.800781 46.96875 77.871094 46.777344 77.871094 Z M 46.777344 77.871094 " fill-opacity="1" fill-rule="nonzero"/></g><path fill="#000000" d="M 52.953125 80.652344 L 52.269531 80.652344 C 51.8125 80.652344 51.375 80.566406 50.957031 80.386719 C 50.535156 80.210938 50.164062 79.960938 49.84375 79.632812 C 49.523438 79.308594 49.273438 78.929688 49.101562 78.503906 C 48.925781 78.078125 48.839844 77.632812 48.835938 77.171875 L 48.835938 70.175781 C 46.144531 69.878906 45.40625 67.84375 45.40625 66.730469 C 45.40625 62.386719 47.257812 58.800781 50.234375 57.175781 C 49.953125 56.957031 49.699219 56.710938 49.464844 56.4375 C 49.234375 56.164062 49.027344 55.875 48.851562 55.5625 C 48.675781 55.25 48.53125 54.921875 48.414062 54.582031 C 48.300781 54.242188 48.21875 53.890625 48.171875 53.535156 C 48.125 53.179688 48.109375 52.820312 48.132812 52.460938 C 48.152344 52.101562 48.207031 51.746094 48.296875 51.398438 C 48.382812 51.050781 48.503906 50.714844 48.65625 50.386719 C 48.8125 50.0625 48.992188 49.757812 49.203125 49.46875 C 49.417969 49.179688 49.652344 48.914062 49.914062 48.671875 C 50.179688 48.425781 50.460938 48.214844 50.765625 48.027344 C 51.066406 47.839844 51.386719 47.683594 51.71875 47.558594 C 52.050781 47.4375 52.394531 47.34375 52.746094 47.289062 C 53.09375 47.230469 53.449219 47.210938 53.800781 47.222656 C 54.15625 47.234375 54.507812 47.28125 54.851562 47.363281 C 55.199219 47.445312 55.535156 47.558594 55.859375 47.707031 C 56.179688 47.851562 56.488281 48.03125 56.777344 48.238281 C 56.929688 48.347656 57.019531 48.5 57.050781 48.683594 C 57.082031 48.871094 57.042969 49.042969 56.9375 49.199219 C 56.832031 49.355469 56.683594 49.449219 56.5 49.484375 C 56.316406 49.519531 56.148438 49.484375 55.992188 49.378906 C 55.757812 49.210938 55.507812 49.074219 55.242188 48.960938 C 54.976562 48.847656 54.703125 48.761719 54.417969 48.707031 C 54.136719 48.652344 53.851562 48.625 53.5625 48.632812 C 53.277344 48.636719 52.992188 48.671875 52.710938 48.738281 C 52.429688 48.804688 52.160156 48.898438 51.898438 49.023438 C 51.640625 49.148438 51.394531 49.296875 51.164062 49.472656 C 50.933594 49.648438 50.726562 49.847656 50.535156 50.066406 C 50.347656 50.285156 50.183594 50.523438 50.042969 50.78125 C 49.902344 51.035156 49.792969 51.300781 49.707031 51.582031 C 49.621094 51.859375 49.566406 52.144531 49.542969 52.433594 C 49.515625 52.726562 49.519531 53.015625 49.554688 53.304688 C 49.589844 53.597656 49.652344 53.878906 49.746094 54.15625 C 49.835938 54.433594 49.957031 54.695312 50.105469 54.945312 C 50.253906 55.195312 50.421875 55.429688 50.617188 55.644531 C 50.8125 55.859375 51.03125 56.050781 51.265625 56.21875 C 51.5 56.386719 51.75 56.527344 52.011719 56.644531 C 52.304688 56.773438 52.445312 56.996094 52.429688 57.316406 C 52.414062 57.640625 52.253906 57.851562 51.949219 57.949219 C 48.808594 58.957031 46.777344 62.40625 46.777344 66.730469 C 46.78125 66.941406 46.894531 68.820312 49.523438 68.820312 C 49.714844 68.820312 49.875 68.886719 50.007812 69.023438 C 50.144531 69.160156 50.210938 69.324219 50.210938 69.515625 L 50.210938 77.171875 C 50.210938 77.449219 50.261719 77.714844 50.367188 77.972656 C 50.472656 78.226562 50.621094 78.453125 50.8125 78.648438 C 51.003906 78.847656 51.226562 78.996094 51.480469 79.101562 C 51.734375 79.207031 51.996094 79.261719 52.269531 79.261719 L 52.953125 79.261719 C 53.144531 79.261719 53.304688 79.328125 53.441406 79.464844 C 53.574219 79.601562 53.640625 79.765625 53.640625 79.957031 C 53.640625 80.148438 53.574219 80.3125 53.441406 80.449219 C 53.304688 80.585938 53.144531 80.652344 52.953125 80.652344 Z M 52.953125 80.652344 " fill-opacity="1" fill-rule="nonzero"/><g clip-path="url(#6b999cf04e)"><path fill="#000000" d="M 61.1875 83.4375 L 58.445312 83.4375 C 57.988281 83.4375 57.550781 83.347656 57.132812 83.171875 C 56.710938 82.996094 56.339844 82.742188 56.019531 82.417969 C 55.699219 82.089844 55.449219 81.714844 55.277344 81.289062 C 55.101562 80.863281 55.015625 80.417969 55.011719 79.957031 L 55.011719 72.960938 C 52.320312 72.664062 51.582031 70.628906 51.582031 69.515625 C 51.582031 65.171875 53.433594 61.582031 56.410156 59.960938 C 56.113281 59.722656 55.84375 59.457031 55.601562 59.164062 C 55.359375 58.867188 55.148438 58.550781 54.972656 58.210938 C 54.792969 57.875 54.652344 57.519531 54.546875 57.152344 C 54.441406 56.785156 54.371094 56.40625 54.34375 56.023438 C 54.3125 55.640625 54.324219 55.261719 54.371094 54.878906 C 54.421875 54.5 54.507812 54.128906 54.632812 53.765625 C 54.757812 53.402344 54.914062 53.058594 55.109375 52.726562 C 55.304688 52.398438 55.53125 52.09375 55.789062 51.8125 C 56.042969 51.53125 56.328125 51.277344 56.636719 51.054688 C 56.945312 50.832031 57.273438 50.644531 57.617188 50.492188 C 57.964844 50.339844 58.324219 50.222656 58.695312 50.144531 C 59.0625 50.066406 59.4375 50.027344 59.816406 50.027344 C 60.195312 50.027344 60.570312 50.066406 60.941406 50.144531 C 61.308594 50.222656 61.667969 50.339844 62.015625 50.492188 C 62.363281 50.644531 62.6875 50.832031 62.996094 51.054688 C 63.304688 51.277344 63.589844 51.53125 63.84375 51.8125 C 64.101562 52.09375 64.328125 52.398438 64.523438 52.726562 C 64.71875 53.058594 64.878906 53.402344 65 53.765625 C 65.125 54.128906 65.210938 54.5 65.261719 54.878906 C 65.308594 55.261719 65.320312 55.640625 65.289062 56.023438 C 65.261719 56.40625 65.191406 56.785156 65.085938 57.152344 C 64.980469 57.519531 64.839844 57.875 64.660156 58.210938 C 64.484375 58.550781 64.273438 58.867188 64.03125 59.164062 C 63.789062 59.457031 63.519531 59.722656 63.222656 59.960938 C 66.199219 61.582031 68.050781 65.171875 68.050781 69.515625 C 68.050781 70.628906 67.3125 72.664062 64.621094 72.960938 L 64.621094 79.957031 C 64.621094 80.417969 64.53125 80.863281 64.359375 81.289062 C 64.183594 81.714844 63.9375 82.089844 63.613281 82.417969 C 63.292969 82.742188 62.921875 82.996094 62.5 83.171875 C 62.082031 83.347656 61.644531 83.4375 61.1875 83.4375 Z M 59.816406 51.414062 C 59.34375 51.414062 58.882812 51.496094 58.4375 51.65625 C 57.988281 51.816406 57.582031 52.050781 57.214844 52.355469 C 56.847656 52.65625 56.539062 53.015625 56.296875 53.425781 C 56.050781 53.835938 55.878906 54.277344 55.78125 54.75 C 55.6875 55.21875 55.671875 55.691406 55.738281 56.167969 C 55.800781 56.644531 55.945312 57.097656 56.164062 57.523438 C 56.382812 57.949219 56.664062 58.324219 57.011719 58.652344 C 57.359375 58.980469 57.75 59.238281 58.1875 59.429688 C 58.480469 59.554688 58.617188 59.78125 58.601562 60.101562 C 58.585938 60.425781 58.425781 60.632812 58.125 60.730469 C 54.984375 61.742188 52.953125 65.191406 52.953125 69.515625 C 52.957031 69.722656 53.070312 71.605469 55.699219 71.605469 C 55.890625 71.605469 56.050781 71.671875 56.183594 71.808594 C 56.320312 71.945312 56.386719 72.109375 56.386719 72.300781 L 56.386719 79.957031 C 56.386719 80.234375 56.4375 80.5 56.542969 80.757812 C 56.648438 81.011719 56.796875 81.238281 56.988281 81.433594 C 57.179688 81.628906 57.402344 81.78125 57.65625 81.886719 C 57.910156 81.992188 58.171875 82.046875 58.445312 82.046875 L 61.1875 82.046875 C 61.460938 82.046875 61.726562 81.992188 61.976562 81.886719 C 62.230469 81.78125 62.453125 81.628906 62.644531 81.433594 C 62.835938 81.238281 62.988281 81.011719 63.089844 80.757812 C 63.195312 80.5 63.246094 80.234375 63.246094 79.957031 L 63.246094 72.300781 C 63.246094 72.109375 63.316406 71.945312 63.449219 71.808594 C 63.582031 71.671875 63.746094 71.605469 63.933594 71.605469 C 66.648438 71.605469 66.679688 69.601562 66.679688 69.515625 C 66.679688 65.191406 64.648438 61.742188 61.507812 60.730469 C 61.207031 60.632812 61.046875 60.425781 61.03125 60.101562 C 61.015625 59.78125 61.15625 59.554688 61.445312 59.429688 C 61.882812 59.238281 62.273438 58.980469 62.621094 58.652344 C 62.96875 58.324219 63.25 57.949219 63.46875 57.523438 C 63.6875 57.097656 63.832031 56.644531 63.894531 56.167969 C 63.960938 55.691406 63.945312 55.21875 63.851562 54.75 C 63.753906 54.277344 63.585938 53.835938 63.339844 53.425781 C 63.09375 53.015625 62.785156 52.65625 62.417969 52.355469 C 62.050781 52.050781 61.644531 51.816406 61.199219 51.65625 C 60.75 51.496094 60.289062 51.414062 59.816406 51.414062 Z M 59.816406 51.414062 " fill-opacity="1" fill-rule="nonzero"/></g><g fill="#21282e" fill-opacity="1"><g transform="translate(19.278905, 20.750003)"><g><path d="M 3.71875 -3.484375 L 7.546875 -3.484375 L 7.515625 -3.15625 C 7.472656 -2.488281 7.300781 -1.910156 7 -1.421875 C 6.707031 -0.941406 6.316406 -0.566406 5.828125 -0.296875 C 5.335938 -0.0351562 4.773438 0.09375 4.140625 0.09375 C 3.578125 0.09375 3.078125 -0.00390625 2.640625 -0.203125 C 2.203125 -0.410156 1.832031 -0.679688 1.53125 -1.015625 C 1.226562 -1.359375 1 -1.742188 0.84375 -2.171875 C 0.6875 -2.597656 0.609375 -3.035156 0.609375 -3.484375 C 0.609375 -3.941406 0.6875 -4.382812 0.84375 -4.8125 C 1 -5.238281 1.226562 -5.625 1.53125 -5.96875 C 1.832031 -6.320312 2.203125 -6.597656 2.640625 -6.796875 C 3.078125 -7.003906 3.578125 -7.109375 4.140625 -7.109375 C 4.679688 -7.109375 5.1875 -7 5.65625 -6.78125 C 6.132812 -6.5625 6.550781 -6.253906 6.90625 -5.859375 L 6.328125 -5.390625 C 6.035156 -5.722656 5.703125 -5.96875 5.328125 -6.125 C 4.953125 -6.289062 4.554688 -6.375 4.140625 -6.375 C 3.710938 -6.375 3.328125 -6.289062 2.984375 -6.125 C 2.648438 -5.96875 2.363281 -5.75 2.125 -5.46875 C 1.894531 -5.195312 1.71875 -4.890625 1.59375 -4.546875 C 1.476562 -4.203125 1.421875 -3.847656 1.421875 -3.484375 C 1.421875 -3.140625 1.476562 -2.796875 1.59375 -2.453125 C 1.71875 -2.117188 1.894531 -1.8125 2.125 -1.53125 C 2.363281 -1.257812 2.648438 -1.039062 2.984375 -0.875 C 3.328125 -0.71875 3.710938 -0.640625 4.140625 -0.640625 C 4.523438 -0.640625 4.898438 -0.710938 5.265625 -0.859375 C 5.628906 -1.015625 5.941406 -1.25 6.203125 -1.5625 C 6.460938 -1.882812 6.625 -2.285156 6.6875 -2.765625 L 3.71875 -2.765625 Z M 3.71875 -3.484375 "/></g></g></g><g fill="#21282e" fill-opacity="1"><g transform="translate(28.375618, 20.750003)"><g><path d="M 4.5625 -6.296875 L 1.625 -6.296875 L 1.625 -3.90625 L 4.53125 -3.90625 L 4.53125 -3.203125 L 1.625 -3.203125 L 1.625 -0.703125 L 4.5625 -0.703125 L 4.5625 0 L 0.828125 0 L 0.828125 -7.015625 L 4.5625 -7.015625 Z M 4.5625 -6.296875 "/></g></g></g><g fill="#21282e" fill-opacity="1"><g transform="translate(34.503506, 20.750003)"><g><path d="M 1.03125 0 L 1.03125 -7.03125 L 2.015625 -7.03125 L 4.765625 -2.265625 L 5.453125 -0.953125 L 5.46875 -0.953125 L 5.375 -2.609375 L 5.375 -7.03125 L 6.1875 -7.03125 L 6.1875 0 L 5.203125 0 L 2.46875 -4.734375 L 1.765625 -6.0625 L 1.734375 -6.0625 L 1.84375 -4.4375 L 1.84375 0 Z M 1.03125 0 "/></g></g></g><g fill="#21282e" fill-opacity="1"><g transform="translate(42.620605, 20.750003)"><g><path d="M 4.5625 -6.296875 L 1.625 -6.296875 L 1.625 -3.90625 L 4.53125 -3.90625 L 4.53125 -3.203125 L 1.625 -3.203125 L 1.625 -0.703125 L 4.5625 -0.703125 L 4.5625 0 L 0.828125 0 L 0.828125 -7.015625 L 4.5625 -7.015625 Z M 4.5625 -6.296875 "/></g></g></g><g fill="#21282e" fill-opacity="1"><g transform="translate(48.748493, 20.750003)"><g><path d="M 4.796875 0 L 2.59375 -2.84375 L 1.84375 -2.84375 L 1.84375 0 L 1.03125 0 L 1.03125 -7 L 3.203125 -7 C 3.648438 -7 4.046875 -6.925781 4.390625 -6.78125 C 4.734375 -6.632812 5.003906 -6.40625 5.203125 -6.09375 C 5.410156 -5.789062 5.515625 -5.394531 5.515625 -4.90625 C 5.515625 -4.28125 5.332031 -3.789062 4.96875 -3.4375 C 4.613281 -3.09375 4.128906 -2.898438 3.515625 -2.859375 L 5.734375 0 Z M 4.703125 -4.9375 C 4.703125 -5.382812 4.5625 -5.71875 4.28125 -5.9375 C 4 -6.164062 3.640625 -6.28125 3.203125 -6.28125 L 1.84375 -6.28125 L 1.84375 -3.5625 L 3.1875 -3.5625 C 3.664062 -3.5625 4.035156 -3.675781 4.296875 -3.90625 C 4.566406 -4.144531 4.703125 -4.488281 4.703125 -4.9375 Z M 4.703125 -4.9375 "/></g></g></g><g fill="#21282e" fill-opacity="1"><g transform="translate(55.796016, 20.750003)"><g><path d="M 5.296875 0 L 4.46875 -2.203125 L 1.796875 -2.203125 L 1 0 L 0.15625 0 L 2.671875 -7 L 3.59375 -7 L 6.125 0 Z M 2.796875 -5.203125 L 2.046875 -2.90625 L 4.21875 -2.90625 L 3.453125 -5.203125 L 3.15625 -6.171875 L 3.078125 -6.171875 Z M 2.796875 -5.203125 "/></g></g></g><g fill="#21282e" fill-opacity="1"><g transform="translate(62.933501, 20.750003)"><g><path d="M 1.8125 -0.734375 L 4.53125 -0.734375 L 4.53125 0 L 1.015625 0 L 1.015625 -7 L 1.8125 -7 Z M 1.8125 -0.734375 "/></g></g></g><g fill="#21282e" fill-opacity="1"><g transform="translate(68.511603, 20.750003)"><g/></g></g><g fill="#21282e" fill-opacity="1"><g transform="translate(71.970545, 20.750003)"><g><path d="M 4.6875 -6.28125 L 1.78125 -6.28125 L 1.78125 -3.859375 L 4.640625 -3.859375 L 4.640625 -3.125 L 1.78125 -3.125 L 1.78125 0 L 0.984375 0 L 0.984375 -7.015625 L 4.6875 -7.015625 Z M 4.6875 -6.28125 "/></g></g></g><g fill="#21282e" fill-opacity="1"><g transform="translate(78.098432, 20.750003)"><g><path d="M 5.296875 0 L 4.46875 -2.203125 L 1.796875 -2.203125 L 1 0 L 0.15625 0 L 2.671875 -7 L 3.59375 -7 L 6.125 0 Z M 2.796875 -5.203125 L 2.046875 -2.90625 L 4.21875 -2.90625 L 3.453125 -5.203125 L 3.15625 -6.171875 L 3.078125 -6.171875 Z M 2.796875 -5.203125 "/></g></g></g><g fill="#21282e" fill-opacity="1"><g transform="translate(85.235917, 20.750003)"><g><path d="M 4.796875 0 L 2.59375 -2.84375 L 1.84375 -2.84375 L 1.84375 0 L 1.03125 0 L 1.03125 -7 L 3.203125 -7 C 3.648438 -7 4.046875 -6.925781 4.390625 -6.78125 C 4.734375 -6.632812 5.003906 -6.40625 5.203125 -6.09375 C 5.410156 -5.789062 5.515625 -5.394531 5.515625 -4.90625 C 5.515625 -4.28125 5.332031 -3.789062 4.96875 -3.4375 C 4.613281 -3.09375 4.128906 -2.898438 3.515625 -2.859375 L 5.734375 0 Z M 4.703125 -4.9375 C 4.703125 -5.382812 4.5625 -5.71875 4.28125 -5.9375 C 4 -6.164062 3.640625 -6.28125 3.203125 -6.28125 L 1.84375 -6.28125 L 1.84375 -3.5625 L 3.1875 -3.5625 C 3.664062 -3.5625 4.035156 -3.675781 4.296875 -3.90625 C 4.566406 -4.144531 4.703125 -4.488281 4.703125 -4.9375 Z M 4.703125 -4.9375 "/></g></g></g><g fill="#21282e" fill-opacity="1"><g transform="translate(92.28344, 20.750003)"><g><path d="M 6.3125 -7.03125 L 7.296875 -7.03125 L 7.296875 0 L 6.484375 0 L 6.484375 -3.640625 L 6.578125 -5.796875 L 6.546875 -5.8125 L 5.734375 -3.78125 L 4.5 -1.09375 L 3.765625 -1.09375 L 2.546875 -3.765625 L 1.71875 -5.8125 L 1.6875 -5.796875 L 1.78125 -3.640625 L 1.78125 0 L 0.96875 0 L 0.96875 -7.03125 L 1.9375 -7.03125 L 4.125 -2.046875 Z M 6.3125 -7.03125 "/></g></g></g><g fill="#21282e" fill-opacity="1"><g transform="translate(29.380467, 34.250003)"><g><path d="M 4.5625 -6.296875 L 1.625 -6.296875 L 1.625 -3.90625 L 4.53125 -3.90625 L 4.53125 -3.203125 L 1.625 -3.203125 L 1.625 -0.703125 L 4.5625 -0.703125 L 4.5625 0 L 0.828125 0 L 0.828125 -7.015625 L 4.5625 -7.015625 Z M 4.5625 -6.296875 "/></g></g></g><g fill="#21282e" fill-opacity="1"><g transform="translate(35.508354, 34.250003)"><g><path d="M 6.3125 -7.03125 L 7.296875 -7.03125 L 7.296875 0 L 6.484375 0 L 6.484375 -3.640625 L 6.578125 -5.796875 L 6.546875 -5.8125 L 5.734375 -3.78125 L 4.5 -1.09375 L 3.765625 -1.09375 L 2.546875 -3.765625 L 1.71875 -5.8125 L 1.6875 -5.796875 L 1.78125 -3.640625 L 1.78125 0 L 0.96875 0 L 0.96875 -7.03125 L 1.9375 -7.03125 L 4.125 -2.046875 Z M 6.3125 -7.03125 "/></g></g></g><g fill="#21282e" fill-opacity="1"><g transform="translate(44.745018, 34.250003)"><g><path d="M 3.0625 -7.015625 C 3.582031 -7.015625 4.007812 -6.90625 4.34375 -6.6875 C 4.675781 -6.46875 4.925781 -6.1875 5.09375 -5.84375 C 5.269531 -5.507812 5.359375 -5.15625 5.359375 -4.78125 C 5.359375 -4.414062 5.269531 -4.066406 5.09375 -3.734375 C 4.925781 -3.398438 4.675781 -3.125 4.34375 -2.90625 C 4.007812 -2.695312 3.585938 -2.59375 3.078125 -2.59375 L 1.8125 -2.59375 L 1.8125 0.015625 L 1.015625 0.015625 L 1.015625 -7.015625 Z M 3.0625 -3.3125 C 3.394531 -3.3125 3.671875 -3.382812 3.890625 -3.53125 C 4.117188 -3.675781 4.285156 -3.863281 4.390625 -4.09375 C 4.503906 -4.320312 4.5625 -4.550781 4.5625 -4.78125 C 4.5625 -5.019531 4.503906 -5.253906 4.390625 -5.484375 C 4.273438 -5.710938 4.109375 -5.898438 3.890625 -6.046875 C 3.671875 -6.203125 3.394531 -6.28125 3.0625 -6.28125 L 1.8125 -6.28125 L 1.8125 -3.3125 Z M 3.0625 -3.3125 "/></g></g></g><g fill="#21282e" fill-opacity="1"><g transform="translate(51.452674, 34.250003)"><g><path d="M 1.8125 -0.734375 L 4.53125 -0.734375 L 4.53125 0 L 1.015625 0 L 1.015625 -7 L 1.8125 -7 Z M 1.8125 -0.734375 "/></g></g></g><g fill="#21282e" fill-opacity="1"><g transform="translate(57.030776, 34.250003)"><g><path d="M 4.09375 0.125 C 3.59375 0.125 3.125 0.0351562 2.6875 -0.140625 C 2.25 -0.328125 1.867188 -0.582031 1.546875 -0.90625 C 1.222656 -1.238281 0.972656 -1.625 0.796875 -2.0625 C 0.617188 -2.5 0.53125 -2.972656 0.53125 -3.484375 C 0.53125 -4.003906 0.617188 -4.484375 0.796875 -4.921875 C 0.972656 -5.367188 1.222656 -5.753906 1.546875 -6.078125 C 1.867188 -6.398438 2.25 -6.65625 2.6875 -6.84375 C 3.125 -7.03125 3.59375 -7.125 4.09375 -7.125 C 4.601562 -7.125 5.070312 -7.03125 5.5 -6.84375 C 5.9375 -6.65625 6.316406 -6.398438 6.640625 -6.078125 C 6.960938 -5.753906 7.210938 -5.367188 7.390625 -4.921875 C 7.566406 -4.484375 7.65625 -4.003906 7.65625 -3.484375 C 7.65625 -2.972656 7.566406 -2.5 7.390625 -2.0625 C 7.210938 -1.625 6.960938 -1.238281 6.640625 -0.90625 C 6.316406 -0.582031 5.9375 -0.328125 5.5 -0.140625 C 5.070312 0.0351562 4.601562 0.125 4.09375 0.125 Z M 4.09375 -0.609375 C 4.632812 -0.609375 5.109375 -0.726562 5.515625 -0.96875 C 5.929688 -1.21875 6.253906 -1.5625 6.484375 -2 C 6.722656 -2.4375 6.84375 -2.929688 6.84375 -3.484375 C 6.84375 -4.046875 6.722656 -4.546875 6.484375 -4.984375 C 6.242188 -5.421875 5.914062 -5.765625 5.5 -6.015625 C 5.09375 -6.265625 4.625 -6.390625 4.09375 -6.390625 C 3.570312 -6.390625 3.101562 -6.265625 2.6875 -6.015625 C 2.269531 -5.765625 1.941406 -5.421875 1.703125 -4.984375 C 1.460938 -4.546875 1.34375 -4.046875 1.34375 -3.484375 C 1.34375 -2.929688 1.460938 -2.4375 1.703125 -2 C 1.941406 -1.5625 2.269531 -1.21875 2.6875 -0.96875 C 3.101562 -0.726562 3.570312 -0.609375 4.09375 -0.609375 Z M 4.09375 -0.609375 "/></g></g></g><g fill="#21282e" fill-opacity="1"><g transform="translate(66.137492, 34.250003)"><g><path d="M 2.453125 0 L 2.453125 -2.828125 L 2.046875 -3.53125 L 0.078125 -7 L 1 -7 L 2.84375 -3.640625 L 3.234375 -4.359375 L 4.6875 -7 L 5.609375 -7 L 3.640625 -3.515625 L 3.234375 -2.8125 L 3.234375 0 Z M 2.453125 0 "/></g></g></g><g fill="#21282e" fill-opacity="1"><g transform="translate(72.705198, 34.250003)"><g><path d="M 4.5625 -6.296875 L 1.625 -6.296875 L 1.625 -3.90625 L 4.53125 -3.90625 L 4.53125 -3.203125 L 1.625 -3.203125 L 1.625 -0.703125 L 4.5625 -0.703125 L 4.5625 0 L 0.828125 0 L 0.828125 -7.015625 L 4.5625 -7.015625 Z M 4.5625 -6.296875 "/></g></g></g><g fill="#21282e" fill-opacity="1"><g transform="translate(78.833086, 34.250003)"><g><path d="M 4.5625 -6.296875 L 1.625 -6.296875 L 1.625 -3.90625 L 4.53125 -3.90625 L 4.53125 -3.203125 L 1.625 -3.203125 L 1.625 -0.703125 L 4.5625 -0.703125 L 4.5625 0 L 0.828125 0 L 0.828125 -7.015625 L 4.5625 -7.015625 Z M 4.5625 -6.296875 "/></g></g></g><g fill="#21282e" fill-opacity="1"><g transform="translate(84.960973, 34.250003)"><g><path d="M 2.6875 0.125 C 2.257812 0.125 1.835938 0.00390625 1.421875 -0.234375 C 1.015625 -0.472656 0.710938 -0.832031 0.515625 -1.3125 L 1.1875 -1.65625 C 1.363281 -1.300781 1.585938 -1.035156 1.859375 -0.859375 C 2.128906 -0.691406 2.421875 -0.609375 2.734375 -0.609375 C 3.140625 -0.609375 3.472656 -0.722656 3.734375 -0.953125 C 3.992188 -1.191406 4.125 -1.5 4.125 -1.875 C 4.125 -2.175781 4.046875 -2.421875 3.890625 -2.609375 C 3.734375 -2.796875 3.539062 -2.941406 3.3125 -3.046875 C 3.09375 -3.148438 2.875 -3.234375 2.65625 -3.296875 C 2.445312 -3.347656 2.226562 -3.421875 2 -3.515625 C 1.78125 -3.609375 1.570312 -3.726562 1.375 -3.875 C 1.1875 -4.03125 1.035156 -4.222656 0.921875 -4.453125 C 0.804688 -4.679688 0.75 -4.957031 0.75 -5.28125 C 0.75 -5.707031 0.847656 -6.054688 1.046875 -6.328125 C 1.253906 -6.597656 1.515625 -6.796875 1.828125 -6.921875 C 2.148438 -7.054688 2.472656 -7.125 2.796875 -7.125 C 3.210938 -7.125 3.597656 -7.015625 3.953125 -6.796875 C 4.304688 -6.585938 4.578125 -6.257812 4.765625 -5.8125 L 4.125 -5.515625 C 3.976562 -5.835938 3.785156 -6.066406 3.546875 -6.203125 C 3.304688 -6.335938 3.046875 -6.40625 2.765625 -6.40625 C 2.566406 -6.40625 2.375 -6.363281 2.1875 -6.28125 C 2 -6.195312 1.84375 -6.066406 1.71875 -5.890625 C 1.59375 -5.722656 1.53125 -5.503906 1.53125 -5.234375 C 1.53125 -4.972656 1.601562 -4.757812 1.75 -4.59375 C 1.90625 -4.425781 2.082031 -4.296875 2.28125 -4.203125 C 2.488281 -4.109375 2.6875 -4.039062 2.875 -4 C 3.125 -3.9375 3.367188 -3.851562 3.609375 -3.75 C 3.859375 -3.644531 4.082031 -3.507812 4.28125 -3.34375 C 4.476562 -3.1875 4.632812 -2.984375 4.75 -2.734375 C 4.875 -2.492188 4.9375 -2.195312 4.9375 -1.84375 C 4.9375 -1.5 4.867188 -1.203125 4.734375 -0.953125 C 4.597656 -0.710938 4.414062 -0.507812 4.1875 -0.34375 C 3.96875 -0.1875 3.722656 -0.0703125 3.453125 0 C 3.191406 0.0820312 2.9375 0.125 2.6875 0.125 Z M 2.6875 0.125 "/></g></g></g></svg>