<svg xmlns="http://www.w3.org/2000/svg" xmlns:xlink="http://www.w3.org/1999/xlink" width="160" zoomAndPan="magnify" viewBox="0 0 120 119.999999" height="160" preserveAspectRatio="xMidYMid meet" version="1.0"><defs><g/><clipPath id="09e83bd13e"><path d="M 5 3 L 22 3 L 22 10 L 5 10 Z M 5 3 " clip-rule="nonzero"/></clipPath><clipPath id="ff5c1be119"><path d="M 19.808594 0.914062 L 22.929688 9.4375 L 7.273438 15.175781 L 4.148438 6.652344 Z M 19.808594 0.914062 " clip-rule="nonzero"/></clipPath><clipPath id="fe56f0b64c"><path d="M 19.808594 0.914062 L 22.929688 9.4375 L 7.273438 15.175781 L 4.148438 6.652344 Z M 19.808594 0.914062 " clip-rule="nonzero"/></clipPath><clipPath id="2e3b1262c2"><path d="M 0.761719 9 L 25.238281 9 L 25.238281 19 L 0.761719 19 Z M 0.761719 9 " clip-rule="nonzero"/></clipPath><clipPath id="e6d8b0f4ee"><rect x="0" width="26" y="0" height="10"/></clipPath><clipPath id="35bd15382c"><path d="M 4 12 L 23 12 L 23 26.441406 L 4 26.441406 Z M 4 12 " clip-rule="nonzero"/></clipPath><clipPath id="8c3dbc0864"><path d="M 19.808594 12.074219 L 22.929688 20.597656 L 7.273438 26.335938 L 4.148438 17.8125 Z M 19.808594 12.074219 " clip-rule="nonzero"/></clipPath><clipPath id="3ab0d302a5"><path d="M 1 5 L 18 5 L 18 12 L 1 12 Z M 1 5 " clip-rule="nonzero"/></clipPath><clipPath id="7a8dd0d186"><path d="M 15.808594 0.0742188 L 18.929688 8.597656 L 3.273438 14.335938 L 0.148438 5.8125 Z M 15.808594 0.0742188 " clip-rule="nonzero"/></clipPath><clipPath id="7f23ddb045"><path d="M 3.273438 14.347656 L 0.148438 5.824219 L 15.808594 0.0859375 L 18.933594 8.609375 Z M 3.273438 14.347656 " clip-rule="nonzero"/></clipPath><clipPath id="f4bd1d8aed"><rect x="0" width="19" y="0" height="15"/></clipPath><clipPath id="e199cfa4cc"><rect x="0" width="26" y="0" height="27"/></clipPath><clipPath id="759228ff3d"><path d="M 32.011719 45.148438 L 88.261719 45.148438 L 88.261719 81.898438 L 32.011719 81.898438 Z M 32.011719 45.148438 " clip-rule="nonzero"/></clipPath></defs><rect x="-12" width="144" fill="#ffffff" y="-12" height="143.999998" fill-opacity="1"/><rect x="-12" width="144" fill="#ffffff" y="-12" height="143.999998" fill-opacity="1"/><g transform="matrix(1, 0, 0, 1, 47, 89)"><g clip-path="url(#e199cfa4cc)"><g clip-path="url(#09e83bd13e)"><g clip-path="url(#ff5c1be119)"><g clip-path="url(#fe56f0b64c)"><path fill="#212121" d="M 21.421875 5.347656 C 21.328125 5.09375 21.230469 4.933594 21.144531 4.917969 C 20.773438 4.863281 20.609375 6.242188 20.539062 7.128906 C 19.863281 6.332031 18.867188 5.441406 17.488281 4.792969 C 16.117188 4.148438 14.511719 3.824219 12.867188 3.960938 C 11.109375 4.105469 9.5 4.761719 8.234375 5.691406 C 6.539062 6.9375 5.65625 8.492188 5.210938 9.53125 C 5.660156 8.484375 6.605469 6.972656 8.332031 5.832031 C 9.621094 4.980469 11.210938 4.4375 12.890625 4.394531 C 14.460938 4.359375 15.945312 4.753906 17.179688 5.417969 C 18.449219 6.097656 19.332031 6.980469 19.929688 7.734375 C 19.046875 7.5625 17.449219 7.300781 17.402344 7.65625 C 17.339844 8.144531 21.203125 10.082031 21.808594 9.636719 C 22.226562 9.324219 21.835938 6.453125 21.421875 5.347656 Z M 21.421875 5.347656 " fill-opacity="1" fill-rule="nonzero"/></g></g></g><g clip-path="url(#2e3b1262c2)"><g transform="matrix(1, 0, 0, 1, 0, 9)"><g clip-path="url(#e6d8b0f4ee)"><g fill="#000000" fill-opacity="1"><g transform="translate(0.81023, 7.19389)"><g><path d="M 2.28125 0.09375 C 1.875 0.09375 1.484375 0.0390625 1.109375 -0.0625 C 0.734375 -0.175781 0.429688 -0.320312 0.203125 -0.5 L 0.609375 -1.390625 C 0.828125 -1.234375 1.082031 -1.101562 1.375 -1 C 1.675781 -0.90625 1.976562 -0.859375 2.28125 -0.859375 C 2.613281 -0.859375 2.859375 -0.90625 3.015625 -1 C 3.179688 -1.101562 3.265625 -1.238281 3.265625 -1.40625 C 3.265625 -1.53125 3.21875 -1.628906 3.125 -1.703125 C 3.03125 -1.785156 2.910156 -1.847656 2.765625 -1.890625 C 2.617188 -1.941406 2.414062 -2 2.15625 -2.0625 C 1.769531 -2.15625 1.453125 -2.242188 1.203125 -2.328125 C 0.960938 -2.421875 0.753906 -2.570312 0.578125 -2.78125 C 0.398438 -2.988281 0.3125 -3.257812 0.3125 -3.59375 C 0.3125 -3.894531 0.390625 -4.164062 0.546875 -4.40625 C 0.703125 -4.644531 0.941406 -4.832031 1.265625 -4.96875 C 1.585938 -5.113281 1.984375 -5.1875 2.453125 -5.1875 C 2.773438 -5.1875 3.09375 -5.144531 3.40625 -5.0625 C 3.71875 -4.988281 3.988281 -4.878906 4.21875 -4.734375 L 3.859375 -3.84375 C 3.390625 -4.101562 2.921875 -4.234375 2.453125 -4.234375 C 2.117188 -4.234375 1.875 -4.179688 1.71875 -4.078125 C 1.5625 -3.972656 1.484375 -3.832031 1.484375 -3.65625 C 1.484375 -3.476562 1.570312 -3.347656 1.75 -3.265625 C 1.9375 -3.179688 2.210938 -3.097656 2.578125 -3.015625 C 2.972656 -2.921875 3.289062 -2.828125 3.53125 -2.734375 C 3.78125 -2.640625 3.992188 -2.492188 4.171875 -2.296875 C 4.347656 -2.097656 4.4375 -1.832031 4.4375 -1.5 C 4.4375 -1.207031 4.351562 -0.9375 4.1875 -0.6875 C 4.03125 -0.445312 3.789062 -0.253906 3.46875 -0.109375 C 3.144531 0.0234375 2.75 0.09375 2.28125 0.09375 Z M 2.28125 0.09375 "/></g></g></g><g fill="#000000" fill-opacity="1"><g transform="translate(5.073316, 7.19389)"><g><path d="M 0.53125 -3.921875 L 1.65625 -3.921875 L 1.65625 0 L 0.53125 0 Z M 1.09375 -4.46875 C 0.882812 -4.46875 0.710938 -4.523438 0.578125 -4.640625 C 0.453125 -4.765625 0.390625 -4.914062 0.390625 -5.09375 C 0.390625 -5.269531 0.453125 -5.421875 0.578125 -5.546875 C 0.710938 -5.671875 0.882812 -5.734375 1.09375 -5.734375 C 1.300781 -5.734375 1.46875 -5.671875 1.59375 -5.546875 C 1.726562 -5.429688 1.796875 -5.289062 1.796875 -5.125 C 1.796875 -4.925781 1.726562 -4.765625 1.59375 -4.640625 C 1.46875 -4.523438 1.300781 -4.46875 1.09375 -4.46875 Z M 1.09375 -4.46875 "/></g></g></g><g fill="#000000" fill-opacity="1"><g transform="translate(6.880514, 7.19389)"><g><path d="M 5.546875 -3.96875 C 6.035156 -3.96875 6.421875 -3.820312 6.703125 -3.53125 C 6.992188 -3.25 7.140625 -2.820312 7.140625 -2.25 L 7.140625 0 L 6 0 L 6 -2.0625 C 6 -2.375 5.9375 -2.609375 5.8125 -2.765625 C 5.6875 -2.921875 5.503906 -3 5.265625 -3 C 4.992188 -3 4.78125 -2.910156 4.625 -2.734375 C 4.46875 -2.554688 4.390625 -2.300781 4.390625 -1.96875 L 4.390625 0 L 3.265625 0 L 3.265625 -2.0625 C 3.265625 -2.6875 3.015625 -3 2.515625 -3 C 2.253906 -3 2.046875 -2.910156 1.890625 -2.734375 C 1.734375 -2.554688 1.65625 -2.300781 1.65625 -1.96875 L 1.65625 0 L 0.53125 0 L 0.53125 -3.921875 L 1.609375 -3.921875 L 1.609375 -3.46875 C 1.753906 -3.632812 1.929688 -3.757812 2.140625 -3.84375 C 2.359375 -3.925781 2.59375 -3.96875 2.84375 -3.96875 C 3.113281 -3.96875 3.359375 -3.910156 3.578125 -3.796875 C 3.804688 -3.691406 3.988281 -3.535156 4.125 -3.328125 C 4.289062 -3.535156 4.492188 -3.691406 4.734375 -3.796875 C 4.984375 -3.910156 5.253906 -3.96875 5.546875 -3.96875 Z M 5.546875 -3.96875 "/></g></g></g><g fill="#000000" fill-opacity="1"><g transform="translate(14.138764, 7.19389)"><g><path d="M 2.84375 -3.96875 C 3.207031 -3.96875 3.535156 -3.882812 3.828125 -3.71875 C 4.128906 -3.550781 4.363281 -3.316406 4.53125 -3.015625 C 4.707031 -2.710938 4.796875 -2.359375 4.796875 -1.953125 C 4.796875 -1.554688 4.707031 -1.203125 4.53125 -0.890625 C 4.363281 -0.585938 4.128906 -0.351562 3.828125 -0.1875 C 3.535156 -0.0195312 3.207031 0.0625 2.84375 0.0625 C 2.34375 0.0625 1.945312 -0.0976562 1.65625 -0.421875 L 1.65625 1.40625 L 0.53125 1.40625 L 0.53125 -3.921875 L 1.609375 -3.921875 L 1.609375 -3.46875 C 1.890625 -3.800781 2.300781 -3.96875 2.84375 -3.96875 Z M 2.640625 -0.875 C 2.929688 -0.875 3.171875 -0.972656 3.359375 -1.171875 C 3.546875 -1.367188 3.640625 -1.628906 3.640625 -1.953125 C 3.640625 -2.285156 3.546875 -2.550781 3.359375 -2.75 C 3.171875 -2.945312 2.929688 -3.046875 2.640625 -3.046875 C 2.347656 -3.046875 2.109375 -2.945312 1.921875 -2.75 C 1.734375 -2.550781 1.640625 -2.285156 1.640625 -1.953125 C 1.640625 -1.628906 1.734375 -1.367188 1.921875 -1.171875 C 2.109375 -0.972656 2.347656 -0.875 2.640625 -0.875 Z M 2.640625 -0.875 "/></g></g></g><g fill="#000000" fill-opacity="1"><g transform="translate(18.7808, 7.19389)"><g><path d="M 0.53125 -5.40625 L 1.65625 -5.40625 L 1.65625 0 L 0.53125 0 Z M 0.53125 -5.40625 "/></g></g></g><g fill="#000000" fill-opacity="1"><g transform="translate(20.587998, 7.19389)"><g><path d="M 4.359375 -1.9375 C 4.359375 -1.925781 4.351562 -1.828125 4.34375 -1.640625 L 1.375 -1.640625 C 1.425781 -1.398438 1.550781 -1.207031 1.75 -1.0625 C 1.945312 -0.925781 2.195312 -0.859375 2.5 -0.859375 C 2.695312 -0.859375 2.875 -0.882812 3.03125 -0.9375 C 3.195312 -1 3.347656 -1.097656 3.484375 -1.234375 L 4.078125 -0.578125 C 3.710938 -0.148438 3.175781 0.0625 2.46875 0.0625 C 2.03125 0.0625 1.640625 -0.0195312 1.296875 -0.1875 C 0.953125 -0.363281 0.6875 -0.601562 0.5 -0.90625 C 0.320312 -1.21875 0.234375 -1.566406 0.234375 -1.953125 C 0.234375 -2.335938 0.320312 -2.679688 0.5 -2.984375 C 0.6875 -3.296875 0.9375 -3.535156 1.25 -3.703125 C 1.570312 -3.878906 1.929688 -3.96875 2.328125 -3.96875 C 2.703125 -3.96875 3.046875 -3.882812 3.359375 -3.71875 C 3.671875 -3.5625 3.914062 -3.328125 4.09375 -3.015625 C 4.269531 -2.710938 4.359375 -2.351562 4.359375 -1.9375 Z M 2.328125 -3.109375 C 2.066406 -3.109375 1.847656 -3.035156 1.671875 -2.890625 C 1.503906 -2.742188 1.398438 -2.546875 1.359375 -2.296875 L 3.296875 -2.296875 C 3.253906 -2.546875 3.144531 -2.742188 2.96875 -2.890625 C 2.789062 -3.035156 2.578125 -3.109375 2.328125 -3.109375 Z M 2.328125 -3.109375 "/></g></g></g></g></g></g><g clip-path="url(#35bd15382c)"><g clip-path="url(#8c3dbc0864)"><g transform="matrix(1, 0, 0, 1, 4, 12)"><g clip-path="url(#f4bd1d8aed)"><g clip-path="url(#3ab0d302a5)"><g clip-path="url(#7a8dd0d186)"><g clip-path="url(#7f23ddb045)"><path fill="#212121" d="M 1.65625 9.914062 C 1.753906 10.167969 1.847656 10.328125 1.9375 10.339844 C 2.304688 10.398438 2.472656 9.019531 2.542969 8.132812 C 3.214844 8.929688 4.210938 9.820312 5.589844 10.464844 C 6.960938 11.109375 8.570312 11.433594 10.210938 11.300781 C 11.972656 11.15625 13.578125 10.5 14.847656 9.570312 C 16.539062 8.324219 17.421875 6.769531 17.871094 5.730469 C 17.417969 6.777344 16.472656 8.289062 14.75 9.429688 C 13.460938 10.28125 11.867188 10.824219 10.1875 10.867188 C 8.621094 10.902344 7.136719 10.503906 5.902344 9.84375 C 4.632812 9.164062 3.746094 8.28125 3.152344 7.527344 C 4.03125 7.699219 5.632812 7.960938 5.675781 7.605469 C 5.738281 7.117188 1.875 5.179688 1.269531 5.625 C 0.851562 5.933594 1.242188 8.808594 1.65625 9.914062 Z M 1.65625 9.914062 " fill-opacity="1" fill-rule="nonzero"/></g></g></g></g></g></g></g></g></g><g clip-path="url(#759228ff3d)"><path fill="#000000" d="M 32.382812 45.257812 C 32.039062 45.457031 32.019531 45.546875 32.011719 47.265625 L 32.011719 48.914062 L 32.265625 49.128906 C 32.464844 49.300781 32.601562 49.339844 32.957031 49.339844 L 33.398438 49.339844 L 33.433594 53.949219 C 33.464844 58.347656 33.472656 58.601562 33.644531 59.382812 C 33.992188 60.929688 34.449219 62.023438 35.261719 63.234375 C 36.902344 65.6875 39.652344 67.457031 43.238281 68.359375 L 43.585938 68.449219 L 43.585938 68.898438 C 43.585938 69.292969 43.617188 69.382812 43.820312 69.597656 C 44.050781 69.824219 44.09375 69.832031 44.847656 69.832031 L 45.636719 69.832031 L 45.636719 72.0625 L 45.90625 72.316406 C 46.054688 72.464844 46.824219 73.128906 47.621094 73.808594 L 49.082031 75.039062 L 49.082031 75.597656 C 49.082031 76.078125 49.109375 76.179688 49.289062 76.351562 C 49.484375 76.554688 49.5 76.554688 51.003906 76.554688 L 52.511719 76.554688 L 52.957031 76.03125 L 52.921875 74.613281 L 52.890625 73.195312 L 53.097656 73.195312 C 53.261719 73.203125 53.472656 73.390625 54.007812 73.972656 C 54.382812 74.398438 54.746094 74.753906 54.804688 74.753906 C 54.886719 74.753906 54.410156 76.308594 54.046875 77.21875 C 54.007812 77.324219 53.84375 77.359375 53.277344 77.390625 C 52.4375 77.441406 51.90625 77.644531 51.4375 78.097656 C 50.898438 78.613281 50.683594 79.171875 50.476562 80.546875 C 50.363281 81.359375 50.363281 81.375 50.632812 81.644531 L 50.871094 81.882812 L 74.261719 81.882812 L 74.515625 81.671875 C 74.8125 81.425781 74.828125 81.253906 74.65625 80.105469 C 74.382812 78.285156 73.589844 77.5 71.929688 77.382812 L 71.132812 77.335938 L 70.699219 76.152344 C 70.453125 75.496094 70.257812 74.941406 70.257812 74.898438 C 70.257812 74.867188 70.804688 74.835938 71.480469 74.835938 L 72.703125 74.835938 L 72.800781 75.078125 C 72.972656 75.496094 73.113281 75.523438 74.777344 75.507812 L 76.304688 75.488281 L 76.476562 75.964844 C 77.160156 77.816406 78.914062 79.316406 80.859375 79.710938 C 84.554688 80.449219 87.820312 77.652344 88.222656 73.40625 C 88.507812 70.398438 87.144531 67.414062 84.980469 66.292969 L 84.453125 66.023438 L 84.453125 65.1875 C 84.453125 64.421875 84.4375 64.332031 84.257812 64.121094 C 84.0625 63.898438 84.035156 63.890625 83.109375 63.867188 L 82.15625 63.832031 L 82.15625 63.351562 C 82.15625 62.941406 82.125 62.824219 81.953125 62.660156 C 81.769531 62.472656 81.6875 62.457031 80.964844 62.457031 L 80.1875 62.457031 L 80.1875 61.40625 C 80.1875 59.621094 79.835938 58.652344 78.800781 57.613281 C 78.199219 57.011719 77.378906 56.5625 76.574219 56.390625 C 76.328125 56.339844 75.5 56.277344 74.730469 56.257812 C 73.171875 56.210938 73.007812 56.25 72.800781 56.695312 L 72.675781 56.964844 L 67.875 56.964844 L 67.875 56.019531 C 67.875 55.136719 67.886719 55.078125 68.082031 54.882812 C 68.320312 54.644531 68.3125 54.75 68.285156 51.59375 C 68.269531 49.210938 68.238281 49.019531 67.820312 48.585938 C 67.695312 48.464844 67.433594 48.292969 67.226562 48.21875 C 66.882812 48.085938 66.457031 48.070312 62.296875 48.070312 C 58.011719 48.070312 57.726562 48.078125 57.453125 48.226562 C 56.664062 48.644531 56.386719 49.210938 56.386719 50.382812 L 56.386719 51.0625 L 53.761719 51.0625 L 53.761719 50.816406 C 53.761719 50.59375 53.785156 50.570312 54.007812 50.570312 C 54.359375 50.570312 54.695312 50.382812 54.820312 50.109375 C 54.976562 49.757812 54.851562 47.339844 54.65625 47.101562 C 54.515625 46.921875 54.515625 46.921875 50.402344 46.898438 L 46.292969 46.875 L 46.085938 47.078125 C 45.882812 47.28125 45.882812 47.300781 45.882812 48.675781 C 45.882812 50.003906 45.890625 50.078125 46.070312 50.285156 C 46.195312 50.429688 46.367188 50.511719 46.605469 50.546875 L 46.949219 50.59375 L 46.949219 57.441406 L 46.332031 57.957031 C 45.996094 58.234375 45.683594 58.570312 45.628906 58.703125 C 45.539062 58.929688 45.527344 58.929688 44.78125 58.929688 C 44.265625 58.929688 43.976562 58.964844 43.863281 59.046875 C 43.707031 59.152344 43.648438 59.144531 43.265625 58.921875 C 42.738281 58.621094 42.207031 58.101562 41.917969 57.613281 C 41.476562 56.867188 41.449219 56.578125 41.449219 52.808594 L 41.449219 49.339844 L 41.820312 49.339844 C 42.3125 49.339844 42.640625 49.160156 42.753906 48.839844 C 42.863281 48.527344 42.871094 46.355469 42.773438 45.816406 C 42.632812 45.117188 42.984375 45.160156 37.4375 45.160156 C 33.917969 45.167969 32.496094 45.191406 32.382812 45.257812 Z M 41.367188 47.25 L 41.367188 47.945312 L 33.40625 47.945312 L 33.40625 46.554688 L 41.367188 46.554688 Z M 53.433594 48.726562 L 53.433594 49.175781 L 47.277344 49.175781 L 47.277344 48.273438 L 53.433594 48.273438 Z M 40.054688 52.785156 C 40.054688 56.660156 40.097656 57.0625 40.597656 58.09375 C 41.089844 59.105469 42.1875 60.113281 43.183594 60.464844 L 43.585938 60.613281 L 43.585938 66.980469 L 43.320312 66.921875 C 42.722656 66.800781 41.285156 66.277344 40.546875 65.914062 C 37.96875 64.652344 36.140625 62.6875 35.335938 60.292969 C 34.859375 58.882812 34.867188 58.921875 34.828125 53.949219 L 34.785156 49.339844 L 40.054688 49.339844 Z M 66.816406 49.644531 C 66.90625 49.742188 66.941406 50.21875 66.957031 51.691406 L 66.980469 53.601562 L 65.332031 53.601562 L 65.332031 52.367188 C 65.332031 51.128906 65.285156 50.890625 65.011719 50.675781 C 64.789062 50.503906 64.363281 50.554688 64.140625 50.773438 C 63.945312 50.972656 63.9375 51.003906 63.9375 52.292969 L 63.9375 53.601562 L 63.035156 53.601562 L 63.035156 52.367188 C 63.035156 50.832031 62.929688 50.578125 62.28125 50.570312 C 62.050781 50.570312 61.941406 50.621094 61.8125 50.785156 C 61.65625 50.980469 61.640625 51.109375 61.640625 52.300781 L 61.640625 53.601562 L 60.738281 53.601562 L 60.738281 52.375 C 60.738281 50.800781 60.636719 50.570312 59.988281 50.570312 C 59.84375 50.570312 59.667969 50.652344 59.546875 50.773438 C 59.351562 50.972656 59.339844 51.003906 59.339844 52.292969 L 59.339844 53.601562 L 57.78125 53.601562 L 57.78125 51.710938 C 57.78125 50.5625 57.816406 49.757812 57.863281 49.660156 C 57.945312 49.511719 58.085938 49.503906 62.328125 49.503906 C 66.300781 49.503906 66.71875 49.519531 66.816406 49.644531 Z M 52.367188 52.503906 C 52.367188 54.464844 52.390625 54.667969 52.6875 54.890625 C 52.785156 54.964844 53.382812 54.988281 54.851562 54.996094 L 56.878906 54.996094 L 56.878906 56.949219 L 55.976562 56.980469 L 55.074219 57.003906 L 54.136719 57.941406 C 52.867188 59.210938 52.898438 59.226562 52.898438 57.160156 L 52.898438 55.554688 L 52.667969 55.355469 C 52.449219 55.167969 52.40625 55.160156 50.960938 55.160156 C 49.5 55.160156 49.484375 55.160156 49.289062 55.367188 C 49.171875 55.472656 49.082031 55.613281 49.082031 55.675781 C 49.082031 55.777344 48.515625 56.226562 48.386719 56.226562 C 48.359375 56.226562 48.34375 54.957031 48.34375 53.398438 L 48.34375 50.570312 L 52.367188 50.570312 Z M 56.386719 53.03125 L 56.386719 53.601562 L 53.761719 53.601562 L 53.761719 52.457031 L 56.386719 52.457031 Z M 66.480469 56.019531 L 66.480469 56.964844 L 58.273438 56.964844 L 58.273438 55.078125 L 66.480469 55.078125 Z M 51.503906 65.859375 L 51.503906 75.121094 L 50.996094 75.144531 L 50.476562 75.171875 L 50.476562 56.546875 L 50.996094 56.570312 L 51.503906 56.59375 Z M 49.082031 65.367188 L 49.082031 73.203125 L 46.949219 71.367188 L 46.949219 59.375 L 47.261719 59.078125 C 47.554688 58.792969 49.023438 57.539062 49.066406 57.539062 C 49.074219 57.539062 49.082031 61.0625 49.082031 65.367188 Z M 76.3125 57.785156 C 77.28125 58.011719 77.988281 58.570312 78.4375 59.488281 L 78.75 60.113281 L 78.75 71.6875 L 78.4375 72.308594 C 78.070312 73.0625 77.519531 73.597656 76.839844 73.859375 C 76.453125 74.015625 76.164062 74.054688 75.246094 74.078125 L 74.113281 74.113281 L 74.113281 57.703125 L 75.042969 57.703125 C 75.542969 57.703125 76.117188 57.742188 76.3125 57.785156 Z M 72.71875 59.09375 L 72.71875 59.832031 L 55.074219 59.832031 L 55.074219 61.226562 L 72.71875 61.226562 L 72.71875 62.128906 L 55.074219 62.128906 L 55.074219 63.523438 L 72.71875 63.523438 L 72.71875 64.421875 L 55.074219 64.421875 L 55.074219 65.816406 L 72.71875 65.816406 L 72.71875 66.71875 L 55.074219 66.71875 L 55.074219 68.113281 L 72.71875 68.113281 L 72.71875 69.015625 L 55.074219 69.015625 L 55.074219 70.40625 L 72.71875 70.40625 L 72.71875 71.472656 L 55.066406 71.472656 L 55.089844 72.144531 L 55.113281 72.824219 L 55.371094 72.851562 C 55.625 72.875 55.632812 72.882812 55.542969 73.160156 C 55.492188 73.316406 55.425781 73.433594 55.402344 73.425781 C 55.371094 73.40625 55.023438 73.0625 54.640625 72.652344 L 53.925781 71.898438 L 53.925781 60.121094 L 55.6875 58.359375 L 72.71875 58.359375 Z M 45.554688 64.390625 L 45.554688 68.449219 L 45.292969 68.421875 L 45.019531 68.398438 L 44.996094 64.359375 L 44.980469 60.324219 L 45.554688 60.324219 Z M 80.761719 66.351562 L 80.761719 68.851562 L 80.1875 68.851562 L 80.1875 63.851562 L 80.761719 63.851562 Z M 83.058594 66.308594 L 83.058594 67.292969 L 82.15625 67.292969 L 82.15625 65.324219 L 83.058594 65.324219 Z M 84.980469 67.980469 C 86.449219 69.152344 87.195312 71.800781 86.71875 74.136719 C 86.507812 75.160156 85.890625 76.34375 85.210938 77.03125 C 83.988281 78.242188 82.289062 78.695312 80.71875 78.210938 C 79.605469 77.875 78.464844 76.898438 77.988281 75.875 C 77.601562 75.0625 77.601562 75.039062 77.90625 74.90625 C 78.28125 74.753906 79.367188 73.644531 79.636719 73.136719 C 79.949219 72.546875 80.1875 71.5625 80.1875 70.84375 L 80.1875 70.242188 L 80.964844 70.242188 C 81.6875 70.242188 81.769531 70.226562 81.953125 70.039062 C 82.125 69.867188 82.15625 69.769531 82.15625 69.308594 L 82.15625 68.785156 L 83.109375 68.75 C 84.035156 68.726562 84.0625 68.71875 84.257812 68.496094 C 84.398438 68.332031 84.453125 68.167969 84.453125 67.941406 C 84.453125 67.570312 84.460938 67.570312 84.980469 67.980469 Z M 68.796875 75.105469 C 69.246094 76.316406 69.601562 77.316406 69.582031 77.34375 C 69.558594 77.359375 66.382812 77.367188 62.527344 77.359375 L 55.5 77.335938 L 55.863281 76.351562 C 56.058594 75.808594 56.429688 74.800781 56.683594 74.113281 L 57.140625 72.867188 L 62.558594 72.882812 L 67.976562 72.90625 Z M 72.71875 73.152344 L 72.71875 73.441406 L 71.191406 73.425781 L 69.664062 73.398438 L 69.558594 73.128906 L 69.445312 72.867188 L 72.71875 72.867188 Z M 72.316406 78.851562 C 72.734375 78.964844 73.023438 79.308594 73.160156 79.875 C 73.234375 80.136719 73.292969 80.390625 73.292969 80.425781 C 73.292969 80.457031 68.484375 80.488281 62.617188 80.488281 L 51.9375 80.488281 L 51.996094 80.105469 C 52.101562 79.375 52.375 79.015625 52.933594 78.84375 C 53.25 78.753906 71.964844 78.753906 72.316406 78.851562 Z M 72.316406 78.851562 " fill-opacity="1" fill-rule="nonzero"/></g><path fill="#000000" d="M 36.007812 50.503906 C 35.753906 50.703125 35.707031 51.0625 35.707031 52.613281 C 35.707031 54.308594 35.761719 54.613281 36.125 54.792969 C 36.4375 54.957031 36.625 54.949219 36.886719 54.742188 L 37.101562 54.578125 L 37.101562 52.710938 C 37.101562 50.9375 37.09375 50.824219 36.929688 50.621094 C 36.796875 50.457031 36.691406 50.40625 36.453125 50.40625 C 36.289062 50.40625 36.082031 50.457031 36.007812 50.503906 Z M 36.007812 50.503906 " fill-opacity="1" fill-rule="nonzero"/><path fill="#000000" d="M 35.976562 55.929688 C 35.753906 56.121094 35.746094 56.160156 35.746094 56.867188 C 35.746094 57.539062 35.761719 57.628906 35.945312 57.816406 C 36.328125 58.226562 36.96875 58.039062 37.140625 57.472656 C 37.175781 57.367188 37.175781 57.011719 37.140625 56.703125 C 37.09375 56.25 37.035156 56.070312 36.886719 55.921875 C 36.640625 55.675781 36.273438 55.675781 35.976562 55.929688 Z M 35.976562 55.929688 " fill-opacity="1" fill-rule="nonzero"/><g fill="#21282e" fill-opacity="1"><g transform="translate(11.743749, 20.750011)"><g><path d="M 1 0 L 1 -7 L 1.796875 -7 L 1.796875 0 Z M 1 0 "/></g></g></g><g fill="#21282e" fill-opacity="1"><g transform="translate(15.372625, 20.750011)"><g><path d="M 4.796875 0 L 2.59375 -2.84375 L 1.84375 -2.84375 L 1.84375 0 L 1.03125 0 L 1.03125 -7 L 3.203125 -7 C 3.648438 -7 4.046875 -6.925781 4.390625 -6.78125 C 4.734375 -6.632812 5.003906 -6.40625 5.203125 -6.09375 C 5.410156 -5.789062 5.515625 -5.394531 5.515625 -4.90625 C 5.515625 -4.28125 5.332031 -3.789062 4.96875 -3.4375 C 4.613281 -3.09375 4.128906 -2.898438 3.515625 -2.859375 L 5.734375 0 Z M 4.703125 -4.9375 C 4.703125 -5.382812 4.5625 -5.71875 4.28125 -5.9375 C 4 -6.164062 3.640625 -6.28125 3.203125 -6.28125 L 1.84375 -6.28125 L 1.84375 -3.5625 L 3.1875 -3.5625 C 3.664062 -3.5625 4.035156 -3.675781 4.296875 -3.90625 C 4.566406 -4.144531 4.703125 -4.488281 4.703125 -4.9375 Z M 4.703125 -4.9375 "/></g></g></g><g fill="#21282e" fill-opacity="1"><g transform="translate(22.420148, 20.750011)"><g><path d="M 4.796875 0 L 2.59375 -2.84375 L 1.84375 -2.84375 L 1.84375 0 L 1.03125 0 L 1.03125 -7 L 3.203125 -7 C 3.648438 -7 4.046875 -6.925781 4.390625 -6.78125 C 4.734375 -6.632812 5.003906 -6.40625 5.203125 -6.09375 C 5.410156 -5.789062 5.515625 -5.394531 5.515625 -4.90625 C 5.515625 -4.28125 5.332031 -3.789062 4.96875 -3.4375 C 4.613281 -3.09375 4.128906 -2.898438 3.515625 -2.859375 L 5.734375 0 Z M 4.703125 -4.9375 C 4.703125 -5.382812 4.5625 -5.71875 4.28125 -5.9375 C 4 -6.164062 3.640625 -6.28125 3.203125 -6.28125 L 1.84375 -6.28125 L 1.84375 -3.5625 L 3.1875 -3.5625 C 3.664062 -3.5625 4.035156 -3.675781 4.296875 -3.90625 C 4.566406 -4.144531 4.703125 -4.488281 4.703125 -4.9375 Z M 4.703125 -4.9375 "/></g></g></g><g fill="#21282e" fill-opacity="1"><g transform="translate(29.467671, 20.750011)"><g><path d="M 1 0 L 1 -7 L 1.796875 -7 L 1.796875 0 Z M 1 0 "/></g></g></g><g fill="#21282e" fill-opacity="1"><g transform="translate(33.096546, 20.750011)"><g><path d="M 3.71875 -3.484375 L 7.546875 -3.484375 L 7.515625 -3.15625 C 7.472656 -2.488281 7.300781 -1.910156 7 -1.421875 C 6.707031 -0.941406 6.316406 -0.566406 5.828125 -0.296875 C 5.335938 -0.0351562 4.773438 0.09375 4.140625 0.09375 C 3.578125 0.09375 3.078125 -0.00390625 2.640625 -0.203125 C 2.203125 -0.410156 1.832031 -0.679688 1.53125 -1.015625 C 1.226562 -1.359375 1 -1.742188 0.84375 -2.171875 C 0.6875 -2.597656 0.609375 -3.035156 0.609375 -3.484375 C 0.609375 -3.941406 0.6875 -4.382812 0.84375 -4.8125 C 1 -5.238281 1.226562 -5.625 1.53125 -5.96875 C 1.832031 -6.320312 2.203125 -6.597656 2.640625 -6.796875 C 3.078125 -7.003906 3.578125 -7.109375 4.140625 -7.109375 C 4.679688 -7.109375 5.1875 -7 5.65625 -6.78125 C 6.132812 -6.5625 6.550781 -6.253906 6.90625 -5.859375 L 6.328125 -5.390625 C 6.035156 -5.722656 5.703125 -5.96875 5.328125 -6.125 C 4.953125 -6.289062 4.554688 -6.375 4.140625 -6.375 C 3.710938 -6.375 3.328125 -6.289062 2.984375 -6.125 C 2.648438 -5.96875 2.363281 -5.75 2.125 -5.46875 C 1.894531 -5.195312 1.71875 -4.890625 1.59375 -4.546875 C 1.476562 -4.203125 1.421875 -3.847656 1.421875 -3.484375 C 1.421875 -3.140625 1.476562 -2.796875 1.59375 -2.453125 C 1.71875 -2.117188 1.894531 -1.8125 2.125 -1.53125 C 2.363281 -1.257812 2.648438 -1.039062 2.984375 -0.875 C 3.328125 -0.71875 3.710938 -0.640625 4.140625 -0.640625 C 4.523438 -0.640625 4.898438 -0.710938 5.265625 -0.859375 C 5.628906 -1.015625 5.941406 -1.25 6.203125 -1.5625 C 6.460938 -1.882812 6.625 -2.285156 6.6875 -2.765625 L 3.71875 -2.765625 Z M 3.71875 -3.484375 "/></g></g></g><g fill="#21282e" fill-opacity="1"><g transform="translate(42.19326, 20.750011)"><g><path d="M 5.296875 0 L 4.46875 -2.203125 L 1.796875 -2.203125 L 1 0 L 0.15625 0 L 2.671875 -7 L 3.59375 -7 L 6.125 0 Z M 2.796875 -5.203125 L 2.046875 -2.90625 L 4.21875 -2.90625 L 3.453125 -5.203125 L 3.15625 -6.171875 L 3.078125 -6.171875 Z M 2.796875 -5.203125 "/></g></g></g><g fill="#21282e" fill-opacity="1"><g transform="translate(49.330745, 20.750011)"><g><path d="M 4.40625 -7.015625 L 4.40625 -6.265625 L 2.671875 -6.265625 L 2.671875 0 L 1.859375 0 L 1.859375 -6.265625 L 0.109375 -6.265625 L 0.109375 -7.015625 Z M 4.40625 -7.015625 "/></g></g></g><g fill="#21282e" fill-opacity="1"><g transform="translate(54.738914, 20.750011)"><g><path d="M 1 0 L 1 -7 L 1.796875 -7 L 1.796875 0 Z M 1 0 "/></g></g></g><g fill="#21282e" fill-opacity="1"><g transform="translate(58.367789, 20.750011)"><g><path d="M 4.09375 0.125 C 3.59375 0.125 3.125 0.0351562 2.6875 -0.140625 C 2.25 -0.328125 1.867188 -0.582031 1.546875 -0.90625 C 1.222656 -1.238281 0.972656 -1.625 0.796875 -2.0625 C 0.617188 -2.5 0.53125 -2.972656 0.53125 -3.484375 C 0.53125 -4.003906 0.617188 -4.484375 0.796875 -4.921875 C 0.972656 -5.367188 1.222656 -5.753906 1.546875 -6.078125 C 1.867188 -6.398438 2.25 -6.65625 2.6875 -6.84375 C 3.125 -7.03125 3.59375 -7.125 4.09375 -7.125 C 4.601562 -7.125 5.070312 -7.03125 5.5 -6.84375 C 5.9375 -6.65625 6.316406 -6.398438 6.640625 -6.078125 C 6.960938 -5.753906 7.210938 -5.367188 7.390625 -4.921875 C 7.566406 -4.484375 7.65625 -4.003906 7.65625 -3.484375 C 7.65625 -2.972656 7.566406 -2.5 7.390625 -2.0625 C 7.210938 -1.625 6.960938 -1.238281 6.640625 -0.90625 C 6.316406 -0.582031 5.9375 -0.328125 5.5 -0.140625 C 5.070312 0.0351562 4.601562 0.125 4.09375 0.125 Z M 4.09375 -0.609375 C 4.632812 -0.609375 5.109375 -0.726562 5.515625 -0.96875 C 5.929688 -1.21875 6.253906 -1.5625 6.484375 -2 C 6.722656 -2.4375 6.84375 -2.929688 6.84375 -3.484375 C 6.84375 -4.046875 6.722656 -4.546875 6.484375 -4.984375 C 6.242188 -5.421875 5.914062 -5.765625 5.5 -6.015625 C 5.09375 -6.265625 4.625 -6.390625 4.09375 -6.390625 C 3.570312 -6.390625 3.101562 -6.265625 2.6875 -6.015625 C 2.269531 -5.765625 1.941406 -5.421875 1.703125 -4.984375 C 1.460938 -4.546875 1.34375 -4.046875 1.34375 -3.484375 C 1.34375 -2.929688 1.460938 -2.4375 1.703125 -2 C 1.941406 -1.5625 2.269531 -1.21875 2.6875 -0.96875 C 3.101562 -0.726562 3.570312 -0.609375 4.09375 -0.609375 Z M 4.09375 -0.609375 "/></g></g></g><g fill="#21282e" fill-opacity="1"><g transform="translate(67.474505, 20.750011)"><g><path d="M 1.03125 0 L 1.03125 -7.03125 L 2.015625 -7.03125 L 4.765625 -2.265625 L 5.453125 -0.953125 L 5.46875 -0.953125 L 5.375 -2.609375 L 5.375 -7.03125 L 6.1875 -7.03125 L 6.1875 0 L 5.203125 0 L 2.46875 -4.734375 L 1.765625 -6.0625 L 1.734375 -6.0625 L 1.84375 -4.4375 L 1.84375 0 Z M 1.03125 0 "/></g></g></g><g fill="#21282e" fill-opacity="1"><g transform="translate(75.591604, 20.750011)"><g/></g></g><g fill="#21282e" fill-opacity="1"><g transform="translate(79.050546, 20.750011)"><g><path d="M 3.0625 -7.015625 C 3.582031 -7.015625 4.007812 -6.90625 4.34375 -6.6875 C 4.675781 -6.46875 4.925781 -6.1875 5.09375 -5.84375 C 5.269531 -5.507812 5.359375 -5.15625 5.359375 -4.78125 C 5.359375 -4.414062 5.269531 -4.066406 5.09375 -3.734375 C 4.925781 -3.398438 4.675781 -3.125 4.34375 -2.90625 C 4.007812 -2.695312 3.585938 -2.59375 3.078125 -2.59375 L 1.8125 -2.59375 L 1.8125 0.015625 L 1.015625 0.015625 L 1.015625 -7.015625 Z M 3.0625 -3.3125 C 3.394531 -3.3125 3.671875 -3.382812 3.890625 -3.53125 C 4.117188 -3.675781 4.285156 -3.863281 4.390625 -4.09375 C 4.503906 -4.320312 4.5625 -4.550781 4.5625 -4.78125 C 4.5625 -5.019531 4.503906 -5.253906 4.390625 -5.484375 C 4.273438 -5.710938 4.109375 -5.898438 3.890625 -6.046875 C 3.671875 -6.203125 3.394531 -6.28125 3.0625 -6.28125 L 1.8125 -6.28125 L 1.8125 -3.3125 Z M 3.0625 -3.3125 "/></g></g></g><g fill="#21282e" fill-opacity="1"><g transform="translate(85.758203, 20.750011)"><g><path d="M 3.21875 0.109375 C 2.84375 0.109375 2.476562 0.0351562 2.125 -0.109375 C 1.769531 -0.253906 1.484375 -0.484375 1.265625 -0.796875 C 1.046875 -1.109375 0.9375 -1.507812 0.9375 -2 L 0.9375 -7 L 1.734375 -7 L 1.734375 -2 C 1.734375 -1.6875 1.804688 -1.425781 1.953125 -1.21875 C 2.097656 -1.007812 2.28125 -0.859375 2.5 -0.765625 C 2.726562 -0.671875 2.96875 -0.625 3.21875 -0.625 C 3.46875 -0.625 3.707031 -0.671875 3.9375 -0.765625 C 4.164062 -0.859375 4.351562 -1.007812 4.5 -1.21875 C 4.644531 -1.425781 4.71875 -1.6875 4.71875 -2 L 4.71875 -7 L 5.53125 -7 L 5.53125 -2 C 5.53125 -1.507812 5.414062 -1.109375 5.1875 -0.796875 C 4.957031 -0.492188 4.664062 -0.265625 4.3125 -0.109375 C 3.96875 0.0351562 3.601562 0.109375 3.21875 0.109375 Z M 3.21875 0.109375 "/></g></g></g><g fill="#21282e" fill-opacity="1"><g transform="translate(93.095616, 20.750011)"><g><path d="M 6.3125 -7.03125 L 7.296875 -7.03125 L 7.296875 0 L 6.484375 0 L 6.484375 -3.640625 L 6.578125 -5.796875 L 6.546875 -5.8125 L 5.734375 -3.78125 L 4.5 -1.09375 L 3.765625 -1.09375 L 2.546875 -3.765625 L 1.71875 -5.8125 L 1.6875 -5.796875 L 1.78125 -3.640625 L 1.78125 0 L 0.96875 0 L 0.96875 -7.03125 L 1.9375 -7.03125 L 4.125 -2.046875 Z M 6.3125 -7.03125 "/></g></g></g><g fill="#21282e" fill-opacity="1"><g transform="translate(102.33228, 20.750011)"><g><path d="M 3.0625 -7.015625 C 3.582031 -7.015625 4.007812 -6.90625 4.34375 -6.6875 C 4.675781 -6.46875 4.925781 -6.1875 5.09375 -5.84375 C 5.269531 -5.507812 5.359375 -5.15625 5.359375 -4.78125 C 5.359375 -4.414062 5.269531 -4.066406 5.09375 -3.734375 C 4.925781 -3.398438 4.675781 -3.125 4.34375 -2.90625 C 4.007812 -2.695312 3.585938 -2.59375 3.078125 -2.59375 L 1.8125 -2.59375 L 1.8125 0.015625 L 1.015625 0.015625 L 1.015625 -7.015625 Z M 3.0625 -3.3125 C 3.394531 -3.3125 3.671875 -3.382812 3.890625 -3.53125 C 4.117188 -3.675781 4.285156 -3.863281 4.390625 -4.09375 C 4.503906 -4.320312 4.5625 -4.550781 4.5625 -4.78125 C 4.5625 -5.019531 4.503906 -5.253906 4.390625 -5.484375 C 4.273438 -5.710938 4.109375 -5.898438 3.890625 -6.046875 C 3.671875 -6.203125 3.394531 -6.28125 3.0625 -6.28125 L 1.8125 -6.28125 L 1.8125 -3.3125 Z M 3.0625 -3.3125 "/></g></g></g><g fill="#21282e" fill-opacity="1"><g transform="translate(42.060154, 34.25001)"><g><path d="M 4.921875 -7 L 5.734375 -7 L 5.734375 0 L 4.921875 0 L 4.921875 -3.1875 L 1.8125 -3.1875 L 1.8125 0 L 1 0 L 1 -7 L 1.8125 -7 L 1.8125 -3.9375 L 4.921875 -3.9375 Z M 4.921875 -7 "/></g></g></g><g fill="#21282e" fill-opacity="1"><g transform="translate(49.687446, 34.25001)"><g><path d="M 4.09375 0.125 C 3.59375 0.125 3.125 0.0351562 2.6875 -0.140625 C 2.25 -0.328125 1.867188 -0.582031 1.546875 -0.90625 C 1.222656 -1.238281 0.972656 -1.625 0.796875 -2.0625 C 0.617188 -2.5 0.53125 -2.972656 0.53125 -3.484375 C 0.53125 -4.003906 0.617188 -4.484375 0.796875 -4.921875 C 0.972656 -5.367188 1.222656 -5.753906 1.546875 -6.078125 C 1.867188 -6.398438 2.25 -6.65625 2.6875 -6.84375 C 3.125 -7.03125 3.59375 -7.125 4.09375 -7.125 C 4.601562 -7.125 5.070312 -7.03125 5.5 -6.84375 C 5.9375 -6.65625 6.316406 -6.398438 6.640625 -6.078125 C 6.960938 -5.753906 7.210938 -5.367188 7.390625 -4.921875 C 7.566406 -4.484375 7.65625 -4.003906 7.65625 -3.484375 C 7.65625 -2.972656 7.566406 -2.5 7.390625 -2.0625 C 7.210938 -1.625 6.960938 -1.238281 6.640625 -0.90625 C 6.316406 -0.582031 5.9375 -0.328125 5.5 -0.140625 C 5.070312 0.0351562 4.601562 0.125 4.09375 0.125 Z M 4.09375 -0.609375 C 4.632812 -0.609375 5.109375 -0.726562 5.515625 -0.96875 C 5.929688 -1.21875 6.253906 -1.5625 6.484375 -2 C 6.722656 -2.4375 6.84375 -2.929688 6.84375 -3.484375 C 6.84375 -4.046875 6.722656 -4.546875 6.484375 -4.984375 C 6.242188 -5.421875 5.914062 -5.765625 5.5 -6.015625 C 5.09375 -6.265625 4.625 -6.390625 4.09375 -6.390625 C 3.570312 -6.390625 3.101562 -6.265625 2.6875 -6.015625 C 2.269531 -5.765625 1.941406 -5.421875 1.703125 -4.984375 C 1.460938 -4.546875 1.34375 -4.046875 1.34375 -3.484375 C 1.34375 -2.929688 1.460938 -2.4375 1.703125 -2 C 1.941406 -1.5625 2.269531 -1.21875 2.6875 -0.96875 C 3.101562 -0.726562 3.570312 -0.609375 4.09375 -0.609375 Z M 4.09375 -0.609375 "/></g></g></g><g fill="#21282e" fill-opacity="1"><g transform="translate(58.794162, 34.25001)"><g><path d="M 3.21875 0.109375 C 2.84375 0.109375 2.476562 0.0351562 2.125 -0.109375 C 1.769531 -0.253906 1.484375 -0.484375 1.265625 -0.796875 C 1.046875 -1.109375 0.9375 -1.507812 0.9375 -2 L 0.9375 -7 L 1.734375 -7 L 1.734375 -2 C 1.734375 -1.6875 1.804688 -1.425781 1.953125 -1.21875 C 2.097656 -1.007812 2.28125 -0.859375 2.5 -0.765625 C 2.726562 -0.671875 2.96875 -0.625 3.21875 -0.625 C 3.46875 -0.625 3.707031 -0.671875 3.9375 -0.765625 C 4.164062 -0.859375 4.351562 -1.007812 4.5 -1.21875 C 4.644531 -1.425781 4.71875 -1.6875 4.71875 -2 L 4.71875 -7 L 5.53125 -7 L 5.53125 -2 C 5.53125 -1.507812 5.414062 -1.109375 5.1875 -0.796875 C 4.957031 -0.492188 4.664062 -0.265625 4.3125 -0.109375 C 3.96875 0.0351562 3.601562 0.109375 3.21875 0.109375 Z M 3.21875 0.109375 "/></g></g></g><g fill="#21282e" fill-opacity="1"><g transform="translate(66.131575, 34.25001)"><g><path d="M 2.6875 0.125 C 2.257812 0.125 1.835938 0.00390625 1.421875 -0.234375 C 1.015625 -0.472656 0.710938 -0.832031 0.515625 -1.3125 L 1.1875 -1.65625 C 1.363281 -1.300781 1.585938 -1.035156 1.859375 -0.859375 C 2.128906 -0.691406 2.421875 -0.609375 2.734375 -0.609375 C 3.140625 -0.609375 3.472656 -0.722656 3.734375 -0.953125 C 3.992188 -1.191406 4.125 -1.5 4.125 -1.875 C 4.125 -2.175781 4.046875 -2.421875 3.890625 -2.609375 C 3.734375 -2.796875 3.539062 -2.941406 3.3125 -3.046875 C 3.09375 -3.148438 2.875 -3.234375 2.65625 -3.296875 C 2.445312 -3.347656 2.226562 -3.421875 2 -3.515625 C 1.78125 -3.609375 1.570312 -3.726562 1.375 -3.875 C 1.1875 -4.03125 1.035156 -4.222656 0.921875 -4.453125 C 0.804688 -4.679688 0.75 -4.957031 0.75 -5.28125 C 0.75 -5.707031 0.847656 -6.054688 1.046875 -6.328125 C 1.253906 -6.597656 1.515625 -6.796875 1.828125 -6.921875 C 2.148438 -7.054688 2.472656 -7.125 2.796875 -7.125 C 3.210938 -7.125 3.597656 -7.015625 3.953125 -6.796875 C 4.304688 -6.585938 4.578125 -6.257812 4.765625 -5.8125 L 4.125 -5.515625 C 3.976562 -5.835938 3.785156 -6.066406 3.546875 -6.203125 C 3.304688 -6.335938 3.046875 -6.40625 2.765625 -6.40625 C 2.566406 -6.40625 2.375 -6.363281 2.1875 -6.28125 C 2 -6.195312 1.84375 -6.066406 1.71875 -5.890625 C 1.59375 -5.722656 1.53125 -5.503906 1.53125 -5.234375 C 1.53125 -4.972656 1.601562 -4.757812 1.75 -4.59375 C 1.90625 -4.425781 2.082031 -4.296875 2.28125 -4.203125 C 2.488281 -4.109375 2.6875 -4.039062 2.875 -4 C 3.125 -3.9375 3.367188 -3.851562 3.609375 -3.75 C 3.859375 -3.644531 4.082031 -3.507812 4.28125 -3.34375 C 4.476562 -3.1875 4.632812 -2.984375 4.75 -2.734375 C 4.875 -2.492188 4.9375 -2.195312 4.9375 -1.84375 C 4.9375 -1.5 4.867188 -1.203125 4.734375 -0.953125 C 4.597656 -0.710938 4.414062 -0.507812 4.1875 -0.34375 C 3.96875 -0.1875 3.722656 -0.0703125 3.453125 0 C 3.191406 0.0820312 2.9375 0.125 2.6875 0.125 Z M 2.6875 0.125 "/></g></g></g><g fill="#21282e" fill-opacity="1"><g transform="translate(72.589327, 34.25001)"><g><path d="M 4.5625 -6.296875 L 1.625 -6.296875 L 1.625 -3.90625 L 4.53125 -3.90625 L 4.53125 -3.203125 L 1.625 -3.203125 L 1.625 -0.703125 L 4.5625 -0.703125 L 4.5625 0 L 0.828125 0 L 0.828125 -7.015625 L 4.5625 -7.015625 Z M 4.5625 -6.296875 "/></g></g></g></svg>