<svg xmlns="http://www.w3.org/2000/svg" xmlns:xlink="http://www.w3.org/1999/xlink" width="160" zoomAndPan="magnify" viewBox="0 0 120 119.999999" height="160" preserveAspectRatio="xMidYMid meet" version="1.0"><defs><g/><clipPath id="f0ec56c999"><path d="M 5 3 L 22 3 L 22 10 L 5 10 Z M 5 3 " clip-rule="nonzero"/></clipPath><clipPath id="844b7b5457"><path d="M 19.808594 0.914062 L 22.929688 9.4375 L 7.273438 15.175781 L 4.148438 6.652344 Z M 19.808594 0.914062 " clip-rule="nonzero"/></clipPath><clipPath id="90eeaf6e84"><path d="M 19.808594 0.914062 L 22.929688 9.4375 L 7.273438 15.175781 L 4.148438 6.652344 Z M 19.808594 0.914062 " clip-rule="nonzero"/></clipPath><clipPath id="ec4514370a"><path d="M 0.761719 9 L 25.238281 9 L 25.238281 19 L 0.761719 19 Z M 0.761719 9 " clip-rule="nonzero"/></clipPath><clipPath id="71189a7c5d"><rect x="0" width="26" y="0" height="10"/></clipPath><clipPath id="f0206087a2"><path d="M 4 12 L 23 12 L 23 26.441406 L 4 26.441406 Z M 4 12 " clip-rule="nonzero"/></clipPath><clipPath id="88086da052"><path d="M 19.808594 12.074219 L 22.929688 20.597656 L 7.273438 26.335938 L 4.148438 17.8125 Z M 19.808594 12.074219 " clip-rule="nonzero"/></clipPath><clipPath id="e5b7b17d09"><path d="M 1 5 L 18 5 L 18 12 L 1 12 Z M 1 5 " clip-rule="nonzero"/></clipPath><clipPath id="31fd511e0a"><path d="M 15.808594 0.0742188 L 18.929688 8.597656 L 3.273438 14.335938 L 0.148438 5.8125 Z M 15.808594 0.0742188 " clip-rule="nonzero"/></clipPath><clipPath id="38e413fecb"><path d="M 3.273438 14.347656 L 0.148438 5.824219 L 15.808594 0.0859375 L 18.933594 8.609375 Z M 3.273438 14.347656 " clip-rule="nonzero"/></clipPath><clipPath id="d86eabc6e7"><rect x="0" width="19" y="0" height="15"/></clipPath><clipPath id="dede5e0553"><rect x="0" width="26" y="0" height="27"/></clipPath><clipPath id="3b55430e46"><path d="M 30.625 39.140625 L 81 39.140625 L 81 80.851562 L 30.625 80.851562 Z M 30.625 39.140625 " clip-rule="nonzero"/></clipPath><clipPath id="4cfc8a1d1a"><path d="M 81 46 L 89.125 46 L 89.125 55 L 81 55 Z M 81 46 " clip-rule="nonzero"/></clipPath></defs><rect x="-12" width="144" fill="#ffffff" y="-12" height="143.999998" fill-opacity="1"/><rect x="-12" width="144" fill="#ffffff" y="-12" height="143.999998" fill-opacity="1"/><g transform="matrix(1, 0, 0, 1, 47, 89)"><g clip-path="url(#dede5e0553)"><g clip-path="url(#f0ec56c999)"><g clip-path="url(#844b7b5457)"><g clip-path="url(#90eeaf6e84)"><path fill="#212121" d="M 21.421875 5.347656 C 21.328125 5.09375 21.230469 4.933594 21.144531 4.917969 C 20.773438 4.863281 20.609375 6.242188 20.539062 7.128906 C 19.863281 6.332031 18.867188 5.441406 17.488281 4.792969 C 16.117188 4.148438 14.511719 3.824219 12.867188 3.960938 C 11.109375 4.105469 9.5 4.761719 8.234375 5.691406 C 6.539062 6.9375 5.65625 8.492188 5.210938 9.53125 C 5.660156 8.484375 6.605469 6.972656 8.332031 5.832031 C 9.621094 4.980469 11.210938 4.4375 12.890625 4.394531 C 14.460938 4.359375 15.945312 4.753906 17.179688 5.417969 C 18.449219 6.097656 19.332031 6.980469 19.929688 7.734375 C 19.046875 7.5625 17.449219 7.300781 17.402344 7.65625 C 17.339844 8.144531 21.203125 10.082031 21.808594 9.636719 C 22.226562 9.324219 21.835938 6.453125 21.421875 5.347656 Z M 21.421875 5.347656 " fill-opacity="1" fill-rule="nonzero"/></g></g></g><g clip-path="url(#ec4514370a)"><g transform="matrix(1, 0, 0, 1, 0, 9)"><g clip-path="url(#71189a7c5d)"><g fill="#000000" fill-opacity="1"><g transform="translate(0.81023, 7.19389)"><g><path d="M 2.28125 0.09375 C 1.875 0.09375 1.484375 0.0390625 1.109375 -0.0625 C 0.734375 -0.175781 0.429688 -0.320312 0.203125 -0.5 L 0.609375 -1.390625 C 0.828125 -1.234375 1.082031 -1.101562 1.375 -1 C 1.675781 -0.90625 1.976562 -0.859375 2.28125 -0.859375 C 2.613281 -0.859375 2.859375 -0.90625 3.015625 -1 C 3.179688 -1.101562 3.265625 -1.238281 3.265625 -1.40625 C 3.265625 -1.53125 3.21875 -1.628906 3.125 -1.703125 C 3.03125 -1.785156 2.910156 -1.847656 2.765625 -1.890625 C 2.617188 -1.941406 2.414062 -2 2.15625 -2.0625 C 1.769531 -2.15625 1.453125 -2.242188 1.203125 -2.328125 C 0.960938 -2.421875 0.753906 -2.570312 0.578125 -2.78125 C 0.398438 -2.988281 0.3125 -3.257812 0.3125 -3.59375 C 0.3125 -3.894531 0.390625 -4.164062 0.546875 -4.40625 C 0.703125 -4.644531 0.941406 -4.832031 1.265625 -4.96875 C 1.585938 -5.113281 1.984375 -5.1875 2.453125 -5.1875 C 2.773438 -5.1875 3.09375 -5.144531 3.40625 -5.0625 C 3.71875 -4.988281 3.988281 -4.878906 4.21875 -4.734375 L 3.859375 -3.84375 C 3.390625 -4.101562 2.921875 -4.234375 2.453125 -4.234375 C 2.117188 -4.234375 1.875 -4.179688 1.71875 -4.078125 C 1.5625 -3.972656 1.484375 -3.832031 1.484375 -3.65625 C 1.484375 -3.476562 1.570312 -3.347656 1.75 -3.265625 C 1.9375 -3.179688 2.210938 -3.097656 2.578125 -3.015625 C 2.972656 -2.921875 3.289062 -2.828125 3.53125 -2.734375 C 3.78125 -2.640625 3.992188 -2.492188 4.171875 -2.296875 C 4.347656 -2.097656 4.4375 -1.832031 4.4375 -1.5 C 4.4375 -1.207031 4.351562 -0.9375 4.1875 -0.6875 C 4.03125 -0.445312 3.789062 -0.253906 3.46875 -0.109375 C 3.144531 0.0234375 2.75 0.09375 2.28125 0.09375 Z M 2.28125 0.09375 "/></g></g></g><g fill="#000000" fill-opacity="1"><g transform="translate(5.073316, 7.19389)"><g><path d="M 0.53125 -3.921875 L 1.65625 -3.921875 L 1.65625 0 L 0.53125 0 Z M 1.09375 -4.46875 C 0.882812 -4.46875 0.710938 -4.523438 0.578125 -4.640625 C 0.453125 -4.765625 0.390625 -4.914062 0.390625 -5.09375 C 0.390625 -5.269531 0.453125 -5.421875 0.578125 -5.546875 C 0.710938 -5.671875 0.882812 -5.734375 1.09375 -5.734375 C 1.300781 -5.734375 1.46875 -5.671875 1.59375 -5.546875 C 1.726562 -5.429688 1.796875 -5.289062 1.796875 -5.125 C 1.796875 -4.925781 1.726562 -4.765625 1.59375 -4.640625 C 1.46875 -4.523438 1.300781 -4.46875 1.09375 -4.46875 Z M 1.09375 -4.46875 "/></g></g></g><g fill="#000000" fill-opacity="1"><g transform="translate(6.880514, 7.19389)"><g><path d="M 5.546875 -3.96875 C 6.035156 -3.96875 6.421875 -3.820312 6.703125 -3.53125 C 6.992188 -3.25 7.140625 -2.820312 7.140625 -2.25 L 7.140625 0 L 6 0 L 6 -2.0625 C 6 -2.375 5.9375 -2.609375 5.8125 -2.765625 C 5.6875 -2.921875 5.503906 -3 5.265625 -3 C 4.992188 -3 4.78125 -2.910156 4.625 -2.734375 C 4.46875 -2.554688 4.390625 -2.300781 4.390625 -1.96875 L 4.390625 0 L 3.265625 0 L 3.265625 -2.0625 C 3.265625 -2.6875 3.015625 -3 2.515625 -3 C 2.253906 -3 2.046875 -2.910156 1.890625 -2.734375 C 1.734375 -2.554688 1.65625 -2.300781 1.65625 -1.96875 L 1.65625 0 L 0.53125 0 L 0.53125 -3.921875 L 1.609375 -3.921875 L 1.609375 -3.46875 C 1.753906 -3.632812 1.929688 -3.757812 2.140625 -3.84375 C 2.359375 -3.925781 2.59375 -3.96875 2.84375 -3.96875 C 3.113281 -3.96875 3.359375 -3.910156 3.578125 -3.796875 C 3.804688 -3.691406 3.988281 -3.535156 4.125 -3.328125 C 4.289062 -3.535156 4.492188 -3.691406 4.734375 -3.796875 C 4.984375 -3.910156 5.253906 -3.96875 5.546875 -3.96875 Z M 5.546875 -3.96875 "/></g></g></g><g fill="#000000" fill-opacity="1"><g transform="translate(14.138764, 7.19389)"><g><path d="M 2.84375 -3.96875 C 3.207031 -3.96875 3.535156 -3.882812 3.828125 -3.71875 C 4.128906 -3.550781 4.363281 -3.316406 4.53125 -3.015625 C 4.707031 -2.710938 4.796875 -2.359375 4.796875 -1.953125 C 4.796875 -1.554688 4.707031 -1.203125 4.53125 -0.890625 C 4.363281 -0.585938 4.128906 -0.351562 3.828125 -0.1875 C 3.535156 -0.0195312 3.207031 0.0625 2.84375 0.0625 C 2.34375 0.0625 1.945312 -0.0976562 1.65625 -0.421875 L 1.65625 1.40625 L 0.53125 1.40625 L 0.53125 -3.921875 L 1.609375 -3.921875 L 1.609375 -3.46875 C 1.890625 -3.800781 2.300781 -3.96875 2.84375 -3.96875 Z M 2.640625 -0.875 C 2.929688 -0.875 3.171875 -0.972656 3.359375 -1.171875 C 3.546875 -1.367188 3.640625 -1.628906 3.640625 -1.953125 C 3.640625 -2.285156 3.546875 -2.550781 3.359375 -2.75 C 3.171875 -2.945312 2.929688 -3.046875 2.640625 -3.046875 C 2.347656 -3.046875 2.109375 -2.945312 1.921875 -2.75 C 1.734375 -2.550781 1.640625 -2.285156 1.640625 -1.953125 C 1.640625 -1.628906 1.734375 -1.367188 1.921875 -1.171875 C 2.109375 -0.972656 2.347656 -0.875 2.640625 -0.875 Z M 2.640625 -0.875 "/></g></g></g><g fill="#000000" fill-opacity="1"><g transform="translate(18.7808, 7.19389)"><g><path d="M 0.53125 -5.40625 L 1.65625 -5.40625 L 1.65625 0 L 0.53125 0 Z M 0.53125 -5.40625 "/></g></g></g><g fill="#000000" fill-opacity="1"><g transform="translate(20.587998, 7.19389)"><g><path d="M 4.359375 -1.9375 C 4.359375 -1.925781 4.351562 -1.828125 4.34375 -1.640625 L 1.375 -1.640625 C 1.425781 -1.398438 1.550781 -1.207031 1.75 -1.0625 C 1.945312 -0.925781 2.195312 -0.859375 2.5 -0.859375 C 2.695312 -0.859375 2.875 -0.882812 3.03125 -0.9375 C 3.195312 -1 3.347656 -1.097656 3.484375 -1.234375 L 4.078125 -0.578125 C 3.710938 -0.148438 3.175781 0.0625 2.46875 0.0625 C 2.03125 0.0625 1.640625 -0.0195312 1.296875 -0.1875 C 0.953125 -0.363281 0.6875 -0.601562 0.5 -0.90625 C 0.320312 -1.21875 0.234375 -1.566406 0.234375 -1.953125 C 0.234375 -2.335938 0.320312 -2.679688 0.5 -2.984375 C 0.6875 -3.296875 0.9375 -3.535156 1.25 -3.703125 C 1.570312 -3.878906 1.929688 -3.96875 2.328125 -3.96875 C 2.703125 -3.96875 3.046875 -3.882812 3.359375 -3.71875 C 3.671875 -3.5625 3.914062 -3.328125 4.09375 -3.015625 C 4.269531 -2.710938 4.359375 -2.351562 4.359375 -1.9375 Z M 2.328125 -3.109375 C 2.066406 -3.109375 1.847656 -3.035156 1.671875 -2.890625 C 1.503906 -2.742188 1.398438 -2.546875 1.359375 -2.296875 L 3.296875 -2.296875 C 3.253906 -2.546875 3.144531 -2.742188 2.96875 -2.890625 C 2.789062 -3.035156 2.578125 -3.109375 2.328125 -3.109375 Z M 2.328125 -3.109375 "/></g></g></g></g></g></g><g clip-path="url(#f0206087a2)"><g clip-path="url(#88086da052)"><g transform="matrix(1, 0, 0, 1, 4, 12)"><g clip-path="url(#d86eabc6e7)"><g clip-path="url(#e5b7b17d09)"><g clip-path="url(#31fd511e0a)"><g clip-path="url(#38e413fecb)"><path fill="#212121" d="M 1.65625 9.914062 C 1.753906 10.167969 1.847656 10.328125 1.9375 10.339844 C 2.304688 10.398438 2.472656 9.019531 2.542969 8.132812 C 3.214844 8.929688 4.210938 9.820312 5.589844 10.464844 C 6.960938 11.109375 8.570312 11.433594 10.210938 11.300781 C 11.972656 11.15625 13.578125 10.5 14.847656 9.570312 C 16.539062 8.324219 17.421875 6.769531 17.871094 5.730469 C 17.417969 6.777344 16.472656 8.289062 14.75 9.429688 C 13.460938 10.28125 11.867188 10.824219 10.1875 10.867188 C 8.621094 10.902344 7.136719 10.503906 5.902344 9.84375 C 4.632812 9.164062 3.746094 8.28125 3.152344 7.527344 C 4.03125 7.699219 5.632812 7.960938 5.675781 7.605469 C 5.738281 7.117188 1.875 5.179688 1.269531 5.625 C 0.851562 5.933594 1.242188 8.808594 1.65625 9.914062 Z M 1.65625 9.914062 " fill-opacity="1" fill-rule="nonzero"/></g></g></g></g></g></g></g></g></g><path fill="#000000" d="M 80.972656 45.453125 C 81.246094 45.175781 81.246094 44.726562 80.972656 44.453125 C 80.691406 44.175781 80.246094 44.175781 79.972656 44.453125 L 79.261719 45.160156 C 78.984375 45.4375 78.984375 45.882812 79.261719 46.160156 C 79.539062 46.433594 79.984375 46.433594 80.261719 46.160156 L 80.972656 45.453125 " fill-opacity="1" fill-rule="nonzero"/><path fill="#000000" d="M 81.761719 45.9375 L 81.664062 45.417969 C 81.636719 45.277344 81.457031 45.222656 81.351562 45.324219 L 80.136719 46.542969 C 80.03125 46.648438 80.085938 46.824219 80.226562 46.851562 L 80.746094 46.949219 C 80.808594 46.960938 80.867188 46.945312 80.90625 46.898438 L 81.710938 46.097656 C 81.753906 46.058594 81.769531 45.992188 81.761719 45.9375 " fill-opacity="1" fill-rule="nonzero"/><path fill="#000000" d="M 41.222656 64.910156 C 41.820312 64.316406 42.78125 64.316406 43.378906 64.910156 C 43.976562 65.507812 43.976562 66.476562 43.378906 67.074219 C 42.78125 67.671875 41.820312 67.671875 41.222656 67.074219 C 40.625 66.476562 40.625 65.507812 41.222656 64.910156 Z M 40.289062 66.386719 C 40.214844 66.398438 40.171875 66.46875 40.1875 66.539062 C 40.238281 66.734375 40.316406 66.921875 40.417969 67.097656 C 40.457031 67.160156 40.539062 67.179688 40.601562 67.136719 C 40.65625 67.101562 40.730469 67.109375 40.773438 67.164062 C 40.824219 67.230469 40.878906 67.292969 40.9375 67.351562 C 40.996094 67.414062 41.0625 67.46875 41.125 67.519531 C 41.179688 67.558594 41.195312 67.632812 41.152344 67.6875 L 41.152344 67.691406 C 41.117188 67.753906 41.132812 67.835938 41.195312 67.871094 C 41.375 67.972656 41.558594 68.050781 41.753906 68.101562 C 41.824219 68.121094 41.898438 68.074219 41.910156 68.003906 L 41.910156 68 C 41.917969 67.9375 41.984375 67.890625 42.046875 67.898438 C 42.128906 67.914062 42.214844 67.917969 42.300781 67.917969 C 42.386719 67.917969 42.46875 67.914062 42.554688 67.898438 C 42.617188 67.890625 42.679688 67.9375 42.691406 68 L 42.691406 68.003906 C 42.703125 68.074219 42.777344 68.121094 42.847656 68.101562 C 43.039062 68.050781 43.226562 67.972656 43.40625 67.871094 C 43.464844 67.835938 43.484375 67.753906 43.441406 67.691406 L 43.441406 67.6875 C 43.40625 67.632812 43.421875 67.558594 43.476562 67.519531 C 43.539062 67.46875 43.605469 67.414062 43.664062 67.351562 C 43.722656 67.292969 43.777344 67.230469 43.828125 67.164062 C 43.871094 67.109375 43.945312 67.101562 44 67.136719 C 44.058594 67.179688 44.140625 67.160156 44.175781 67.097656 C 44.28125 66.921875 44.359375 66.734375 44.410156 66.539062 C 44.429688 66.46875 44.382812 66.398438 44.3125 66.386719 C 44.246094 66.371094 44.199219 66.308594 44.210938 66.242188 C 44.222656 66.160156 44.226562 66.078125 44.226562 65.988281 C 44.226562 65.90625 44.222656 65.824219 44.210938 65.742188 C 44.199219 65.671875 44.246094 65.613281 44.3125 65.601562 C 44.382812 65.585938 44.429688 65.511719 44.410156 65.445312 C 44.359375 65.25 44.28125 65.0625 44.175781 64.890625 C 44.140625 64.824219 44.058594 64.804688 44 64.847656 C 43.945312 64.882812 43.871094 64.871094 43.828125 64.820312 C 43.777344 64.75 43.722656 64.691406 43.664062 64.628906 C 43.605469 64.566406 43.539062 64.511719 43.476562 64.460938 C 43.421875 64.425781 43.40625 64.347656 43.441406 64.292969 C 43.484375 64.230469 43.464844 64.148438 43.40625 64.113281 C 43.226562 64.007812 43.039062 63.929688 42.847656 63.878906 C 42.777344 63.859375 42.703125 63.90625 42.691406 63.980469 C 42.679688 64.046875 42.617188 64.089844 42.554688 64.082031 C 42.46875 64.070312 42.386719 64.066406 42.300781 64.066406 C 42.214844 64.066406 42.128906 64.070312 42.046875 64.082031 C 41.984375 64.089844 41.917969 64.046875 41.910156 63.980469 C 41.898438 63.90625 41.824219 63.859375 41.753906 63.878906 C 41.558594 63.929688 41.375 64.007812 41.195312 64.113281 C 41.132812 64.148438 41.117188 64.230469 41.152344 64.292969 C 41.195312 64.347656 41.179688 64.425781 41.125 64.460938 C 41.0625 64.511719 40.996094 64.566406 40.9375 64.628906 C 40.878906 64.691406 40.824219 64.75 40.773438 64.820312 C 40.730469 64.871094 40.65625 64.882812 40.601562 64.847656 C 40.539062 64.804688 40.457031 64.824219 40.417969 64.890625 C 40.316406 65.0625 40.238281 65.25 40.1875 65.445312 C 40.171875 65.511719 40.214844 65.585938 40.289062 65.601562 C 40.355469 65.613281 40.398438 65.671875 40.390625 65.742188 C 40.378906 65.824219 40.371094 65.90625 40.371094 65.988281 C 40.371094 66.078125 40.378906 66.160156 40.390625 66.242188 C 40.398438 66.308594 40.355469 66.371094 40.289062 66.386719 " fill-opacity="1" fill-rule="nonzero"/><path fill="#000000" d="M 42.613281 66.15625 C 42.6875 66.023438 42.664062 65.851562 42.554688 65.742188 C 42.4375 65.628906 42.269531 65.609375 42.136719 65.679688 C 42.121094 65.6875 42.117188 65.707031 42.128906 65.71875 L 42.570312 66.160156 C 42.585938 66.171875 42.609375 66.171875 42.613281 66.15625 " fill-opacity="1" fill-rule="nonzero"/><path fill="#000000" d="M 42.464844 66.308594 C 42.480469 66.296875 42.484375 66.273438 42.46875 66.261719 L 42.03125 65.820312 C 42.015625 65.8125 41.992188 65.8125 41.988281 65.824219 C 41.914062 65.960938 41.9375 66.128906 42.046875 66.242188 C 42.164062 66.351562 42.332031 66.375 42.464844 66.308594 " fill-opacity="1" fill-rule="nonzero"/><g clip-path="url(#3b55430e46)"><path fill="#000000" d="M 47.394531 55.089844 L 46.664062 54.359375 C 46.589844 54.285156 46.570312 54.195312 46.613281 54.152344 L 46.691406 54.070312 C 46.734375 54.03125 46.824219 54.054688 46.898438 54.121094 L 47.628906 54.855469 C 47.703125 54.925781 47.726562 55.015625 47.679688 55.0625 L 47.601562 55.140625 C 47.558594 55.1875 47.464844 55.164062 47.394531 55.089844 Z M 46.761719 55.984375 L 46.628906 56.113281 C 46.558594 56.183594 46.445312 56.183594 46.371094 56.113281 L 45.640625 55.378906 C 45.566406 55.308594 45.566406 55.195312 45.640625 55.121094 L 45.769531 54.992188 C 45.84375 54.925781 45.957031 54.925781 46.027344 54.992188 L 46.761719 55.722656 C 46.832031 55.796875 46.832031 55.910156 46.761719 55.984375 Z M 45.792969 56.949219 L 45.714844 57.03125 C 45.667969 57.078125 45.574219 57.054688 45.5 56.984375 L 44.769531 56.25 C 44.699219 56.183594 44.679688 56.085938 44.722656 56.039062 L 44.804688 55.957031 C 44.851562 55.910156 44.949219 55.933594 45.015625 56.003906 L 45.746094 56.738281 C 45.820312 56.804688 45.839844 56.902344 45.792969 56.949219 Z M 80.375 43.527344 L 78.4375 41.597656 C 78.371094 41.523438 78.25 41.523438 78.179688 41.597656 L 77.835938 41.941406 C 77.765625 42.011719 77.648438 42.011719 77.582031 41.941406 L 76.867188 41.230469 C 76.796875 41.160156 76.679688 41.160156 76.613281 41.230469 L 76.289062 41.546875 L 74.992188 40.242188 C 73.527344 38.777344 71.144531 38.777344 69.679688 40.242188 L 57.957031 51.972656 C 57.625 52.300781 57.222656 52.535156 56.777344 52.65625 L 55.105469 53.113281 C 54.476562 53.285156 53.898438 53.617188 53.4375 54.082031 L 51.792969 55.722656 L 51.632812 55.5625 C 51.488281 55.421875 51.253906 55.421875 51.117188 55.5625 L 49.339844 57.339844 L 47.566406 55.5625 L 48.082031 55.046875 C 48.453125 54.671875 48.453125 54.066406 48.082031 53.695312 C 47.707031 53.320312 47.101562 53.320312 46.730469 53.695312 L 44.339844 56.082031 C 43.964844 56.453125 43.964844 57.058594 44.339844 57.433594 C 44.714844 57.808594 45.320312 57.808594 45.695312 57.433594 L 46.210938 56.917969 L 47.988281 58.691406 L 47.210938 59.46875 C 47.070312 59.609375 47.070312 59.839844 47.210938 59.984375 L 47.308594 60.078125 L 43.457031 63.933594 C 43.472656 63.9375 43.484375 63.949219 43.5 63.957031 C 43.519531 63.964844 43.539062 63.984375 43.558594 64.003906 C 43.648438 64.09375 43.671875 64.230469 43.621094 64.347656 C 43.683594 64.398438 43.738281 64.449219 43.792969 64.5 C 43.847656 64.554688 43.898438 64.613281 43.945312 64.667969 C 44.058594 64.617188 44.195312 64.640625 44.289062 64.734375 C 44.304688 64.75 44.324219 64.773438 44.339844 64.792969 C 44.34375 64.804688 44.351562 64.824219 44.359375 64.839844 L 48.210938 60.984375 L 48.308594 61.078125 C 48.449219 61.222656 48.679688 61.222656 48.820312 61.078125 L 52.726562 57.179688 C 52.871094 57.035156 52.871094 56.800781 52.726562 56.660156 L 52.566406 56.5 L 54.210938 54.855469 C 54.535156 54.527344 54.945312 54.292969 55.390625 54.167969 L 57.058594 53.714844 C 57.6875 53.542969 58.265625 53.207031 58.726562 52.746094 L 70.457031 41.019531 C 71.496094 39.980469 73.179688 39.980469 74.214844 41.019531 L 75.519531 42.320312 L 75.371094 42.464844 L 74.988281 42.078125 C 73.707031 40.796875 71.621094 40.796875 70.34375 42.078125 L 53.40625 59.015625 L 53.242188 58.851562 C 53.171875 58.785156 53.058594 58.785156 52.984375 58.851562 L 50.148438 61.695312 C 50.121094 61.71875 50.113281 61.746094 50.101562 61.777344 L 49.886719 61.566406 C 49.746094 61.421875 49.515625 61.421875 49.371094 61.566406 L 48.082031 62.855469 C 47.941406 62.996094 47.941406 63.226562 48.082031 63.371094 L 48.257812 63.542969 L 44.539062 66.335938 C 44.589844 66.40625 44.609375 66.5 44.585938 66.585938 C 44.53125 66.796875 44.449219 67 44.339844 67.1875 C 44.292969 67.261719 44.222656 67.316406 44.140625 67.335938 C 44.070312 67.347656 44.003906 67.339844 43.945312 67.3125 C 43.894531 67.371094 43.84375 67.429688 43.792969 67.480469 C 43.738281 67.535156 43.683594 67.585938 43.621094 67.632812 C 43.648438 67.699219 43.660156 67.765625 43.640625 67.832031 C 43.621094 67.914062 43.570312 67.988281 43.5 68.027344 C 43.304688 68.136719 43.105469 68.226562 42.890625 68.28125 C 42.785156 68.308594 42.675781 68.277344 42.597656 68.199219 C 42.5625 68.164062 42.539062 68.125 42.523438 68.085938 C 42.453125 68.097656 42.375 68.101562 42.300781 68.101562 C 42.226562 68.101562 42.148438 68.097656 42.070312 68.085938 C 42.046875 68.152344 42.007812 68.207031 41.945312 68.238281 C 41.878906 68.285156 41.785156 68.296875 41.707031 68.28125 C 41.492188 68.226562 41.289062 68.136719 41.101562 68.027344 C 41.078125 68.015625 41.0625 68 41.042969 67.980469 C 40.949219 67.890625 40.929688 67.746094 40.980469 67.632812 C 40.917969 67.585938 40.859375 67.535156 40.808594 67.480469 C 40.753906 67.429688 40.703125 67.371094 40.65625 67.3125 C 40.542969 67.367188 40.40625 67.34375 40.3125 67.253906 C 40.292969 67.234375 40.277344 67.210938 40.261719 67.1875 C 40.175781 67.042969 40.105469 66.878906 40.050781 66.71875 C 37.386719 69.03125 34.914062 71.570312 32.683594 74.304688 C 32.339844 74.730469 32.375 75.339844 32.757812 75.722656 L 32.941406 75.90625 L 31.382812 77.46875 L 31.378906 77.460938 C 31.308594 77.390625 31.195312 77.390625 31.121094 77.460938 L 30.679688 77.90625 C 30.605469 77.972656 30.605469 78.09375 30.679688 78.160156 L 31.355469 78.839844 C 31.429688 78.910156 31.542969 78.910156 31.617188 78.839844 L 32.054688 78.394531 C 32.128906 78.328125 32.128906 78.210938 32.054688 78.140625 L 32.027344 78.109375 L 33.585938 76.554688 L 34.273438 77.242188 L 34.257812 77.257812 C 33.738281 77.78125 33.347656 78.414062 33.113281 79.113281 L 32.9375 79.644531 L 32.914062 79.640625 C 32.820312 79.605469 32.71875 79.65625 32.683594 79.753906 L 32.488281 80.351562 C 32.460938 80.441406 32.511719 80.546875 32.605469 80.582031 L 33.515625 80.878906 C 33.613281 80.910156 33.71875 80.855469 33.746094 80.757812 L 33.941406 80.167969 C 33.976562 80.070312 33.921875 79.964844 33.824219 79.933594 L 33.804688 79.929688 L 33.910156 79.605469 C 34.121094 78.964844 34.46875 78.382812 34.929688 77.886719 C 35.3125 78.238281 35.898438 78.261719 36.304688 77.925781 C 39.523438 75.308594 42.46875 72.359375 45.089844 69.144531 C 45.339844 68.839844 45.390625 68.433594 45.25 68.082031 L 49.554688 64.847656 L 49.824219 65.113281 C 49.964844 65.253906 50.199219 65.253906 50.339844 65.113281 L 51.632812 63.824219 C 51.773438 63.679688 51.773438 63.449219 51.632812 63.304688 L 51.417969 63.09375 C 51.449219 63.085938 51.480469 63.070312 51.503906 63.046875 L 54.339844 60.207031 C 54.414062 60.136719 54.414062 60.023438 54.339844 59.949219 L 54.179688 59.789062 L 71.117188 42.855469 C 71.972656 42 73.359375 42 74.210938 42.855469 L 74.597656 43.238281 C 74.527344 43.3125 74.527344 43.429688 74.597656 43.496094 L 76.019531 44.917969 C 76.089844 44.988281 76.203125 44.988281 76.277344 44.917969 L 76.855469 44.335938 C 76.929688 44.269531 77.042969 44.269531 77.117188 44.335938 L 78.34375 45.5625 C 78.410156 45.636719 78.53125 45.636719 78.597656 45.5625 L 80.375 43.789062 C 80.445312 43.71875 80.445312 43.601562 80.375 43.527344 " fill-opacity="1" fill-rule="nonzero"/></g><g clip-path="url(#4cfc8a1d1a)"><path fill="#000000" d="M 87.773438 53.269531 C 87.171875 52.902344 86.613281 52.464844 86.121094 51.972656 C 85.769531 51.621094 85.441406 51.234375 85.152344 50.820312 L 84.464844 49.839844 C 84.382812 49.714844 84.527344 49.570312 84.648438 49.65625 L 85.628906 50.34375 C 86.042969 50.632812 86.433594 50.960938 86.785156 51.3125 C 87.277344 51.804688 87.714844 52.359375 88.082031 52.964844 L 88.550781 53.742188 Z M 89.355469 54.320312 L 87.1875 50.738281 C 86.480469 49.582031 85.566406 48.601562 84.464844 47.828125 L 82.671875 46.570312 C 82.425781 46.402344 81.992188 46.519531 81.660156 46.851562 C 81.328125 47.183594 81.210938 47.613281 81.386719 47.863281 L 82.640625 49.652344 C 83.414062 50.753906 84.390625 51.671875 85.550781 52.371094 L 89.132812 54.546875 C 89.234375 54.609375 89.421875 54.425781 89.355469 54.320312 " fill-opacity="1" fill-rule="nonzero"/></g><g fill="#21282e" fill-opacity="1"><g transform="translate(17.626561, 20.750003)"><g><path d="M 4.09375 0.125 C 3.59375 0.125 3.125 0.0351562 2.6875 -0.140625 C 2.25 -0.328125 1.867188 -0.582031 1.546875 -0.90625 C 1.222656 -1.238281 0.972656 -1.625 0.796875 -2.0625 C 0.617188 -2.5 0.53125 -2.972656 0.53125 -3.484375 C 0.53125 -4.003906 0.617188 -4.484375 0.796875 -4.921875 C 0.972656 -5.367188 1.222656 -5.753906 1.546875 -6.078125 C 1.867188 -6.398438 2.25 -6.65625 2.6875 -6.84375 C 3.125 -7.03125 3.59375 -7.125 4.09375 -7.125 C 4.601562 -7.125 5.070312 -7.03125 5.5 -6.84375 C 5.9375 -6.65625 6.316406 -6.398438 6.640625 -6.078125 C 6.960938 -5.753906 7.210938 -5.367188 7.390625 -4.921875 C 7.566406 -4.484375 7.65625 -4.003906 7.65625 -3.484375 C 7.65625 -2.972656 7.566406 -2.5 7.390625 -2.0625 C 7.210938 -1.625 6.960938 -1.238281 6.640625 -0.90625 C 6.316406 -0.582031 5.9375 -0.328125 5.5 -0.140625 C 5.070312 0.0351562 4.601562 0.125 4.09375 0.125 Z M 4.09375 -0.609375 C 4.632812 -0.609375 5.109375 -0.726562 5.515625 -0.96875 C 5.929688 -1.21875 6.253906 -1.5625 6.484375 -2 C 6.722656 -2.4375 6.84375 -2.929688 6.84375 -3.484375 C 6.84375 -4.046875 6.722656 -4.546875 6.484375 -4.984375 C 6.242188 -5.421875 5.914062 -5.765625 5.5 -6.015625 C 5.09375 -6.265625 4.625 -6.390625 4.09375 -6.390625 C 3.570312 -6.390625 3.101562 -6.265625 2.6875 -6.015625 C 2.269531 -5.765625 1.941406 -5.421875 1.703125 -4.984375 C 1.460938 -4.546875 1.34375 -4.046875 1.34375 -3.484375 C 1.34375 -2.929688 1.460938 -2.4375 1.703125 -2 C 1.941406 -1.5625 2.269531 -1.21875 2.6875 -0.96875 C 3.101562 -0.726562 3.570312 -0.609375 4.09375 -0.609375 Z M 4.09375 -0.609375 "/></g></g></g><g fill="#21282e" fill-opacity="1"><g transform="translate(26.733277, 20.750003)"><g><path d="M 6 -6.9375 L 4.078125 -4.0625 L 3.703125 -3.5 L 6 -0.078125 L 6 0 L 5.109375 0 L 3.59375 -2.28125 L 3.171875 -2.921875 L 2.765625 -2.296875 L 1.234375 0 L 0.3125 0 L 0.3125 -0.0625 L 2.65625 -3.5 L 2.203125 -4.1875 L 0.34375 -6.9375 L 0.34375 -7 L 1.265625 -7 L 3.1875 -4.109375 L 3.59375 -4.734375 L 5.09375 -7 L 6 -7 Z M 6 -6.9375 "/></g></g></g><g fill="#21282e" fill-opacity="1"><g transform="translate(33.860771, 20.750003)"><g><path d="M 2.453125 0 L 2.453125 -2.828125 L 2.046875 -3.53125 L 0.078125 -7 L 1 -7 L 2.84375 -3.640625 L 3.234375 -4.359375 L 4.6875 -7 L 5.609375 -7 L 3.640625 -3.515625 L 3.234375 -2.8125 L 3.234375 0 Z M 2.453125 0 "/></g></g></g><g fill="#21282e" fill-opacity="1"><g transform="translate(40.428478, 20.750003)"><g/></g></g><g fill="#21282e" fill-opacity="1"><g transform="translate(43.88742, 20.750003)"><g><path d="M 5.296875 0 L 4.46875 -2.203125 L 1.796875 -2.203125 L 1 0 L 0.15625 0 L 2.671875 -7 L 3.59375 -7 L 6.125 0 Z M 2.796875 -5.203125 L 2.046875 -2.90625 L 4.21875 -2.90625 L 3.453125 -5.203125 L 3.15625 -6.171875 L 3.078125 -6.171875 Z M 2.796875 -5.203125 "/></g></g></g><g fill="#21282e" fill-opacity="1"><g transform="translate(51.024905, 20.750003)"><g><path d="M 4.03125 0.125 C 3.46875 0.125 2.96875 0.0234375 2.53125 -0.171875 C 2.09375 -0.367188 1.71875 -0.632812 1.40625 -0.96875 C 1.101562 -1.3125 0.875 -1.695312 0.71875 -2.125 C 0.5625 -2.5625 0.484375 -3.015625 0.484375 -3.484375 C 0.484375 -3.941406 0.5625 -4.390625 0.71875 -4.828125 C 0.875 -5.265625 1.097656 -5.65625 1.390625 -6 C 1.691406 -6.34375 2.0625 -6.613281 2.5 -6.8125 C 2.945312 -7.019531 3.457031 -7.125 4.03125 -7.125 C 4.539062 -7.125 5.003906 -7.035156 5.421875 -6.859375 C 5.847656 -6.679688 6.226562 -6.398438 6.5625 -6.015625 L 6.0625 -5.546875 C 5.800781 -5.816406 5.503906 -6.023438 5.171875 -6.171875 C 4.847656 -6.328125 4.476562 -6.40625 4.0625 -6.40625 C 3.488281 -6.40625 2.992188 -6.269531 2.578125 -6 C 2.160156 -5.726562 1.84375 -5.367188 1.625 -4.921875 C 1.40625 -4.484375 1.296875 -4.003906 1.296875 -3.484375 C 1.296875 -3.109375 1.359375 -2.75 1.484375 -2.40625 C 1.609375 -2.0625 1.785156 -1.753906 2.015625 -1.484375 C 2.253906 -1.210938 2.539062 -1 2.875 -0.84375 C 3.21875 -0.6875 3.601562 -0.609375 4.03125 -0.609375 C 4.425781 -0.609375 4.816406 -0.695312 5.203125 -0.875 C 5.597656 -1.050781 5.929688 -1.3125 6.203125 -1.65625 L 6.78125 -1.203125 C 6.050781 -0.316406 5.132812 0.125 4.03125 0.125 Z M 4.03125 0.125 "/></g></g></g><g fill="#21282e" fill-opacity="1"><g transform="translate(59.112021, 20.750003)"><g><path d="M 4.5625 -6.296875 L 1.625 -6.296875 L 1.625 -3.90625 L 4.53125 -3.90625 L 4.53125 -3.203125 L 1.625 -3.203125 L 1.625 -0.703125 L 4.5625 -0.703125 L 4.5625 0 L 0.828125 0 L 0.828125 -7.015625 L 4.5625 -7.015625 Z M 4.5625 -6.296875 "/></g></g></g><g fill="#21282e" fill-opacity="1"><g transform="translate(65.239909, 20.750003)"><g><path d="M 4.40625 -7.015625 L 4.40625 -6.265625 L 2.671875 -6.265625 L 2.671875 0 L 1.859375 0 L 1.859375 -6.265625 L 0.109375 -6.265625 L 0.109375 -7.015625 Z M 4.40625 -7.015625 "/></g></g></g><g fill="#21282e" fill-opacity="1"><g transform="translate(70.648077, 20.750003)"><g><path d="M 1.8125 -0.734375 L 4.53125 -0.734375 L 4.53125 0 L 1.015625 0 L 1.015625 -7 L 1.8125 -7 Z M 1.8125 -0.734375 "/></g></g></g><g fill="#21282e" fill-opacity="1"><g transform="translate(76.226179, 20.750003)"><g><path d="M 2.453125 0 L 2.453125 -2.828125 L 2.046875 -3.53125 L 0.078125 -7 L 1 -7 L 2.84375 -3.640625 L 3.234375 -4.359375 L 4.6875 -7 L 5.609375 -7 L 3.640625 -3.515625 L 3.234375 -2.8125 L 3.234375 0 Z M 2.453125 0 "/></g></g></g><g fill="#21282e" fill-opacity="1"><g transform="translate(82.793886, 20.750003)"><g><path d="M 4.5625 -6.296875 L 1.625 -6.296875 L 1.625 -3.90625 L 4.53125 -3.90625 L 4.53125 -3.203125 L 1.625 -3.203125 L 1.625 -0.703125 L 4.5625 -0.703125 L 4.5625 0 L 0.828125 0 L 0.828125 -7.015625 L 4.5625 -7.015625 Z M 4.5625 -6.296875 "/></g></g></g><g fill="#21282e" fill-opacity="1"><g transform="translate(88.921773, 20.750003)"><g><path d="M 1.03125 0 L 1.03125 -7.03125 L 2.015625 -7.03125 L 4.765625 -2.265625 L 5.453125 -0.953125 L 5.46875 -0.953125 L 5.375 -2.609375 L 5.375 -7.03125 L 6.1875 -7.03125 L 6.1875 0 L 5.203125 0 L 2.46875 -4.734375 L 1.765625 -6.0625 L 1.734375 -6.0625 L 1.84375 -4.4375 L 1.84375 0 Z M 1.03125 0 "/></g></g></g><g fill="#21282e" fill-opacity="1"><g transform="translate(97.038872, 20.750003)"><g><path d="M 4.5625 -6.296875 L 1.625 -6.296875 L 1.625 -3.90625 L 4.53125 -3.90625 L 4.53125 -3.203125 L 1.625 -3.203125 L 1.625 -0.703125 L 4.5625 -0.703125 L 4.5625 0 L 0.828125 0 L 0.828125 -7.015625 L 4.5625 -7.015625 Z M 4.5625 -6.296875 "/></g></g></g></svg>