<svg xmlns="http://www.w3.org/2000/svg" xmlns:xlink="http://www.w3.org/1999/xlink" width="160" zoomAndPan="magnify" viewBox="0 0 120 119.999999" height="160" preserveAspectRatio="xMidYMid meet" version="1.0"><defs><g/><clipPath id="8997856b9d"><path d="M 5 3 L 22 3 L 22 10 L 5 10 Z M 5 3 " clip-rule="nonzero"/></clipPath><clipPath id="b98eb18652"><path d="M 19.808594 0.914062 L 22.929688 9.4375 L 7.273438 15.175781 L 4.148438 6.652344 Z M 19.808594 0.914062 " clip-rule="nonzero"/></clipPath><clipPath id="5f53918448"><path d="M 19.808594 0.914062 L 22.929688 9.4375 L 7.273438 15.175781 L 4.148438 6.652344 Z M 19.808594 0.914062 " clip-rule="nonzero"/></clipPath><clipPath id="e2b93f9959"><path d="M 0.761719 9 L 25.238281 9 L 25.238281 19 L 0.761719 19 Z M 0.761719 9 " clip-rule="nonzero"/></clipPath><clipPath id="cbb89efae1"><rect x="0" width="26" y="0" height="10"/></clipPath><clipPath id="07d1779115"><path d="M 4 12 L 23 12 L 23 26.441406 L 4 26.441406 Z M 4 12 " clip-rule="nonzero"/></clipPath><clipPath id="fb03b45c18"><path d="M 19.808594 12.074219 L 22.929688 20.597656 L 7.273438 26.335938 L 4.148438 17.8125 Z M 19.808594 12.074219 " clip-rule="nonzero"/></clipPath><clipPath id="f09d2e07c7"><path d="M 1 5 L 18 5 L 18 12 L 1 12 Z M 1 5 " clip-rule="nonzero"/></clipPath><clipPath id="97099a5533"><path d="M 15.808594 0.0742188 L 18.929688 8.597656 L 3.273438 14.335938 L 0.148438 5.8125 Z M 15.808594 0.0742188 " clip-rule="nonzero"/></clipPath><clipPath id="23dc18f268"><path d="M 3.273438 14.347656 L 0.148438 5.824219 L 15.808594 0.0859375 L 18.933594 8.609375 Z M 3.273438 14.347656 " clip-rule="nonzero"/></clipPath><clipPath id="ff73629033"><rect x="0" width="19" y="0" height="15"/></clipPath><clipPath id="22d6d3e14f"><rect x="0" width="26" y="0" height="27"/></clipPath><clipPath id="294b218982"><path d="M 85 52 L 90.402344 52 L 90.402344 53 L 85 53 Z M 85 52 " clip-rule="nonzero"/></clipPath><clipPath id="6e161253de"><path d="M 54 40.085938 L 61 40.085938 L 61 44 L 54 44 Z M 54 40.085938 " clip-rule="nonzero"/></clipPath><clipPath id="ccff1f8957"><path d="M 58 40.085938 L 64 40.085938 L 64 53 L 58 53 Z M 58 40.085938 " clip-rule="nonzero"/></clipPath><clipPath id="a0a507505f"><path d="M 29.652344 59 L 73 59 L 73 79.835938 L 29.652344 79.835938 Z M 29.652344 59 " clip-rule="nonzero"/></clipPath></defs><rect x="-12" width="144" fill="#ffffff" y="-12" height="143.999998" fill-opacity="1"/><rect x="-12" width="144" fill="#ffffff" y="-12" height="143.999998" fill-opacity="1"/><g transform="matrix(1, 0, 0, 1, 47, 89)"><g clip-path="url(#22d6d3e14f)"><g clip-path="url(#8997856b9d)"><g clip-path="url(#b98eb18652)"><g clip-path="url(#5f53918448)"><path fill="#212121" d="M 21.421875 5.347656 C 21.328125 5.09375 21.230469 4.933594 21.144531 4.917969 C 20.773438 4.863281 20.609375 6.242188 20.539062 7.128906 C 19.863281 6.332031 18.867188 5.441406 17.488281 4.792969 C 16.117188 4.148438 14.511719 3.824219 12.867188 3.960938 C 11.109375 4.105469 9.5 4.761719 8.234375 5.691406 C 6.539062 6.9375 5.65625 8.492188 5.210938 9.53125 C 5.660156 8.484375 6.605469 6.972656 8.332031 5.832031 C 9.621094 4.980469 11.210938 4.4375 12.890625 4.394531 C 14.460938 4.359375 15.945312 4.753906 17.179688 5.417969 C 18.449219 6.097656 19.332031 6.980469 19.929688 7.734375 C 19.046875 7.5625 17.449219 7.300781 17.402344 7.65625 C 17.339844 8.144531 21.203125 10.082031 21.808594 9.636719 C 22.226562 9.324219 21.835938 6.453125 21.421875 5.347656 Z M 21.421875 5.347656 " fill-opacity="1" fill-rule="nonzero"/></g></g></g><g clip-path="url(#e2b93f9959)"><g transform="matrix(1, 0, 0, 1, 0, 9)"><g clip-path="url(#cbb89efae1)"><g fill="#000000" fill-opacity="1"><g transform="translate(0.81023, 7.19389)"><g><path d="M 2.28125 0.09375 C 1.875 0.09375 1.484375 0.0390625 1.109375 -0.0625 C 0.734375 -0.175781 0.429688 -0.320312 0.203125 -0.5 L 0.609375 -1.390625 C 0.828125 -1.234375 1.082031 -1.101562 1.375 -1 C 1.675781 -0.90625 1.976562 -0.859375 2.28125 -0.859375 C 2.613281 -0.859375 2.859375 -0.90625 3.015625 -1 C 3.179688 -1.101562 3.265625 -1.238281 3.265625 -1.40625 C 3.265625 -1.53125 3.21875 -1.628906 3.125 -1.703125 C 3.03125 -1.785156 2.910156 -1.847656 2.765625 -1.890625 C 2.617188 -1.941406 2.414062 -2 2.15625 -2.0625 C 1.769531 -2.15625 1.453125 -2.242188 1.203125 -2.328125 C 0.960938 -2.421875 0.753906 -2.570312 0.578125 -2.78125 C 0.398438 -2.988281 0.3125 -3.257812 0.3125 -3.59375 C 0.3125 -3.894531 0.390625 -4.164062 0.546875 -4.40625 C 0.703125 -4.644531 0.941406 -4.832031 1.265625 -4.96875 C 1.585938 -5.113281 1.984375 -5.1875 2.453125 -5.1875 C 2.773438 -5.1875 3.09375 -5.144531 3.40625 -5.0625 C 3.71875 -4.988281 3.988281 -4.878906 4.21875 -4.734375 L 3.859375 -3.84375 C 3.390625 -4.101562 2.921875 -4.234375 2.453125 -4.234375 C 2.117188 -4.234375 1.875 -4.179688 1.71875 -4.078125 C 1.5625 -3.972656 1.484375 -3.832031 1.484375 -3.65625 C 1.484375 -3.476562 1.570312 -3.347656 1.75 -3.265625 C 1.9375 -3.179688 2.210938 -3.097656 2.578125 -3.015625 C 2.972656 -2.921875 3.289062 -2.828125 3.53125 -2.734375 C 3.78125 -2.640625 3.992188 -2.492188 4.171875 -2.296875 C 4.347656 -2.097656 4.4375 -1.832031 4.4375 -1.5 C 4.4375 -1.207031 4.351562 -0.9375 4.1875 -0.6875 C 4.03125 -0.445312 3.789062 -0.253906 3.46875 -0.109375 C 3.144531 0.0234375 2.75 0.09375 2.28125 0.09375 Z M 2.28125 0.09375 "/></g></g></g><g fill="#000000" fill-opacity="1"><g transform="translate(5.073316, 7.19389)"><g><path d="M 0.53125 -3.921875 L 1.65625 -3.921875 L 1.65625 0 L 0.53125 0 Z M 1.09375 -4.46875 C 0.882812 -4.46875 0.710938 -4.523438 0.578125 -4.640625 C 0.453125 -4.765625 0.390625 -4.914062 0.390625 -5.09375 C 0.390625 -5.269531 0.453125 -5.421875 0.578125 -5.546875 C 0.710938 -5.671875 0.882812 -5.734375 1.09375 -5.734375 C 1.300781 -5.734375 1.46875 -5.671875 1.59375 -5.546875 C 1.726562 -5.429688 1.796875 -5.289062 1.796875 -5.125 C 1.796875 -4.925781 1.726562 -4.765625 1.59375 -4.640625 C 1.46875 -4.523438 1.300781 -4.46875 1.09375 -4.46875 Z M 1.09375 -4.46875 "/></g></g></g><g fill="#000000" fill-opacity="1"><g transform="translate(6.880514, 7.19389)"><g><path d="M 5.546875 -3.96875 C 6.035156 -3.96875 6.421875 -3.820312 6.703125 -3.53125 C 6.992188 -3.25 7.140625 -2.820312 7.140625 -2.25 L 7.140625 0 L 6 0 L 6 -2.0625 C 6 -2.375 5.9375 -2.609375 5.8125 -2.765625 C 5.6875 -2.921875 5.503906 -3 5.265625 -3 C 4.992188 -3 4.78125 -2.910156 4.625 -2.734375 C 4.46875 -2.554688 4.390625 -2.300781 4.390625 -1.96875 L 4.390625 0 L 3.265625 0 L 3.265625 -2.0625 C 3.265625 -2.6875 3.015625 -3 2.515625 -3 C 2.253906 -3 2.046875 -2.910156 1.890625 -2.734375 C 1.734375 -2.554688 1.65625 -2.300781 1.65625 -1.96875 L 1.65625 0 L 0.53125 0 L 0.53125 -3.921875 L 1.609375 -3.921875 L 1.609375 -3.46875 C 1.753906 -3.632812 1.929688 -3.757812 2.140625 -3.84375 C 2.359375 -3.925781 2.59375 -3.96875 2.84375 -3.96875 C 3.113281 -3.96875 3.359375 -3.910156 3.578125 -3.796875 C 3.804688 -3.691406 3.988281 -3.535156 4.125 -3.328125 C 4.289062 -3.535156 4.492188 -3.691406 4.734375 -3.796875 C 4.984375 -3.910156 5.253906 -3.96875 5.546875 -3.96875 Z M 5.546875 -3.96875 "/></g></g></g><g fill="#000000" fill-opacity="1"><g transform="translate(14.138764, 7.19389)"><g><path d="M 2.84375 -3.96875 C 3.207031 -3.96875 3.535156 -3.882812 3.828125 -3.71875 C 4.128906 -3.550781 4.363281 -3.316406 4.53125 -3.015625 C 4.707031 -2.710938 4.796875 -2.359375 4.796875 -1.953125 C 4.796875 -1.554688 4.707031 -1.203125 4.53125 -0.890625 C 4.363281 -0.585938 4.128906 -0.351562 3.828125 -0.1875 C 3.535156 -0.0195312 3.207031 0.0625 2.84375 0.0625 C 2.34375 0.0625 1.945312 -0.0976562 1.65625 -0.421875 L 1.65625 1.40625 L 0.53125 1.40625 L 0.53125 -3.921875 L 1.609375 -3.921875 L 1.609375 -3.46875 C 1.890625 -3.800781 2.300781 -3.96875 2.84375 -3.96875 Z M 2.640625 -0.875 C 2.929688 -0.875 3.171875 -0.972656 3.359375 -1.171875 C 3.546875 -1.367188 3.640625 -1.628906 3.640625 -1.953125 C 3.640625 -2.285156 3.546875 -2.550781 3.359375 -2.75 C 3.171875 -2.945312 2.929688 -3.046875 2.640625 -3.046875 C 2.347656 -3.046875 2.109375 -2.945312 1.921875 -2.75 C 1.734375 -2.550781 1.640625 -2.285156 1.640625 -1.953125 C 1.640625 -1.628906 1.734375 -1.367188 1.921875 -1.171875 C 2.109375 -0.972656 2.347656 -0.875 2.640625 -0.875 Z M 2.640625 -0.875 "/></g></g></g><g fill="#000000" fill-opacity="1"><g transform="translate(18.7808, 7.19389)"><g><path d="M 0.53125 -5.40625 L 1.65625 -5.40625 L 1.65625 0 L 0.53125 0 Z M 0.53125 -5.40625 "/></g></g></g><g fill="#000000" fill-opacity="1"><g transform="translate(20.587998, 7.19389)"><g><path d="M 4.359375 -1.9375 C 4.359375 -1.925781 4.351562 -1.828125 4.34375 -1.640625 L 1.375 -1.640625 C 1.425781 -1.398438 1.550781 -1.207031 1.75 -1.0625 C 1.945312 -0.925781 2.195312 -0.859375 2.5 -0.859375 C 2.695312 -0.859375 2.875 -0.882812 3.03125 -0.9375 C 3.195312 -1 3.347656 -1.097656 3.484375 -1.234375 L 4.078125 -0.578125 C 3.710938 -0.148438 3.175781 0.0625 2.46875 0.0625 C 2.03125 0.0625 1.640625 -0.0195312 1.296875 -0.1875 C 0.953125 -0.363281 0.6875 -0.601562 0.5 -0.90625 C 0.320312 -1.21875 0.234375 -1.566406 0.234375 -1.953125 C 0.234375 -2.335938 0.320312 -2.679688 0.5 -2.984375 C 0.6875 -3.296875 0.9375 -3.535156 1.25 -3.703125 C 1.570312 -3.878906 1.929688 -3.96875 2.328125 -3.96875 C 2.703125 -3.96875 3.046875 -3.882812 3.359375 -3.71875 C 3.671875 -3.5625 3.914062 -3.328125 4.09375 -3.015625 C 4.269531 -2.710938 4.359375 -2.351562 4.359375 -1.9375 Z M 2.328125 -3.109375 C 2.066406 -3.109375 1.847656 -3.035156 1.671875 -2.890625 C 1.503906 -2.742188 1.398438 -2.546875 1.359375 -2.296875 L 3.296875 -2.296875 C 3.253906 -2.546875 3.144531 -2.742188 2.96875 -2.890625 C 2.789062 -3.035156 2.578125 -3.109375 2.328125 -3.109375 Z M 2.328125 -3.109375 "/></g></g></g></g></g></g><g clip-path="url(#07d1779115)"><g clip-path="url(#fb03b45c18)"><g transform="matrix(1, 0, 0, 1, 4, 12)"><g clip-path="url(#ff73629033)"><g clip-path="url(#f09d2e07c7)"><g clip-path="url(#97099a5533)"><g clip-path="url(#23dc18f268)"><path fill="#212121" d="M 1.65625 9.914062 C 1.753906 10.167969 1.847656 10.328125 1.9375 10.339844 C 2.304688 10.398438 2.472656 9.019531 2.542969 8.132812 C 3.214844 8.929688 4.210938 9.820312 5.589844 10.464844 C 6.960938 11.109375 8.570312 11.433594 10.210938 11.300781 C 11.972656 11.15625 13.578125 10.5 14.847656 9.570312 C 16.539062 8.324219 17.421875 6.769531 17.871094 5.730469 C 17.417969 6.777344 16.472656 8.289062 14.75 9.429688 C 13.460938 10.28125 11.867188 10.824219 10.1875 10.867188 C 8.621094 10.902344 7.136719 10.503906 5.902344 9.84375 C 4.632812 9.164062 3.746094 8.28125 3.152344 7.527344 C 4.03125 7.699219 5.632812 7.960938 5.675781 7.605469 C 5.738281 7.117188 1.875 5.179688 1.269531 5.625 C 0.851562 5.933594 1.242188 8.808594 1.65625 9.914062 Z M 1.65625 9.914062 " fill-opacity="1" fill-rule="nonzero"/></g></g></g></g></g></g></g></g></g><path fill="#000000" d="M 78.492188 60.136719 L 78.746094 60.136719 L 78.746094 64.511719 L 78.492188 64.511719 Z M 78.492188 60.136719 " fill-opacity="1" fill-rule="nonzero"/><path fill="#000000" d="M 78.492188 57.273438 L 78.746094 57.273438 L 78.746094 59.75 L 78.492188 59.75 Z M 78.492188 57.273438 " fill-opacity="1" fill-rule="nonzero"/><path fill="#000000" d="M 78.492188 41.023438 L 78.746094 41.023438 L 78.746094 48.660156 L 78.492188 48.660156 Z M 78.492188 41.023438 " fill-opacity="1" fill-rule="nonzero"/><path fill="#000000" d="M 82.558594 59.832031 L 82.777344 59.703125 L 84.613281 62.875 L 84.394531 63.003906 Z M 82.558594 59.832031 " fill-opacity="1" fill-rule="nonzero"/><path fill="#000000" d="M 81.910156 58.707031 L 82.128906 58.578125 L 80.582031 55.90625 C 80.507812 55.949219 80.4375 55.996094 80.363281 56.035156 Z M 81.910156 58.707031 " fill-opacity="1" fill-rule="nonzero"/><path fill="#000000" d="M 75.203125 46.617188 L 74.984375 46.746094 L 76.65625 49.632812 C 76.726562 49.585938 76.796875 49.542969 76.875 49.503906 Z M 75.203125 46.617188 " fill-opacity="1" fill-rule="nonzero"/><path fill="#000000" d="M 72.617188 42.660156 L 72.839844 42.535156 L 74.597656 45.574219 L 74.378906 45.703125 Z M 72.617188 42.660156 " fill-opacity="1" fill-rule="nonzero"/><path fill="#000000" d="M 85.398438 56.820312 L 85.523438 56.601562 L 88.878906 58.53125 L 88.75 58.75 Z M 85.398438 56.820312 " fill-opacity="1" fill-rule="nonzero"/><path fill="#000000" d="M 82.488281 55.148438 L 82.617188 54.925781 L 84.558594 56.046875 L 84.433594 56.265625 Z M 82.488281 55.148438 " fill-opacity="1" fill-rule="nonzero"/><path fill="#000000" d="M 68.355469 47.007812 L 68.480469 46.789062 L 74.257812 50.113281 L 74.128906 50.332031 Z M 68.355469 47.007812 " fill-opacity="1" fill-rule="nonzero"/><g clip-path="url(#294b218982)"><path fill="#000000" d="M 85.777344 52.640625 L 90.394531 52.640625 L 90.394531 52.894531 L 85.777344 52.894531 Z M 85.777344 52.640625 " fill-opacity="1" fill-rule="nonzero"/></g><path fill="#000000" d="M 82.324219 52.894531 L 84.34375 52.894531 L 84.34375 52.640625 L 82.324219 52.640625 C 82.324219 52.683594 82.328125 52.726562 82.328125 52.769531 C 82.328125 52.8125 82.324219 52.851562 82.324219 52.894531 Z M 82.324219 52.894531 " fill-opacity="1" fill-rule="nonzero"/><path fill="#000000" d="M 70.210938 52.640625 L 71.890625 52.640625 L 71.890625 52.894531 L 70.210938 52.894531 Z M 70.210938 52.640625 " fill-opacity="1" fill-rule="nonzero"/><path fill="#000000" d="M 66.839844 52.640625 L 69.195312 52.640625 L 69.195312 52.894531 L 66.839844 52.894531 Z M 66.839844 52.640625 " fill-opacity="1" fill-rule="nonzero"/><path fill="#000000" d="M 87.027344 47.78125 L 88.753906 46.789062 L 88.878906 47.007812 L 87.152344 48 Z M 87.027344 47.78125 " fill-opacity="1" fill-rule="nonzero"/><path fill="#000000" d="M 73.386719 55.632812 L 73.515625 55.855469 L 75.472656 54.726562 C 75.425781 54.65625 75.382812 54.582031 75.34375 54.507812 Z M 73.386719 55.632812 " fill-opacity="1" fill-rule="nonzero"/><path fill="#000000" d="M 86.066406 48.625 L 85.941406 48.40625 L 81.765625 50.8125 C 81.808594 50.882812 81.855469 50.953125 81.894531 51.027344 Z M 86.066406 48.625 " fill-opacity="1" fill-rule="nonzero"/><path fill="#000000" d="M 82.042969 46.605469 L 84.398438 42.535156 L 84.617188 42.664062 L 82.261719 46.734375 Z M 82.042969 46.605469 " fill-opacity="1" fill-rule="nonzero"/><path fill="#000000" d="M 81.804688 47.519531 L 81.585938 47.390625 L 80.363281 49.503906 C 80.4375 49.542969 80.507812 49.585938 80.582031 49.632812 Z M 81.804688 47.519531 " fill-opacity="1" fill-rule="nonzero"/><path fill="#000000" d="M 74.859375 59.007812 L 75.078125 59.132812 L 76.875 56.035156 C 76.796875 55.996094 76.726562 55.949219 76.65625 55.90625 Z M 74.859375 59.007812 " fill-opacity="1" fill-rule="nonzero"/><path fill="#000000" d="M 72.621094 62.878906 L 74.339844 59.902344 L 74.5625 60.03125 L 72.839844 63.003906 Z M 72.621094 62.878906 " fill-opacity="1" fill-rule="nonzero"/><path fill="#000000" d="M 79.652344 57.113281 L 79.898438 57.046875 L 81.054688 61.347656 L 80.808594 61.414062 Z M 79.652344 57.113281 " fill-opacity="1" fill-rule="nonzero"/><path fill="#000000" d="M 76.183594 44.191406 L 76.425781 44.125 L 77.578125 48.40625 L 77.332031 48.472656 Z M 76.183594 44.191406 " fill-opacity="1" fill-rule="nonzero"/><path fill="#000000" d="M 81.148438 55.472656 L 84.847656 59.164062 L 85.027344 58.984375 L 81.328125 55.292969 C 81.269531 55.355469 81.210938 55.414062 81.148438 55.472656 Z M 81.148438 55.472656 " fill-opacity="1" fill-rule="nonzero"/><path fill="#000000" d="M 76.085938 50.066406 L 72.386719 46.375 L 72.207031 46.554688 L 75.90625 50.246094 C 75.964844 50.183594 76.027344 50.125 76.085938 50.066406 Z M 76.085938 50.066406 " fill-opacity="1" fill-rule="nonzero"/><path fill="#000000" d="M 82.546875 53.953125 L 82.613281 53.707031 L 87.285156 54.957031 L 87.222656 55.199219 Z M 82.546875 53.953125 " fill-opacity="1" fill-rule="nonzero"/><path fill="#000000" d="M 69.953125 50.585938 L 70.019531 50.339844 L 73.246094 51.203125 L 73.179688 51.449219 Z M 69.953125 50.585938 " fill-opacity="1" fill-rule="nonzero"/><path fill="#000000" d="M 74.136719 53.835938 L 74.199219 54.082031 L 75.066406 53.847656 C 75.042969 53.769531 75.023438 53.6875 75.003906 53.601562 Z M 74.136719 53.835938 " fill-opacity="1" fill-rule="nonzero"/><path fill="#000000" d="M 87.285156 50.582031 L 87.21875 50.339844 L 82.167969 51.6875 C 82.191406 51.769531 82.210938 51.851562 82.230469 51.933594 Z M 87.285156 50.582031 " fill-opacity="1" fill-rule="nonzero"/><path fill="#000000" d="M 81.328125 50.246094 L 85.027344 46.554688 L 84.847656 46.375 L 81.148438 50.066406 C 81.210938 50.125 81.269531 50.183594 81.328125 50.246094 Z M 81.328125 50.246094 " fill-opacity="1" fill-rule="nonzero"/><path fill="#000000" d="M 75.90625 55.292969 L 72.207031 58.984375 L 72.386719 59.164062 L 76.085938 55.472656 C 76.027344 55.414062 75.964844 55.355469 75.90625 55.292969 Z M 75.90625 55.292969 " fill-opacity="1" fill-rule="nonzero"/><path fill="#000000" d="M 76.179688 61.347656 L 76.425781 61.414062 L 77.78125 56.371094 C 77.699219 56.355469 77.617188 56.335938 77.535156 56.308594 Z M 76.179688 61.347656 " fill-opacity="1" fill-rule="nonzero"/><path fill="#000000" d="M 81.054688 44.191406 L 80.808594 44.125 L 79.453125 49.164062 C 79.539062 49.183594 79.621094 49.203125 79.699219 49.226562 Z M 81.054688 44.191406 " fill-opacity="1" fill-rule="nonzero"/><path fill="#000000" d="M 57.570312 61.707031 L 56.453125 60.757812 L 49.753906 61.011719 C 49.460938 61.3125 49.171875 61.621094 48.898438 61.933594 L 56.519531 65.441406 C 57.632812 65.957031 58.347656 67.078125 58.339844 68.304688 C 58.332031 69.238281 57.90625 70.101562 57.210938 70.683594 L 58.847656 74.640625 C 59.269531 75.660156 60.257812 76.277344 61.296875 76.277344 C 61.632812 76.277344 61.976562 76.210938 62.304688 76.074219 C 63.65625 75.519531 64.300781 73.976562 63.742188 72.628906 L 59.5 62.371094 C 59.472656 62.304688 59.441406 62.242188 59.410156 62.175781 C 59.269531 62.207031 59.125 62.222656 58.984375 62.222656 C 58.464844 62.222656 57.960938 62.039062 57.570312 61.707031 Z M 57.570312 61.707031 " fill-opacity="1" fill-rule="nonzero"/><path fill="#000000" d="M 49.765625 54.246094 C 49.71875 53.667969 49.902344 53.105469 50.277344 52.660156 C 50.695312 52.175781 51.300781 51.894531 51.941406 51.894531 C 52.457031 51.894531 52.960938 52.078125 53.355469 52.414062 L 55.761719 54.457031 C 56.316406 53.320312 56.382812 52.0625 55.6875 51.175781 C 54.535156 49.714844 51.863281 48.878906 49.117188 50.664062 C 45.355469 53.144531 43.402344 55.144531 40.941406 59.179688 C 39.367188 62.269531 40.996094 63.976562 42.542969 65.148438 C 43.035156 65.523438 43.457031 65.8125 43.851562 65.957031 C 43.882812 65.972656 43.910156 65.988281 43.941406 66.003906 L 48.777344 68.230469 L 42.222656 71.121094 C 40.886719 71.714844 40.28125 73.273438 40.875 74.605469 C 41.3125 75.59375 42.28125 76.179688 43.296875 76.179688 C 43.65625 76.179688 44.019531 76.105469 44.367188 75.953125 L 56.277344 70.695312 C 57.226562 70.273438 57.84375 69.339844 57.851562 68.300781 C 57.859375 67.265625 57.257812 66.316406 56.316406 65.882812 L 48.109375 62.105469 C 49.511719 60.414062 51.226562 58.894531 52.734375 57.601562 L 50.527344 55.726562 C 50.082031 55.351562 49.8125 54.824219 49.765625 54.246094 Z M 49.765625 54.246094 " fill-opacity="1" fill-rule="nonzero"/><path fill="#000000" d="M 57.34375 49.734375 C 57.695312 49.796875 58.039062 49.820312 58.378906 49.804688 C 57.855469 48.699219 57.34375 46.769531 58.242188 44.195312 L 54.125 42.578125 C 53.824219 43.066406 53.609375 43.617188 53.5 44.214844 C 53.03125 46.796875 54.753906 49.269531 57.34375 49.734375 Z M 57.34375 49.734375 " fill-opacity="1" fill-rule="nonzero"/><g clip-path="url(#6e161253de)"><path fill="#000000" d="M 60.148438 40.722656 C 59.800781 40.566406 59.425781 40.449219 59.035156 40.378906 C 57.433594 40.089844 55.875 40.640625 54.804688 41.710938 L 58.640625 43.21875 C 59 42.4375 59.492188 41.601562 60.148438 40.722656 Z M 60.148438 40.722656 " fill-opacity="1" fill-rule="nonzero"/></g><g clip-path="url(#ccff1f8957)"><path fill="#000000" d="M 59.402344 50.535156 L 62.761719 52.351562 L 63.191406 47.246094 L 61.1875 46.546875 L 61.117188 43.863281 L 63.414062 44.636719 L 63.558594 42.929688 C 63.585938 42.628906 63.453125 42.335938 63.207031 42.15625 L 60.941406 40.488281 C 55.90625 46.769531 59.402344 50.535156 59.402344 50.535156 Z M 59.402344 50.535156 " fill-opacity="1" fill-rule="nonzero"/></g><g clip-path="url(#a0a507505f)"><path fill="#000000" d="M 68.207031 59.792969 L 67.816406 59.898438 L 67.589844 59.628906 C 67.417969 59.777344 67.25 59.933594 67.085938 60.097656 L 66.285156 60.316406 L 65.960938 60.664062 L 66.3125 60.984375 C 64.648438 63.183594 63.917969 66.277344 64.464844 69.210938 C 65.113281 72.675781 67.363281 75.234375 70.808594 76.410156 C 72.203125 76.886719 72.183594 77.191406 72.175781 77.222656 C 72.054688 77.785156 69.042969 78.613281 60.945312 79.105469 C 54.945312 79.46875 48.023438 79.503906 44.484375 79.1875 C 42.542969 79.015625 42.195312 78.765625 42.136719 78.699219 C 42.167969 78.640625 42.25 78.582031 42.371094 78.515625 C 43.210938 78.523438 44.09375 78.53125 44.996094 78.542969 C 54.0625 78.648438 56.039062 78.539062 56.136719 77.941406 C 56.1875 77.632812 55.800781 77.445312 55.164062 77.242188 C 52.132812 76.277344 44.5 77.136719 42.335938 78.09375 C 40.890625 78.082031 39.582031 78.082031 38.550781 78.105469 C 35.453125 78.179688 34.59375 77.519531 33.683594 76.820312 C 32.867188 76.195312 32.023438 75.546875 29.6875 75.347656 L 29.652344 75.769531 C 31.863281 75.957031 32.660156 76.566406 33.425781 77.15625 C 34.355469 77.867188 35.316406 78.605469 38.558594 78.527344 C 39.449219 78.503906 40.546875 78.503906 41.757812 78.511719 C 41.683594 78.648438 41.707031 78.769531 41.730469 78.839844 C 41.832031 79.109375 42.234375 79.410156 44.449219 79.609375 C 46.105469 79.753906 48.433594 79.828125 51.054688 79.828125 C 54.152344 79.828125 57.660156 79.726562 60.972656 79.527344 C 68.464844 79.074219 72.371094 78.328125 72.589844 77.3125 C 72.722656 76.695312 71.714844 76.273438 70.945312 76.011719 C 67.652344 74.886719 65.5 72.441406 64.882812 69.132812 C 64.359375 66.328125 65.046875 63.371094 66.625 61.269531 L 66.925781 61.542969 L 67.742188 60.65625 L 67.863281 60.761719 C 68.066406 60.933594 68.367188 60.90625 68.539062 60.707031 L 69.074219 60.078125 C 68.992188 60.058594 68.90625 60.035156 68.824219 60.007812 Z M 55.035156 77.644531 C 55.359375 77.75 55.535156 77.828125 55.628906 77.878906 C 54.667969 78.230469 49.113281 78.167969 45 78.121094 C 44.527344 78.113281 44.058594 78.109375 43.597656 78.105469 C 46.355469 77.410156 52.257812 76.757812 55.035156 77.644531 Z M 55.035156 77.644531 " fill-opacity="1" fill-rule="nonzero"/></g><path fill="#000000" d="M 75.125 52.632812 L 78.328125 53.125 L 78.421875 52.496094 L 75.222656 52.007812 C 75.144531 51.996094 75.066406 51.988281 74.992188 51.988281 C 74.441406 51.972656 73.914062 52.203125 73.550781 52.628906 L 71.332031 55.226562 L 71.082031 55.019531 C 70.882812 54.847656 70.582031 54.871094 70.410156 55.074219 L 69.832031 55.75 L 70.269531 55.902344 C 70.890625 56.121094 71.347656 56.589844 71.570312 57.15625 L 72.113281 56.519531 C 72.285156 56.320312 72.261719 56.019531 72.058594 55.847656 L 71.8125 55.636719 L 74.035156 53.039062 C 74.257812 52.777344 74.578125 52.628906 74.914062 52.621094 C 74.984375 52.621094 75.054688 52.621094 75.125 52.632812 Z M 75.125 52.632812 " fill-opacity="1" fill-rule="nonzero"/><path fill="#000000" d="M 70.109375 56.359375 L 68.851562 55.917969 C 68.523438 55.804688 68.171875 55.792969 67.839844 55.882812 L 59.398438 58.183594 L 53.039062 52.785156 C 52.324219 52.179688 51.257812 52.265625 50.648438 52.976562 C 50.042969 53.6875 50.128906 54.753906 50.84375 55.359375 L 57.882812 61.335938 C 58.195312 61.597656 58.585938 61.738281 58.984375 61.738281 C 59.132812 61.738281 59.28125 61.71875 59.429688 61.679688 L 68.222656 59.28125 L 68.984375 59.550781 C 69.867188 59.859375 70.835938 59.398438 71.144531 58.515625 C 71.457031 57.636719 70.992188 56.671875 70.109375 56.359375 Z M 70.109375 56.359375 " fill-opacity="1" fill-rule="nonzero"/><g fill="#21282e" fill-opacity="1"><g transform="translate(34.935154, 20.750011)"><g><path d="M 2.3125 0.015625 L 0.40625 -7.015625 L 1.234375 -7.015625 L 2.5 -2.15625 L 2.8125 -0.65625 L 2.84375 -0.65625 L 3.1875 -2.078125 L 4.265625 -6.015625 L 5.203125 -6.015625 L 6.296875 -2.0625 L 6.625 -0.65625 L 6.65625 -0.65625 L 7 -2.265625 L 8.234375 -7.015625 L 9.0625 -7.015625 L 7.15625 0.015625 L 6.15625 0.015625 L 5.109375 -3.640625 L 4.75 -5.140625 L 4.71875 -5.140625 L 4.375 -3.640625 L 3.3125 0.015625 Z M 2.3125 0.015625 "/></g></g></g><g fill="#21282e" fill-opacity="1"><g transform="translate(45.261386, 20.750011)"><g><path d="M 4.5625 -6.296875 L 1.625 -6.296875 L 1.625 -3.90625 L 4.53125 -3.90625 L 4.53125 -3.203125 L 1.625 -3.203125 L 1.625 -0.703125 L 4.5625 -0.703125 L 4.5625 0 L 0.828125 0 L 0.828125 -7.015625 L 4.5625 -7.015625 Z M 4.5625 -6.296875 "/></g></g></g><g fill="#21282e" fill-opacity="1"><g transform="translate(51.389274, 20.750011)"><g><path d="M 1.8125 -0.734375 L 4.53125 -0.734375 L 4.53125 0 L 1.015625 0 L 1.015625 -7 L 1.8125 -7 Z M 1.8125 -0.734375 "/></g></g></g><g fill="#21282e" fill-opacity="1"><g transform="translate(56.967376, 20.750011)"><g><path d="M 3.234375 -7.046875 C 3.804688 -7.046875 4.300781 -6.945312 4.71875 -6.75 C 5.144531 -6.550781 5.492188 -6.285156 5.765625 -5.953125 C 6.046875 -5.628906 6.253906 -5.257812 6.390625 -4.84375 C 6.523438 -4.4375 6.59375 -4.015625 6.59375 -3.578125 C 6.59375 -3.128906 6.523438 -2.691406 6.390625 -2.265625 C 6.265625 -1.835938 6.066406 -1.453125 5.796875 -1.109375 C 5.523438 -0.765625 5.175781 -0.492188 4.75 -0.296875 C 4.332031 -0.0976562 3.828125 0 3.234375 0 L 1.03125 0 L 1.03125 -7.046875 Z M 3.234375 -0.734375 C 3.679688 -0.734375 4.066406 -0.8125 4.390625 -0.96875 C 4.722656 -1.125 4.992188 -1.332031 5.203125 -1.59375 C 5.410156 -1.863281 5.5625 -2.164062 5.65625 -2.5 C 5.757812 -2.832031 5.8125 -3.175781 5.8125 -3.53125 C 5.8125 -3.875 5.757812 -4.210938 5.65625 -4.546875 C 5.550781 -4.878906 5.394531 -5.175781 5.1875 -5.4375 C 4.976562 -5.695312 4.710938 -5.90625 4.390625 -6.0625 C 4.066406 -6.21875 3.6875 -6.296875 3.25 -6.296875 L 1.828125 -6.296875 L 1.828125 -0.734375 Z M 3.234375 -0.734375 "/></g></g></g><g fill="#21282e" fill-opacity="1"><g transform="translate(65.014506, 20.750011)"><g><path d="M 1 0 L 1 -7 L 1.796875 -7 L 1.796875 0 Z M 1 0 "/></g></g></g><g fill="#21282e" fill-opacity="1"><g transform="translate(68.643381, 20.750011)"><g><path d="M 1.03125 0 L 1.03125 -7.03125 L 2.015625 -7.03125 L 4.765625 -2.265625 L 5.453125 -0.953125 L 5.46875 -0.953125 L 5.375 -2.609375 L 5.375 -7.03125 L 6.1875 -7.03125 L 6.1875 0 L 5.203125 0 L 2.46875 -4.734375 L 1.765625 -6.0625 L 1.734375 -6.0625 L 1.84375 -4.4375 L 1.84375 0 Z M 1.03125 0 "/></g></g></g><g fill="#21282e" fill-opacity="1"><g transform="translate(76.760481, 20.750011)"><g><path d="M 3.71875 -3.484375 L 7.546875 -3.484375 L 7.515625 -3.15625 C 7.472656 -2.488281 7.300781 -1.910156 7 -1.421875 C 6.707031 -0.941406 6.316406 -0.566406 5.828125 -0.296875 C 5.335938 -0.0351562 4.773438 0.09375 4.140625 0.09375 C 3.578125 0.09375 3.078125 -0.00390625 2.640625 -0.203125 C 2.203125 -0.410156 1.832031 -0.679688 1.53125 -1.015625 C 1.226562 -1.359375 1 -1.742188 0.84375 -2.171875 C 0.6875 -2.597656 0.609375 -3.035156 0.609375 -3.484375 C 0.609375 -3.941406 0.6875 -4.382812 0.84375 -4.8125 C 1 -5.238281 1.226562 -5.625 1.53125 -5.96875 C 1.832031 -6.320312 2.203125 -6.597656 2.640625 -6.796875 C 3.078125 -7.003906 3.578125 -7.109375 4.140625 -7.109375 C 4.679688 -7.109375 5.1875 -7 5.65625 -6.78125 C 6.132812 -6.5625 6.550781 -6.253906 6.90625 -5.859375 L 6.328125 -5.390625 C 6.035156 -5.722656 5.703125 -5.96875 5.328125 -6.125 C 4.953125 -6.289062 4.554688 -6.375 4.140625 -6.375 C 3.710938 -6.375 3.328125 -6.289062 2.984375 -6.125 C 2.648438 -5.96875 2.363281 -5.75 2.125 -5.46875 C 1.894531 -5.195312 1.71875 -4.890625 1.59375 -4.546875 C 1.476562 -4.203125 1.421875 -3.847656 1.421875 -3.484375 C 1.421875 -3.140625 1.476562 -2.796875 1.59375 -2.453125 C 1.71875 -2.117188 1.894531 -1.8125 2.125 -1.53125 C 2.363281 -1.257812 2.648438 -1.039062 2.984375 -0.875 C 3.328125 -0.71875 3.710938 -0.640625 4.140625 -0.640625 C 4.523438 -0.640625 4.898438 -0.710938 5.265625 -0.859375 C 5.628906 -1.015625 5.941406 -1.25 6.203125 -1.5625 C 6.460938 -1.882812 6.625 -2.285156 6.6875 -2.765625 L 3.71875 -2.765625 Z M 3.71875 -3.484375 "/></g></g></g></svg>